%FSLAX45Y45*%
G04 Gerber Fmt 4.5, Leading zero omitted, Abs format (unit mm)*
G04 Created by KiCad (PCBNEW (5.1.12)-1) date 2021-12-20 15:12:07*
%MOMM*%
%LPD*%
G01*
G04 APERTURE LIST*
%TA.AperFunction,Profile*%
%ADD10C,0.100000*%
%TD*%
%ADD11C,0.200000*%
%ADD12C,0.300000*%
G04 APERTURE END LIST*
D10*
X14075000Y-7125000D02*
X14075000Y-9900000D01*
X17050000Y-6925000D02*
X14275000Y-6925000D01*
X17250000Y-9900000D02*
X17250000Y-7125000D01*
X14275000Y-10100000D02*
X17050000Y-10100000D01*
X14275000Y-10100000D02*
G75*
G02*
X14075000Y-9900000I0J200000D01*
G01*
X17250000Y-9900000D02*
G75*
G02*
X17050000Y-10100000I-200000J0D01*
G01*
X17050000Y-6925000D02*
G75*
G02*
X17250000Y-7125000I0J-200000D01*
G01*
X14075000Y-7125000D02*
G75*
G02*
X14275000Y-6925000I200000J0D01*
G01*
D11*
X14207500Y-8357500D02*
X14242500Y-8392500D01*
X14242500Y-8357500D02*
X14207500Y-8392500D01*
X14732500Y-8507500D02*
X14767500Y-8542500D01*
X14767500Y-8507500D02*
X14732500Y-8542500D01*
X14807500Y-8307500D02*
X14842500Y-8342500D01*
X14842500Y-8307500D02*
X14807500Y-8342500D01*
X14832500Y-7607500D02*
X14867500Y-7642500D01*
X14867500Y-7607500D02*
X14832500Y-7642500D01*
X14932500Y-8207500D02*
X14967500Y-8242500D01*
X14967500Y-8207500D02*
X14932500Y-8242500D01*
X15032500Y-7707500D02*
X15067500Y-7742500D01*
X15067500Y-7707500D02*
X15032500Y-7742500D01*
X15032500Y-8357500D02*
X15067500Y-8392500D01*
X15067500Y-8357500D02*
X15032500Y-8392500D01*
X15157500Y-8532500D02*
X15192500Y-8567500D01*
X15192500Y-8532500D02*
X15157500Y-8567500D01*
X15207500Y-8673480D02*
X15242500Y-8708480D01*
X15242500Y-8673480D02*
X15207500Y-8708480D01*
X15257500Y-8857500D02*
X15292500Y-8892500D01*
X15292500Y-8857500D02*
X15257500Y-8892500D01*
X15457500Y-7957500D02*
X15492500Y-7992500D01*
X15492500Y-7957500D02*
X15457500Y-7992500D01*
X15582500Y-8382500D02*
X15617500Y-8417500D01*
X15617500Y-8382500D02*
X15582500Y-8417500D01*
X15730074Y-8364927D02*
X15765074Y-8399927D01*
X15765074Y-8364927D02*
X15730074Y-8399927D01*
X15732500Y-8282500D02*
X15767500Y-8317500D01*
X15767500Y-8282500D02*
X15732500Y-8317500D01*
X15832500Y-8182500D02*
X15867500Y-8217500D01*
X15867500Y-8182500D02*
X15832500Y-8217500D01*
X15982500Y-9432500D02*
X16017500Y-9467500D01*
X16017500Y-9432500D02*
X15982500Y-9467500D01*
X16007500Y-8757500D02*
X16042500Y-8792500D01*
X16042500Y-8757500D02*
X16007500Y-8792500D01*
X16182500Y-8432500D02*
X16217500Y-8467500D01*
X16217500Y-8432500D02*
X16182500Y-8467500D01*
X16507500Y-9257500D02*
X16542500Y-9292500D01*
X16542500Y-9257500D02*
X16507500Y-9292500D01*
X15045000Y-8775000D02*
G75*
G03*
X15045000Y-8775000I-20000J0D01*
G01*
X15275499Y-8509751D02*
G75*
G03*
X15275499Y-8509751I-20000J0D01*
G01*
X15370000Y-8425000D02*
G75*
G03*
X15370000Y-8425000I-20000J0D01*
G01*
X16276000Y-8636000D02*
G75*
G03*
X16276000Y-8636000I-20000J0D01*
G01*
X16820000Y-9175000D02*
G75*
G03*
X16820000Y-9175000I-20000J0D01*
G01*
X15975000Y-7287500D02*
X15975000Y-7362500D01*
X15937500Y-7325000D02*
X16012500Y-7325000D01*
X16175000Y-7287500D02*
X16175000Y-7362500D01*
X16137500Y-7325000D02*
X16212500Y-7325000D01*
X16375000Y-7287500D02*
X16375000Y-7362500D01*
X16337500Y-7325000D02*
X16412500Y-7325000D01*
X16575000Y-7287500D02*
X16575000Y-7362500D01*
X16537500Y-7325000D02*
X16612500Y-7325000D01*
X16775000Y-7287500D02*
X16775000Y-7362500D01*
X16737500Y-7325000D02*
X16812500Y-7325000D01*
X16975000Y-7287500D02*
X16975000Y-7362500D01*
X16937500Y-7325000D02*
X17012500Y-7325000D01*
X14395356Y-7320516D02*
X14395356Y-7249804D01*
X14324644Y-7249804D01*
X14324644Y-7320516D01*
X14395356Y-7320516D01*
X14510356Y-9335356D02*
X14510356Y-9264644D01*
X14439644Y-9264644D01*
X14439644Y-9335356D01*
X14510356Y-9335356D01*
X14435000Y-9200000D02*
X14435000Y-9400000D01*
X14515000Y-9200000D02*
X14515000Y-9400000D01*
X14435000Y-9400000D02*
G75*
G03*
X14515000Y-9400000I40000J0D01*
G01*
X14515000Y-9200000D02*
G75*
G03*
X14435000Y-9200000I-40000J0D01*
G01*
X14649356Y-7320516D02*
X14649356Y-7249804D01*
X14578644Y-7249804D01*
X14578644Y-7320516D01*
X14649356Y-7320516D01*
X14810356Y-9805356D02*
X14810356Y-9734644D01*
X14739644Y-9734644D01*
X14739644Y-9805356D01*
X14810356Y-9805356D01*
X14675000Y-9810000D02*
X14875000Y-9810000D01*
X14675000Y-9730000D02*
X14875000Y-9730000D01*
X14875000Y-9810000D02*
G75*
G03*
X14875000Y-9730000I0J40000D01*
G01*
X14675000Y-9730000D02*
G75*
G03*
X14675000Y-9810000I0J-40000D01*
G01*
X14903356Y-7320516D02*
X14903356Y-7249804D01*
X14832644Y-7249804D01*
X14832644Y-7320516D01*
X14903356Y-7320516D01*
X15110356Y-9335356D02*
X15110356Y-9264644D01*
X15039644Y-9264644D01*
X15039644Y-9335356D01*
X15110356Y-9335356D01*
X15035000Y-9200000D02*
X15035000Y-9400000D01*
X15115000Y-9200000D02*
X15115000Y-9400000D01*
X15035000Y-9400000D02*
G75*
G03*
X15115000Y-9400000I40000J0D01*
G01*
X15115000Y-9200000D02*
G75*
G03*
X15035000Y-9200000I-40000J0D01*
G01*
X16561976Y-7843756D02*
X16561976Y-7773044D01*
X16491264Y-7773044D01*
X16491264Y-7843756D01*
X16561976Y-7843756D01*
X16561976Y-8097756D02*
X16561976Y-8027044D01*
X16491264Y-8027044D01*
X16491264Y-8097756D01*
X16561976Y-8097756D01*
X16815976Y-7843756D02*
X16815976Y-7773044D01*
X16745264Y-7773044D01*
X16745264Y-7843756D01*
X16815976Y-7843756D01*
X16815976Y-8097756D02*
X16815976Y-8027044D01*
X16745264Y-8027044D01*
X16745264Y-8097756D01*
X16815976Y-8097756D01*
X17060356Y-8560356D02*
X17060356Y-8489644D01*
X16989644Y-8489644D01*
X16989644Y-8560356D01*
X17060356Y-8560356D01*
X17060356Y-8814356D02*
X17060356Y-8743644D01*
X16989644Y-8743644D01*
X16989644Y-8814356D01*
X17060356Y-8814356D01*
X17060356Y-9068356D02*
X17060356Y-8997644D01*
X16989644Y-8997644D01*
X16989644Y-9068356D01*
X17060356Y-9068356D01*
X17060356Y-9322356D02*
X17060356Y-9251644D01*
X16989644Y-9251644D01*
X16989644Y-9322356D01*
X17060356Y-9322356D01*
X17060356Y-9576356D02*
X17060356Y-9505644D01*
X16989644Y-9505644D01*
X16989644Y-9576356D01*
X17060356Y-9576356D01*
X17060356Y-9830356D02*
X17060356Y-9759644D01*
X16989644Y-9759644D01*
X16989644Y-9830356D01*
X17060356Y-9830356D01*
X17069976Y-7843756D02*
X17069976Y-7773044D01*
X16999264Y-7773044D01*
X16999264Y-7843756D01*
X17069976Y-7843756D01*
X17069976Y-8097756D02*
X17069976Y-8027044D01*
X16999264Y-8027044D01*
X16999264Y-8097756D01*
X17069976Y-8097756D01*
D12*
X14356428Y-10570714D02*
X14356428Y-10270714D01*
X14427857Y-10270714D01*
X14470714Y-10285000D01*
X14499286Y-10313572D01*
X14513571Y-10342143D01*
X14527857Y-10399286D01*
X14527857Y-10442143D01*
X14513571Y-10499286D01*
X14499286Y-10527857D01*
X14470714Y-10556429D01*
X14427857Y-10570714D01*
X14356428Y-10570714D01*
X14656428Y-10570714D02*
X14656428Y-10370714D01*
X14656428Y-10427857D02*
X14670714Y-10399286D01*
X14685000Y-10385000D01*
X14713571Y-10370714D01*
X14742143Y-10370714D01*
X14842143Y-10570714D02*
X14842143Y-10370714D01*
X14842143Y-10270714D02*
X14827857Y-10285000D01*
X14842143Y-10299286D01*
X14856428Y-10285000D01*
X14842143Y-10270714D01*
X14842143Y-10299286D01*
X15027857Y-10570714D02*
X14999286Y-10556429D01*
X14985000Y-10527857D01*
X14985000Y-10270714D01*
X15185000Y-10570714D02*
X15156428Y-10556429D01*
X15142143Y-10527857D01*
X15142143Y-10270714D01*
X15527857Y-10570714D02*
X15527857Y-10270714D01*
X15627857Y-10485000D01*
X15727857Y-10270714D01*
X15727857Y-10570714D01*
X15999286Y-10570714D02*
X15999286Y-10413572D01*
X15985000Y-10385000D01*
X15956428Y-10370714D01*
X15899286Y-10370714D01*
X15870714Y-10385000D01*
X15999286Y-10556429D02*
X15970714Y-10570714D01*
X15899286Y-10570714D01*
X15870714Y-10556429D01*
X15856428Y-10527857D01*
X15856428Y-10499286D01*
X15870714Y-10470714D01*
X15899286Y-10456429D01*
X15970714Y-10456429D01*
X15999286Y-10442143D01*
X16142143Y-10370714D02*
X16142143Y-10670714D01*
X16142143Y-10385000D02*
X16170714Y-10370714D01*
X16227857Y-10370714D01*
X16256428Y-10385000D01*
X16270714Y-10399286D01*
X16285000Y-10427857D01*
X16285000Y-10513572D01*
X16270714Y-10542143D01*
X16256428Y-10556429D01*
X16227857Y-10570714D01*
X16170714Y-10570714D01*
X16142143Y-10556429D01*
X16413571Y-10542143D02*
X16427857Y-10556429D01*
X16413571Y-10570714D01*
X16399286Y-10556429D01*
X16413571Y-10542143D01*
X16413571Y-10570714D01*
X16413571Y-10385000D02*
X16427857Y-10399286D01*
X16413571Y-10413572D01*
X16399286Y-10399286D01*
X16413571Y-10385000D01*
X16413571Y-10413572D01*
X14035000Y-11047500D02*
X14070000Y-11082500D01*
X14070000Y-11047500D02*
X14035000Y-11082500D01*
X14413571Y-10900714D02*
X14442143Y-10900714D01*
X14470714Y-10915000D01*
X14485000Y-10929286D01*
X14499286Y-10957857D01*
X14513571Y-11015000D01*
X14513571Y-11086429D01*
X14499286Y-11143572D01*
X14485000Y-11172143D01*
X14470714Y-11186429D01*
X14442143Y-11200714D01*
X14413571Y-11200714D01*
X14385000Y-11186429D01*
X14370714Y-11172143D01*
X14356428Y-11143572D01*
X14342143Y-11086429D01*
X14342143Y-11015000D01*
X14356428Y-10957857D01*
X14370714Y-10929286D01*
X14385000Y-10915000D01*
X14413571Y-10900714D01*
X14642143Y-11172143D02*
X14656428Y-11186429D01*
X14642143Y-11200714D01*
X14627857Y-11186429D01*
X14642143Y-11172143D01*
X14642143Y-11200714D01*
X14756428Y-10900714D02*
X14942143Y-10900714D01*
X14842143Y-11015000D01*
X14885000Y-11015000D01*
X14913571Y-11029286D01*
X14927857Y-11043572D01*
X14942143Y-11072143D01*
X14942143Y-11143572D01*
X14927857Y-11172143D01*
X14913571Y-11186429D01*
X14885000Y-11200714D01*
X14799286Y-11200714D01*
X14770714Y-11186429D01*
X14756428Y-11172143D01*
X15213571Y-10900714D02*
X15070714Y-10900714D01*
X15056428Y-11043572D01*
X15070714Y-11029286D01*
X15099286Y-11015000D01*
X15170714Y-11015000D01*
X15199286Y-11029286D01*
X15213571Y-11043572D01*
X15227857Y-11072143D01*
X15227857Y-11143572D01*
X15213571Y-11172143D01*
X15199286Y-11186429D01*
X15170714Y-11200714D01*
X15099286Y-11200714D01*
X15070714Y-11186429D01*
X15056428Y-11172143D01*
X15413571Y-10900714D02*
X15442143Y-10900714D01*
X15470714Y-10915000D01*
X15485000Y-10929286D01*
X15499286Y-10957857D01*
X15513571Y-11015000D01*
X15513571Y-11086429D01*
X15499286Y-11143572D01*
X15485000Y-11172143D01*
X15470714Y-11186429D01*
X15442143Y-11200714D01*
X15413571Y-11200714D01*
X15385000Y-11186429D01*
X15370714Y-11172143D01*
X15356428Y-11143572D01*
X15342143Y-11086429D01*
X15342143Y-11015000D01*
X15356428Y-10957857D01*
X15370714Y-10929286D01*
X15385000Y-10915000D01*
X15413571Y-10900714D01*
X15642143Y-11200714D02*
X15642143Y-11000714D01*
X15642143Y-11029286D02*
X15656428Y-11015000D01*
X15685000Y-11000714D01*
X15727857Y-11000714D01*
X15756428Y-11015000D01*
X15770714Y-11043572D01*
X15770714Y-11200714D01*
X15770714Y-11043572D02*
X15785000Y-11015000D01*
X15813571Y-11000714D01*
X15856428Y-11000714D01*
X15885000Y-11015000D01*
X15899286Y-11043572D01*
X15899286Y-11200714D01*
X16042143Y-11200714D02*
X16042143Y-11000714D01*
X16042143Y-11029286D02*
X16056428Y-11015000D01*
X16085000Y-11000714D01*
X16127857Y-11000714D01*
X16156428Y-11015000D01*
X16170714Y-11043572D01*
X16170714Y-11200714D01*
X16170714Y-11043572D02*
X16185000Y-11015000D01*
X16213571Y-11000714D01*
X16256428Y-11000714D01*
X16285000Y-11015000D01*
X16299286Y-11043572D01*
X16299286Y-11200714D01*
X16885000Y-10886429D02*
X16627857Y-11272143D01*
X17270714Y-10900714D02*
X17299286Y-10900714D01*
X17327857Y-10915000D01*
X17342143Y-10929286D01*
X17356428Y-10957857D01*
X17370714Y-11015000D01*
X17370714Y-11086429D01*
X17356428Y-11143572D01*
X17342143Y-11172143D01*
X17327857Y-11186429D01*
X17299286Y-11200714D01*
X17270714Y-11200714D01*
X17242143Y-11186429D01*
X17227857Y-11172143D01*
X17213571Y-11143572D01*
X17199286Y-11086429D01*
X17199286Y-11015000D01*
X17213571Y-10957857D01*
X17227857Y-10929286D01*
X17242143Y-10915000D01*
X17270714Y-10900714D01*
X17499286Y-11172143D02*
X17513571Y-11186429D01*
X17499286Y-11200714D01*
X17485000Y-11186429D01*
X17499286Y-11172143D01*
X17499286Y-11200714D01*
X17699286Y-10900714D02*
X17727857Y-10900714D01*
X17756428Y-10915000D01*
X17770714Y-10929286D01*
X17785000Y-10957857D01*
X17799286Y-11015000D01*
X17799286Y-11086429D01*
X17785000Y-11143572D01*
X17770714Y-11172143D01*
X17756428Y-11186429D01*
X17727857Y-11200714D01*
X17699286Y-11200714D01*
X17670714Y-11186429D01*
X17656428Y-11172143D01*
X17642143Y-11143572D01*
X17627857Y-11086429D01*
X17627857Y-11015000D01*
X17642143Y-10957857D01*
X17656428Y-10929286D01*
X17670714Y-10915000D01*
X17699286Y-10900714D01*
X18085000Y-11200714D02*
X17913571Y-11200714D01*
X17999286Y-11200714D02*
X17999286Y-10900714D01*
X17970714Y-10943572D01*
X17942143Y-10972143D01*
X17913571Y-10986429D01*
X18185000Y-10900714D02*
X18370714Y-10900714D01*
X18270714Y-11015000D01*
X18313571Y-11015000D01*
X18342143Y-11029286D01*
X18356428Y-11043572D01*
X18370714Y-11072143D01*
X18370714Y-11143572D01*
X18356428Y-11172143D01*
X18342143Y-11186429D01*
X18313571Y-11200714D01*
X18227857Y-11200714D01*
X18199286Y-11186429D01*
X18185000Y-11172143D01*
X18542143Y-11029286D02*
X18513571Y-11015000D01*
X18499286Y-11000714D01*
X18485000Y-10972143D01*
X18485000Y-10957857D01*
X18499286Y-10929286D01*
X18513571Y-10915000D01*
X18542143Y-10900714D01*
X18599286Y-10900714D01*
X18627857Y-10915000D01*
X18642143Y-10929286D01*
X18656428Y-10957857D01*
X18656428Y-10972143D01*
X18642143Y-11000714D01*
X18627857Y-11015000D01*
X18599286Y-11029286D01*
X18542143Y-11029286D01*
X18513571Y-11043572D01*
X18499286Y-11057857D01*
X18485000Y-11086429D01*
X18485000Y-11143572D01*
X18499286Y-11172143D01*
X18513571Y-11186429D01*
X18542143Y-11200714D01*
X18599286Y-11200714D01*
X18627857Y-11186429D01*
X18642143Y-11172143D01*
X18656428Y-11143572D01*
X18656428Y-11086429D01*
X18642143Y-11057857D01*
X18627857Y-11043572D01*
X18599286Y-11029286D01*
X18770714Y-10900714D02*
X18770714Y-10957857D01*
X18885000Y-10900714D02*
X18885000Y-10957857D01*
X19327857Y-11315000D02*
X19313571Y-11300714D01*
X19285000Y-11257857D01*
X19270714Y-11229286D01*
X19256428Y-11186429D01*
X19242143Y-11115000D01*
X19242143Y-11057857D01*
X19256428Y-10986429D01*
X19270714Y-10943572D01*
X19285000Y-10915000D01*
X19313571Y-10872143D01*
X19327857Y-10857857D01*
X19599286Y-11200714D02*
X19427857Y-11200714D01*
X19513571Y-11200714D02*
X19513571Y-10900714D01*
X19485000Y-10943572D01*
X19456428Y-10972143D01*
X19427857Y-10986429D01*
X19742143Y-11200714D02*
X19799286Y-11200714D01*
X19827857Y-11186429D01*
X19842143Y-11172143D01*
X19870714Y-11129286D01*
X19885000Y-11072143D01*
X19885000Y-10957857D01*
X19870714Y-10929286D01*
X19856428Y-10915000D01*
X19827857Y-10900714D01*
X19770714Y-10900714D01*
X19742143Y-10915000D01*
X19727857Y-10929286D01*
X19713571Y-10957857D01*
X19713571Y-11029286D01*
X19727857Y-11057857D01*
X19742143Y-11072143D01*
X19770714Y-11086429D01*
X19827857Y-11086429D01*
X19856428Y-11072143D01*
X19870714Y-11057857D01*
X19885000Y-11029286D01*
X20242143Y-11200714D02*
X20242143Y-10900714D01*
X20370714Y-11200714D02*
X20370714Y-11043572D01*
X20356428Y-11015000D01*
X20327857Y-11000714D01*
X20285000Y-11000714D01*
X20256428Y-11015000D01*
X20242143Y-11029286D01*
X20556428Y-11200714D02*
X20527857Y-11186429D01*
X20513571Y-11172143D01*
X20499286Y-11143572D01*
X20499286Y-11057857D01*
X20513571Y-11029286D01*
X20527857Y-11015000D01*
X20556428Y-11000714D01*
X20599286Y-11000714D01*
X20627857Y-11015000D01*
X20642143Y-11029286D01*
X20656428Y-11057857D01*
X20656428Y-11143572D01*
X20642143Y-11172143D01*
X20627857Y-11186429D01*
X20599286Y-11200714D01*
X20556428Y-11200714D01*
X20827857Y-11200714D02*
X20799286Y-11186429D01*
X20785000Y-11157857D01*
X20785000Y-10900714D01*
X21056428Y-11186429D02*
X21027857Y-11200714D01*
X20970714Y-11200714D01*
X20942143Y-11186429D01*
X20927857Y-11157857D01*
X20927857Y-11043572D01*
X20942143Y-11015000D01*
X20970714Y-11000714D01*
X21027857Y-11000714D01*
X21056428Y-11015000D01*
X21070714Y-11043572D01*
X21070714Y-11072143D01*
X20927857Y-11100714D01*
X21185000Y-11186429D02*
X21213571Y-11200714D01*
X21270714Y-11200714D01*
X21299286Y-11186429D01*
X21313571Y-11157857D01*
X21313571Y-11143572D01*
X21299286Y-11115000D01*
X21270714Y-11100714D01*
X21227857Y-11100714D01*
X21199286Y-11086429D01*
X21185000Y-11057857D01*
X21185000Y-11043572D01*
X21199286Y-11015000D01*
X21227857Y-11000714D01*
X21270714Y-11000714D01*
X21299286Y-11015000D01*
X21413571Y-11315000D02*
X21427857Y-11300714D01*
X21456428Y-11257857D01*
X21470714Y-11229286D01*
X21485000Y-11186429D01*
X21499286Y-11115000D01*
X21499286Y-11057857D01*
X21485000Y-10986429D01*
X21470714Y-10943572D01*
X21456428Y-10915000D01*
X21427857Y-10872143D01*
X21413571Y-10857857D01*
X14070000Y-11461000D02*
G75*
G03*
X14070000Y-11461000I-20000J0D01*
G01*
X14413571Y-11296714D02*
X14442143Y-11296714D01*
X14470714Y-11311000D01*
X14485000Y-11325286D01*
X14499286Y-11353857D01*
X14513571Y-11411000D01*
X14513571Y-11482429D01*
X14499286Y-11539571D01*
X14485000Y-11568143D01*
X14470714Y-11582429D01*
X14442143Y-11596714D01*
X14413571Y-11596714D01*
X14385000Y-11582429D01*
X14370714Y-11568143D01*
X14356428Y-11539571D01*
X14342143Y-11482429D01*
X14342143Y-11411000D01*
X14356428Y-11353857D01*
X14370714Y-11325286D01*
X14385000Y-11311000D01*
X14413571Y-11296714D01*
X14642143Y-11568143D02*
X14656428Y-11582429D01*
X14642143Y-11596714D01*
X14627857Y-11582429D01*
X14642143Y-11568143D01*
X14642143Y-11596714D01*
X14913571Y-11396714D02*
X14913571Y-11596714D01*
X14842143Y-11282429D02*
X14770714Y-11496714D01*
X14956428Y-11496714D01*
X15127857Y-11296714D02*
X15156428Y-11296714D01*
X15185000Y-11311000D01*
X15199286Y-11325286D01*
X15213571Y-11353857D01*
X15227857Y-11411000D01*
X15227857Y-11482429D01*
X15213571Y-11539571D01*
X15199286Y-11568143D01*
X15185000Y-11582429D01*
X15156428Y-11596714D01*
X15127857Y-11596714D01*
X15099286Y-11582429D01*
X15085000Y-11568143D01*
X15070714Y-11539571D01*
X15056428Y-11482429D01*
X15056428Y-11411000D01*
X15070714Y-11353857D01*
X15085000Y-11325286D01*
X15099286Y-11311000D01*
X15127857Y-11296714D01*
X15413571Y-11296714D02*
X15442143Y-11296714D01*
X15470714Y-11311000D01*
X15485000Y-11325286D01*
X15499286Y-11353857D01*
X15513571Y-11411000D01*
X15513571Y-11482429D01*
X15499286Y-11539571D01*
X15485000Y-11568143D01*
X15470714Y-11582429D01*
X15442143Y-11596714D01*
X15413571Y-11596714D01*
X15385000Y-11582429D01*
X15370714Y-11568143D01*
X15356428Y-11539571D01*
X15342143Y-11482429D01*
X15342143Y-11411000D01*
X15356428Y-11353857D01*
X15370714Y-11325286D01*
X15385000Y-11311000D01*
X15413571Y-11296714D01*
X15642143Y-11596714D02*
X15642143Y-11396714D01*
X15642143Y-11425286D02*
X15656428Y-11411000D01*
X15685000Y-11396714D01*
X15727857Y-11396714D01*
X15756428Y-11411000D01*
X15770714Y-11439571D01*
X15770714Y-11596714D01*
X15770714Y-11439571D02*
X15785000Y-11411000D01*
X15813571Y-11396714D01*
X15856428Y-11396714D01*
X15885000Y-11411000D01*
X15899286Y-11439571D01*
X15899286Y-11596714D01*
X16042143Y-11596714D02*
X16042143Y-11396714D01*
X16042143Y-11425286D02*
X16056428Y-11411000D01*
X16085000Y-11396714D01*
X16127857Y-11396714D01*
X16156428Y-11411000D01*
X16170714Y-11439571D01*
X16170714Y-11596714D01*
X16170714Y-11439571D02*
X16185000Y-11411000D01*
X16213571Y-11396714D01*
X16256428Y-11396714D01*
X16285000Y-11411000D01*
X16299286Y-11439571D01*
X16299286Y-11596714D01*
X16885000Y-11282429D02*
X16627857Y-11668143D01*
X17270714Y-11296714D02*
X17299286Y-11296714D01*
X17327857Y-11311000D01*
X17342143Y-11325286D01*
X17356428Y-11353857D01*
X17370714Y-11411000D01*
X17370714Y-11482429D01*
X17356428Y-11539571D01*
X17342143Y-11568143D01*
X17327857Y-11582429D01*
X17299286Y-11596714D01*
X17270714Y-11596714D01*
X17242143Y-11582429D01*
X17227857Y-11568143D01*
X17213571Y-11539571D01*
X17199286Y-11482429D01*
X17199286Y-11411000D01*
X17213571Y-11353857D01*
X17227857Y-11325286D01*
X17242143Y-11311000D01*
X17270714Y-11296714D01*
X17499286Y-11568143D02*
X17513571Y-11582429D01*
X17499286Y-11596714D01*
X17485000Y-11582429D01*
X17499286Y-11568143D01*
X17499286Y-11596714D01*
X17699286Y-11296714D02*
X17727857Y-11296714D01*
X17756428Y-11311000D01*
X17770714Y-11325286D01*
X17785000Y-11353857D01*
X17799286Y-11411000D01*
X17799286Y-11482429D01*
X17785000Y-11539571D01*
X17770714Y-11568143D01*
X17756428Y-11582429D01*
X17727857Y-11596714D01*
X17699286Y-11596714D01*
X17670714Y-11582429D01*
X17656428Y-11568143D01*
X17642143Y-11539571D01*
X17627857Y-11482429D01*
X17627857Y-11411000D01*
X17642143Y-11353857D01*
X17656428Y-11325286D01*
X17670714Y-11311000D01*
X17699286Y-11296714D01*
X18085000Y-11596714D02*
X17913571Y-11596714D01*
X17999286Y-11596714D02*
X17999286Y-11296714D01*
X17970714Y-11339571D01*
X17942143Y-11368143D01*
X17913571Y-11382429D01*
X18356428Y-11296714D02*
X18213571Y-11296714D01*
X18199286Y-11439571D01*
X18213571Y-11425286D01*
X18242143Y-11411000D01*
X18313571Y-11411000D01*
X18342143Y-11425286D01*
X18356428Y-11439571D01*
X18370714Y-11468143D01*
X18370714Y-11539571D01*
X18356428Y-11568143D01*
X18342143Y-11582429D01*
X18313571Y-11596714D01*
X18242143Y-11596714D01*
X18213571Y-11582429D01*
X18199286Y-11568143D01*
X18470714Y-11296714D02*
X18670714Y-11296714D01*
X18542143Y-11596714D01*
X18770714Y-11296714D02*
X18770714Y-11353857D01*
X18885000Y-11296714D02*
X18885000Y-11353857D01*
X19327857Y-11711000D02*
X19313571Y-11696714D01*
X19285000Y-11653857D01*
X19270714Y-11625286D01*
X19256428Y-11582429D01*
X19242143Y-11511000D01*
X19242143Y-11453857D01*
X19256428Y-11382429D01*
X19270714Y-11339571D01*
X19285000Y-11311000D01*
X19313571Y-11268143D01*
X19327857Y-11253857D01*
X19585000Y-11296714D02*
X19442143Y-11296714D01*
X19427857Y-11439571D01*
X19442143Y-11425286D01*
X19470714Y-11411000D01*
X19542143Y-11411000D01*
X19570714Y-11425286D01*
X19585000Y-11439571D01*
X19599286Y-11468143D01*
X19599286Y-11539571D01*
X19585000Y-11568143D01*
X19570714Y-11582429D01*
X19542143Y-11596714D01*
X19470714Y-11596714D01*
X19442143Y-11582429D01*
X19427857Y-11568143D01*
X19956428Y-11596714D02*
X19956428Y-11296714D01*
X20085000Y-11596714D02*
X20085000Y-11439571D01*
X20070714Y-11411000D01*
X20042143Y-11396714D01*
X19999286Y-11396714D01*
X19970714Y-11411000D01*
X19956428Y-11425286D01*
X20270714Y-11596714D02*
X20242143Y-11582429D01*
X20227857Y-11568143D01*
X20213571Y-11539571D01*
X20213571Y-11453857D01*
X20227857Y-11425286D01*
X20242143Y-11411000D01*
X20270714Y-11396714D01*
X20313571Y-11396714D01*
X20342143Y-11411000D01*
X20356428Y-11425286D01*
X20370714Y-11453857D01*
X20370714Y-11539571D01*
X20356428Y-11568143D01*
X20342143Y-11582429D01*
X20313571Y-11596714D01*
X20270714Y-11596714D01*
X20542143Y-11596714D02*
X20513571Y-11582429D01*
X20499286Y-11553857D01*
X20499286Y-11296714D01*
X20770714Y-11582429D02*
X20742143Y-11596714D01*
X20685000Y-11596714D01*
X20656428Y-11582429D01*
X20642143Y-11553857D01*
X20642143Y-11439571D01*
X20656428Y-11411000D01*
X20685000Y-11396714D01*
X20742143Y-11396714D01*
X20770714Y-11411000D01*
X20785000Y-11439571D01*
X20785000Y-11468143D01*
X20642143Y-11496714D01*
X20899286Y-11582429D02*
X20927857Y-11596714D01*
X20985000Y-11596714D01*
X21013571Y-11582429D01*
X21027857Y-11553857D01*
X21027857Y-11539571D01*
X21013571Y-11511000D01*
X20985000Y-11496714D01*
X20942143Y-11496714D01*
X20913571Y-11482429D01*
X20899286Y-11453857D01*
X20899286Y-11439571D01*
X20913571Y-11411000D01*
X20942143Y-11396714D01*
X20985000Y-11396714D01*
X21013571Y-11411000D01*
X21127857Y-11711000D02*
X21142143Y-11696714D01*
X21170714Y-11653857D01*
X21185000Y-11625286D01*
X21199286Y-11582429D01*
X21213571Y-11511000D01*
X21213571Y-11453857D01*
X21199286Y-11382429D01*
X21185000Y-11339571D01*
X21170714Y-11311000D01*
X21142143Y-11268143D01*
X21127857Y-11253857D01*
X14032500Y-11819500D02*
X14032500Y-11894500D01*
X13995000Y-11857000D02*
X14070000Y-11857000D01*
X14413571Y-11692714D02*
X14442143Y-11692714D01*
X14470714Y-11707000D01*
X14485000Y-11721286D01*
X14499286Y-11749857D01*
X14513571Y-11807000D01*
X14513571Y-11878429D01*
X14499286Y-11935571D01*
X14485000Y-11964143D01*
X14470714Y-11978429D01*
X14442143Y-11992714D01*
X14413571Y-11992714D01*
X14385000Y-11978429D01*
X14370714Y-11964143D01*
X14356428Y-11935571D01*
X14342143Y-11878429D01*
X14342143Y-11807000D01*
X14356428Y-11749857D01*
X14370714Y-11721286D01*
X14385000Y-11707000D01*
X14413571Y-11692714D01*
X14642143Y-11964143D02*
X14656428Y-11978429D01*
X14642143Y-11992714D01*
X14627857Y-11978429D01*
X14642143Y-11964143D01*
X14642143Y-11992714D01*
X14756428Y-11692714D02*
X14956428Y-11692714D01*
X14827857Y-11992714D01*
X15213571Y-11692714D02*
X15070714Y-11692714D01*
X15056428Y-11835571D01*
X15070714Y-11821286D01*
X15099286Y-11807000D01*
X15170714Y-11807000D01*
X15199286Y-11821286D01*
X15213571Y-11835571D01*
X15227857Y-11864143D01*
X15227857Y-11935571D01*
X15213571Y-11964143D01*
X15199286Y-11978429D01*
X15170714Y-11992714D01*
X15099286Y-11992714D01*
X15070714Y-11978429D01*
X15056428Y-11964143D01*
X15413571Y-11692714D02*
X15442143Y-11692714D01*
X15470714Y-11707000D01*
X15485000Y-11721286D01*
X15499286Y-11749857D01*
X15513571Y-11807000D01*
X15513571Y-11878429D01*
X15499286Y-11935571D01*
X15485000Y-11964143D01*
X15470714Y-11978429D01*
X15442143Y-11992714D01*
X15413571Y-11992714D01*
X15385000Y-11978429D01*
X15370714Y-11964143D01*
X15356428Y-11935571D01*
X15342143Y-11878429D01*
X15342143Y-11807000D01*
X15356428Y-11749857D01*
X15370714Y-11721286D01*
X15385000Y-11707000D01*
X15413571Y-11692714D01*
X15642143Y-11992714D02*
X15642143Y-11792714D01*
X15642143Y-11821286D02*
X15656428Y-11807000D01*
X15685000Y-11792714D01*
X15727857Y-11792714D01*
X15756428Y-11807000D01*
X15770714Y-11835571D01*
X15770714Y-11992714D01*
X15770714Y-11835571D02*
X15785000Y-11807000D01*
X15813571Y-11792714D01*
X15856428Y-11792714D01*
X15885000Y-11807000D01*
X15899286Y-11835571D01*
X15899286Y-11992714D01*
X16042143Y-11992714D02*
X16042143Y-11792714D01*
X16042143Y-11821286D02*
X16056428Y-11807000D01*
X16085000Y-11792714D01*
X16127857Y-11792714D01*
X16156428Y-11807000D01*
X16170714Y-11835571D01*
X16170714Y-11992714D01*
X16170714Y-11835571D02*
X16185000Y-11807000D01*
X16213571Y-11792714D01*
X16256428Y-11792714D01*
X16285000Y-11807000D01*
X16299286Y-11835571D01*
X16299286Y-11992714D01*
X16885000Y-11678429D02*
X16627857Y-12064143D01*
X17270714Y-11692714D02*
X17299286Y-11692714D01*
X17327857Y-11707000D01*
X17342143Y-11721286D01*
X17356428Y-11749857D01*
X17370714Y-11807000D01*
X17370714Y-11878429D01*
X17356428Y-11935571D01*
X17342143Y-11964143D01*
X17327857Y-11978429D01*
X17299286Y-11992714D01*
X17270714Y-11992714D01*
X17242143Y-11978429D01*
X17227857Y-11964143D01*
X17213571Y-11935571D01*
X17199286Y-11878429D01*
X17199286Y-11807000D01*
X17213571Y-11749857D01*
X17227857Y-11721286D01*
X17242143Y-11707000D01*
X17270714Y-11692714D01*
X17499286Y-11964143D02*
X17513571Y-11978429D01*
X17499286Y-11992714D01*
X17485000Y-11978429D01*
X17499286Y-11964143D01*
X17499286Y-11992714D01*
X17699286Y-11692714D02*
X17727857Y-11692714D01*
X17756428Y-11707000D01*
X17770714Y-11721286D01*
X17785000Y-11749857D01*
X17799286Y-11807000D01*
X17799286Y-11878429D01*
X17785000Y-11935571D01*
X17770714Y-11964143D01*
X17756428Y-11978429D01*
X17727857Y-11992714D01*
X17699286Y-11992714D01*
X17670714Y-11978429D01*
X17656428Y-11964143D01*
X17642143Y-11935571D01*
X17627857Y-11878429D01*
X17627857Y-11807000D01*
X17642143Y-11749857D01*
X17656428Y-11721286D01*
X17670714Y-11707000D01*
X17699286Y-11692714D01*
X17913571Y-11721286D02*
X17927857Y-11707000D01*
X17956428Y-11692714D01*
X18027857Y-11692714D01*
X18056428Y-11707000D01*
X18070714Y-11721286D01*
X18085000Y-11749857D01*
X18085000Y-11778429D01*
X18070714Y-11821286D01*
X17899286Y-11992714D01*
X18085000Y-11992714D01*
X18227857Y-11992714D02*
X18285000Y-11992714D01*
X18313571Y-11978429D01*
X18327857Y-11964143D01*
X18356428Y-11921286D01*
X18370714Y-11864143D01*
X18370714Y-11749857D01*
X18356428Y-11721286D01*
X18342143Y-11707000D01*
X18313571Y-11692714D01*
X18256428Y-11692714D01*
X18227857Y-11707000D01*
X18213571Y-11721286D01*
X18199286Y-11749857D01*
X18199286Y-11821286D01*
X18213571Y-11849857D01*
X18227857Y-11864143D01*
X18256428Y-11878429D01*
X18313571Y-11878429D01*
X18342143Y-11864143D01*
X18356428Y-11849857D01*
X18370714Y-11821286D01*
X18642143Y-11692714D02*
X18499286Y-11692714D01*
X18485000Y-11835571D01*
X18499286Y-11821286D01*
X18527857Y-11807000D01*
X18599286Y-11807000D01*
X18627857Y-11821286D01*
X18642143Y-11835571D01*
X18656428Y-11864143D01*
X18656428Y-11935571D01*
X18642143Y-11964143D01*
X18627857Y-11978429D01*
X18599286Y-11992714D01*
X18527857Y-11992714D01*
X18499286Y-11978429D01*
X18485000Y-11964143D01*
X18770714Y-11692714D02*
X18770714Y-11749857D01*
X18885000Y-11692714D02*
X18885000Y-11749857D01*
X19327857Y-12107000D02*
X19313571Y-12092714D01*
X19285000Y-12049857D01*
X19270714Y-12021286D01*
X19256428Y-11978429D01*
X19242143Y-11907000D01*
X19242143Y-11849857D01*
X19256428Y-11778429D01*
X19270714Y-11735571D01*
X19285000Y-11707000D01*
X19313571Y-11664143D01*
X19327857Y-11649857D01*
X19570714Y-11692714D02*
X19513571Y-11692714D01*
X19485000Y-11707000D01*
X19470714Y-11721286D01*
X19442143Y-11764143D01*
X19427857Y-11821286D01*
X19427857Y-11935571D01*
X19442143Y-11964143D01*
X19456428Y-11978429D01*
X19485000Y-11992714D01*
X19542143Y-11992714D01*
X19570714Y-11978429D01*
X19585000Y-11964143D01*
X19599286Y-11935571D01*
X19599286Y-11864143D01*
X19585000Y-11835571D01*
X19570714Y-11821286D01*
X19542143Y-11807000D01*
X19485000Y-11807000D01*
X19456428Y-11821286D01*
X19442143Y-11835571D01*
X19427857Y-11864143D01*
X19956428Y-11992714D02*
X19956428Y-11692714D01*
X20085000Y-11992714D02*
X20085000Y-11835571D01*
X20070714Y-11807000D01*
X20042143Y-11792714D01*
X19999286Y-11792714D01*
X19970714Y-11807000D01*
X19956428Y-11821286D01*
X20270714Y-11992714D02*
X20242143Y-11978429D01*
X20227857Y-11964143D01*
X20213571Y-11935571D01*
X20213571Y-11849857D01*
X20227857Y-11821286D01*
X20242143Y-11807000D01*
X20270714Y-11792714D01*
X20313571Y-11792714D01*
X20342143Y-11807000D01*
X20356428Y-11821286D01*
X20370714Y-11849857D01*
X20370714Y-11935571D01*
X20356428Y-11964143D01*
X20342143Y-11978429D01*
X20313571Y-11992714D01*
X20270714Y-11992714D01*
X20542143Y-11992714D02*
X20513571Y-11978429D01*
X20499286Y-11949857D01*
X20499286Y-11692714D01*
X20770714Y-11978429D02*
X20742143Y-11992714D01*
X20685000Y-11992714D01*
X20656428Y-11978429D01*
X20642143Y-11949857D01*
X20642143Y-11835571D01*
X20656428Y-11807000D01*
X20685000Y-11792714D01*
X20742143Y-11792714D01*
X20770714Y-11807000D01*
X20785000Y-11835571D01*
X20785000Y-11864143D01*
X20642143Y-11892714D01*
X20899286Y-11978429D02*
X20927857Y-11992714D01*
X20985000Y-11992714D01*
X21013571Y-11978429D01*
X21027857Y-11949857D01*
X21027857Y-11935571D01*
X21013571Y-11907000D01*
X20985000Y-11892714D01*
X20942143Y-11892714D01*
X20913571Y-11878429D01*
X20899286Y-11849857D01*
X20899286Y-11835571D01*
X20913571Y-11807000D01*
X20942143Y-11792714D01*
X20985000Y-11792714D01*
X21013571Y-11807000D01*
X21127857Y-12107000D02*
X21142143Y-12092714D01*
X21170714Y-12049857D01*
X21185000Y-12021286D01*
X21199286Y-11978429D01*
X21213571Y-11907000D01*
X21213571Y-11849857D01*
X21199286Y-11778429D01*
X21185000Y-11735571D01*
X21170714Y-11707000D01*
X21142143Y-11664143D01*
X21127857Y-11649857D01*
X14055356Y-12288356D02*
X14055356Y-12217644D01*
X13984644Y-12217644D01*
X13984644Y-12288356D01*
X14055356Y-12288356D01*
X14513571Y-12388714D02*
X14342143Y-12388714D01*
X14427857Y-12388714D02*
X14427857Y-12088714D01*
X14399286Y-12131571D01*
X14370714Y-12160143D01*
X14342143Y-12174429D01*
X14642143Y-12360143D02*
X14656428Y-12374429D01*
X14642143Y-12388714D01*
X14627857Y-12374429D01*
X14642143Y-12360143D01*
X14642143Y-12388714D01*
X14842143Y-12088714D02*
X14870714Y-12088714D01*
X14899286Y-12103000D01*
X14913571Y-12117286D01*
X14927857Y-12145857D01*
X14942143Y-12203000D01*
X14942143Y-12274429D01*
X14927857Y-12331571D01*
X14913571Y-12360143D01*
X14899286Y-12374429D01*
X14870714Y-12388714D01*
X14842143Y-12388714D01*
X14813571Y-12374429D01*
X14799286Y-12360143D01*
X14785000Y-12331571D01*
X14770714Y-12274429D01*
X14770714Y-12203000D01*
X14785000Y-12145857D01*
X14799286Y-12117286D01*
X14813571Y-12103000D01*
X14842143Y-12088714D01*
X15127857Y-12088714D02*
X15156428Y-12088714D01*
X15185000Y-12103000D01*
X15199286Y-12117286D01*
X15213571Y-12145857D01*
X15227857Y-12203000D01*
X15227857Y-12274429D01*
X15213571Y-12331571D01*
X15199286Y-12360143D01*
X15185000Y-12374429D01*
X15156428Y-12388714D01*
X15127857Y-12388714D01*
X15099286Y-12374429D01*
X15085000Y-12360143D01*
X15070714Y-12331571D01*
X15056428Y-12274429D01*
X15056428Y-12203000D01*
X15070714Y-12145857D01*
X15085000Y-12117286D01*
X15099286Y-12103000D01*
X15127857Y-12088714D01*
X15413571Y-12088714D02*
X15442143Y-12088714D01*
X15470714Y-12103000D01*
X15485000Y-12117286D01*
X15499286Y-12145857D01*
X15513571Y-12203000D01*
X15513571Y-12274429D01*
X15499286Y-12331571D01*
X15485000Y-12360143D01*
X15470714Y-12374429D01*
X15442143Y-12388714D01*
X15413571Y-12388714D01*
X15385000Y-12374429D01*
X15370714Y-12360143D01*
X15356428Y-12331571D01*
X15342143Y-12274429D01*
X15342143Y-12203000D01*
X15356428Y-12145857D01*
X15370714Y-12117286D01*
X15385000Y-12103000D01*
X15413571Y-12088714D01*
X15642143Y-12388714D02*
X15642143Y-12188714D01*
X15642143Y-12217286D02*
X15656428Y-12203000D01*
X15685000Y-12188714D01*
X15727857Y-12188714D01*
X15756428Y-12203000D01*
X15770714Y-12231571D01*
X15770714Y-12388714D01*
X15770714Y-12231571D02*
X15785000Y-12203000D01*
X15813571Y-12188714D01*
X15856428Y-12188714D01*
X15885000Y-12203000D01*
X15899286Y-12231571D01*
X15899286Y-12388714D01*
X16042143Y-12388714D02*
X16042143Y-12188714D01*
X16042143Y-12217286D02*
X16056428Y-12203000D01*
X16085000Y-12188714D01*
X16127857Y-12188714D01*
X16156428Y-12203000D01*
X16170714Y-12231571D01*
X16170714Y-12388714D01*
X16170714Y-12231571D02*
X16185000Y-12203000D01*
X16213571Y-12188714D01*
X16256428Y-12188714D01*
X16285000Y-12203000D01*
X16299286Y-12231571D01*
X16299286Y-12388714D01*
X16885000Y-12074429D02*
X16627857Y-12460143D01*
X17270714Y-12088714D02*
X17299286Y-12088714D01*
X17327857Y-12103000D01*
X17342143Y-12117286D01*
X17356428Y-12145857D01*
X17370714Y-12203000D01*
X17370714Y-12274429D01*
X17356428Y-12331571D01*
X17342143Y-12360143D01*
X17327857Y-12374429D01*
X17299286Y-12388714D01*
X17270714Y-12388714D01*
X17242143Y-12374429D01*
X17227857Y-12360143D01*
X17213571Y-12331571D01*
X17199286Y-12274429D01*
X17199286Y-12203000D01*
X17213571Y-12145857D01*
X17227857Y-12117286D01*
X17242143Y-12103000D01*
X17270714Y-12088714D01*
X17499286Y-12360143D02*
X17513571Y-12374429D01*
X17499286Y-12388714D01*
X17485000Y-12374429D01*
X17499286Y-12360143D01*
X17499286Y-12388714D01*
X17699286Y-12088714D02*
X17727857Y-12088714D01*
X17756428Y-12103000D01*
X17770714Y-12117286D01*
X17785000Y-12145857D01*
X17799286Y-12203000D01*
X17799286Y-12274429D01*
X17785000Y-12331571D01*
X17770714Y-12360143D01*
X17756428Y-12374429D01*
X17727857Y-12388714D01*
X17699286Y-12388714D01*
X17670714Y-12374429D01*
X17656428Y-12360143D01*
X17642143Y-12331571D01*
X17627857Y-12274429D01*
X17627857Y-12203000D01*
X17642143Y-12145857D01*
X17656428Y-12117286D01*
X17670714Y-12103000D01*
X17699286Y-12088714D01*
X17899286Y-12088714D02*
X18085000Y-12088714D01*
X17985000Y-12203000D01*
X18027857Y-12203000D01*
X18056428Y-12217286D01*
X18070714Y-12231571D01*
X18085000Y-12260143D01*
X18085000Y-12331571D01*
X18070714Y-12360143D01*
X18056428Y-12374429D01*
X18027857Y-12388714D01*
X17942143Y-12388714D01*
X17913571Y-12374429D01*
X17899286Y-12360143D01*
X18227857Y-12388714D02*
X18285000Y-12388714D01*
X18313571Y-12374429D01*
X18327857Y-12360143D01*
X18356428Y-12317286D01*
X18370714Y-12260143D01*
X18370714Y-12145857D01*
X18356428Y-12117286D01*
X18342143Y-12103000D01*
X18313571Y-12088714D01*
X18256428Y-12088714D01*
X18227857Y-12103000D01*
X18213571Y-12117286D01*
X18199286Y-12145857D01*
X18199286Y-12217286D01*
X18213571Y-12245857D01*
X18227857Y-12260143D01*
X18256428Y-12274429D01*
X18313571Y-12274429D01*
X18342143Y-12260143D01*
X18356428Y-12245857D01*
X18370714Y-12217286D01*
X18627857Y-12188714D02*
X18627857Y-12388714D01*
X18556428Y-12074429D02*
X18485000Y-12288714D01*
X18670714Y-12288714D01*
X18770714Y-12088714D02*
X18770714Y-12145857D01*
X18885000Y-12088714D02*
X18885000Y-12145857D01*
X19327857Y-12503000D02*
X19313571Y-12488714D01*
X19285000Y-12445857D01*
X19270714Y-12417286D01*
X19256428Y-12374429D01*
X19242143Y-12303000D01*
X19242143Y-12245857D01*
X19256428Y-12174429D01*
X19270714Y-12131571D01*
X19285000Y-12103000D01*
X19313571Y-12060143D01*
X19327857Y-12045857D01*
X19599286Y-12388714D02*
X19427857Y-12388714D01*
X19513571Y-12388714D02*
X19513571Y-12088714D01*
X19485000Y-12131571D01*
X19456428Y-12160143D01*
X19427857Y-12174429D01*
X19870714Y-12088714D02*
X19727857Y-12088714D01*
X19713571Y-12231571D01*
X19727857Y-12217286D01*
X19756428Y-12203000D01*
X19827857Y-12203000D01*
X19856428Y-12217286D01*
X19870714Y-12231571D01*
X19885000Y-12260143D01*
X19885000Y-12331571D01*
X19870714Y-12360143D01*
X19856428Y-12374429D01*
X19827857Y-12388714D01*
X19756428Y-12388714D01*
X19727857Y-12374429D01*
X19713571Y-12360143D01*
X20242143Y-12388714D02*
X20242143Y-12088714D01*
X20370714Y-12388714D02*
X20370714Y-12231571D01*
X20356428Y-12203000D01*
X20327857Y-12188714D01*
X20285000Y-12188714D01*
X20256428Y-12203000D01*
X20242143Y-12217286D01*
X20556428Y-12388714D02*
X20527857Y-12374429D01*
X20513571Y-12360143D01*
X20499286Y-12331571D01*
X20499286Y-12245857D01*
X20513571Y-12217286D01*
X20527857Y-12203000D01*
X20556428Y-12188714D01*
X20599286Y-12188714D01*
X20627857Y-12203000D01*
X20642143Y-12217286D01*
X20656428Y-12245857D01*
X20656428Y-12331571D01*
X20642143Y-12360143D01*
X20627857Y-12374429D01*
X20599286Y-12388714D01*
X20556428Y-12388714D01*
X20827857Y-12388714D02*
X20799286Y-12374429D01*
X20785000Y-12345857D01*
X20785000Y-12088714D01*
X21056428Y-12374429D02*
X21027857Y-12388714D01*
X20970714Y-12388714D01*
X20942143Y-12374429D01*
X20927857Y-12345857D01*
X20927857Y-12231571D01*
X20942143Y-12203000D01*
X20970714Y-12188714D01*
X21027857Y-12188714D01*
X21056428Y-12203000D01*
X21070714Y-12231571D01*
X21070714Y-12260143D01*
X20927857Y-12288714D01*
X21185000Y-12374429D02*
X21213571Y-12388714D01*
X21270714Y-12388714D01*
X21299286Y-12374429D01*
X21313571Y-12345857D01*
X21313571Y-12331571D01*
X21299286Y-12303000D01*
X21270714Y-12288714D01*
X21227857Y-12288714D01*
X21199286Y-12274429D01*
X21185000Y-12245857D01*
X21185000Y-12231571D01*
X21199286Y-12203000D01*
X21227857Y-12188714D01*
X21270714Y-12188714D01*
X21299286Y-12203000D01*
X21670714Y-12274429D02*
X21899286Y-12274429D01*
X21785000Y-12388714D02*
X21785000Y-12160143D01*
X22242143Y-12088714D02*
X22427857Y-12088714D01*
X22327857Y-12203000D01*
X22370714Y-12203000D01*
X22399286Y-12217286D01*
X22413571Y-12231571D01*
X22427857Y-12260143D01*
X22427857Y-12331571D01*
X22413571Y-12360143D01*
X22399286Y-12374429D01*
X22370714Y-12388714D01*
X22285000Y-12388714D01*
X22256428Y-12374429D01*
X22242143Y-12360143D01*
X22770714Y-12374429D02*
X22799286Y-12388714D01*
X22856428Y-12388714D01*
X22885000Y-12374429D01*
X22899286Y-12345857D01*
X22899286Y-12331571D01*
X22885000Y-12303000D01*
X22856428Y-12288714D01*
X22813571Y-12288714D01*
X22785000Y-12274429D01*
X22770714Y-12245857D01*
X22770714Y-12231571D01*
X22785000Y-12203000D01*
X22813571Y-12188714D01*
X22856428Y-12188714D01*
X22885000Y-12203000D01*
X23070714Y-12388714D02*
X23042143Y-12374429D01*
X23027857Y-12345857D01*
X23027857Y-12088714D01*
X23227857Y-12388714D02*
X23199286Y-12374429D01*
X23185000Y-12360143D01*
X23170714Y-12331571D01*
X23170714Y-12245857D01*
X23185000Y-12217286D01*
X23199286Y-12203000D01*
X23227857Y-12188714D01*
X23270714Y-12188714D01*
X23299286Y-12203000D01*
X23313571Y-12217286D01*
X23327857Y-12245857D01*
X23327857Y-12331571D01*
X23313571Y-12360143D01*
X23299286Y-12374429D01*
X23270714Y-12388714D01*
X23227857Y-12388714D01*
X23413571Y-12188714D02*
X23527857Y-12188714D01*
X23456428Y-12088714D02*
X23456428Y-12345857D01*
X23470714Y-12374429D01*
X23499286Y-12388714D01*
X23527857Y-12388714D01*
X23613571Y-12374429D02*
X23642143Y-12388714D01*
X23699286Y-12388714D01*
X23727857Y-12374429D01*
X23742143Y-12345857D01*
X23742143Y-12331571D01*
X23727857Y-12303000D01*
X23699286Y-12288714D01*
X23656428Y-12288714D01*
X23627857Y-12274429D01*
X23613571Y-12245857D01*
X23613571Y-12231571D01*
X23627857Y-12203000D01*
X23656428Y-12188714D01*
X23699286Y-12188714D01*
X23727857Y-12203000D01*
X23842143Y-12503000D02*
X23856428Y-12488714D01*
X23885000Y-12445857D01*
X23899286Y-12417286D01*
X23913571Y-12374429D01*
X23927857Y-12303000D01*
X23927857Y-12245857D01*
X23913571Y-12174429D01*
X23899286Y-12131571D01*
X23885000Y-12103000D01*
X23856428Y-12060143D01*
X23842143Y-12045857D01*
M02*
