%TF.GenerationSoftware,KiCad,Pcbnew,(5.1.12)-1*%
%TF.CreationDate,2021-12-20T15:12:04-08:00*%
%TF.ProjectId,controlBoard,636f6e74-726f-46c4-926f-6172642e6b69,rev?*%
%TF.SameCoordinates,Original*%
%TF.FileFunction,Legend,Bot*%
%TF.FilePolarity,Positive*%
%FSLAX46Y46*%
G04 Gerber Fmt 4.6, Leading zero omitted, Abs format (unit mm)*
G04 Created by KiCad (PCBNEW (5.1.12)-1) date 2021-12-20 15:12:04*
%MOMM*%
%LPD*%
G01*
G04 APERTURE LIST*
%ADD10C,0.150000*%
%ADD11O,1.300000X1.850000*%
%ADD12O,1.800000X1.800000*%
G04 APERTURE END LIST*
D10*
X142547619Y-97869047D02*
X141833333Y-97869047D01*
X141690476Y-97916666D01*
X141595238Y-98011904D01*
X141547619Y-98154761D01*
X141547619Y-98250000D01*
X141547619Y-96916666D02*
X141547619Y-97392857D01*
X142547619Y-97392857D01*
X141642857Y-96011904D02*
X141595238Y-96059523D01*
X141547619Y-96202380D01*
X141547619Y-96297619D01*
X141595238Y-96440476D01*
X141690476Y-96535714D01*
X141785714Y-96583333D01*
X141976190Y-96630952D01*
X142119047Y-96630952D01*
X142309523Y-96583333D01*
X142404761Y-96535714D01*
X142500000Y-96440476D01*
X142547619Y-96297619D01*
X142547619Y-96202380D01*
X142500000Y-96059523D01*
X142452380Y-96011904D01*
X142547619Y-95297619D02*
X141833333Y-95297619D01*
X141690476Y-95345238D01*
X141595238Y-95440476D01*
X141547619Y-95583333D01*
X141547619Y-95678571D01*
X141547619Y-94345238D02*
X141547619Y-94821428D01*
X142547619Y-94821428D01*
X141642857Y-93440476D02*
X141595238Y-93488095D01*
X141547619Y-93630952D01*
X141547619Y-93726190D01*
X141595238Y-93869047D01*
X141690476Y-93964285D01*
X141785714Y-94011904D01*
X141976190Y-94059523D01*
X142119047Y-94059523D01*
X142309523Y-94011904D01*
X142404761Y-93964285D01*
X142500000Y-93869047D01*
X142547619Y-93726190D01*
X142547619Y-93630952D01*
X142500000Y-93488095D01*
X142452380Y-93440476D01*
X142547619Y-92726190D02*
X141833333Y-92726190D01*
X141690476Y-92773809D01*
X141595238Y-92869047D01*
X141547619Y-93011904D01*
X141547619Y-93107142D01*
X141547619Y-91773809D02*
X141547619Y-92250000D01*
X142547619Y-92250000D01*
X141642857Y-90869047D02*
X141595238Y-90916666D01*
X141547619Y-91059523D01*
X141547619Y-91154761D01*
X141595238Y-91297619D01*
X141690476Y-91392857D01*
X141785714Y-91440476D01*
X141976190Y-91488095D01*
X142119047Y-91488095D01*
X142309523Y-91440476D01*
X142404761Y-91392857D01*
X142500000Y-91297619D01*
X142547619Y-91154761D01*
X142547619Y-91059523D01*
X142500000Y-90916666D01*
X142452380Y-90869047D01*
X142547619Y-90154761D02*
X141833333Y-90154761D01*
X141690476Y-90202380D01*
X141595238Y-90297619D01*
X141547619Y-90440476D01*
X141547619Y-90535714D01*
X141547619Y-89202380D02*
X141547619Y-89678571D01*
X142547619Y-89678571D01*
X141642857Y-88297619D02*
X141595238Y-88345238D01*
X141547619Y-88488095D01*
X141547619Y-88583333D01*
X141595238Y-88726190D01*
X141690476Y-88821428D01*
X141785714Y-88869047D01*
X141976190Y-88916666D01*
X142119047Y-88916666D01*
X142309523Y-88869047D01*
X142404761Y-88821428D01*
X142500000Y-88726190D01*
X142547619Y-88583333D01*
X142547619Y-88488095D01*
X142500000Y-88345238D01*
X142452380Y-88297619D01*
X163202380Y-74511904D02*
X163202380Y-75083333D01*
X164202380Y-74797619D02*
X163202380Y-74797619D01*
X163202380Y-75321428D02*
X164202380Y-75988095D01*
X163202380Y-75988095D02*
X164202380Y-75321428D01*
X164202380Y-76892857D02*
X164202380Y-76321428D01*
X164202380Y-76607142D02*
X163202380Y-76607142D01*
X163345238Y-76511904D01*
X163440476Y-76416666D01*
X163488095Y-76321428D01*
X162202380Y-75107142D02*
X161726190Y-74773809D01*
X162202380Y-74535714D02*
X161202380Y-74535714D01*
X161202380Y-74916666D01*
X161250000Y-75011904D01*
X161297619Y-75059523D01*
X161392857Y-75107142D01*
X161535714Y-75107142D01*
X161630952Y-75059523D01*
X161678571Y-75011904D01*
X161726190Y-74916666D01*
X161726190Y-74535714D01*
X161202380Y-75440476D02*
X162202380Y-76107142D01*
X161202380Y-76107142D02*
X162202380Y-75440476D01*
X162202380Y-77011904D02*
X162202380Y-76440476D01*
X162202380Y-76726190D02*
X161202380Y-76726190D01*
X161345238Y-76630952D01*
X161440476Y-76535714D01*
X161488095Y-76440476D01*
X170202380Y-74714285D02*
X169202380Y-74714285D01*
X170202380Y-75285714D01*
X169202380Y-75285714D01*
X170107142Y-76333333D02*
X170154761Y-76285714D01*
X170202380Y-76142857D01*
X170202380Y-76047619D01*
X170154761Y-75904761D01*
X170059523Y-75809523D01*
X169964285Y-75761904D01*
X169773809Y-75714285D01*
X169630952Y-75714285D01*
X169440476Y-75761904D01*
X169345238Y-75809523D01*
X169250000Y-75904761D01*
X169202380Y-76047619D01*
X169202380Y-76142857D01*
X169250000Y-76285714D01*
X169297619Y-76333333D01*
X168202380Y-74714285D02*
X167202380Y-74714285D01*
X168202380Y-75285714D01*
X167202380Y-75285714D01*
X168107142Y-76333333D02*
X168154761Y-76285714D01*
X168202380Y-76142857D01*
X168202380Y-76047619D01*
X168154761Y-75904761D01*
X168059523Y-75809523D01*
X167964285Y-75761904D01*
X167773809Y-75714285D01*
X167630952Y-75714285D01*
X167440476Y-75761904D01*
X167345238Y-75809523D01*
X167250000Y-75904761D01*
X167202380Y-76047619D01*
X167202380Y-76142857D01*
X167250000Y-76285714D01*
X167297619Y-76333333D01*
X168535714Y-88452380D02*
X168535714Y-87452380D01*
X167964285Y-88452380D01*
X167964285Y-87452380D01*
X166916666Y-88357142D02*
X166964285Y-88404761D01*
X167107142Y-88452380D01*
X167202380Y-88452380D01*
X167345238Y-88404761D01*
X167440476Y-88309523D01*
X167488095Y-88214285D01*
X167535714Y-88023809D01*
X167535714Y-87880952D01*
X167488095Y-87690476D01*
X167440476Y-87595238D01*
X167345238Y-87500000D01*
X167202380Y-87452380D01*
X167107142Y-87452380D01*
X166964285Y-87500000D01*
X166916666Y-87547619D01*
X164581071Y-97603571D02*
X164914404Y-97603571D01*
X164914404Y-98127380D02*
X164914404Y-97127380D01*
X164438214Y-97127380D01*
X164057261Y-98127380D02*
X164057261Y-97460714D01*
X164057261Y-97127380D02*
X164104880Y-97175000D01*
X164057261Y-97222619D01*
X164009642Y-97175000D01*
X164057261Y-97127380D01*
X164057261Y-97222619D01*
X163581071Y-97460714D02*
X163581071Y-98127380D01*
X163581071Y-97555952D02*
X163533452Y-97508333D01*
X163438214Y-97460714D01*
X163295357Y-97460714D01*
X163200119Y-97508333D01*
X163152500Y-97603571D01*
X163152500Y-98127380D01*
X162247738Y-97460714D02*
X162247738Y-98270238D01*
X162295357Y-98365476D01*
X162342976Y-98413095D01*
X162438214Y-98460714D01*
X162581071Y-98460714D01*
X162676309Y-98413095D01*
X162247738Y-98079761D02*
X162342976Y-98127380D01*
X162533452Y-98127380D01*
X162628690Y-98079761D01*
X162676309Y-98032142D01*
X162723928Y-97936904D01*
X162723928Y-97651190D01*
X162676309Y-97555952D01*
X162628690Y-97508333D01*
X162533452Y-97460714D01*
X162342976Y-97460714D01*
X162247738Y-97508333D01*
X161390595Y-98079761D02*
X161485833Y-98127380D01*
X161676309Y-98127380D01*
X161771547Y-98079761D01*
X161819166Y-97984523D01*
X161819166Y-97603571D01*
X161771547Y-97508333D01*
X161676309Y-97460714D01*
X161485833Y-97460714D01*
X161390595Y-97508333D01*
X161342976Y-97603571D01*
X161342976Y-97698809D01*
X161819166Y-97794047D01*
X160914404Y-98127380D02*
X160914404Y-97460714D01*
X160914404Y-97651190D02*
X160866785Y-97555952D01*
X160819166Y-97508333D01*
X160723928Y-97460714D01*
X160628690Y-97460714D01*
X160295357Y-97460714D02*
X160295357Y-98460714D01*
X160295357Y-97508333D02*
X160200119Y-97460714D01*
X160009642Y-97460714D01*
X159914404Y-97508333D01*
X159866785Y-97555952D01*
X159819166Y-97651190D01*
X159819166Y-97936904D01*
X159866785Y-98032142D01*
X159914404Y-98079761D01*
X160009642Y-98127380D01*
X160200119Y-98127380D01*
X160295357Y-98079761D01*
X159390595Y-98127380D02*
X159390595Y-97460714D01*
X159390595Y-97651190D02*
X159342976Y-97555952D01*
X159295357Y-97508333D01*
X159200119Y-97460714D01*
X159104880Y-97460714D01*
X158771547Y-98127380D02*
X158771547Y-97460714D01*
X158771547Y-97127380D02*
X158819166Y-97175000D01*
X158771547Y-97222619D01*
X158723928Y-97175000D01*
X158771547Y-97127380D01*
X158771547Y-97222619D01*
X158295357Y-97460714D02*
X158295357Y-98127380D01*
X158295357Y-97555952D02*
X158247738Y-97508333D01*
X158152500Y-97460714D01*
X158009642Y-97460714D01*
X157914404Y-97508333D01*
X157866785Y-97603571D01*
X157866785Y-98127380D01*
X157533452Y-97460714D02*
X157152500Y-97460714D01*
X157390595Y-97127380D02*
X157390595Y-97984523D01*
X157342976Y-98079761D01*
X157247738Y-98127380D01*
X157152500Y-98127380D01*
X156057261Y-98127380D02*
X156057261Y-97127380D01*
X155819166Y-97127380D01*
X155676309Y-97175000D01*
X155581071Y-97270238D01*
X155533452Y-97365476D01*
X155485833Y-97555952D01*
X155485833Y-97698809D01*
X155533452Y-97889285D01*
X155581071Y-97984523D01*
X155676309Y-98079761D01*
X155819166Y-98127380D01*
X156057261Y-98127380D01*
X154914404Y-98127380D02*
X155009642Y-98079761D01*
X155057261Y-98032142D01*
X155104880Y-97936904D01*
X155104880Y-97651190D01*
X155057261Y-97555952D01*
X155009642Y-97508333D01*
X154914404Y-97460714D01*
X154771547Y-97460714D01*
X154676309Y-97508333D01*
X154628690Y-97555952D01*
X154581071Y-97651190D01*
X154581071Y-97936904D01*
X154628690Y-98032142D01*
X154676309Y-98079761D01*
X154771547Y-98127380D01*
X154914404Y-98127380D01*
X154009642Y-98127380D02*
X154104880Y-98079761D01*
X154152500Y-98032142D01*
X154200119Y-97936904D01*
X154200119Y-97651190D01*
X154152500Y-97555952D01*
X154104880Y-97508333D01*
X154009642Y-97460714D01*
X153866785Y-97460714D01*
X153771547Y-97508333D01*
X153723928Y-97555952D01*
X153676309Y-97651190D01*
X153676309Y-97936904D01*
X153723928Y-98032142D01*
X153771547Y-98079761D01*
X153866785Y-98127380D01*
X154009642Y-98127380D01*
X153247738Y-98127380D02*
X153247738Y-97460714D01*
X153247738Y-97651190D02*
X153200119Y-97555952D01*
X153152500Y-97508333D01*
X153057261Y-97460714D01*
X152962023Y-97460714D01*
X152485833Y-98127380D02*
X152581071Y-98079761D01*
X152628690Y-97984523D01*
X152628690Y-97127380D01*
X151962023Y-98127380D02*
X152057261Y-98079761D01*
X152104880Y-98032142D01*
X152152500Y-97936904D01*
X152152500Y-97651190D01*
X152104880Y-97555952D01*
X152057261Y-97508333D01*
X151962023Y-97460714D01*
X151819166Y-97460714D01*
X151723928Y-97508333D01*
X151676309Y-97555952D01*
X151628690Y-97651190D01*
X151628690Y-97936904D01*
X151676309Y-98032142D01*
X151723928Y-98079761D01*
X151819166Y-98127380D01*
X151962023Y-98127380D01*
X150771547Y-98079761D02*
X150866785Y-98127380D01*
X151057261Y-98127380D01*
X151152500Y-98079761D01*
X151200119Y-98032142D01*
X151247738Y-97936904D01*
X151247738Y-97651190D01*
X151200119Y-97555952D01*
X151152500Y-97508333D01*
X151057261Y-97460714D01*
X150866785Y-97460714D01*
X150771547Y-97508333D01*
X150342976Y-98127380D02*
X150342976Y-97127380D01*
X150247738Y-97746428D02*
X149962023Y-98127380D01*
X149962023Y-97460714D02*
X150342976Y-97841666D01*
X165009642Y-99110714D02*
X164771547Y-99777380D01*
X164533452Y-99110714D01*
X163628690Y-99777380D02*
X164200119Y-99777380D01*
X163914404Y-99777380D02*
X163914404Y-98777380D01*
X164009642Y-98920238D01*
X164104880Y-99015476D01*
X164200119Y-99063095D01*
X163200119Y-99682142D02*
X163152500Y-99729761D01*
X163200119Y-99777380D01*
X163247738Y-99729761D01*
X163200119Y-99682142D01*
X163200119Y-99777380D01*
X162533452Y-98777380D02*
X162438214Y-98777380D01*
X162342976Y-98825000D01*
X162295357Y-98872619D01*
X162247738Y-98967857D01*
X162200119Y-99158333D01*
X162200119Y-99396428D01*
X162247738Y-99586904D01*
X162295357Y-99682142D01*
X162342976Y-99729761D01*
X162438214Y-99777380D01*
X162533452Y-99777380D01*
X162628690Y-99729761D01*
X162676309Y-99682142D01*
X162723928Y-99586904D01*
X162771547Y-99396428D01*
X162771547Y-99158333D01*
X162723928Y-98967857D01*
X162676309Y-98872619D01*
X162628690Y-98825000D01*
X162533452Y-98777380D01*
X161009642Y-98777380D02*
X161009642Y-99586904D01*
X160962023Y-99682142D01*
X160914404Y-99729761D01*
X160819166Y-99777380D01*
X160628690Y-99777380D01*
X160533452Y-99729761D01*
X160485833Y-99682142D01*
X160438214Y-99586904D01*
X160438214Y-98777380D01*
X159962023Y-99777380D02*
X159962023Y-98777380D01*
X159485833Y-98777380D02*
X159485833Y-99586904D01*
X159438214Y-99682142D01*
X159390595Y-99729761D01*
X159295357Y-99777380D01*
X159104880Y-99777380D01*
X159009642Y-99729761D01*
X158962023Y-99682142D01*
X158914404Y-99586904D01*
X158914404Y-98777380D01*
X157866785Y-99682142D02*
X157914404Y-99729761D01*
X158057261Y-99777380D01*
X158152500Y-99777380D01*
X158295357Y-99729761D01*
X158390595Y-99634523D01*
X158438214Y-99539285D01*
X158485833Y-99348809D01*
X158485833Y-99205952D01*
X158438214Y-99015476D01*
X158390595Y-98920238D01*
X158295357Y-98825000D01*
X158152500Y-98777380D01*
X158057261Y-98777380D01*
X157914404Y-98825000D01*
X157866785Y-98872619D01*
X156723928Y-98872619D02*
X156676309Y-98825000D01*
X156581071Y-98777380D01*
X156342976Y-98777380D01*
X156247738Y-98825000D01*
X156200119Y-98872619D01*
X156152500Y-98967857D01*
X156152500Y-99063095D01*
X156200119Y-99205952D01*
X156771547Y-99777380D01*
X156152500Y-99777380D01*
X155533452Y-98777380D02*
X155438214Y-98777380D01*
X155342976Y-98825000D01*
X155295357Y-98872619D01*
X155247738Y-98967857D01*
X155200119Y-99158333D01*
X155200119Y-99396428D01*
X155247738Y-99586904D01*
X155295357Y-99682142D01*
X155342976Y-99729761D01*
X155438214Y-99777380D01*
X155533452Y-99777380D01*
X155628690Y-99729761D01*
X155676309Y-99682142D01*
X155723928Y-99586904D01*
X155771547Y-99396428D01*
X155771547Y-99158333D01*
X155723928Y-98967857D01*
X155676309Y-98872619D01*
X155628690Y-98825000D01*
X155533452Y-98777380D01*
X154819166Y-98872619D02*
X154771547Y-98825000D01*
X154676309Y-98777380D01*
X154438214Y-98777380D01*
X154342976Y-98825000D01*
X154295357Y-98872619D01*
X154247738Y-98967857D01*
X154247738Y-99063095D01*
X154295357Y-99205952D01*
X154866785Y-99777380D01*
X154247738Y-99777380D01*
X153295357Y-99777380D02*
X153866785Y-99777380D01*
X153581071Y-99777380D02*
X153581071Y-98777380D01*
X153676309Y-98920238D01*
X153771547Y-99015476D01*
X153866785Y-99063095D01*
X159250000Y-75238095D02*
X159202380Y-75142857D01*
X159202380Y-75000000D01*
X159250000Y-74857142D01*
X159345238Y-74761904D01*
X159440476Y-74714285D01*
X159630952Y-74666666D01*
X159773809Y-74666666D01*
X159964285Y-74714285D01*
X160059523Y-74761904D01*
X160154761Y-74857142D01*
X160202380Y-75000000D01*
X160202380Y-75095238D01*
X160154761Y-75238095D01*
X160107142Y-75285714D01*
X159773809Y-75285714D01*
X159773809Y-75095238D01*
X160202380Y-75714285D02*
X159202380Y-75714285D01*
X160202380Y-76285714D01*
X159202380Y-76285714D01*
X160202380Y-76761904D02*
X159202380Y-76761904D01*
X159202380Y-77000000D01*
X159250000Y-77142857D01*
X159345238Y-77238095D01*
X159440476Y-77285714D01*
X159630952Y-77333333D01*
X159773809Y-77333333D01*
X159964285Y-77285714D01*
X160059523Y-77238095D01*
X160154761Y-77142857D01*
X160202380Y-77000000D01*
X160202380Y-76761904D01*
X165202380Y-74416666D02*
X166202380Y-74750000D01*
X165202380Y-75083333D01*
X166107142Y-75988095D02*
X166154761Y-75940476D01*
X166202380Y-75797619D01*
X166202380Y-75702380D01*
X166154761Y-75559523D01*
X166059523Y-75464285D01*
X165964285Y-75416666D01*
X165773809Y-75369047D01*
X165630952Y-75369047D01*
X165440476Y-75416666D01*
X165345238Y-75464285D01*
X165250000Y-75559523D01*
X165202380Y-75702380D01*
X165202380Y-75797619D01*
X165250000Y-75940476D01*
X165297619Y-75988095D01*
X166107142Y-76988095D02*
X166154761Y-76940476D01*
X166202380Y-76797619D01*
X166202380Y-76702380D01*
X166154761Y-76559523D01*
X166059523Y-76464285D01*
X165964285Y-76416666D01*
X165773809Y-76369047D01*
X165630952Y-76369047D01*
X165440476Y-76416666D01*
X165345238Y-76464285D01*
X165250000Y-76559523D01*
X165202380Y-76702380D01*
X165202380Y-76797619D01*
X165250000Y-76940476D01*
X165297619Y-76988095D01*
X143785714Y-75154761D02*
X143642857Y-75202380D01*
X143404761Y-75202380D01*
X143309523Y-75154761D01*
X143261904Y-75107142D01*
X143214285Y-75011904D01*
X143214285Y-74916666D01*
X143261904Y-74821428D01*
X143309523Y-74773809D01*
X143404761Y-74726190D01*
X143595238Y-74678571D01*
X143690476Y-74630952D01*
X143738095Y-74583333D01*
X143785714Y-74488095D01*
X143785714Y-74392857D01*
X143738095Y-74297619D01*
X143690476Y-74250000D01*
X143595238Y-74202380D01*
X143357142Y-74202380D01*
X143214285Y-74250000D01*
X146380952Y-74821428D02*
X145619047Y-74821428D01*
X146000000Y-75202380D02*
X146000000Y-74440476D01*
X149130952Y-74821428D02*
X148369047Y-74821428D01*
X145511904Y-89750000D02*
X145607142Y-89702380D01*
X145750000Y-89702380D01*
X145892857Y-89750000D01*
X145988095Y-89845238D01*
X146035714Y-89940476D01*
X146083333Y-90130952D01*
X146083333Y-90273809D01*
X146035714Y-90464285D01*
X145988095Y-90559523D01*
X145892857Y-90654761D01*
X145750000Y-90702380D01*
X145654761Y-90702380D01*
X145511904Y-90654761D01*
X145464285Y-90607142D01*
X145464285Y-90273809D01*
X145654761Y-90273809D01*
X145035714Y-90702380D02*
X145035714Y-89702380D01*
X144464285Y-90702380D01*
X144464285Y-89702380D01*
X143988095Y-90702380D02*
X143988095Y-89702380D01*
X143750000Y-89702380D01*
X143607142Y-89750000D01*
X143511904Y-89845238D01*
X143464285Y-89940476D01*
X143416666Y-90130952D01*
X143416666Y-90273809D01*
X143464285Y-90464285D01*
X143511904Y-90559523D01*
X143607142Y-90654761D01*
X143750000Y-90702380D01*
X143988095Y-90702380D01*
X152285714Y-90321428D02*
X151523809Y-90321428D01*
X151904761Y-90702380D02*
X151904761Y-89940476D01*
X150571428Y-89702380D02*
X151047619Y-89702380D01*
X151095238Y-90178571D01*
X151047619Y-90130952D01*
X150952380Y-90083333D01*
X150714285Y-90083333D01*
X150619047Y-90130952D01*
X150571428Y-90178571D01*
X150523809Y-90273809D01*
X150523809Y-90511904D01*
X150571428Y-90607142D01*
X150619047Y-90654761D01*
X150714285Y-90702380D01*
X150952380Y-90702380D01*
X151047619Y-90654761D01*
X151095238Y-90607142D01*
X150238095Y-89702380D02*
X149904761Y-90702380D01*
X149571428Y-89702380D01*
X168011904Y-84750000D02*
X168107142Y-84702380D01*
X168250000Y-84702380D01*
X168392857Y-84750000D01*
X168488095Y-84845238D01*
X168535714Y-84940476D01*
X168583333Y-85130952D01*
X168583333Y-85273809D01*
X168535714Y-85464285D01*
X168488095Y-85559523D01*
X168392857Y-85654761D01*
X168250000Y-85702380D01*
X168154761Y-85702380D01*
X168011904Y-85654761D01*
X167964285Y-85607142D01*
X167964285Y-85273809D01*
X168154761Y-85273809D01*
X167535714Y-85702380D02*
X167535714Y-84702380D01*
X166964285Y-85702380D01*
X166964285Y-84702380D01*
X166488095Y-85702380D02*
X166488095Y-84702380D01*
X166250000Y-84702380D01*
X166107142Y-84750000D01*
X166011904Y-84845238D01*
X165964285Y-84940476D01*
X165916666Y-85130952D01*
X165916666Y-85273809D01*
X165964285Y-85464285D01*
X166011904Y-85559523D01*
X166107142Y-85654761D01*
X166250000Y-85702380D01*
X166488095Y-85702380D01*
X168583333Y-89952380D02*
X168250000Y-90952380D01*
X167916666Y-89952380D01*
X167011904Y-90857142D02*
X167059523Y-90904761D01*
X167202380Y-90952380D01*
X167297619Y-90952380D01*
X167440476Y-90904761D01*
X167535714Y-90809523D01*
X167583333Y-90714285D01*
X167630952Y-90523809D01*
X167630952Y-90380952D01*
X167583333Y-90190476D01*
X167535714Y-90095238D01*
X167440476Y-90000000D01*
X167297619Y-89952380D01*
X167202380Y-89952380D01*
X167059523Y-90000000D01*
X167011904Y-90047619D01*
X166011904Y-90857142D02*
X166059523Y-90904761D01*
X166202380Y-90952380D01*
X166297619Y-90952380D01*
X166440476Y-90904761D01*
X166535714Y-90809523D01*
X166583333Y-90714285D01*
X166630952Y-90523809D01*
X166630952Y-90380952D01*
X166583333Y-90190476D01*
X166535714Y-90095238D01*
X166440476Y-90000000D01*
X166297619Y-89952380D01*
X166202380Y-89952380D01*
X166059523Y-90000000D01*
X166011904Y-90047619D01*
X167916666Y-93452380D02*
X168250000Y-92976190D01*
X168488095Y-93452380D02*
X168488095Y-92452380D01*
X168107142Y-92452380D01*
X168011904Y-92500000D01*
X167964285Y-92547619D01*
X167916666Y-92642857D01*
X167916666Y-92785714D01*
X167964285Y-92880952D01*
X168011904Y-92928571D01*
X168107142Y-92976190D01*
X168488095Y-92976190D01*
X167583333Y-92452380D02*
X166916666Y-93452380D01*
X166916666Y-92452380D02*
X167583333Y-93452380D01*
X168511904Y-94702380D02*
X167940476Y-94702380D01*
X168226190Y-95702380D02*
X168226190Y-94702380D01*
X167702380Y-94702380D02*
X167035714Y-95702380D01*
X167035714Y-94702380D02*
X167702380Y-95702380D01*
X167797619Y-98452380D02*
X168130952Y-97976190D01*
X168369047Y-98452380D02*
X168369047Y-97452380D01*
X167988095Y-97452380D01*
X167892857Y-97500000D01*
X167845238Y-97547619D01*
X167797619Y-97642857D01*
X167797619Y-97785714D01*
X167845238Y-97880952D01*
X167892857Y-97928571D01*
X167988095Y-97976190D01*
X168369047Y-97976190D01*
X167416666Y-98404761D02*
X167273809Y-98452380D01*
X167035714Y-98452380D01*
X166940476Y-98404761D01*
X166892857Y-98357142D01*
X166845238Y-98261904D01*
X166845238Y-98166666D01*
X166892857Y-98071428D01*
X166940476Y-98023809D01*
X167035714Y-97976190D01*
X167226190Y-97928571D01*
X167321428Y-97880952D01*
X167369047Y-97833333D01*
X167416666Y-97738095D01*
X167416666Y-97642857D01*
X167369047Y-97547619D01*
X167321428Y-97500000D01*
X167226190Y-97452380D01*
X166988095Y-97452380D01*
X166845238Y-97500000D01*
X166559523Y-97452380D02*
X165988095Y-97452380D01*
X166273809Y-98452380D02*
X166273809Y-97452380D01*
X162654761Y-79246428D02*
X161892857Y-79246428D01*
X160416666Y-79960714D02*
X160416666Y-78532142D01*
X159702380Y-79627380D02*
X159702380Y-78627380D01*
X159369047Y-79341666D01*
X159035714Y-78627380D01*
X159035714Y-79627380D01*
X158369047Y-78627380D02*
X158178571Y-78627380D01*
X158083333Y-78675000D01*
X157988095Y-78770238D01*
X157940476Y-78960714D01*
X157940476Y-79294047D01*
X157988095Y-79484523D01*
X158083333Y-79579761D01*
X158178571Y-79627380D01*
X158369047Y-79627380D01*
X158464285Y-79579761D01*
X158559523Y-79484523D01*
X158607142Y-79294047D01*
X158607142Y-78960714D01*
X158559523Y-78770238D01*
X158464285Y-78675000D01*
X158369047Y-78627380D01*
X157559523Y-79579761D02*
X157416666Y-79627380D01*
X157178571Y-79627380D01*
X157083333Y-79579761D01*
X157035714Y-79532142D01*
X156988095Y-79436904D01*
X156988095Y-79341666D01*
X157035714Y-79246428D01*
X157083333Y-79198809D01*
X157178571Y-79151190D01*
X157369047Y-79103571D01*
X157464285Y-79055952D01*
X157511904Y-79008333D01*
X157559523Y-78913095D01*
X157559523Y-78817857D01*
X157511904Y-78722619D01*
X157464285Y-78675000D01*
X157369047Y-78627380D01*
X157130952Y-78627380D01*
X156988095Y-78675000D01*
X156559523Y-79627380D02*
X156559523Y-78627380D01*
X155845238Y-79960714D02*
X155845238Y-78532142D01*
X154369047Y-79246428D02*
X153607142Y-79246428D01*
X153988095Y-79627380D02*
X153988095Y-78865476D01*
X162535714Y-81277380D02*
X162869047Y-80801190D01*
X163107142Y-81277380D02*
X163107142Y-80277380D01*
X162726190Y-80277380D01*
X162630952Y-80325000D01*
X162583333Y-80372619D01*
X162535714Y-80467857D01*
X162535714Y-80610714D01*
X162583333Y-80705952D01*
X162630952Y-80753571D01*
X162726190Y-80801190D01*
X163107142Y-80801190D01*
X162154761Y-81229761D02*
X162011904Y-81277380D01*
X161773809Y-81277380D01*
X161678571Y-81229761D01*
X161630952Y-81182142D01*
X161583333Y-81086904D01*
X161583333Y-80991666D01*
X161630952Y-80896428D01*
X161678571Y-80848809D01*
X161773809Y-80801190D01*
X161964285Y-80753571D01*
X162059523Y-80705952D01*
X162107142Y-80658333D01*
X162154761Y-80563095D01*
X162154761Y-80467857D01*
X162107142Y-80372619D01*
X162059523Y-80325000D01*
X161964285Y-80277380D01*
X161726190Y-80277380D01*
X161583333Y-80325000D01*
X161297619Y-80277380D02*
X160726190Y-80277380D01*
X161011904Y-81277380D02*
X161011904Y-80277380D01*
X160154761Y-81610714D02*
X160154761Y-80182142D01*
X159488095Y-81229761D02*
X159345238Y-81277380D01*
X159107142Y-81277380D01*
X159011904Y-81229761D01*
X158964285Y-81182142D01*
X158916666Y-81086904D01*
X158916666Y-80991666D01*
X158964285Y-80896428D01*
X159011904Y-80848809D01*
X159107142Y-80801190D01*
X159297619Y-80753571D01*
X159392857Y-80705952D01*
X159440476Y-80658333D01*
X159488095Y-80563095D01*
X159488095Y-80467857D01*
X159440476Y-80372619D01*
X159392857Y-80325000D01*
X159297619Y-80277380D01*
X159059523Y-80277380D01*
X158916666Y-80325000D01*
X157916666Y-81182142D02*
X157964285Y-81229761D01*
X158107142Y-81277380D01*
X158202380Y-81277380D01*
X158345238Y-81229761D01*
X158440476Y-81134523D01*
X158488095Y-81039285D01*
X158535714Y-80848809D01*
X158535714Y-80705952D01*
X158488095Y-80515476D01*
X158440476Y-80420238D01*
X158345238Y-80325000D01*
X158202380Y-80277380D01*
X158107142Y-80277380D01*
X157964285Y-80325000D01*
X157916666Y-80372619D01*
X157488095Y-81277380D02*
X157488095Y-80277380D01*
X156916666Y-81277380D02*
X157345238Y-80705952D01*
X156916666Y-80277380D02*
X157488095Y-80848809D01*
X156250000Y-81610714D02*
X156250000Y-80182142D01*
X155535714Y-81277380D02*
X155535714Y-80277380D01*
X155202380Y-80991666D01*
X154869047Y-80277380D01*
X154869047Y-81277380D01*
X154392857Y-81277380D02*
X154392857Y-80277380D01*
X153964285Y-81229761D02*
X153821428Y-81277380D01*
X153583333Y-81277380D01*
X153488095Y-81229761D01*
X153440476Y-81182142D01*
X153392857Y-81086904D01*
X153392857Y-80991666D01*
X153440476Y-80896428D01*
X153488095Y-80848809D01*
X153583333Y-80801190D01*
X153773809Y-80753571D01*
X153869047Y-80705952D01*
X153916666Y-80658333D01*
X153964285Y-80563095D01*
X153964285Y-80467857D01*
X153916666Y-80372619D01*
X153869047Y-80325000D01*
X153773809Y-80277380D01*
X153535714Y-80277380D01*
X153392857Y-80325000D01*
X152773809Y-80277380D02*
X152583333Y-80277380D01*
X152488095Y-80325000D01*
X152392857Y-80420238D01*
X152345238Y-80610714D01*
X152345238Y-80944047D01*
X152392857Y-81134523D01*
X152488095Y-81229761D01*
X152583333Y-81277380D01*
X152773809Y-81277380D01*
X152869047Y-81229761D01*
X152964285Y-81134523D01*
X153011904Y-80944047D01*
X153011904Y-80610714D01*
X152964285Y-80420238D01*
X152869047Y-80325000D01*
X152773809Y-80277380D01*
%LPC*%
D11*
X159750000Y-73250000D03*
X161750000Y-73250000D03*
X163750000Y-73250000D03*
X165750000Y-73250000D03*
X167750000Y-73250000D03*
G36*
G01*
X170400000Y-72595832D02*
X170400000Y-73904168D01*
G75*
G02*
X170129168Y-74175000I-270832J0D01*
G01*
X169370832Y-74175000D01*
G75*
G02*
X169100000Y-73904168I0J270832D01*
G01*
X169100000Y-72595832D01*
G75*
G02*
X169370832Y-72325000I270832J0D01*
G01*
X170129168Y-72325000D01*
G75*
G02*
X170400000Y-72595832I0J-270832D01*
G01*
G37*
D12*
X170250000Y-97950000D03*
X170250000Y-95410000D03*
X170250000Y-92870000D03*
X170250000Y-90330000D03*
X170250000Y-87790000D03*
G36*
G01*
X169350000Y-86100000D02*
X169350000Y-84400000D01*
G75*
G02*
X169400000Y-84350000I50000J0D01*
G01*
X171100000Y-84350000D01*
G75*
G02*
X171150000Y-84400000I0J-50000D01*
G01*
X171150000Y-86100000D01*
G75*
G02*
X171100000Y-86150000I-50000J0D01*
G01*
X169400000Y-86150000D01*
G75*
G02*
X169350000Y-86100000I0J50000D01*
G01*
G37*
G36*
G01*
X145950000Y-98600000D02*
X145950000Y-96800000D01*
G75*
G02*
X146850000Y-95900000I900000J0D01*
G01*
X148650000Y-95900000D01*
G75*
G02*
X149550000Y-96800000I0J-900000D01*
G01*
X149550000Y-98600000D01*
G75*
G02*
X148650000Y-99500000I-900000J0D01*
G01*
X146850000Y-99500000D01*
G75*
G02*
X145950000Y-98600000I0J900000D01*
G01*
G37*
G36*
G01*
X143200000Y-94025000D02*
X143200000Y-91975000D01*
G75*
G02*
X143975000Y-91200000I775000J0D01*
G01*
X145525000Y-91200000D01*
G75*
G02*
X146300000Y-91975000I0J-775000D01*
G01*
X146300000Y-94025000D01*
G75*
G02*
X145525000Y-94800000I-775000J0D01*
G01*
X143975000Y-94800000D01*
G75*
G02*
X143200000Y-94025000I0J775000D01*
G01*
G37*
G36*
G01*
X148950000Y-94750000D02*
X148950000Y-91250000D01*
G75*
G02*
X149000000Y-91200000I50000J0D01*
G01*
X152500000Y-91200000D01*
G75*
G02*
X152550000Y-91250000I0J-50000D01*
G01*
X152550000Y-94750000D01*
G75*
G02*
X152500000Y-94800000I-50000J0D01*
G01*
X149000000Y-94800000D01*
G75*
G02*
X148950000Y-94750000I0J50000D01*
G01*
G37*
X170346200Y-78084000D03*
X170346200Y-80624000D03*
X167806200Y-78084000D03*
X167806200Y-80624000D03*
X165266200Y-78084000D03*
G36*
G01*
X166116200Y-81524000D02*
X164416200Y-81524000D01*
G75*
G02*
X164366200Y-81474000I0J50000D01*
G01*
X164366200Y-79774000D01*
G75*
G02*
X164416200Y-79724000I50000J0D01*
G01*
X166116200Y-79724000D01*
G75*
G02*
X166166200Y-79774000I0J-50000D01*
G01*
X166166200Y-81474000D01*
G75*
G02*
X166116200Y-81524000I-50000J0D01*
G01*
G37*
X148680000Y-72851600D03*
X146140000Y-72851600D03*
G36*
G01*
X144450000Y-73751600D02*
X142750000Y-73751600D01*
G75*
G02*
X142700000Y-73701600I0J50000D01*
G01*
X142700000Y-72001600D01*
G75*
G02*
X142750000Y-71951600I50000J0D01*
G01*
X144450000Y-71951600D01*
G75*
G02*
X144500000Y-72001600I0J-50000D01*
G01*
X144500000Y-73701600D01*
G75*
G02*
X144450000Y-73751600I-50000J0D01*
G01*
G37*
M02*
