%TF.GenerationSoftware,KiCad,Pcbnew,(5.1.12)-1*%
%TF.CreationDate,2021-12-20T15:12:04-08:00*%
%TF.ProjectId,controlBoard,636f6e74-726f-46c4-926f-6172642e6b69,rev?*%
%TF.SameCoordinates,Original*%
%TF.FileFunction,Soldermask,Top*%
%TF.FilePolarity,Negative*%
%FSLAX46Y46*%
G04 Gerber Fmt 4.6, Leading zero omitted, Abs format (unit mm)*
G04 Created by KiCad (PCBNEW (5.1.12)-1) date 2021-12-20 15:12:04*
%MOMM*%
%LPD*%
G01*
G04 APERTURE LIST*
%ADD10O,1.300000X1.850000*%
%ADD11C,0.100000*%
%ADD12O,1.800000X1.800000*%
G04 APERTURE END LIST*
D10*
X159750000Y-73250000D03*
X161750000Y-73250000D03*
X163750000Y-73250000D03*
X165750000Y-73250000D03*
X167750000Y-73250000D03*
G36*
G01*
X170400000Y-72595832D02*
X170400000Y-73904168D01*
G75*
G02*
X170129168Y-74175000I-270832J0D01*
G01*
X169370832Y-74175000D01*
G75*
G02*
X169100000Y-73904168I0J270832D01*
G01*
X169100000Y-72595832D01*
G75*
G02*
X169370832Y-72325000I270832J0D01*
G01*
X170129168Y-72325000D01*
G75*
G02*
X170400000Y-72595832I0J-270832D01*
G01*
G37*
G36*
G01*
X152900000Y-83911000D02*
X152900000Y-84461000D01*
G75*
G02*
X152850000Y-84511000I-50000J0D01*
G01*
X151250000Y-84511000D01*
G75*
G02*
X151200000Y-84461000I0J50000D01*
G01*
X151200000Y-83911000D01*
G75*
G02*
X151250000Y-83861000I50000J0D01*
G01*
X152850000Y-83861000D01*
G75*
G02*
X152900000Y-83911000I0J-50000D01*
G01*
G37*
G36*
G01*
X152900000Y-83111000D02*
X152900000Y-83661000D01*
G75*
G02*
X152850000Y-83711000I-50000J0D01*
G01*
X151250000Y-83711000D01*
G75*
G02*
X151200000Y-83661000I0J50000D01*
G01*
X151200000Y-83111000D01*
G75*
G02*
X151250000Y-83061000I50000J0D01*
G01*
X152850000Y-83061000D01*
G75*
G02*
X152900000Y-83111000I0J-50000D01*
G01*
G37*
G36*
G01*
X152900000Y-82311000D02*
X152900000Y-82861000D01*
G75*
G02*
X152850000Y-82911000I-50000J0D01*
G01*
X151250000Y-82911000D01*
G75*
G02*
X151200000Y-82861000I0J50000D01*
G01*
X151200000Y-82311000D01*
G75*
G02*
X151250000Y-82261000I50000J0D01*
G01*
X152850000Y-82261000D01*
G75*
G02*
X152900000Y-82311000I0J-50000D01*
G01*
G37*
G36*
G01*
X152900000Y-81511000D02*
X152900000Y-82061000D01*
G75*
G02*
X152850000Y-82111000I-50000J0D01*
G01*
X151250000Y-82111000D01*
G75*
G02*
X151200000Y-82061000I0J50000D01*
G01*
X151200000Y-81511000D01*
G75*
G02*
X151250000Y-81461000I50000J0D01*
G01*
X152850000Y-81461000D01*
G75*
G02*
X152900000Y-81511000I0J-50000D01*
G01*
G37*
G36*
G01*
X152900000Y-80711000D02*
X152900000Y-81261000D01*
G75*
G02*
X152850000Y-81311000I-50000J0D01*
G01*
X151250000Y-81311000D01*
G75*
G02*
X151200000Y-81261000I0J50000D01*
G01*
X151200000Y-80711000D01*
G75*
G02*
X151250000Y-80661000I50000J0D01*
G01*
X152850000Y-80661000D01*
G75*
G02*
X152900000Y-80711000I0J-50000D01*
G01*
G37*
G36*
G01*
X152900000Y-79911000D02*
X152900000Y-80461000D01*
G75*
G02*
X152850000Y-80511000I-50000J0D01*
G01*
X151250000Y-80511000D01*
G75*
G02*
X151200000Y-80461000I0J50000D01*
G01*
X151200000Y-79911000D01*
G75*
G02*
X151250000Y-79861000I50000J0D01*
G01*
X152850000Y-79861000D01*
G75*
G02*
X152900000Y-79911000I0J-50000D01*
G01*
G37*
G36*
G01*
X152900000Y-79111000D02*
X152900000Y-79661000D01*
G75*
G02*
X152850000Y-79711000I-50000J0D01*
G01*
X151250000Y-79711000D01*
G75*
G02*
X151200000Y-79661000I0J50000D01*
G01*
X151200000Y-79111000D01*
G75*
G02*
X151250000Y-79061000I50000J0D01*
G01*
X152850000Y-79061000D01*
G75*
G02*
X152900000Y-79111000I0J-50000D01*
G01*
G37*
G36*
G01*
X152900000Y-78311000D02*
X152900000Y-78861000D01*
G75*
G02*
X152850000Y-78911000I-50000J0D01*
G01*
X151250000Y-78911000D01*
G75*
G02*
X151200000Y-78861000I0J50000D01*
G01*
X151200000Y-78311000D01*
G75*
G02*
X151250000Y-78261000I50000J0D01*
G01*
X152850000Y-78261000D01*
G75*
G02*
X152900000Y-78311000I0J-50000D01*
G01*
G37*
G36*
G01*
X153775000Y-77986000D02*
X153225000Y-77986000D01*
G75*
G02*
X153175000Y-77936000I0J50000D01*
G01*
X153175000Y-76336000D01*
G75*
G02*
X153225000Y-76286000I50000J0D01*
G01*
X153775000Y-76286000D01*
G75*
G02*
X153825000Y-76336000I0J-50000D01*
G01*
X153825000Y-77936000D01*
G75*
G02*
X153775000Y-77986000I-50000J0D01*
G01*
G37*
G36*
G01*
X154575000Y-77986000D02*
X154025000Y-77986000D01*
G75*
G02*
X153975000Y-77936000I0J50000D01*
G01*
X153975000Y-76336000D01*
G75*
G02*
X154025000Y-76286000I50000J0D01*
G01*
X154575000Y-76286000D01*
G75*
G02*
X154625000Y-76336000I0J-50000D01*
G01*
X154625000Y-77936000D01*
G75*
G02*
X154575000Y-77986000I-50000J0D01*
G01*
G37*
G36*
G01*
X155375000Y-77986000D02*
X154825000Y-77986000D01*
G75*
G02*
X154775000Y-77936000I0J50000D01*
G01*
X154775000Y-76336000D01*
G75*
G02*
X154825000Y-76286000I50000J0D01*
G01*
X155375000Y-76286000D01*
G75*
G02*
X155425000Y-76336000I0J-50000D01*
G01*
X155425000Y-77936000D01*
G75*
G02*
X155375000Y-77986000I-50000J0D01*
G01*
G37*
G36*
G01*
X156175000Y-77986000D02*
X155625000Y-77986000D01*
G75*
G02*
X155575000Y-77936000I0J50000D01*
G01*
X155575000Y-76336000D01*
G75*
G02*
X155625000Y-76286000I50000J0D01*
G01*
X156175000Y-76286000D01*
G75*
G02*
X156225000Y-76336000I0J-50000D01*
G01*
X156225000Y-77936000D01*
G75*
G02*
X156175000Y-77986000I-50000J0D01*
G01*
G37*
G36*
G01*
X156975000Y-77986000D02*
X156425000Y-77986000D01*
G75*
G02*
X156375000Y-77936000I0J50000D01*
G01*
X156375000Y-76336000D01*
G75*
G02*
X156425000Y-76286000I50000J0D01*
G01*
X156975000Y-76286000D01*
G75*
G02*
X157025000Y-76336000I0J-50000D01*
G01*
X157025000Y-77936000D01*
G75*
G02*
X156975000Y-77986000I-50000J0D01*
G01*
G37*
G36*
G01*
X157775000Y-77986000D02*
X157225000Y-77986000D01*
G75*
G02*
X157175000Y-77936000I0J50000D01*
G01*
X157175000Y-76336000D01*
G75*
G02*
X157225000Y-76286000I50000J0D01*
G01*
X157775000Y-76286000D01*
G75*
G02*
X157825000Y-76336000I0J-50000D01*
G01*
X157825000Y-77936000D01*
G75*
G02*
X157775000Y-77986000I-50000J0D01*
G01*
G37*
G36*
G01*
X158575000Y-77986000D02*
X158025000Y-77986000D01*
G75*
G02*
X157975000Y-77936000I0J50000D01*
G01*
X157975000Y-76336000D01*
G75*
G02*
X158025000Y-76286000I50000J0D01*
G01*
X158575000Y-76286000D01*
G75*
G02*
X158625000Y-76336000I0J-50000D01*
G01*
X158625000Y-77936000D01*
G75*
G02*
X158575000Y-77986000I-50000J0D01*
G01*
G37*
G36*
G01*
X159375000Y-77986000D02*
X158825000Y-77986000D01*
G75*
G02*
X158775000Y-77936000I0J50000D01*
G01*
X158775000Y-76336000D01*
G75*
G02*
X158825000Y-76286000I50000J0D01*
G01*
X159375000Y-76286000D01*
G75*
G02*
X159425000Y-76336000I0J-50000D01*
G01*
X159425000Y-77936000D01*
G75*
G02*
X159375000Y-77986000I-50000J0D01*
G01*
G37*
G36*
G01*
X161400000Y-78311000D02*
X161400000Y-78861000D01*
G75*
G02*
X161350000Y-78911000I-50000J0D01*
G01*
X159750000Y-78911000D01*
G75*
G02*
X159700000Y-78861000I0J50000D01*
G01*
X159700000Y-78311000D01*
G75*
G02*
X159750000Y-78261000I50000J0D01*
G01*
X161350000Y-78261000D01*
G75*
G02*
X161400000Y-78311000I0J-50000D01*
G01*
G37*
G36*
G01*
X161400000Y-79111000D02*
X161400000Y-79661000D01*
G75*
G02*
X161350000Y-79711000I-50000J0D01*
G01*
X159750000Y-79711000D01*
G75*
G02*
X159700000Y-79661000I0J50000D01*
G01*
X159700000Y-79111000D01*
G75*
G02*
X159750000Y-79061000I50000J0D01*
G01*
X161350000Y-79061000D01*
G75*
G02*
X161400000Y-79111000I0J-50000D01*
G01*
G37*
G36*
G01*
X161400000Y-79911000D02*
X161400000Y-80461000D01*
G75*
G02*
X161350000Y-80511000I-50000J0D01*
G01*
X159750000Y-80511000D01*
G75*
G02*
X159700000Y-80461000I0J50000D01*
G01*
X159700000Y-79911000D01*
G75*
G02*
X159750000Y-79861000I50000J0D01*
G01*
X161350000Y-79861000D01*
G75*
G02*
X161400000Y-79911000I0J-50000D01*
G01*
G37*
G36*
G01*
X161400000Y-80711000D02*
X161400000Y-81261000D01*
G75*
G02*
X161350000Y-81311000I-50000J0D01*
G01*
X159750000Y-81311000D01*
G75*
G02*
X159700000Y-81261000I0J50000D01*
G01*
X159700000Y-80711000D01*
G75*
G02*
X159750000Y-80661000I50000J0D01*
G01*
X161350000Y-80661000D01*
G75*
G02*
X161400000Y-80711000I0J-50000D01*
G01*
G37*
G36*
G01*
X161400000Y-81511000D02*
X161400000Y-82061000D01*
G75*
G02*
X161350000Y-82111000I-50000J0D01*
G01*
X159750000Y-82111000D01*
G75*
G02*
X159700000Y-82061000I0J50000D01*
G01*
X159700000Y-81511000D01*
G75*
G02*
X159750000Y-81461000I50000J0D01*
G01*
X161350000Y-81461000D01*
G75*
G02*
X161400000Y-81511000I0J-50000D01*
G01*
G37*
G36*
G01*
X161400000Y-82311000D02*
X161400000Y-82861000D01*
G75*
G02*
X161350000Y-82911000I-50000J0D01*
G01*
X159750000Y-82911000D01*
G75*
G02*
X159700000Y-82861000I0J50000D01*
G01*
X159700000Y-82311000D01*
G75*
G02*
X159750000Y-82261000I50000J0D01*
G01*
X161350000Y-82261000D01*
G75*
G02*
X161400000Y-82311000I0J-50000D01*
G01*
G37*
G36*
G01*
X161400000Y-83111000D02*
X161400000Y-83661000D01*
G75*
G02*
X161350000Y-83711000I-50000J0D01*
G01*
X159750000Y-83711000D01*
G75*
G02*
X159700000Y-83661000I0J50000D01*
G01*
X159700000Y-83111000D01*
G75*
G02*
X159750000Y-83061000I50000J0D01*
G01*
X161350000Y-83061000D01*
G75*
G02*
X161400000Y-83111000I0J-50000D01*
G01*
G37*
G36*
G01*
X161400000Y-83911000D02*
X161400000Y-84461000D01*
G75*
G02*
X161350000Y-84511000I-50000J0D01*
G01*
X159750000Y-84511000D01*
G75*
G02*
X159700000Y-84461000I0J50000D01*
G01*
X159700000Y-83911000D01*
G75*
G02*
X159750000Y-83861000I50000J0D01*
G01*
X161350000Y-83861000D01*
G75*
G02*
X161400000Y-83911000I0J-50000D01*
G01*
G37*
G36*
G01*
X159375000Y-86486000D02*
X158825000Y-86486000D01*
G75*
G02*
X158775000Y-86436000I0J50000D01*
G01*
X158775000Y-84836000D01*
G75*
G02*
X158825000Y-84786000I50000J0D01*
G01*
X159375000Y-84786000D01*
G75*
G02*
X159425000Y-84836000I0J-50000D01*
G01*
X159425000Y-86436000D01*
G75*
G02*
X159375000Y-86486000I-50000J0D01*
G01*
G37*
G36*
G01*
X158575000Y-86486000D02*
X158025000Y-86486000D01*
G75*
G02*
X157975000Y-86436000I0J50000D01*
G01*
X157975000Y-84836000D01*
G75*
G02*
X158025000Y-84786000I50000J0D01*
G01*
X158575000Y-84786000D01*
G75*
G02*
X158625000Y-84836000I0J-50000D01*
G01*
X158625000Y-86436000D01*
G75*
G02*
X158575000Y-86486000I-50000J0D01*
G01*
G37*
G36*
G01*
X157775000Y-86486000D02*
X157225000Y-86486000D01*
G75*
G02*
X157175000Y-86436000I0J50000D01*
G01*
X157175000Y-84836000D01*
G75*
G02*
X157225000Y-84786000I50000J0D01*
G01*
X157775000Y-84786000D01*
G75*
G02*
X157825000Y-84836000I0J-50000D01*
G01*
X157825000Y-86436000D01*
G75*
G02*
X157775000Y-86486000I-50000J0D01*
G01*
G37*
G36*
G01*
X156975000Y-86486000D02*
X156425000Y-86486000D01*
G75*
G02*
X156375000Y-86436000I0J50000D01*
G01*
X156375000Y-84836000D01*
G75*
G02*
X156425000Y-84786000I50000J0D01*
G01*
X156975000Y-84786000D01*
G75*
G02*
X157025000Y-84836000I0J-50000D01*
G01*
X157025000Y-86436000D01*
G75*
G02*
X156975000Y-86486000I-50000J0D01*
G01*
G37*
G36*
G01*
X156175000Y-86486000D02*
X155625000Y-86486000D01*
G75*
G02*
X155575000Y-86436000I0J50000D01*
G01*
X155575000Y-84836000D01*
G75*
G02*
X155625000Y-84786000I50000J0D01*
G01*
X156175000Y-84786000D01*
G75*
G02*
X156225000Y-84836000I0J-50000D01*
G01*
X156225000Y-86436000D01*
G75*
G02*
X156175000Y-86486000I-50000J0D01*
G01*
G37*
G36*
G01*
X155375000Y-86486000D02*
X154825000Y-86486000D01*
G75*
G02*
X154775000Y-86436000I0J50000D01*
G01*
X154775000Y-84836000D01*
G75*
G02*
X154825000Y-84786000I50000J0D01*
G01*
X155375000Y-84786000D01*
G75*
G02*
X155425000Y-84836000I0J-50000D01*
G01*
X155425000Y-86436000D01*
G75*
G02*
X155375000Y-86486000I-50000J0D01*
G01*
G37*
G36*
G01*
X154575000Y-86486000D02*
X154025000Y-86486000D01*
G75*
G02*
X153975000Y-86436000I0J50000D01*
G01*
X153975000Y-84836000D01*
G75*
G02*
X154025000Y-84786000I50000J0D01*
G01*
X154575000Y-84786000D01*
G75*
G02*
X154625000Y-84836000I0J-50000D01*
G01*
X154625000Y-86436000D01*
G75*
G02*
X154575000Y-86486000I-50000J0D01*
G01*
G37*
G36*
G01*
X153775000Y-86486000D02*
X153225000Y-86486000D01*
G75*
G02*
X153175000Y-86436000I0J50000D01*
G01*
X153175000Y-84836000D01*
G75*
G02*
X153225000Y-84786000I50000J0D01*
G01*
X153775000Y-84786000D01*
G75*
G02*
X153825000Y-84836000I0J-50000D01*
G01*
X153825000Y-86436000D01*
G75*
G02*
X153775000Y-86486000I-50000J0D01*
G01*
G37*
D11*
G36*
X165593889Y-91049398D02*
G01*
X165575466Y-91049398D01*
X165570565Y-91049157D01*
X165521734Y-91044347D01*
X165516881Y-91043627D01*
X165468756Y-91034055D01*
X165463995Y-91032863D01*
X165417040Y-91018619D01*
X165412421Y-91016966D01*
X165367088Y-90998189D01*
X165362651Y-90996091D01*
X165319378Y-90972960D01*
X165315171Y-90970438D01*
X165274372Y-90943178D01*
X165270430Y-90940254D01*
X165232501Y-90909126D01*
X165228866Y-90905831D01*
X165194169Y-90871134D01*
X165190874Y-90867499D01*
X165159746Y-90829570D01*
X165156822Y-90825628D01*
X165129562Y-90784829D01*
X165127040Y-90780622D01*
X165103909Y-90737349D01*
X165101811Y-90732912D01*
X165083034Y-90687579D01*
X165081381Y-90682960D01*
X165067137Y-90636005D01*
X165065945Y-90631244D01*
X165056373Y-90583119D01*
X165055653Y-90578266D01*
X165050843Y-90529435D01*
X165050602Y-90524534D01*
X165050602Y-90506111D01*
X165050000Y-90500000D01*
X165050000Y-90000000D01*
X165050602Y-89993889D01*
X165050602Y-89975466D01*
X165050843Y-89970565D01*
X165055653Y-89921734D01*
X165056373Y-89916881D01*
X165065945Y-89868756D01*
X165067137Y-89863995D01*
X165081381Y-89817040D01*
X165083034Y-89812421D01*
X165101811Y-89767088D01*
X165103909Y-89762651D01*
X165127040Y-89719378D01*
X165129562Y-89715171D01*
X165156822Y-89674372D01*
X165159746Y-89670430D01*
X165190874Y-89632501D01*
X165194169Y-89628866D01*
X165228866Y-89594169D01*
X165232501Y-89590874D01*
X165270430Y-89559746D01*
X165274372Y-89556822D01*
X165315171Y-89529562D01*
X165319378Y-89527040D01*
X165362651Y-89503909D01*
X165367088Y-89501811D01*
X165412421Y-89483034D01*
X165417040Y-89481381D01*
X165463995Y-89467137D01*
X165468756Y-89465945D01*
X165516881Y-89456373D01*
X165521734Y-89455653D01*
X165570565Y-89450843D01*
X165575466Y-89450602D01*
X165593889Y-89450602D01*
X165600000Y-89450000D01*
X166100000Y-89450000D01*
X166109755Y-89450961D01*
X166119134Y-89453806D01*
X166127779Y-89458427D01*
X166135355Y-89464645D01*
X166141573Y-89472221D01*
X166146194Y-89480866D01*
X166149039Y-89490245D01*
X166150000Y-89500000D01*
X166150000Y-91000000D01*
X166149039Y-91009755D01*
X166146194Y-91019134D01*
X166141573Y-91027779D01*
X166135355Y-91035355D01*
X166127779Y-91041573D01*
X166119134Y-91046194D01*
X166109755Y-91049039D01*
X166100000Y-91050000D01*
X165600000Y-91050000D01*
X165593889Y-91049398D01*
G37*
G36*
X166390245Y-91049039D02*
G01*
X166380866Y-91046194D01*
X166372221Y-91041573D01*
X166364645Y-91035355D01*
X166358427Y-91027779D01*
X166353806Y-91019134D01*
X166350961Y-91009755D01*
X166350000Y-91000000D01*
X166350000Y-89500000D01*
X166350961Y-89490245D01*
X166353806Y-89480866D01*
X166358427Y-89472221D01*
X166364645Y-89464645D01*
X166372221Y-89458427D01*
X166380866Y-89453806D01*
X166390245Y-89450961D01*
X166400000Y-89450000D01*
X166900000Y-89450000D01*
X166906111Y-89450602D01*
X166924534Y-89450602D01*
X166929435Y-89450843D01*
X166978266Y-89455653D01*
X166983119Y-89456373D01*
X167031244Y-89465945D01*
X167036005Y-89467137D01*
X167082960Y-89481381D01*
X167087579Y-89483034D01*
X167132912Y-89501811D01*
X167137349Y-89503909D01*
X167180622Y-89527040D01*
X167184829Y-89529562D01*
X167225628Y-89556822D01*
X167229570Y-89559746D01*
X167267499Y-89590874D01*
X167271134Y-89594169D01*
X167305831Y-89628866D01*
X167309126Y-89632501D01*
X167340254Y-89670430D01*
X167343178Y-89674372D01*
X167370438Y-89715171D01*
X167372960Y-89719378D01*
X167396091Y-89762651D01*
X167398189Y-89767088D01*
X167416966Y-89812421D01*
X167418619Y-89817040D01*
X167432863Y-89863995D01*
X167434055Y-89868756D01*
X167443627Y-89916881D01*
X167444347Y-89921734D01*
X167449157Y-89970565D01*
X167449398Y-89975466D01*
X167449398Y-89993889D01*
X167450000Y-90000000D01*
X167450000Y-90500000D01*
X167449398Y-90506111D01*
X167449398Y-90524534D01*
X167449157Y-90529435D01*
X167444347Y-90578266D01*
X167443627Y-90583119D01*
X167434055Y-90631244D01*
X167432863Y-90636005D01*
X167418619Y-90682960D01*
X167416966Y-90687579D01*
X167398189Y-90732912D01*
X167396091Y-90737349D01*
X167372960Y-90780622D01*
X167370438Y-90784829D01*
X167343178Y-90825628D01*
X167340254Y-90829570D01*
X167309126Y-90867499D01*
X167305831Y-90871134D01*
X167271134Y-90905831D01*
X167267499Y-90909126D01*
X167229570Y-90940254D01*
X167225628Y-90943178D01*
X167184829Y-90970438D01*
X167180622Y-90972960D01*
X167137349Y-90996091D01*
X167132912Y-90998189D01*
X167087579Y-91016966D01*
X167082960Y-91018619D01*
X167036005Y-91032863D01*
X167031244Y-91034055D01*
X166983119Y-91043627D01*
X166978266Y-91044347D01*
X166929435Y-91049157D01*
X166924534Y-91049398D01*
X166906111Y-91049398D01*
X166900000Y-91050000D01*
X166400000Y-91050000D01*
X166390245Y-91049039D01*
G37*
G36*
G01*
X164800000Y-97250000D02*
X164800000Y-99250000D01*
G75*
G02*
X164750000Y-99300000I-50000J0D01*
G01*
X163400000Y-99300000D01*
G75*
G02*
X163350000Y-99250000I0J50000D01*
G01*
X163350000Y-97250000D01*
G75*
G02*
X163400000Y-97200000I50000J0D01*
G01*
X164750000Y-97200000D01*
G75*
G02*
X164800000Y-97250000I0J-50000D01*
G01*
G37*
G36*
G01*
X160650000Y-97250000D02*
X160650000Y-99250000D01*
G75*
G02*
X160600000Y-99300000I-50000J0D01*
G01*
X159250000Y-99300000D01*
G75*
G02*
X159200000Y-99250000I0J50000D01*
G01*
X159200000Y-97250000D01*
G75*
G02*
X159250000Y-97200000I50000J0D01*
G01*
X160600000Y-97200000D01*
G75*
G02*
X160650000Y-97250000I0J-50000D01*
G01*
G37*
G36*
G01*
X153650000Y-97250000D02*
X153650000Y-99250000D01*
G75*
G02*
X153600000Y-99300000I-50000J0D01*
G01*
X152250000Y-99300000D01*
G75*
G02*
X152200000Y-99250000I0J50000D01*
G01*
X152200000Y-97250000D01*
G75*
G02*
X152250000Y-97200000I50000J0D01*
G01*
X153600000Y-97200000D01*
G75*
G02*
X153650000Y-97250000I0J-50000D01*
G01*
G37*
G36*
G01*
X157800000Y-97250000D02*
X157800000Y-99250000D01*
G75*
G02*
X157750000Y-99300000I-50000J0D01*
G01*
X156400000Y-99300000D01*
G75*
G02*
X156350000Y-99250000I0J50000D01*
G01*
X156350000Y-97250000D01*
G75*
G02*
X156400000Y-97200000I50000J0D01*
G01*
X157750000Y-97200000D01*
G75*
G02*
X157800000Y-97250000I0J-50000D01*
G01*
G37*
G36*
G01*
X162450000Y-85500000D02*
X162450000Y-83500000D01*
G75*
G02*
X162500000Y-83450000I50000J0D01*
G01*
X163850000Y-83450000D01*
G75*
G02*
X163900000Y-83500000I0J-50000D01*
G01*
X163900000Y-85500000D01*
G75*
G02*
X163850000Y-85550000I-50000J0D01*
G01*
X162500000Y-85550000D01*
G75*
G02*
X162450000Y-85500000I0J50000D01*
G01*
G37*
G36*
G01*
X166600000Y-85500000D02*
X166600000Y-83500000D01*
G75*
G02*
X166650000Y-83450000I50000J0D01*
G01*
X168000000Y-83450000D01*
G75*
G02*
X168050000Y-83500000I0J-50000D01*
G01*
X168050000Y-85500000D01*
G75*
G02*
X168000000Y-85550000I-50000J0D01*
G01*
X166650000Y-85550000D01*
G75*
G02*
X166600000Y-85500000I0J50000D01*
G01*
G37*
D12*
X170250000Y-97950000D03*
X170250000Y-95410000D03*
X170250000Y-92870000D03*
X170250000Y-90330000D03*
X170250000Y-87790000D03*
G36*
G01*
X169350000Y-86100000D02*
X169350000Y-84400000D01*
G75*
G02*
X169400000Y-84350000I50000J0D01*
G01*
X171100000Y-84350000D01*
G75*
G02*
X171150000Y-84400000I0J-50000D01*
G01*
X171150000Y-86100000D01*
G75*
G02*
X171100000Y-86150000I-50000J0D01*
G01*
X169400000Y-86150000D01*
G75*
G02*
X169350000Y-86100000I0J50000D01*
G01*
G37*
G36*
G01*
X145950000Y-98600000D02*
X145950000Y-96800000D01*
G75*
G02*
X146850000Y-95900000I900000J0D01*
G01*
X148650000Y-95900000D01*
G75*
G02*
X149550000Y-96800000I0J-900000D01*
G01*
X149550000Y-98600000D01*
G75*
G02*
X148650000Y-99500000I-900000J0D01*
G01*
X146850000Y-99500000D01*
G75*
G02*
X145950000Y-98600000I0J900000D01*
G01*
G37*
G36*
G01*
X143200000Y-94025000D02*
X143200000Y-91975000D01*
G75*
G02*
X143975000Y-91200000I775000J0D01*
G01*
X145525000Y-91200000D01*
G75*
G02*
X146300000Y-91975000I0J-775000D01*
G01*
X146300000Y-94025000D01*
G75*
G02*
X145525000Y-94800000I-775000J0D01*
G01*
X143975000Y-94800000D01*
G75*
G02*
X143200000Y-94025000I0J775000D01*
G01*
G37*
G36*
G01*
X148950000Y-94750000D02*
X148950000Y-91250000D01*
G75*
G02*
X149000000Y-91200000I50000J0D01*
G01*
X152500000Y-91200000D01*
G75*
G02*
X152550000Y-91250000I0J-50000D01*
G01*
X152550000Y-94750000D01*
G75*
G02*
X152500000Y-94800000I-50000J0D01*
G01*
X149000000Y-94800000D01*
G75*
G02*
X148950000Y-94750000I0J50000D01*
G01*
G37*
G36*
G01*
X159513000Y-91374400D02*
X159513000Y-88974400D01*
G75*
G02*
X159563000Y-88924400I50000J0D01*
G01*
X163063000Y-88924400D01*
G75*
G02*
X163113000Y-88974400I0J-50000D01*
G01*
X163113000Y-91374400D01*
G75*
G02*
X163063000Y-91424400I-50000J0D01*
G01*
X159563000Y-91424400D01*
G75*
G02*
X159513000Y-91374400I0J50000D01*
G01*
G37*
G36*
G01*
X154313000Y-91374400D02*
X154313000Y-88974400D01*
G75*
G02*
X154363000Y-88924400I50000J0D01*
G01*
X157863000Y-88924400D01*
G75*
G02*
X157913000Y-88974400I0J-50000D01*
G01*
X157913000Y-91374400D01*
G75*
G02*
X157863000Y-91424400I-50000J0D01*
G01*
X154363000Y-91424400D01*
G75*
G02*
X154313000Y-91374400I0J50000D01*
G01*
G37*
G36*
G01*
X154753724Y-72562500D02*
X153746276Y-72562500D01*
G75*
G02*
X153475000Y-72291224I0J271276D01*
G01*
X153475000Y-71558776D01*
G75*
G02*
X153746276Y-71287500I271276J0D01*
G01*
X154753724Y-71287500D01*
G75*
G02*
X155025000Y-71558776I0J-271276D01*
G01*
X155025000Y-72291224D01*
G75*
G02*
X154753724Y-72562500I-271276J0D01*
G01*
G37*
G36*
G01*
X154753724Y-74637500D02*
X153746276Y-74637500D01*
G75*
G02*
X153475000Y-74366224I0J271276D01*
G01*
X153475000Y-73633776D01*
G75*
G02*
X153746276Y-73362500I271276J0D01*
G01*
X154753724Y-73362500D01*
G75*
G02*
X155025000Y-73633776I0J-271276D01*
G01*
X155025000Y-74366224D01*
G75*
G02*
X154753724Y-74637500I-271276J0D01*
G01*
G37*
G36*
G01*
X166496276Y-97150000D02*
X167503724Y-97150000D01*
G75*
G02*
X167775000Y-97421276I0J-271276D01*
G01*
X167775000Y-98153724D01*
G75*
G02*
X167503724Y-98425000I-271276J0D01*
G01*
X166496276Y-98425000D01*
G75*
G02*
X166225000Y-98153724I0J271276D01*
G01*
X166225000Y-97421276D01*
G75*
G02*
X166496276Y-97150000I271276J0D01*
G01*
G37*
G36*
G01*
X166496276Y-95075000D02*
X167503724Y-95075000D01*
G75*
G02*
X167775000Y-95346276I0J-271276D01*
G01*
X167775000Y-96078724D01*
G75*
G02*
X167503724Y-96350000I-271276J0D01*
G01*
X166496276Y-96350000D01*
G75*
G02*
X166225000Y-96078724I0J271276D01*
G01*
X166225000Y-95346276D01*
G75*
G02*
X166496276Y-95075000I271276J0D01*
G01*
G37*
G36*
G01*
X147228000Y-76200000D02*
X147428000Y-76200000D01*
G75*
G02*
X147528000Y-76300000I0J-100000D01*
G01*
X147528000Y-77225000D01*
G75*
G02*
X147428000Y-77325000I-100000J0D01*
G01*
X147228000Y-77325000D01*
G75*
G02*
X147128000Y-77225000I0J100000D01*
G01*
X147128000Y-76300000D01*
G75*
G02*
X147228000Y-76200000I100000J0D01*
G01*
G37*
G36*
G01*
X146578000Y-76200000D02*
X146778000Y-76200000D01*
G75*
G02*
X146878000Y-76300000I0J-100000D01*
G01*
X146878000Y-77225000D01*
G75*
G02*
X146778000Y-77325000I-100000J0D01*
G01*
X146578000Y-77325000D01*
G75*
G02*
X146478000Y-77225000I0J100000D01*
G01*
X146478000Y-76300000D01*
G75*
G02*
X146578000Y-76200000I100000J0D01*
G01*
G37*
G36*
G01*
X145928000Y-76200000D02*
X146128000Y-76200000D01*
G75*
G02*
X146228000Y-76300000I0J-100000D01*
G01*
X146228000Y-77225000D01*
G75*
G02*
X146128000Y-77325000I-100000J0D01*
G01*
X145928000Y-77325000D01*
G75*
G02*
X145828000Y-77225000I0J100000D01*
G01*
X145828000Y-76300000D01*
G75*
G02*
X145928000Y-76200000I100000J0D01*
G01*
G37*
G36*
G01*
X145278000Y-76200000D02*
X145478000Y-76200000D01*
G75*
G02*
X145578000Y-76300000I0J-100000D01*
G01*
X145578000Y-77225000D01*
G75*
G02*
X145478000Y-77325000I-100000J0D01*
G01*
X145278000Y-77325000D01*
G75*
G02*
X145178000Y-77225000I0J100000D01*
G01*
X145178000Y-76300000D01*
G75*
G02*
X145278000Y-76200000I100000J0D01*
G01*
G37*
G36*
G01*
X144628000Y-76200000D02*
X144828000Y-76200000D01*
G75*
G02*
X144928000Y-76300000I0J-100000D01*
G01*
X144928000Y-77225000D01*
G75*
G02*
X144828000Y-77325000I-100000J0D01*
G01*
X144628000Y-77325000D01*
G75*
G02*
X144528000Y-77225000I0J100000D01*
G01*
X144528000Y-76300000D01*
G75*
G02*
X144628000Y-76200000I100000J0D01*
G01*
G37*
G36*
G01*
X143978000Y-76200000D02*
X144178000Y-76200000D01*
G75*
G02*
X144278000Y-76300000I0J-100000D01*
G01*
X144278000Y-77225000D01*
G75*
G02*
X144178000Y-77325000I-100000J0D01*
G01*
X143978000Y-77325000D01*
G75*
G02*
X143878000Y-77225000I0J100000D01*
G01*
X143878000Y-76300000D01*
G75*
G02*
X143978000Y-76200000I100000J0D01*
G01*
G37*
G36*
G01*
X143328000Y-76200000D02*
X143528000Y-76200000D01*
G75*
G02*
X143628000Y-76300000I0J-100000D01*
G01*
X143628000Y-77225000D01*
G75*
G02*
X143528000Y-77325000I-100000J0D01*
G01*
X143328000Y-77325000D01*
G75*
G02*
X143228000Y-77225000I0J100000D01*
G01*
X143228000Y-76300000D01*
G75*
G02*
X143328000Y-76200000I100000J0D01*
G01*
G37*
G36*
G01*
X142078000Y-77450000D02*
X143003000Y-77450000D01*
G75*
G02*
X143103000Y-77550000I0J-100000D01*
G01*
X143103000Y-77750000D01*
G75*
G02*
X143003000Y-77850000I-100000J0D01*
G01*
X142078000Y-77850000D01*
G75*
G02*
X141978000Y-77750000I0J100000D01*
G01*
X141978000Y-77550000D01*
G75*
G02*
X142078000Y-77450000I100000J0D01*
G01*
G37*
G36*
G01*
X142078000Y-78100000D02*
X143003000Y-78100000D01*
G75*
G02*
X143103000Y-78200000I0J-100000D01*
G01*
X143103000Y-78400000D01*
G75*
G02*
X143003000Y-78500000I-100000J0D01*
G01*
X142078000Y-78500000D01*
G75*
G02*
X141978000Y-78400000I0J100000D01*
G01*
X141978000Y-78200000D01*
G75*
G02*
X142078000Y-78100000I100000J0D01*
G01*
G37*
G36*
G01*
X142078000Y-78750000D02*
X143003000Y-78750000D01*
G75*
G02*
X143103000Y-78850000I0J-100000D01*
G01*
X143103000Y-79050000D01*
G75*
G02*
X143003000Y-79150000I-100000J0D01*
G01*
X142078000Y-79150000D01*
G75*
G02*
X141978000Y-79050000I0J100000D01*
G01*
X141978000Y-78850000D01*
G75*
G02*
X142078000Y-78750000I100000J0D01*
G01*
G37*
G36*
G01*
X142078000Y-79400000D02*
X143003000Y-79400000D01*
G75*
G02*
X143103000Y-79500000I0J-100000D01*
G01*
X143103000Y-79700000D01*
G75*
G02*
X143003000Y-79800000I-100000J0D01*
G01*
X142078000Y-79800000D01*
G75*
G02*
X141978000Y-79700000I0J100000D01*
G01*
X141978000Y-79500000D01*
G75*
G02*
X142078000Y-79400000I100000J0D01*
G01*
G37*
G36*
G01*
X142078000Y-80050000D02*
X143003000Y-80050000D01*
G75*
G02*
X143103000Y-80150000I0J-100000D01*
G01*
X143103000Y-80350000D01*
G75*
G02*
X143003000Y-80450000I-100000J0D01*
G01*
X142078000Y-80450000D01*
G75*
G02*
X141978000Y-80350000I0J100000D01*
G01*
X141978000Y-80150000D01*
G75*
G02*
X142078000Y-80050000I100000J0D01*
G01*
G37*
G36*
G01*
X142078000Y-80700000D02*
X143003000Y-80700000D01*
G75*
G02*
X143103000Y-80800000I0J-100000D01*
G01*
X143103000Y-81000000D01*
G75*
G02*
X143003000Y-81100000I-100000J0D01*
G01*
X142078000Y-81100000D01*
G75*
G02*
X141978000Y-81000000I0J100000D01*
G01*
X141978000Y-80800000D01*
G75*
G02*
X142078000Y-80700000I100000J0D01*
G01*
G37*
G36*
G01*
X142078000Y-81350000D02*
X143003000Y-81350000D01*
G75*
G02*
X143103000Y-81450000I0J-100000D01*
G01*
X143103000Y-81650000D01*
G75*
G02*
X143003000Y-81750000I-100000J0D01*
G01*
X142078000Y-81750000D01*
G75*
G02*
X141978000Y-81650000I0J100000D01*
G01*
X141978000Y-81450000D01*
G75*
G02*
X142078000Y-81350000I100000J0D01*
G01*
G37*
G36*
G01*
X143328000Y-81875000D02*
X143528000Y-81875000D01*
G75*
G02*
X143628000Y-81975000I0J-100000D01*
G01*
X143628000Y-82900000D01*
G75*
G02*
X143528000Y-83000000I-100000J0D01*
G01*
X143328000Y-83000000D01*
G75*
G02*
X143228000Y-82900000I0J100000D01*
G01*
X143228000Y-81975000D01*
G75*
G02*
X143328000Y-81875000I100000J0D01*
G01*
G37*
G36*
G01*
X143978000Y-81875000D02*
X144178000Y-81875000D01*
G75*
G02*
X144278000Y-81975000I0J-100000D01*
G01*
X144278000Y-82900000D01*
G75*
G02*
X144178000Y-83000000I-100000J0D01*
G01*
X143978000Y-83000000D01*
G75*
G02*
X143878000Y-82900000I0J100000D01*
G01*
X143878000Y-81975000D01*
G75*
G02*
X143978000Y-81875000I100000J0D01*
G01*
G37*
G36*
G01*
X144628000Y-81875000D02*
X144828000Y-81875000D01*
G75*
G02*
X144928000Y-81975000I0J-100000D01*
G01*
X144928000Y-82900000D01*
G75*
G02*
X144828000Y-83000000I-100000J0D01*
G01*
X144628000Y-83000000D01*
G75*
G02*
X144528000Y-82900000I0J100000D01*
G01*
X144528000Y-81975000D01*
G75*
G02*
X144628000Y-81875000I100000J0D01*
G01*
G37*
G36*
G01*
X145278000Y-81875000D02*
X145478000Y-81875000D01*
G75*
G02*
X145578000Y-81975000I0J-100000D01*
G01*
X145578000Y-82900000D01*
G75*
G02*
X145478000Y-83000000I-100000J0D01*
G01*
X145278000Y-83000000D01*
G75*
G02*
X145178000Y-82900000I0J100000D01*
G01*
X145178000Y-81975000D01*
G75*
G02*
X145278000Y-81875000I100000J0D01*
G01*
G37*
G36*
G01*
X145928000Y-81875000D02*
X146128000Y-81875000D01*
G75*
G02*
X146228000Y-81975000I0J-100000D01*
G01*
X146228000Y-82900000D01*
G75*
G02*
X146128000Y-83000000I-100000J0D01*
G01*
X145928000Y-83000000D01*
G75*
G02*
X145828000Y-82900000I0J100000D01*
G01*
X145828000Y-81975000D01*
G75*
G02*
X145928000Y-81875000I100000J0D01*
G01*
G37*
G36*
G01*
X146578000Y-81875000D02*
X146778000Y-81875000D01*
G75*
G02*
X146878000Y-81975000I0J-100000D01*
G01*
X146878000Y-82900000D01*
G75*
G02*
X146778000Y-83000000I-100000J0D01*
G01*
X146578000Y-83000000D01*
G75*
G02*
X146478000Y-82900000I0J100000D01*
G01*
X146478000Y-81975000D01*
G75*
G02*
X146578000Y-81875000I100000J0D01*
G01*
G37*
G36*
G01*
X147228000Y-81875000D02*
X147428000Y-81875000D01*
G75*
G02*
X147528000Y-81975000I0J-100000D01*
G01*
X147528000Y-82900000D01*
G75*
G02*
X147428000Y-83000000I-100000J0D01*
G01*
X147228000Y-83000000D01*
G75*
G02*
X147128000Y-82900000I0J100000D01*
G01*
X147128000Y-81975000D01*
G75*
G02*
X147228000Y-81875000I100000J0D01*
G01*
G37*
G36*
G01*
X147753000Y-81350000D02*
X148678000Y-81350000D01*
G75*
G02*
X148778000Y-81450000I0J-100000D01*
G01*
X148778000Y-81650000D01*
G75*
G02*
X148678000Y-81750000I-100000J0D01*
G01*
X147753000Y-81750000D01*
G75*
G02*
X147653000Y-81650000I0J100000D01*
G01*
X147653000Y-81450000D01*
G75*
G02*
X147753000Y-81350000I100000J0D01*
G01*
G37*
G36*
G01*
X147753000Y-80700000D02*
X148678000Y-80700000D01*
G75*
G02*
X148778000Y-80800000I0J-100000D01*
G01*
X148778000Y-81000000D01*
G75*
G02*
X148678000Y-81100000I-100000J0D01*
G01*
X147753000Y-81100000D01*
G75*
G02*
X147653000Y-81000000I0J100000D01*
G01*
X147653000Y-80800000D01*
G75*
G02*
X147753000Y-80700000I100000J0D01*
G01*
G37*
G36*
G01*
X147753000Y-80050000D02*
X148678000Y-80050000D01*
G75*
G02*
X148778000Y-80150000I0J-100000D01*
G01*
X148778000Y-80350000D01*
G75*
G02*
X148678000Y-80450000I-100000J0D01*
G01*
X147753000Y-80450000D01*
G75*
G02*
X147653000Y-80350000I0J100000D01*
G01*
X147653000Y-80150000D01*
G75*
G02*
X147753000Y-80050000I100000J0D01*
G01*
G37*
G36*
G01*
X147753000Y-79400000D02*
X148678000Y-79400000D01*
G75*
G02*
X148778000Y-79500000I0J-100000D01*
G01*
X148778000Y-79700000D01*
G75*
G02*
X148678000Y-79800000I-100000J0D01*
G01*
X147753000Y-79800000D01*
G75*
G02*
X147653000Y-79700000I0J100000D01*
G01*
X147653000Y-79500000D01*
G75*
G02*
X147753000Y-79400000I100000J0D01*
G01*
G37*
G36*
G01*
X147753000Y-78750000D02*
X148678000Y-78750000D01*
G75*
G02*
X148778000Y-78850000I0J-100000D01*
G01*
X148778000Y-79050000D01*
G75*
G02*
X148678000Y-79150000I-100000J0D01*
G01*
X147753000Y-79150000D01*
G75*
G02*
X147653000Y-79050000I0J100000D01*
G01*
X147653000Y-78850000D01*
G75*
G02*
X147753000Y-78750000I100000J0D01*
G01*
G37*
G36*
G01*
X147753000Y-78100000D02*
X148678000Y-78100000D01*
G75*
G02*
X148778000Y-78200000I0J-100000D01*
G01*
X148778000Y-78400000D01*
G75*
G02*
X148678000Y-78500000I-100000J0D01*
G01*
X147753000Y-78500000D01*
G75*
G02*
X147653000Y-78400000I0J100000D01*
G01*
X147653000Y-78200000D01*
G75*
G02*
X147753000Y-78100000I100000J0D01*
G01*
G37*
G36*
G01*
X147753000Y-77450000D02*
X148678000Y-77450000D01*
G75*
G02*
X148778000Y-77550000I0J-100000D01*
G01*
X148778000Y-77750000D01*
G75*
G02*
X148678000Y-77850000I-100000J0D01*
G01*
X147753000Y-77850000D01*
G75*
G02*
X147653000Y-77750000I0J100000D01*
G01*
X147653000Y-77550000D01*
G75*
G02*
X147753000Y-77450000I100000J0D01*
G01*
G37*
G36*
G01*
X143253000Y-77425000D02*
X147503000Y-77425000D01*
G75*
G02*
X147553000Y-77475000I0J-50000D01*
G01*
X147553000Y-81725000D01*
G75*
G02*
X147503000Y-81775000I-50000J0D01*
G01*
X143253000Y-81775000D01*
G75*
G02*
X143203000Y-81725000I0J50000D01*
G01*
X143203000Y-77475000D01*
G75*
G02*
X143253000Y-77425000I50000J0D01*
G01*
G37*
G36*
G01*
X143850000Y-85979168D02*
X143850000Y-85020832D01*
G75*
G02*
X144120832Y-84750000I270832J0D01*
G01*
X144879168Y-84750000D01*
G75*
G02*
X145150000Y-85020832I0J-270832D01*
G01*
X145150000Y-85979168D01*
G75*
G02*
X144879168Y-86250000I-270832J0D01*
G01*
X144120832Y-86250000D01*
G75*
G02*
X143850000Y-85979168I0J270832D01*
G01*
G37*
G36*
G01*
X141850000Y-85979168D02*
X141850000Y-85020832D01*
G75*
G02*
X142120832Y-84750000I270832J0D01*
G01*
X142879168Y-84750000D01*
G75*
G02*
X143150000Y-85020832I0J-270832D01*
G01*
X143150000Y-85979168D01*
G75*
G02*
X142879168Y-86250000I-270832J0D01*
G01*
X142120832Y-86250000D01*
G75*
G02*
X141850000Y-85979168I0J270832D01*
G01*
G37*
X170346200Y-78084000D03*
X170346200Y-80624000D03*
X167806200Y-78084000D03*
X167806200Y-80624000D03*
X165266200Y-78084000D03*
G36*
G01*
X166116200Y-81524000D02*
X164416200Y-81524000D01*
G75*
G02*
X164366200Y-81474000I0J50000D01*
G01*
X164366200Y-79774000D01*
G75*
G02*
X164416200Y-79724000I50000J0D01*
G01*
X166116200Y-79724000D01*
G75*
G02*
X166166200Y-79774000I0J-50000D01*
G01*
X166166200Y-81474000D01*
G75*
G02*
X166116200Y-81524000I-50000J0D01*
G01*
G37*
X148680000Y-72851600D03*
X146140000Y-72851600D03*
G36*
G01*
X144450000Y-73751600D02*
X142750000Y-73751600D01*
G75*
G02*
X142700000Y-73701600I0J50000D01*
G01*
X142700000Y-72001600D01*
G75*
G02*
X142750000Y-71951600I50000J0D01*
G01*
X144450000Y-71951600D01*
G75*
G02*
X144500000Y-72001600I0J-50000D01*
G01*
X144500000Y-73701600D01*
G75*
G02*
X144450000Y-73751600I-50000J0D01*
G01*
G37*
G36*
G01*
X151496276Y-73327800D02*
X152503724Y-73327800D01*
G75*
G02*
X152775000Y-73599076I0J-271276D01*
G01*
X152775000Y-74331524D01*
G75*
G02*
X152503724Y-74602800I-271276J0D01*
G01*
X151496276Y-74602800D01*
G75*
G02*
X151225000Y-74331524I0J271276D01*
G01*
X151225000Y-73599076D01*
G75*
G02*
X151496276Y-73327800I271276J0D01*
G01*
G37*
G36*
G01*
X151496276Y-71252800D02*
X152503724Y-71252800D01*
G75*
G02*
X152775000Y-71524076I0J-271276D01*
G01*
X152775000Y-72256524D01*
G75*
G02*
X152503724Y-72527800I-271276J0D01*
G01*
X151496276Y-72527800D01*
G75*
G02*
X151225000Y-72256524I0J271276D01*
G01*
X151225000Y-71524076D01*
G75*
G02*
X151496276Y-71252800I271276J0D01*
G01*
G37*
G36*
G01*
X162669000Y-94742124D02*
X162669000Y-93734676D01*
G75*
G02*
X162940276Y-93463400I271276J0D01*
G01*
X163672724Y-93463400D01*
G75*
G02*
X163944000Y-93734676I0J-271276D01*
G01*
X163944000Y-94742124D01*
G75*
G02*
X163672724Y-95013400I-271276J0D01*
G01*
X162940276Y-95013400D01*
G75*
G02*
X162669000Y-94742124I0J271276D01*
G01*
G37*
G36*
G01*
X160594000Y-94742124D02*
X160594000Y-93734676D01*
G75*
G02*
X160865276Y-93463400I271276J0D01*
G01*
X161597724Y-93463400D01*
G75*
G02*
X161869000Y-93734676I0J-271276D01*
G01*
X161869000Y-94742124D01*
G75*
G02*
X161597724Y-95013400I-271276J0D01*
G01*
X160865276Y-95013400D01*
G75*
G02*
X160594000Y-94742124I0J271276D01*
G01*
G37*
G36*
G01*
X154757000Y-93734676D02*
X154757000Y-94742124D01*
G75*
G02*
X154485724Y-95013400I-271276J0D01*
G01*
X153753276Y-95013400D01*
G75*
G02*
X153482000Y-94742124I0J271276D01*
G01*
X153482000Y-93734676D01*
G75*
G02*
X153753276Y-93463400I271276J0D01*
G01*
X154485724Y-93463400D01*
G75*
G02*
X154757000Y-93734676I0J-271276D01*
G01*
G37*
G36*
G01*
X156832000Y-93734676D02*
X156832000Y-94742124D01*
G75*
G02*
X156560724Y-95013400I-271276J0D01*
G01*
X155828276Y-95013400D01*
G75*
G02*
X155557000Y-94742124I0J271276D01*
G01*
X155557000Y-93734676D01*
G75*
G02*
X155828276Y-93463400I271276J0D01*
G01*
X156560724Y-93463400D01*
G75*
G02*
X156832000Y-93734676I0J-271276D01*
G01*
G37*
G36*
G01*
X147068500Y-86207724D02*
X147068500Y-85200276D01*
G75*
G02*
X147339776Y-84929000I271276J0D01*
G01*
X148072224Y-84929000D01*
G75*
G02*
X148343500Y-85200276I0J-271276D01*
G01*
X148343500Y-86207724D01*
G75*
G02*
X148072224Y-86479000I-271276J0D01*
G01*
X147339776Y-86479000D01*
G75*
G02*
X147068500Y-86207724I0J271276D01*
G01*
G37*
G36*
G01*
X149143500Y-86207724D02*
X149143500Y-85200276D01*
G75*
G02*
X149414776Y-84929000I271276J0D01*
G01*
X150147224Y-84929000D01*
G75*
G02*
X150418500Y-85200276I0J-271276D01*
G01*
X150418500Y-86207724D01*
G75*
G02*
X150147224Y-86479000I-271276J0D01*
G01*
X149414776Y-86479000D01*
G75*
G02*
X149143500Y-86207724I0J271276D01*
G01*
G37*
D11*
G36*
X145951990Y-98599804D02*
G01*
X145969263Y-98775186D01*
X146020365Y-98943646D01*
X146103348Y-99098897D01*
X146215025Y-99234975D01*
X146351103Y-99346652D01*
X146506354Y-99429635D01*
X146674814Y-99480737D01*
X146850196Y-99498010D01*
X146851822Y-99499175D01*
X146851626Y-99501165D01*
X146850000Y-99502000D01*
X146804908Y-99502000D01*
X146804712Y-99501990D01*
X146634073Y-99485183D01*
X146633688Y-99485107D01*
X146474325Y-99436766D01*
X146473963Y-99436616D01*
X146327091Y-99358110D01*
X146326765Y-99357892D01*
X146198032Y-99252245D01*
X146197755Y-99251968D01*
X146092108Y-99123235D01*
X146091890Y-99122909D01*
X146013384Y-98976037D01*
X146013234Y-98975675D01*
X145964893Y-98816312D01*
X145964817Y-98815927D01*
X145948010Y-98645288D01*
X145948000Y-98645092D01*
X145948000Y-98600000D01*
X145949000Y-98598268D01*
X145951000Y-98598268D01*
X145951990Y-98599804D01*
G37*
G36*
X149551165Y-98598374D02*
G01*
X149552000Y-98600000D01*
X149552000Y-98645092D01*
X149551990Y-98645288D01*
X149535183Y-98815927D01*
X149535107Y-98816312D01*
X149486766Y-98975675D01*
X149486616Y-98976037D01*
X149408110Y-99122909D01*
X149407892Y-99123235D01*
X149302245Y-99251968D01*
X149301968Y-99252245D01*
X149173235Y-99357892D01*
X149172909Y-99358110D01*
X149026037Y-99436616D01*
X149025675Y-99436766D01*
X148866312Y-99485107D01*
X148865927Y-99485183D01*
X148695288Y-99501990D01*
X148695092Y-99502000D01*
X148650000Y-99502000D01*
X148648268Y-99501000D01*
X148648268Y-99499000D01*
X148649804Y-99498010D01*
X148825186Y-99480737D01*
X148993646Y-99429635D01*
X149148897Y-99346652D01*
X149284975Y-99234975D01*
X149396652Y-99098897D01*
X149479635Y-98943646D01*
X149530737Y-98775186D01*
X149548010Y-98599804D01*
X149549175Y-98598178D01*
X149551165Y-98598374D01*
G37*
G36*
X146851732Y-95899000D02*
G01*
X146851732Y-95901000D01*
X146850196Y-95901990D01*
X146674814Y-95919263D01*
X146506354Y-95970365D01*
X146351103Y-96053348D01*
X146215025Y-96165025D01*
X146103348Y-96301103D01*
X146020365Y-96456354D01*
X145969263Y-96624814D01*
X145951990Y-96800196D01*
X145950825Y-96801822D01*
X145948835Y-96801626D01*
X145948000Y-96800000D01*
X145948000Y-96754908D01*
X145948010Y-96754712D01*
X145964817Y-96584073D01*
X145964893Y-96583688D01*
X146013234Y-96424325D01*
X146013384Y-96423963D01*
X146091890Y-96277091D01*
X146092108Y-96276765D01*
X146197755Y-96148032D01*
X146198032Y-96147755D01*
X146326765Y-96042108D01*
X146327091Y-96041890D01*
X146473963Y-95963384D01*
X146474325Y-95963234D01*
X146633688Y-95914893D01*
X146634073Y-95914817D01*
X146804712Y-95898010D01*
X146804908Y-95898000D01*
X146850000Y-95898000D01*
X146851732Y-95899000D01*
G37*
G36*
X148695288Y-95898010D02*
G01*
X148865927Y-95914817D01*
X148866312Y-95914893D01*
X149025675Y-95963234D01*
X149026037Y-95963384D01*
X149172909Y-96041890D01*
X149173235Y-96042108D01*
X149301968Y-96147755D01*
X149302245Y-96148032D01*
X149407892Y-96276765D01*
X149408110Y-96277091D01*
X149486616Y-96423963D01*
X149486766Y-96424325D01*
X149535107Y-96583688D01*
X149535183Y-96584073D01*
X149551990Y-96754712D01*
X149552000Y-96754908D01*
X149552000Y-96800000D01*
X149551000Y-96801732D01*
X149549000Y-96801732D01*
X149548010Y-96800196D01*
X149530737Y-96624814D01*
X149479635Y-96456354D01*
X149396652Y-96301103D01*
X149284975Y-96165025D01*
X149148897Y-96053348D01*
X148993646Y-95970365D01*
X148825186Y-95919263D01*
X148649804Y-95901990D01*
X148648178Y-95900825D01*
X148648374Y-95898835D01*
X148650000Y-95898000D01*
X148695092Y-95898000D01*
X148695288Y-95898010D01*
G37*
G36*
X146301165Y-94023374D02*
G01*
X146302000Y-94025000D01*
X146302000Y-94070092D01*
X146301990Y-94070288D01*
X146287585Y-94216540D01*
X146287509Y-94216925D01*
X146246280Y-94352842D01*
X146246130Y-94353204D01*
X146179179Y-94478461D01*
X146178961Y-94478787D01*
X146088856Y-94588579D01*
X146088579Y-94588856D01*
X145978787Y-94678961D01*
X145978461Y-94679179D01*
X145853204Y-94746130D01*
X145852842Y-94746280D01*
X145716925Y-94787509D01*
X145716540Y-94787585D01*
X145570288Y-94801990D01*
X145570092Y-94802000D01*
X145525000Y-94802000D01*
X145523268Y-94801000D01*
X145523268Y-94799000D01*
X145524804Y-94798010D01*
X145675800Y-94783139D01*
X145820811Y-94739150D01*
X145954451Y-94667718D01*
X146071587Y-94571587D01*
X146167718Y-94454451D01*
X146239150Y-94320811D01*
X146283139Y-94175800D01*
X146298010Y-94024804D01*
X146299175Y-94023178D01*
X146301165Y-94023374D01*
G37*
G36*
X143201990Y-94024804D02*
G01*
X143216861Y-94175800D01*
X143260850Y-94320811D01*
X143332282Y-94454451D01*
X143428413Y-94571587D01*
X143545549Y-94667718D01*
X143679189Y-94739150D01*
X143824200Y-94783139D01*
X143975196Y-94798010D01*
X143976822Y-94799175D01*
X143976626Y-94801165D01*
X143975000Y-94802000D01*
X143929908Y-94802000D01*
X143929712Y-94801990D01*
X143783460Y-94787585D01*
X143783075Y-94787509D01*
X143647158Y-94746280D01*
X143646796Y-94746130D01*
X143521539Y-94679179D01*
X143521213Y-94678961D01*
X143411421Y-94588856D01*
X143411144Y-94588579D01*
X143321039Y-94478787D01*
X143320821Y-94478461D01*
X143253870Y-94353204D01*
X143253720Y-94352842D01*
X143212491Y-94216925D01*
X143212415Y-94216540D01*
X143198010Y-94070288D01*
X143198000Y-94070092D01*
X143198000Y-94025000D01*
X143199000Y-94023268D01*
X143201000Y-94023268D01*
X143201990Y-94024804D01*
G37*
G36*
X143976732Y-91199000D02*
G01*
X143976732Y-91201000D01*
X143975196Y-91201990D01*
X143824200Y-91216861D01*
X143679189Y-91260850D01*
X143545549Y-91332282D01*
X143428413Y-91428413D01*
X143332282Y-91545549D01*
X143260850Y-91679189D01*
X143216861Y-91824200D01*
X143201990Y-91975196D01*
X143200825Y-91976822D01*
X143198835Y-91976626D01*
X143198000Y-91975000D01*
X143198000Y-91929908D01*
X143198010Y-91929712D01*
X143212415Y-91783460D01*
X143212491Y-91783075D01*
X143253720Y-91647158D01*
X143253870Y-91646796D01*
X143320821Y-91521539D01*
X143321039Y-91521213D01*
X143411144Y-91411421D01*
X143411421Y-91411144D01*
X143521213Y-91321039D01*
X143521539Y-91320821D01*
X143646796Y-91253870D01*
X143647158Y-91253720D01*
X143783075Y-91212491D01*
X143783460Y-91212415D01*
X143929712Y-91198010D01*
X143929908Y-91198000D01*
X143975000Y-91198000D01*
X143976732Y-91199000D01*
G37*
G36*
X145570288Y-91198010D02*
G01*
X145716540Y-91212415D01*
X145716925Y-91212491D01*
X145852842Y-91253720D01*
X145853204Y-91253870D01*
X145978461Y-91320821D01*
X145978787Y-91321039D01*
X146088579Y-91411144D01*
X146088856Y-91411421D01*
X146178961Y-91521213D01*
X146179179Y-91521539D01*
X146246130Y-91646796D01*
X146246280Y-91647158D01*
X146287509Y-91783075D01*
X146287585Y-91783460D01*
X146301990Y-91929712D01*
X146302000Y-91929908D01*
X146302000Y-91975000D01*
X146301000Y-91976732D01*
X146299000Y-91976732D01*
X146298010Y-91975196D01*
X146283139Y-91824200D01*
X146239150Y-91679189D01*
X146167718Y-91545549D01*
X146071587Y-91428413D01*
X145954451Y-91332282D01*
X145820811Y-91260850D01*
X145675800Y-91216861D01*
X145524804Y-91201990D01*
X145523178Y-91200825D01*
X145523374Y-91198835D01*
X145525000Y-91198000D01*
X145570092Y-91198000D01*
X145570288Y-91198010D01*
G37*
G36*
X157976732Y-84785000D02*
G01*
X157977000Y-84786000D01*
X157977000Y-86486000D01*
X157976000Y-86487732D01*
X157975000Y-86488000D01*
X157825000Y-86488000D01*
X157823268Y-86487000D01*
X157823000Y-86486000D01*
X157823000Y-84786000D01*
X157824000Y-84784268D01*
X157825000Y-84784000D01*
X157975000Y-84784000D01*
X157976732Y-84785000D01*
G37*
G36*
X158776732Y-84785000D02*
G01*
X158777000Y-84786000D01*
X158777000Y-86486000D01*
X158776000Y-86487732D01*
X158775000Y-86488000D01*
X158625000Y-86488000D01*
X158623268Y-86487000D01*
X158623000Y-86486000D01*
X158623000Y-84786000D01*
X158624000Y-84784268D01*
X158625000Y-84784000D01*
X158775000Y-84784000D01*
X158776732Y-84785000D01*
G37*
G36*
X157176732Y-84785000D02*
G01*
X157177000Y-84786000D01*
X157177000Y-86486000D01*
X157176000Y-86487732D01*
X157175000Y-86488000D01*
X157025000Y-86488000D01*
X157023268Y-86487000D01*
X157023000Y-86486000D01*
X157023000Y-84786000D01*
X157024000Y-84784268D01*
X157025000Y-84784000D01*
X157175000Y-84784000D01*
X157176732Y-84785000D01*
G37*
G36*
X156376732Y-84785000D02*
G01*
X156377000Y-84786000D01*
X156377000Y-86486000D01*
X156376000Y-86487732D01*
X156375000Y-86488000D01*
X156225000Y-86488000D01*
X156223268Y-86487000D01*
X156223000Y-86486000D01*
X156223000Y-84786000D01*
X156224000Y-84784268D01*
X156225000Y-84784000D01*
X156375000Y-84784000D01*
X156376732Y-84785000D01*
G37*
G36*
X155576732Y-84785000D02*
G01*
X155577000Y-84786000D01*
X155577000Y-86486000D01*
X155576000Y-86487732D01*
X155575000Y-86488000D01*
X155425000Y-86488000D01*
X155423268Y-86487000D01*
X155423000Y-86486000D01*
X155423000Y-84786000D01*
X155424000Y-84784268D01*
X155425000Y-84784000D01*
X155575000Y-84784000D01*
X155576732Y-84785000D01*
G37*
G36*
X154776732Y-84785000D02*
G01*
X154777000Y-84786000D01*
X154777000Y-86486000D01*
X154776000Y-86487732D01*
X154775000Y-86488000D01*
X154625000Y-86488000D01*
X154623268Y-86487000D01*
X154623000Y-86486000D01*
X154623000Y-84786000D01*
X154624000Y-84784268D01*
X154625000Y-84784000D01*
X154775000Y-84784000D01*
X154776732Y-84785000D01*
G37*
G36*
X153976732Y-84785000D02*
G01*
X153977000Y-84786000D01*
X153977000Y-86486000D01*
X153976000Y-86487732D01*
X153975000Y-86488000D01*
X153825000Y-86488000D01*
X153823268Y-86487000D01*
X153823000Y-86486000D01*
X153823000Y-84786000D01*
X153824000Y-84784268D01*
X153825000Y-84784000D01*
X153975000Y-84784000D01*
X153976732Y-84785000D01*
G37*
G36*
X161401732Y-83710000D02*
G01*
X161402000Y-83711000D01*
X161402000Y-83861000D01*
X161401000Y-83862732D01*
X161400000Y-83863000D01*
X159700000Y-83863000D01*
X159698268Y-83862000D01*
X159698000Y-83861000D01*
X159698000Y-83711000D01*
X159699000Y-83709268D01*
X159700000Y-83709000D01*
X161400000Y-83709000D01*
X161401732Y-83710000D01*
G37*
G36*
X152901732Y-83710000D02*
G01*
X152902000Y-83711000D01*
X152902000Y-83861000D01*
X152901000Y-83862732D01*
X152900000Y-83863000D01*
X151200000Y-83863000D01*
X151198268Y-83862000D01*
X151198000Y-83861000D01*
X151198000Y-83711000D01*
X151199000Y-83709268D01*
X151200000Y-83709000D01*
X152900000Y-83709000D01*
X152901732Y-83710000D01*
G37*
G36*
X161401732Y-82910000D02*
G01*
X161402000Y-82911000D01*
X161402000Y-83061000D01*
X161401000Y-83062732D01*
X161400000Y-83063000D01*
X159700000Y-83063000D01*
X159698268Y-83062000D01*
X159698000Y-83061000D01*
X159698000Y-82911000D01*
X159699000Y-82909268D01*
X159700000Y-82909000D01*
X161400000Y-82909000D01*
X161401732Y-82910000D01*
G37*
G36*
X152901732Y-82910000D02*
G01*
X152902000Y-82911000D01*
X152902000Y-83061000D01*
X152901000Y-83062732D01*
X152900000Y-83063000D01*
X151200000Y-83063000D01*
X151198268Y-83062000D01*
X151198000Y-83061000D01*
X151198000Y-82911000D01*
X151199000Y-82909268D01*
X151200000Y-82909000D01*
X152900000Y-82909000D01*
X152901732Y-82910000D01*
G37*
G36*
X152901732Y-82110000D02*
G01*
X152902000Y-82111000D01*
X152902000Y-82261000D01*
X152901000Y-82262732D01*
X152900000Y-82263000D01*
X151200000Y-82263000D01*
X151198268Y-82262000D01*
X151198000Y-82261000D01*
X151198000Y-82111000D01*
X151199000Y-82109268D01*
X151200000Y-82109000D01*
X152900000Y-82109000D01*
X152901732Y-82110000D01*
G37*
G36*
X161401732Y-82110000D02*
G01*
X161402000Y-82111000D01*
X161402000Y-82261000D01*
X161401000Y-82262732D01*
X161400000Y-82263000D01*
X159700000Y-82263000D01*
X159698268Y-82262000D01*
X159698000Y-82261000D01*
X159698000Y-82111000D01*
X159699000Y-82109268D01*
X159700000Y-82109000D01*
X161400000Y-82109000D01*
X161401732Y-82110000D01*
G37*
G36*
X144370558Y-81774000D02*
G01*
X144370558Y-81776000D01*
X144369022Y-81776990D01*
X144349712Y-81778891D01*
X144331327Y-81784469D01*
X144314386Y-81793524D01*
X144299537Y-81805710D01*
X144287351Y-81820559D01*
X144278296Y-81837500D01*
X144272718Y-81855885D01*
X144270836Y-81874999D01*
X144272723Y-81894163D01*
X144275060Y-81903489D01*
X144278478Y-81914758D01*
X144278554Y-81915143D01*
X144279990Y-81929721D01*
X144280000Y-81929917D01*
X144280000Y-81975000D01*
X144279000Y-81976732D01*
X144277000Y-81976732D01*
X144276010Y-81975196D01*
X144274109Y-81955886D01*
X144268531Y-81937501D01*
X144259476Y-81920559D01*
X144247290Y-81905710D01*
X144232441Y-81893524D01*
X144215499Y-81884469D01*
X144197114Y-81878891D01*
X144177906Y-81877000D01*
X143978094Y-81877000D01*
X143958886Y-81878891D01*
X143940501Y-81884469D01*
X143923559Y-81893524D01*
X143908710Y-81905710D01*
X143896524Y-81920559D01*
X143887469Y-81937501D01*
X143881891Y-81955886D01*
X143879990Y-81975196D01*
X143878825Y-81976822D01*
X143876835Y-81976626D01*
X143876000Y-81975000D01*
X143876000Y-81929917D01*
X143876010Y-81929721D01*
X143877446Y-81915143D01*
X143877522Y-81914758D01*
X143880924Y-81903542D01*
X143884691Y-81884602D01*
X143884692Y-81865397D01*
X143880943Y-81846554D01*
X143873593Y-81828808D01*
X143862921Y-81812835D01*
X143849339Y-81799253D01*
X143833367Y-81788581D01*
X143815621Y-81781230D01*
X143796731Y-81777473D01*
X143787076Y-81776998D01*
X143785395Y-81775914D01*
X143785493Y-81773916D01*
X143787174Y-81773000D01*
X144368826Y-81773000D01*
X144370558Y-81774000D01*
G37*
G36*
X146320558Y-81774000D02*
G01*
X146320558Y-81776000D01*
X146319022Y-81776990D01*
X146299712Y-81778891D01*
X146281327Y-81784469D01*
X146264386Y-81793524D01*
X146249537Y-81805710D01*
X146237351Y-81820559D01*
X146228296Y-81837500D01*
X146222718Y-81855885D01*
X146220836Y-81874999D01*
X146222723Y-81894163D01*
X146225060Y-81903489D01*
X146228478Y-81914758D01*
X146228554Y-81915143D01*
X146229990Y-81929721D01*
X146230000Y-81929917D01*
X146230000Y-81975000D01*
X146229000Y-81976732D01*
X146227000Y-81976732D01*
X146226010Y-81975196D01*
X146224109Y-81955886D01*
X146218531Y-81937501D01*
X146209476Y-81920559D01*
X146197290Y-81905710D01*
X146182441Y-81893524D01*
X146165499Y-81884469D01*
X146147114Y-81878891D01*
X146127906Y-81877000D01*
X145928094Y-81877000D01*
X145908886Y-81878891D01*
X145890501Y-81884469D01*
X145873559Y-81893524D01*
X145858710Y-81905710D01*
X145846524Y-81920559D01*
X145837469Y-81937501D01*
X145831891Y-81955886D01*
X145829990Y-81975196D01*
X145828825Y-81976822D01*
X145826835Y-81976626D01*
X145826000Y-81975000D01*
X145826000Y-81929917D01*
X145826010Y-81929721D01*
X145827446Y-81915143D01*
X145827522Y-81914758D01*
X145830924Y-81903542D01*
X145834691Y-81884602D01*
X145834692Y-81865397D01*
X145830943Y-81846554D01*
X145823593Y-81828808D01*
X145812921Y-81812835D01*
X145799339Y-81799253D01*
X145783367Y-81788581D01*
X145765621Y-81781230D01*
X145746731Y-81777473D01*
X145737076Y-81776998D01*
X145735395Y-81775914D01*
X145735493Y-81773916D01*
X145737174Y-81773000D01*
X146318826Y-81773000D01*
X146320558Y-81774000D01*
G37*
G36*
X146970558Y-81774000D02*
G01*
X146970558Y-81776000D01*
X146969022Y-81776990D01*
X146949712Y-81778891D01*
X146931327Y-81784469D01*
X146914386Y-81793524D01*
X146899537Y-81805710D01*
X146887351Y-81820559D01*
X146878296Y-81837500D01*
X146872718Y-81855885D01*
X146870836Y-81874999D01*
X146872723Y-81894163D01*
X146875060Y-81903489D01*
X146878478Y-81914758D01*
X146878554Y-81915143D01*
X146879990Y-81929721D01*
X146880000Y-81929917D01*
X146880000Y-81975000D01*
X146879000Y-81976732D01*
X146877000Y-81976732D01*
X146876010Y-81975196D01*
X146874109Y-81955886D01*
X146868531Y-81937501D01*
X146859476Y-81920559D01*
X146847290Y-81905710D01*
X146832441Y-81893524D01*
X146815499Y-81884469D01*
X146797114Y-81878891D01*
X146777906Y-81877000D01*
X146578094Y-81877000D01*
X146558886Y-81878891D01*
X146540501Y-81884469D01*
X146523559Y-81893524D01*
X146508710Y-81905710D01*
X146496524Y-81920559D01*
X146487469Y-81937501D01*
X146481891Y-81955886D01*
X146479990Y-81975196D01*
X146478825Y-81976822D01*
X146476835Y-81976626D01*
X146476000Y-81975000D01*
X146476000Y-81929917D01*
X146476010Y-81929721D01*
X146477446Y-81915143D01*
X146477522Y-81914758D01*
X146480924Y-81903542D01*
X146484691Y-81884602D01*
X146484692Y-81865397D01*
X146480943Y-81846554D01*
X146473593Y-81828808D01*
X146462921Y-81812835D01*
X146449339Y-81799253D01*
X146433367Y-81788581D01*
X146415621Y-81781230D01*
X146396731Y-81777473D01*
X146387076Y-81776998D01*
X146385395Y-81775914D01*
X146385493Y-81773916D01*
X146387174Y-81773000D01*
X146968826Y-81773000D01*
X146970558Y-81774000D01*
G37*
G36*
X143204084Y-81257493D02*
G01*
X143205000Y-81259174D01*
X143205000Y-81773000D01*
X143718826Y-81773000D01*
X143720558Y-81774000D01*
X143720558Y-81776000D01*
X143719022Y-81776990D01*
X143699712Y-81778891D01*
X143681327Y-81784469D01*
X143664386Y-81793524D01*
X143649537Y-81805710D01*
X143637351Y-81820559D01*
X143628296Y-81837500D01*
X143622718Y-81855885D01*
X143620836Y-81874999D01*
X143622723Y-81894163D01*
X143625060Y-81903489D01*
X143628478Y-81914758D01*
X143628554Y-81915143D01*
X143629990Y-81929721D01*
X143630000Y-81929917D01*
X143630000Y-81975000D01*
X143629000Y-81976732D01*
X143627000Y-81976732D01*
X143626010Y-81975196D01*
X143624109Y-81955886D01*
X143618531Y-81937501D01*
X143609476Y-81920559D01*
X143597290Y-81905710D01*
X143582441Y-81893524D01*
X143565499Y-81884469D01*
X143547114Y-81878891D01*
X143527906Y-81877000D01*
X143328094Y-81877000D01*
X143308886Y-81878891D01*
X143290501Y-81884469D01*
X143273559Y-81893524D01*
X143258710Y-81905710D01*
X143246524Y-81920559D01*
X143237469Y-81937501D01*
X143231891Y-81955886D01*
X143229990Y-81975196D01*
X143228825Y-81976822D01*
X143226835Y-81976626D01*
X143226000Y-81975000D01*
X143226000Y-81929917D01*
X143226010Y-81929721D01*
X143227446Y-81915143D01*
X143227522Y-81914758D01*
X143230924Y-81903542D01*
X143234691Y-81884602D01*
X143234692Y-81865397D01*
X143230943Y-81846554D01*
X143223593Y-81828808D01*
X143212921Y-81812835D01*
X143199339Y-81799253D01*
X143187333Y-81791231D01*
X143186680Y-81790511D01*
X143184475Y-81786386D01*
X143172290Y-81771537D01*
X143157441Y-81759351D01*
X143140500Y-81750296D01*
X143122115Y-81744718D01*
X143103001Y-81742836D01*
X143083837Y-81744723D01*
X143074511Y-81747060D01*
X143063242Y-81750478D01*
X143062857Y-81750554D01*
X143048279Y-81751990D01*
X143048083Y-81752000D01*
X143003000Y-81752000D01*
X143001268Y-81751000D01*
X143001268Y-81749000D01*
X143002804Y-81748010D01*
X143022114Y-81746109D01*
X143040499Y-81740531D01*
X143057441Y-81731476D01*
X143072290Y-81719290D01*
X143084476Y-81704441D01*
X143093531Y-81687499D01*
X143099109Y-81669114D01*
X143101000Y-81649906D01*
X143101000Y-81450094D01*
X143099109Y-81430886D01*
X143093531Y-81412501D01*
X143084476Y-81395559D01*
X143072290Y-81380710D01*
X143057441Y-81368524D01*
X143040499Y-81359469D01*
X143022114Y-81353891D01*
X143002804Y-81351990D01*
X143001178Y-81350825D01*
X143001374Y-81348835D01*
X143003000Y-81348000D01*
X143048083Y-81348000D01*
X143048279Y-81348010D01*
X143062857Y-81349446D01*
X143063242Y-81349522D01*
X143074457Y-81352924D01*
X143093398Y-81356691D01*
X143112603Y-81356692D01*
X143131446Y-81352943D01*
X143149192Y-81345593D01*
X143165165Y-81334921D01*
X143178747Y-81321339D01*
X143189419Y-81305367D01*
X143196770Y-81287621D01*
X143200527Y-81268731D01*
X143201002Y-81259076D01*
X143202086Y-81257395D01*
X143204084Y-81257493D01*
G37*
G36*
X145670558Y-81774000D02*
G01*
X145670558Y-81776000D01*
X145669022Y-81776990D01*
X145649712Y-81778891D01*
X145631327Y-81784469D01*
X145614386Y-81793524D01*
X145599537Y-81805710D01*
X145587351Y-81820559D01*
X145578296Y-81837500D01*
X145572718Y-81855885D01*
X145570836Y-81874999D01*
X145572723Y-81894163D01*
X145575060Y-81903489D01*
X145578478Y-81914758D01*
X145578554Y-81915143D01*
X145579990Y-81929721D01*
X145580000Y-81929917D01*
X145580000Y-81975000D01*
X145579000Y-81976732D01*
X145577000Y-81976732D01*
X145576010Y-81975196D01*
X145574109Y-81955886D01*
X145568531Y-81937501D01*
X145559476Y-81920559D01*
X145547290Y-81905710D01*
X145532441Y-81893524D01*
X145515499Y-81884469D01*
X145497114Y-81878891D01*
X145477906Y-81877000D01*
X145278094Y-81877000D01*
X145258886Y-81878891D01*
X145240501Y-81884469D01*
X145223559Y-81893524D01*
X145208710Y-81905710D01*
X145196524Y-81920559D01*
X145187469Y-81937501D01*
X145181891Y-81955886D01*
X145179990Y-81975196D01*
X145178825Y-81976822D01*
X145176835Y-81976626D01*
X145176000Y-81975000D01*
X145176000Y-81929917D01*
X145176010Y-81929721D01*
X145177446Y-81915143D01*
X145177522Y-81914758D01*
X145180924Y-81903542D01*
X145184691Y-81884602D01*
X145184692Y-81865397D01*
X145180943Y-81846554D01*
X145173593Y-81828808D01*
X145162921Y-81812835D01*
X145149339Y-81799253D01*
X145133367Y-81788581D01*
X145115621Y-81781230D01*
X145096731Y-81777473D01*
X145087076Y-81776998D01*
X145085395Y-81775914D01*
X145085493Y-81773916D01*
X145087174Y-81773000D01*
X145668826Y-81773000D01*
X145670558Y-81774000D01*
G37*
G36*
X145020558Y-81774000D02*
G01*
X145020558Y-81776000D01*
X145019022Y-81776990D01*
X144999712Y-81778891D01*
X144981327Y-81784469D01*
X144964386Y-81793524D01*
X144949537Y-81805710D01*
X144937351Y-81820559D01*
X144928296Y-81837500D01*
X144922718Y-81855885D01*
X144920836Y-81874999D01*
X144922723Y-81894163D01*
X144925060Y-81903489D01*
X144928478Y-81914758D01*
X144928554Y-81915143D01*
X144929990Y-81929721D01*
X144930000Y-81929917D01*
X144930000Y-81975000D01*
X144929000Y-81976732D01*
X144927000Y-81976732D01*
X144926010Y-81975196D01*
X144924109Y-81955886D01*
X144918531Y-81937501D01*
X144909476Y-81920559D01*
X144897290Y-81905710D01*
X144882441Y-81893524D01*
X144865499Y-81884469D01*
X144847114Y-81878891D01*
X144827906Y-81877000D01*
X144628094Y-81877000D01*
X144608886Y-81878891D01*
X144590501Y-81884469D01*
X144573559Y-81893524D01*
X144558710Y-81905710D01*
X144546524Y-81920559D01*
X144537469Y-81937501D01*
X144531891Y-81955886D01*
X144529990Y-81975196D01*
X144528825Y-81976822D01*
X144526835Y-81976626D01*
X144526000Y-81975000D01*
X144526000Y-81929917D01*
X144526010Y-81929721D01*
X144527446Y-81915143D01*
X144527522Y-81914758D01*
X144530924Y-81903542D01*
X144534691Y-81884602D01*
X144534692Y-81865397D01*
X144530943Y-81846554D01*
X144523593Y-81828808D01*
X144512921Y-81812835D01*
X144499339Y-81799253D01*
X144483367Y-81788581D01*
X144465621Y-81781230D01*
X144446731Y-81777473D01*
X144437076Y-81776998D01*
X144435395Y-81775914D01*
X144435493Y-81773916D01*
X144437174Y-81773000D01*
X145018826Y-81773000D01*
X145020558Y-81774000D01*
G37*
G36*
X147554990Y-81258978D02*
G01*
X147556891Y-81278288D01*
X147562469Y-81296673D01*
X147571524Y-81313614D01*
X147583710Y-81328463D01*
X147598559Y-81340649D01*
X147615500Y-81349704D01*
X147633885Y-81355282D01*
X147652999Y-81357164D01*
X147672163Y-81355277D01*
X147681489Y-81352940D01*
X147692758Y-81349522D01*
X147693143Y-81349446D01*
X147707721Y-81348010D01*
X147707917Y-81348000D01*
X147753000Y-81348000D01*
X147754732Y-81349000D01*
X147754732Y-81351000D01*
X147753196Y-81351990D01*
X147733886Y-81353891D01*
X147715501Y-81359469D01*
X147698559Y-81368524D01*
X147683710Y-81380710D01*
X147671524Y-81395559D01*
X147662469Y-81412501D01*
X147656891Y-81430886D01*
X147655000Y-81450094D01*
X147655000Y-81649906D01*
X147656891Y-81669114D01*
X147662469Y-81687499D01*
X147671524Y-81704441D01*
X147683710Y-81719290D01*
X147698559Y-81731476D01*
X147715501Y-81740531D01*
X147733886Y-81746109D01*
X147753196Y-81748010D01*
X147754822Y-81749175D01*
X147754626Y-81751165D01*
X147753000Y-81752000D01*
X147707917Y-81752000D01*
X147707721Y-81751990D01*
X147693143Y-81750554D01*
X147692758Y-81750478D01*
X147681543Y-81747076D01*
X147662602Y-81743309D01*
X147643397Y-81743308D01*
X147624554Y-81747057D01*
X147606808Y-81754407D01*
X147590835Y-81765079D01*
X147577253Y-81778661D01*
X147569231Y-81790667D01*
X147568511Y-81791320D01*
X147564386Y-81793525D01*
X147549537Y-81805710D01*
X147537351Y-81820559D01*
X147528296Y-81837500D01*
X147522718Y-81855885D01*
X147520836Y-81874999D01*
X147522723Y-81894163D01*
X147525060Y-81903489D01*
X147528478Y-81914758D01*
X147528554Y-81915143D01*
X147529990Y-81929721D01*
X147530000Y-81929917D01*
X147530000Y-81975000D01*
X147529000Y-81976732D01*
X147527000Y-81976732D01*
X147526010Y-81975196D01*
X147524109Y-81955886D01*
X147518531Y-81937501D01*
X147509476Y-81920559D01*
X147497290Y-81905710D01*
X147482441Y-81893524D01*
X147465499Y-81884469D01*
X147447114Y-81878891D01*
X147427906Y-81877000D01*
X147228094Y-81877000D01*
X147208886Y-81878891D01*
X147190501Y-81884469D01*
X147173559Y-81893524D01*
X147158710Y-81905710D01*
X147146524Y-81920559D01*
X147137469Y-81937501D01*
X147131891Y-81955886D01*
X147129990Y-81975196D01*
X147128825Y-81976822D01*
X147126835Y-81976626D01*
X147126000Y-81975000D01*
X147126000Y-81929917D01*
X147126010Y-81929721D01*
X147127446Y-81915143D01*
X147127522Y-81914758D01*
X147130924Y-81903542D01*
X147134691Y-81884602D01*
X147134692Y-81865397D01*
X147130943Y-81846554D01*
X147123593Y-81828808D01*
X147112921Y-81812835D01*
X147099339Y-81799253D01*
X147083367Y-81788581D01*
X147065621Y-81781230D01*
X147046731Y-81777473D01*
X147037076Y-81776998D01*
X147035395Y-81775914D01*
X147035493Y-81773916D01*
X147037174Y-81773000D01*
X147551000Y-81773000D01*
X147551000Y-81259174D01*
X147552000Y-81257442D01*
X147554000Y-81257442D01*
X147554990Y-81258978D01*
G37*
G36*
X152901732Y-81310000D02*
G01*
X152902000Y-81311000D01*
X152902000Y-81461000D01*
X152901000Y-81462732D01*
X152900000Y-81463000D01*
X151200000Y-81463000D01*
X151198268Y-81462000D01*
X151198000Y-81461000D01*
X151198000Y-81311000D01*
X151199000Y-81309268D01*
X151200000Y-81309000D01*
X152900000Y-81309000D01*
X152901732Y-81310000D01*
G37*
G36*
X161401732Y-81310000D02*
G01*
X161402000Y-81311000D01*
X161402000Y-81461000D01*
X161401000Y-81462732D01*
X161400000Y-81463000D01*
X159700000Y-81463000D01*
X159698268Y-81462000D01*
X159698000Y-81461000D01*
X159698000Y-81311000D01*
X159699000Y-81309268D01*
X159700000Y-81309000D01*
X161400000Y-81309000D01*
X161401732Y-81310000D01*
G37*
G36*
X147554990Y-80608978D02*
G01*
X147556891Y-80628288D01*
X147562469Y-80646673D01*
X147571524Y-80663614D01*
X147583710Y-80678463D01*
X147598559Y-80690649D01*
X147615500Y-80699704D01*
X147633885Y-80705282D01*
X147652999Y-80707164D01*
X147672163Y-80705277D01*
X147681489Y-80702940D01*
X147692758Y-80699522D01*
X147693143Y-80699446D01*
X147707721Y-80698010D01*
X147707917Y-80698000D01*
X147753000Y-80698000D01*
X147754732Y-80699000D01*
X147754732Y-80701000D01*
X147753196Y-80701990D01*
X147733886Y-80703891D01*
X147715501Y-80709469D01*
X147698559Y-80718524D01*
X147683710Y-80730710D01*
X147671524Y-80745559D01*
X147662469Y-80762501D01*
X147656891Y-80780886D01*
X147655000Y-80800094D01*
X147655000Y-80999906D01*
X147656891Y-81019114D01*
X147662469Y-81037499D01*
X147671524Y-81054441D01*
X147683710Y-81069290D01*
X147698559Y-81081476D01*
X147715501Y-81090531D01*
X147733886Y-81096109D01*
X147753196Y-81098010D01*
X147754822Y-81099175D01*
X147754626Y-81101165D01*
X147753000Y-81102000D01*
X147707917Y-81102000D01*
X147707721Y-81101990D01*
X147693143Y-81100554D01*
X147692758Y-81100478D01*
X147681543Y-81097076D01*
X147662602Y-81093309D01*
X147643397Y-81093308D01*
X147624554Y-81097057D01*
X147606808Y-81104407D01*
X147590835Y-81115079D01*
X147577253Y-81128661D01*
X147566581Y-81144633D01*
X147559230Y-81162379D01*
X147555473Y-81181269D01*
X147554998Y-81190924D01*
X147553914Y-81192605D01*
X147551916Y-81192507D01*
X147551000Y-81190826D01*
X147551000Y-80609174D01*
X147552000Y-80607442D01*
X147554000Y-80607442D01*
X147554990Y-80608978D01*
G37*
G36*
X143204084Y-80607493D02*
G01*
X143205000Y-80609174D01*
X143205000Y-81190826D01*
X143204000Y-81192558D01*
X143202000Y-81192558D01*
X143201010Y-81191022D01*
X143199109Y-81171712D01*
X143193531Y-81153327D01*
X143184476Y-81136386D01*
X143172290Y-81121537D01*
X143157441Y-81109351D01*
X143140500Y-81100296D01*
X143122115Y-81094718D01*
X143103001Y-81092836D01*
X143083837Y-81094723D01*
X143074511Y-81097060D01*
X143063242Y-81100478D01*
X143062857Y-81100554D01*
X143048279Y-81101990D01*
X143048083Y-81102000D01*
X143003000Y-81102000D01*
X143001268Y-81101000D01*
X143001268Y-81099000D01*
X143002804Y-81098010D01*
X143022114Y-81096109D01*
X143040499Y-81090531D01*
X143057441Y-81081476D01*
X143072290Y-81069290D01*
X143084476Y-81054441D01*
X143093531Y-81037499D01*
X143099109Y-81019114D01*
X143101000Y-80999906D01*
X143101000Y-80800094D01*
X143099109Y-80780886D01*
X143093531Y-80762501D01*
X143084476Y-80745559D01*
X143072290Y-80730710D01*
X143057441Y-80718524D01*
X143040499Y-80709469D01*
X143022114Y-80703891D01*
X143002804Y-80701990D01*
X143001178Y-80700825D01*
X143001374Y-80698835D01*
X143003000Y-80698000D01*
X143048083Y-80698000D01*
X143048279Y-80698010D01*
X143062857Y-80699446D01*
X143063242Y-80699522D01*
X143074457Y-80702924D01*
X143093398Y-80706691D01*
X143112603Y-80706692D01*
X143131446Y-80702943D01*
X143149192Y-80695593D01*
X143165165Y-80684921D01*
X143178747Y-80671339D01*
X143189419Y-80655367D01*
X143196770Y-80637621D01*
X143200527Y-80618731D01*
X143201002Y-80609076D01*
X143202086Y-80607395D01*
X143204084Y-80607493D01*
G37*
G36*
X152901732Y-80510000D02*
G01*
X152902000Y-80511000D01*
X152902000Y-80661000D01*
X152901000Y-80662732D01*
X152900000Y-80663000D01*
X151200000Y-80663000D01*
X151198268Y-80662000D01*
X151198000Y-80661000D01*
X151198000Y-80511000D01*
X151199000Y-80509268D01*
X151200000Y-80509000D01*
X152900000Y-80509000D01*
X152901732Y-80510000D01*
G37*
G36*
X161401732Y-80510000D02*
G01*
X161402000Y-80511000D01*
X161402000Y-80661000D01*
X161401000Y-80662732D01*
X161400000Y-80663000D01*
X159700000Y-80663000D01*
X159698268Y-80662000D01*
X159698000Y-80661000D01*
X159698000Y-80511000D01*
X159699000Y-80509268D01*
X159700000Y-80509000D01*
X161400000Y-80509000D01*
X161401732Y-80510000D01*
G37*
G36*
X147554990Y-79958978D02*
G01*
X147556891Y-79978288D01*
X147562469Y-79996673D01*
X147571524Y-80013614D01*
X147583710Y-80028463D01*
X147598559Y-80040649D01*
X147615500Y-80049704D01*
X147633885Y-80055282D01*
X147652999Y-80057164D01*
X147672163Y-80055277D01*
X147681489Y-80052940D01*
X147692758Y-80049522D01*
X147693143Y-80049446D01*
X147707721Y-80048010D01*
X147707917Y-80048000D01*
X147753000Y-80048000D01*
X147754732Y-80049000D01*
X147754732Y-80051000D01*
X147753196Y-80051990D01*
X147733886Y-80053891D01*
X147715501Y-80059469D01*
X147698559Y-80068524D01*
X147683710Y-80080710D01*
X147671524Y-80095559D01*
X147662469Y-80112501D01*
X147656891Y-80130886D01*
X147655000Y-80150094D01*
X147655000Y-80349906D01*
X147656891Y-80369114D01*
X147662469Y-80387499D01*
X147671524Y-80404441D01*
X147683710Y-80419290D01*
X147698559Y-80431476D01*
X147715501Y-80440531D01*
X147733886Y-80446109D01*
X147753196Y-80448010D01*
X147754822Y-80449175D01*
X147754626Y-80451165D01*
X147753000Y-80452000D01*
X147707917Y-80452000D01*
X147707721Y-80451990D01*
X147693143Y-80450554D01*
X147692758Y-80450478D01*
X147681543Y-80447076D01*
X147662602Y-80443309D01*
X147643397Y-80443308D01*
X147624554Y-80447057D01*
X147606808Y-80454407D01*
X147590835Y-80465079D01*
X147577253Y-80478661D01*
X147566581Y-80494633D01*
X147559230Y-80512379D01*
X147555473Y-80531269D01*
X147554998Y-80540924D01*
X147553914Y-80542605D01*
X147551916Y-80542507D01*
X147551000Y-80540826D01*
X147551000Y-79959174D01*
X147552000Y-79957442D01*
X147554000Y-79957442D01*
X147554990Y-79958978D01*
G37*
G36*
X143204084Y-79957493D02*
G01*
X143205000Y-79959174D01*
X143205000Y-80540826D01*
X143204000Y-80542558D01*
X143202000Y-80542558D01*
X143201010Y-80541022D01*
X143199109Y-80521712D01*
X143193531Y-80503327D01*
X143184476Y-80486386D01*
X143172290Y-80471537D01*
X143157441Y-80459351D01*
X143140500Y-80450296D01*
X143122115Y-80444718D01*
X143103001Y-80442836D01*
X143083837Y-80444723D01*
X143074511Y-80447060D01*
X143063242Y-80450478D01*
X143062857Y-80450554D01*
X143048279Y-80451990D01*
X143048083Y-80452000D01*
X143003000Y-80452000D01*
X143001268Y-80451000D01*
X143001268Y-80449000D01*
X143002804Y-80448010D01*
X143022114Y-80446109D01*
X143040499Y-80440531D01*
X143057441Y-80431476D01*
X143072290Y-80419290D01*
X143084476Y-80404441D01*
X143093531Y-80387499D01*
X143099109Y-80369114D01*
X143101000Y-80349906D01*
X143101000Y-80150094D01*
X143099109Y-80130886D01*
X143093531Y-80112501D01*
X143084476Y-80095559D01*
X143072290Y-80080710D01*
X143057441Y-80068524D01*
X143040499Y-80059469D01*
X143022114Y-80053891D01*
X143002804Y-80051990D01*
X143001178Y-80050825D01*
X143001374Y-80048835D01*
X143003000Y-80048000D01*
X143048083Y-80048000D01*
X143048279Y-80048010D01*
X143062857Y-80049446D01*
X143063242Y-80049522D01*
X143074457Y-80052924D01*
X143093398Y-80056691D01*
X143112603Y-80056692D01*
X143131446Y-80052943D01*
X143149192Y-80045593D01*
X143165165Y-80034921D01*
X143178747Y-80021339D01*
X143189419Y-80005367D01*
X143196770Y-79987621D01*
X143200527Y-79968731D01*
X143201002Y-79959076D01*
X143202086Y-79957395D01*
X143204084Y-79957493D01*
G37*
G36*
X147554990Y-79308978D02*
G01*
X147556891Y-79328288D01*
X147562469Y-79346673D01*
X147571524Y-79363614D01*
X147583710Y-79378463D01*
X147598559Y-79390649D01*
X147615500Y-79399704D01*
X147633885Y-79405282D01*
X147652999Y-79407164D01*
X147672163Y-79405277D01*
X147681489Y-79402940D01*
X147692758Y-79399522D01*
X147693143Y-79399446D01*
X147707721Y-79398010D01*
X147707917Y-79398000D01*
X147753000Y-79398000D01*
X147754732Y-79399000D01*
X147754732Y-79401000D01*
X147753196Y-79401990D01*
X147733886Y-79403891D01*
X147715501Y-79409469D01*
X147698559Y-79418524D01*
X147683710Y-79430710D01*
X147671524Y-79445559D01*
X147662469Y-79462501D01*
X147656891Y-79480886D01*
X147655000Y-79500094D01*
X147655000Y-79699906D01*
X147656891Y-79719114D01*
X147662469Y-79737499D01*
X147671524Y-79754441D01*
X147683710Y-79769290D01*
X147698559Y-79781476D01*
X147715501Y-79790531D01*
X147733886Y-79796109D01*
X147753196Y-79798010D01*
X147754822Y-79799175D01*
X147754626Y-79801165D01*
X147753000Y-79802000D01*
X147707917Y-79802000D01*
X147707721Y-79801990D01*
X147693143Y-79800554D01*
X147692758Y-79800478D01*
X147681543Y-79797076D01*
X147662602Y-79793309D01*
X147643397Y-79793308D01*
X147624554Y-79797057D01*
X147606808Y-79804407D01*
X147590835Y-79815079D01*
X147577253Y-79828661D01*
X147566581Y-79844633D01*
X147559230Y-79862379D01*
X147555473Y-79881269D01*
X147554998Y-79890924D01*
X147553914Y-79892605D01*
X147551916Y-79892507D01*
X147551000Y-79890826D01*
X147551000Y-79309174D01*
X147552000Y-79307442D01*
X147554000Y-79307442D01*
X147554990Y-79308978D01*
G37*
G36*
X143204084Y-79307493D02*
G01*
X143205000Y-79309174D01*
X143205000Y-79890826D01*
X143204000Y-79892558D01*
X143202000Y-79892558D01*
X143201010Y-79891022D01*
X143199109Y-79871712D01*
X143193531Y-79853327D01*
X143184476Y-79836386D01*
X143172290Y-79821537D01*
X143157441Y-79809351D01*
X143140500Y-79800296D01*
X143122115Y-79794718D01*
X143103001Y-79792836D01*
X143083837Y-79794723D01*
X143074511Y-79797060D01*
X143063242Y-79800478D01*
X143062857Y-79800554D01*
X143048279Y-79801990D01*
X143048083Y-79802000D01*
X143003000Y-79802000D01*
X143001268Y-79801000D01*
X143001268Y-79799000D01*
X143002804Y-79798010D01*
X143022114Y-79796109D01*
X143040499Y-79790531D01*
X143057441Y-79781476D01*
X143072290Y-79769290D01*
X143084476Y-79754441D01*
X143093531Y-79737499D01*
X143099109Y-79719114D01*
X143101000Y-79699906D01*
X143101000Y-79500094D01*
X143099109Y-79480886D01*
X143093531Y-79462501D01*
X143084476Y-79445559D01*
X143072290Y-79430710D01*
X143057441Y-79418524D01*
X143040499Y-79409469D01*
X143022114Y-79403891D01*
X143002804Y-79401990D01*
X143001178Y-79400825D01*
X143001374Y-79398835D01*
X143003000Y-79398000D01*
X143048083Y-79398000D01*
X143048279Y-79398010D01*
X143062857Y-79399446D01*
X143063242Y-79399522D01*
X143074457Y-79402924D01*
X143093398Y-79406691D01*
X143112603Y-79406692D01*
X143131446Y-79402943D01*
X143149192Y-79395593D01*
X143165165Y-79384921D01*
X143178747Y-79371339D01*
X143189419Y-79355367D01*
X143196770Y-79337621D01*
X143200527Y-79318731D01*
X143201002Y-79309076D01*
X143202086Y-79307395D01*
X143204084Y-79307493D01*
G37*
G36*
X152901732Y-79710000D02*
G01*
X152902000Y-79711000D01*
X152902000Y-79861000D01*
X152901000Y-79862732D01*
X152900000Y-79863000D01*
X151200000Y-79863000D01*
X151198268Y-79862000D01*
X151198000Y-79861000D01*
X151198000Y-79711000D01*
X151199000Y-79709268D01*
X151200000Y-79709000D01*
X152900000Y-79709000D01*
X152901732Y-79710000D01*
G37*
G36*
X161401732Y-79710000D02*
G01*
X161402000Y-79711000D01*
X161402000Y-79861000D01*
X161401000Y-79862732D01*
X161400000Y-79863000D01*
X159700000Y-79863000D01*
X159698268Y-79862000D01*
X159698000Y-79861000D01*
X159698000Y-79711000D01*
X159699000Y-79709268D01*
X159700000Y-79709000D01*
X161400000Y-79709000D01*
X161401732Y-79710000D01*
G37*
G36*
X147554990Y-78658978D02*
G01*
X147556891Y-78678288D01*
X147562469Y-78696673D01*
X147571524Y-78713614D01*
X147583710Y-78728463D01*
X147598559Y-78740649D01*
X147615500Y-78749704D01*
X147633885Y-78755282D01*
X147652999Y-78757164D01*
X147672163Y-78755277D01*
X147681489Y-78752940D01*
X147692758Y-78749522D01*
X147693143Y-78749446D01*
X147707721Y-78748010D01*
X147707917Y-78748000D01*
X147753000Y-78748000D01*
X147754732Y-78749000D01*
X147754732Y-78751000D01*
X147753196Y-78751990D01*
X147733886Y-78753891D01*
X147715501Y-78759469D01*
X147698559Y-78768524D01*
X147683710Y-78780710D01*
X147671524Y-78795559D01*
X147662469Y-78812501D01*
X147656891Y-78830886D01*
X147655000Y-78850094D01*
X147655000Y-79049906D01*
X147656891Y-79069114D01*
X147662469Y-79087499D01*
X147671524Y-79104441D01*
X147683710Y-79119290D01*
X147698559Y-79131476D01*
X147715501Y-79140531D01*
X147733886Y-79146109D01*
X147753196Y-79148010D01*
X147754822Y-79149175D01*
X147754626Y-79151165D01*
X147753000Y-79152000D01*
X147707917Y-79152000D01*
X147707721Y-79151990D01*
X147693143Y-79150554D01*
X147692758Y-79150478D01*
X147681543Y-79147076D01*
X147662602Y-79143309D01*
X147643397Y-79143308D01*
X147624554Y-79147057D01*
X147606808Y-79154407D01*
X147590835Y-79165079D01*
X147577253Y-79178661D01*
X147566581Y-79194633D01*
X147559230Y-79212379D01*
X147555473Y-79231269D01*
X147554998Y-79240924D01*
X147553914Y-79242605D01*
X147551916Y-79242507D01*
X147551000Y-79240826D01*
X147551000Y-78659174D01*
X147552000Y-78657442D01*
X147554000Y-78657442D01*
X147554990Y-78658978D01*
G37*
G36*
X143204084Y-78657493D02*
G01*
X143205000Y-78659174D01*
X143205000Y-79240826D01*
X143204000Y-79242558D01*
X143202000Y-79242558D01*
X143201010Y-79241022D01*
X143199109Y-79221712D01*
X143193531Y-79203327D01*
X143184476Y-79186386D01*
X143172290Y-79171537D01*
X143157441Y-79159351D01*
X143140500Y-79150296D01*
X143122115Y-79144718D01*
X143103001Y-79142836D01*
X143083837Y-79144723D01*
X143074511Y-79147060D01*
X143063242Y-79150478D01*
X143062857Y-79150554D01*
X143048279Y-79151990D01*
X143048083Y-79152000D01*
X143003000Y-79152000D01*
X143001268Y-79151000D01*
X143001268Y-79149000D01*
X143002804Y-79148010D01*
X143022114Y-79146109D01*
X143040499Y-79140531D01*
X143057441Y-79131476D01*
X143072290Y-79119290D01*
X143084476Y-79104441D01*
X143093531Y-79087499D01*
X143099109Y-79069114D01*
X143101000Y-79049906D01*
X143101000Y-78850094D01*
X143099109Y-78830886D01*
X143093531Y-78812501D01*
X143084476Y-78795559D01*
X143072290Y-78780710D01*
X143057441Y-78768524D01*
X143040499Y-78759469D01*
X143022114Y-78753891D01*
X143002804Y-78751990D01*
X143001178Y-78750825D01*
X143001374Y-78748835D01*
X143003000Y-78748000D01*
X143048083Y-78748000D01*
X143048279Y-78748010D01*
X143062857Y-78749446D01*
X143063242Y-78749522D01*
X143074457Y-78752924D01*
X143093398Y-78756691D01*
X143112603Y-78756692D01*
X143131446Y-78752943D01*
X143149192Y-78745593D01*
X143165165Y-78734921D01*
X143178747Y-78721339D01*
X143189419Y-78705367D01*
X143196770Y-78687621D01*
X143200527Y-78668731D01*
X143201002Y-78659076D01*
X143202086Y-78657395D01*
X143204084Y-78657493D01*
G37*
G36*
X161401732Y-78910000D02*
G01*
X161402000Y-78911000D01*
X161402000Y-79061000D01*
X161401000Y-79062732D01*
X161400000Y-79063000D01*
X159700000Y-79063000D01*
X159698268Y-79062000D01*
X159698000Y-79061000D01*
X159698000Y-78911000D01*
X159699000Y-78909268D01*
X159700000Y-78909000D01*
X161400000Y-78909000D01*
X161401732Y-78910000D01*
G37*
G36*
X152901732Y-78910000D02*
G01*
X152902000Y-78911000D01*
X152902000Y-79061000D01*
X152901000Y-79062732D01*
X152900000Y-79063000D01*
X151200000Y-79063000D01*
X151198268Y-79062000D01*
X151198000Y-79061000D01*
X151198000Y-78911000D01*
X151199000Y-78909268D01*
X151200000Y-78909000D01*
X152900000Y-78909000D01*
X152901732Y-78910000D01*
G37*
G36*
X147554990Y-78008978D02*
G01*
X147556891Y-78028288D01*
X147562469Y-78046673D01*
X147571524Y-78063614D01*
X147583710Y-78078463D01*
X147598559Y-78090649D01*
X147615500Y-78099704D01*
X147633885Y-78105282D01*
X147652999Y-78107164D01*
X147672163Y-78105277D01*
X147681489Y-78102940D01*
X147692758Y-78099522D01*
X147693143Y-78099446D01*
X147707721Y-78098010D01*
X147707917Y-78098000D01*
X147753000Y-78098000D01*
X147754732Y-78099000D01*
X147754732Y-78101000D01*
X147753196Y-78101990D01*
X147733886Y-78103891D01*
X147715501Y-78109469D01*
X147698559Y-78118524D01*
X147683710Y-78130710D01*
X147671524Y-78145559D01*
X147662469Y-78162501D01*
X147656891Y-78180886D01*
X147655000Y-78200094D01*
X147655000Y-78399906D01*
X147656891Y-78419114D01*
X147662469Y-78437499D01*
X147671524Y-78454441D01*
X147683710Y-78469290D01*
X147698559Y-78481476D01*
X147715501Y-78490531D01*
X147733886Y-78496109D01*
X147753196Y-78498010D01*
X147754822Y-78499175D01*
X147754626Y-78501165D01*
X147753000Y-78502000D01*
X147707917Y-78502000D01*
X147707721Y-78501990D01*
X147693143Y-78500554D01*
X147692758Y-78500478D01*
X147681543Y-78497076D01*
X147662602Y-78493309D01*
X147643397Y-78493308D01*
X147624554Y-78497057D01*
X147606808Y-78504407D01*
X147590835Y-78515079D01*
X147577253Y-78528661D01*
X147566581Y-78544633D01*
X147559230Y-78562379D01*
X147555473Y-78581269D01*
X147554998Y-78590924D01*
X147553914Y-78592605D01*
X147551916Y-78592507D01*
X147551000Y-78590826D01*
X147551000Y-78009174D01*
X147552000Y-78007442D01*
X147554000Y-78007442D01*
X147554990Y-78008978D01*
G37*
G36*
X143204084Y-78007493D02*
G01*
X143205000Y-78009174D01*
X143205000Y-78590826D01*
X143204000Y-78592558D01*
X143202000Y-78592558D01*
X143201010Y-78591022D01*
X143199109Y-78571712D01*
X143193531Y-78553327D01*
X143184476Y-78536386D01*
X143172290Y-78521537D01*
X143157441Y-78509351D01*
X143140500Y-78500296D01*
X143122115Y-78494718D01*
X143103001Y-78492836D01*
X143083837Y-78494723D01*
X143074511Y-78497060D01*
X143063242Y-78500478D01*
X143062857Y-78500554D01*
X143048279Y-78501990D01*
X143048083Y-78502000D01*
X143003000Y-78502000D01*
X143001268Y-78501000D01*
X143001268Y-78499000D01*
X143002804Y-78498010D01*
X143022114Y-78496109D01*
X143040499Y-78490531D01*
X143057441Y-78481476D01*
X143072290Y-78469290D01*
X143084476Y-78454441D01*
X143093531Y-78437499D01*
X143099109Y-78419114D01*
X143101000Y-78399906D01*
X143101000Y-78200094D01*
X143099109Y-78180886D01*
X143093531Y-78162501D01*
X143084476Y-78145559D01*
X143072290Y-78130710D01*
X143057441Y-78118524D01*
X143040499Y-78109469D01*
X143022114Y-78103891D01*
X143002804Y-78101990D01*
X143001178Y-78100825D01*
X143001374Y-78098835D01*
X143003000Y-78098000D01*
X143048083Y-78098000D01*
X143048279Y-78098010D01*
X143062857Y-78099446D01*
X143063242Y-78099522D01*
X143074457Y-78102924D01*
X143093398Y-78106691D01*
X143112603Y-78106692D01*
X143131446Y-78102943D01*
X143149192Y-78095593D01*
X143165165Y-78084921D01*
X143178747Y-78071339D01*
X143189419Y-78055367D01*
X143196770Y-78037621D01*
X143200527Y-78018731D01*
X143201002Y-78009076D01*
X143202086Y-78007395D01*
X143204084Y-78007493D01*
G37*
G36*
X153976732Y-76285000D02*
G01*
X153977000Y-76286000D01*
X153977000Y-77986000D01*
X153976000Y-77987732D01*
X153975000Y-77988000D01*
X153825000Y-77988000D01*
X153823268Y-77987000D01*
X153823000Y-77986000D01*
X153823000Y-76286000D01*
X153824000Y-76284268D01*
X153825000Y-76284000D01*
X153975000Y-76284000D01*
X153976732Y-76285000D01*
G37*
G36*
X154776732Y-76285000D02*
G01*
X154777000Y-76286000D01*
X154777000Y-77986000D01*
X154776000Y-77987732D01*
X154775000Y-77988000D01*
X154625000Y-77988000D01*
X154623268Y-77987000D01*
X154623000Y-77986000D01*
X154623000Y-76286000D01*
X154624000Y-76284268D01*
X154625000Y-76284000D01*
X154775000Y-76284000D01*
X154776732Y-76285000D01*
G37*
G36*
X155576732Y-76285000D02*
G01*
X155577000Y-76286000D01*
X155577000Y-77986000D01*
X155576000Y-77987732D01*
X155575000Y-77988000D01*
X155425000Y-77988000D01*
X155423268Y-77987000D01*
X155423000Y-77986000D01*
X155423000Y-76286000D01*
X155424000Y-76284268D01*
X155425000Y-76284000D01*
X155575000Y-76284000D01*
X155576732Y-76285000D01*
G37*
G36*
X156376732Y-76285000D02*
G01*
X156377000Y-76286000D01*
X156377000Y-77986000D01*
X156376000Y-77987732D01*
X156375000Y-77988000D01*
X156225000Y-77988000D01*
X156223268Y-77987000D01*
X156223000Y-77986000D01*
X156223000Y-76286000D01*
X156224000Y-76284268D01*
X156225000Y-76284000D01*
X156375000Y-76284000D01*
X156376732Y-76285000D01*
G37*
G36*
X157176732Y-76285000D02*
G01*
X157177000Y-76286000D01*
X157177000Y-77986000D01*
X157176000Y-77987732D01*
X157175000Y-77988000D01*
X157025000Y-77988000D01*
X157023268Y-77987000D01*
X157023000Y-77986000D01*
X157023000Y-76286000D01*
X157024000Y-76284268D01*
X157025000Y-76284000D01*
X157175000Y-76284000D01*
X157176732Y-76285000D01*
G37*
G36*
X157976732Y-76285000D02*
G01*
X157977000Y-76286000D01*
X157977000Y-77986000D01*
X157976000Y-77987732D01*
X157975000Y-77988000D01*
X157825000Y-77988000D01*
X157823268Y-77987000D01*
X157823000Y-77986000D01*
X157823000Y-76286000D01*
X157824000Y-76284268D01*
X157825000Y-76284000D01*
X157975000Y-76284000D01*
X157976732Y-76285000D01*
G37*
G36*
X158776732Y-76285000D02*
G01*
X158777000Y-76286000D01*
X158777000Y-77986000D01*
X158776000Y-77987732D01*
X158775000Y-77988000D01*
X158625000Y-77988000D01*
X158623268Y-77987000D01*
X158623000Y-77986000D01*
X158623000Y-76286000D01*
X158624000Y-76284268D01*
X158625000Y-76284000D01*
X158775000Y-76284000D01*
X158776732Y-76285000D01*
G37*
G36*
X147529165Y-77223374D02*
G01*
X147530000Y-77225000D01*
X147530000Y-77270083D01*
X147529990Y-77270279D01*
X147528554Y-77284857D01*
X147528478Y-77285242D01*
X147525076Y-77296457D01*
X147521309Y-77315398D01*
X147521308Y-77334603D01*
X147525057Y-77353446D01*
X147532407Y-77371192D01*
X147543079Y-77387165D01*
X147556661Y-77400747D01*
X147568667Y-77408769D01*
X147569320Y-77409489D01*
X147571525Y-77413614D01*
X147583710Y-77428463D01*
X147598559Y-77440649D01*
X147615500Y-77449704D01*
X147633885Y-77455282D01*
X147652999Y-77457164D01*
X147672163Y-77455277D01*
X147681489Y-77452940D01*
X147692758Y-77449522D01*
X147693143Y-77449446D01*
X147707721Y-77448010D01*
X147707917Y-77448000D01*
X147753000Y-77448000D01*
X147754732Y-77449000D01*
X147754732Y-77451000D01*
X147753196Y-77451990D01*
X147733886Y-77453891D01*
X147715501Y-77459469D01*
X147698559Y-77468524D01*
X147683710Y-77480710D01*
X147671524Y-77495559D01*
X147662469Y-77512501D01*
X147656891Y-77530886D01*
X147655000Y-77550094D01*
X147655000Y-77749906D01*
X147656891Y-77769114D01*
X147662469Y-77787499D01*
X147671524Y-77804441D01*
X147683710Y-77819290D01*
X147698559Y-77831476D01*
X147715501Y-77840531D01*
X147733886Y-77846109D01*
X147753196Y-77848010D01*
X147754822Y-77849175D01*
X147754626Y-77851165D01*
X147753000Y-77852000D01*
X147707917Y-77852000D01*
X147707721Y-77851990D01*
X147693143Y-77850554D01*
X147692758Y-77850478D01*
X147681543Y-77847076D01*
X147662602Y-77843309D01*
X147643397Y-77843308D01*
X147624554Y-77847057D01*
X147606808Y-77854407D01*
X147590835Y-77865079D01*
X147577253Y-77878661D01*
X147566581Y-77894633D01*
X147559230Y-77912379D01*
X147555473Y-77931269D01*
X147554998Y-77940924D01*
X147553914Y-77942605D01*
X147551916Y-77942507D01*
X147551000Y-77940826D01*
X147551000Y-77427000D01*
X147037174Y-77427000D01*
X147035442Y-77426000D01*
X147035442Y-77424000D01*
X147036978Y-77423010D01*
X147056288Y-77421109D01*
X147074673Y-77415531D01*
X147091614Y-77406476D01*
X147106463Y-77394290D01*
X147118649Y-77379441D01*
X147127704Y-77362500D01*
X147133282Y-77344115D01*
X147135164Y-77325000D01*
X147133277Y-77305837D01*
X147130940Y-77296511D01*
X147127522Y-77285242D01*
X147127446Y-77284857D01*
X147126010Y-77270279D01*
X147126000Y-77270083D01*
X147126000Y-77225000D01*
X147127000Y-77223268D01*
X147129000Y-77223268D01*
X147129990Y-77224804D01*
X147131891Y-77244114D01*
X147137469Y-77262499D01*
X147146524Y-77279441D01*
X147158710Y-77294290D01*
X147173559Y-77306476D01*
X147190501Y-77315531D01*
X147208886Y-77321109D01*
X147228094Y-77323000D01*
X147427906Y-77323000D01*
X147447114Y-77321109D01*
X147465499Y-77315531D01*
X147482441Y-77306476D01*
X147497290Y-77294290D01*
X147509476Y-77279441D01*
X147518531Y-77262499D01*
X147524109Y-77244114D01*
X147526010Y-77224804D01*
X147527175Y-77223178D01*
X147529165Y-77223374D01*
G37*
G36*
X143629165Y-77223374D02*
G01*
X143630000Y-77225000D01*
X143630000Y-77270083D01*
X143629990Y-77270279D01*
X143628554Y-77284857D01*
X143628478Y-77285242D01*
X143625076Y-77296457D01*
X143621309Y-77315398D01*
X143621308Y-77334603D01*
X143625057Y-77353446D01*
X143632407Y-77371192D01*
X143643079Y-77387165D01*
X143656661Y-77400747D01*
X143672633Y-77411419D01*
X143690379Y-77418770D01*
X143709269Y-77422527D01*
X143718924Y-77423002D01*
X143720605Y-77424086D01*
X143720507Y-77426084D01*
X143718826Y-77427000D01*
X143205000Y-77427000D01*
X143205000Y-77940826D01*
X143204000Y-77942558D01*
X143202000Y-77942558D01*
X143201010Y-77941022D01*
X143199109Y-77921712D01*
X143193531Y-77903327D01*
X143184476Y-77886386D01*
X143172290Y-77871537D01*
X143157441Y-77859351D01*
X143140500Y-77850296D01*
X143122115Y-77844718D01*
X143103001Y-77842836D01*
X143083837Y-77844723D01*
X143074511Y-77847060D01*
X143063242Y-77850478D01*
X143062857Y-77850554D01*
X143048279Y-77851990D01*
X143048083Y-77852000D01*
X143003000Y-77852000D01*
X143001268Y-77851000D01*
X143001268Y-77849000D01*
X143002804Y-77848010D01*
X143022114Y-77846109D01*
X143040499Y-77840531D01*
X143057441Y-77831476D01*
X143072290Y-77819290D01*
X143084476Y-77804441D01*
X143093531Y-77787499D01*
X143099109Y-77769114D01*
X143101000Y-77749906D01*
X143101000Y-77550094D01*
X143099109Y-77530886D01*
X143093531Y-77512501D01*
X143084476Y-77495559D01*
X143072290Y-77480710D01*
X143057441Y-77468524D01*
X143040499Y-77459469D01*
X143022114Y-77453891D01*
X143002804Y-77451990D01*
X143001178Y-77450825D01*
X143001374Y-77448835D01*
X143003000Y-77448000D01*
X143048083Y-77448000D01*
X143048279Y-77448010D01*
X143062857Y-77449446D01*
X143063242Y-77449522D01*
X143074457Y-77452924D01*
X143093398Y-77456691D01*
X143112603Y-77456692D01*
X143131446Y-77452943D01*
X143149192Y-77445593D01*
X143165165Y-77434921D01*
X143178747Y-77421339D01*
X143186769Y-77409333D01*
X143187489Y-77408680D01*
X143191614Y-77406475D01*
X143206463Y-77394290D01*
X143218649Y-77379441D01*
X143227704Y-77362500D01*
X143233282Y-77344115D01*
X143235164Y-77325000D01*
X143233277Y-77305837D01*
X143230940Y-77296511D01*
X143227522Y-77285242D01*
X143227446Y-77284857D01*
X143226010Y-77270279D01*
X143226000Y-77270083D01*
X143226000Y-77225000D01*
X143227000Y-77223268D01*
X143229000Y-77223268D01*
X143229990Y-77224804D01*
X143231891Y-77244114D01*
X143237469Y-77262499D01*
X143246524Y-77279441D01*
X143258710Y-77294290D01*
X143273559Y-77306476D01*
X143290501Y-77315531D01*
X143308886Y-77321109D01*
X143328094Y-77323000D01*
X143527906Y-77323000D01*
X143547114Y-77321109D01*
X143565499Y-77315531D01*
X143582441Y-77306476D01*
X143597290Y-77294290D01*
X143609476Y-77279441D01*
X143618531Y-77262499D01*
X143624109Y-77244114D01*
X143626010Y-77224804D01*
X143627175Y-77223178D01*
X143629165Y-77223374D01*
G37*
G36*
X146229165Y-77223374D02*
G01*
X146230000Y-77225000D01*
X146230000Y-77270083D01*
X146229990Y-77270279D01*
X146228554Y-77284857D01*
X146228478Y-77285242D01*
X146225076Y-77296457D01*
X146221309Y-77315398D01*
X146221308Y-77334603D01*
X146225057Y-77353446D01*
X146232407Y-77371192D01*
X146243079Y-77387165D01*
X146256661Y-77400747D01*
X146272633Y-77411419D01*
X146290379Y-77418770D01*
X146309269Y-77422527D01*
X146318924Y-77423002D01*
X146320605Y-77424086D01*
X146320507Y-77426084D01*
X146318826Y-77427000D01*
X143787174Y-77427000D01*
X143785442Y-77426000D01*
X143785442Y-77424000D01*
X143786978Y-77423010D01*
X143806288Y-77421109D01*
X143824673Y-77415531D01*
X143841614Y-77406476D01*
X143856463Y-77394290D01*
X143868649Y-77379441D01*
X143877704Y-77362500D01*
X143883282Y-77344115D01*
X143885164Y-77325000D01*
X143883277Y-77305837D01*
X143880940Y-77296511D01*
X143877522Y-77285242D01*
X143877446Y-77284857D01*
X143876010Y-77270279D01*
X143876000Y-77270083D01*
X143876000Y-77225000D01*
X143877000Y-77223268D01*
X143879000Y-77223268D01*
X143879990Y-77224804D01*
X143881891Y-77244114D01*
X143887469Y-77262499D01*
X143896524Y-77279441D01*
X143908710Y-77294290D01*
X143923559Y-77306476D01*
X143940501Y-77315531D01*
X143958886Y-77321109D01*
X143978094Y-77323000D01*
X144177906Y-77323000D01*
X144197114Y-77321109D01*
X144215499Y-77315531D01*
X144232441Y-77306476D01*
X144247290Y-77294290D01*
X144259476Y-77279441D01*
X144268531Y-77262499D01*
X144274109Y-77244114D01*
X144276010Y-77224804D01*
X144277175Y-77223178D01*
X144279165Y-77223374D01*
X144280000Y-77225000D01*
X144280000Y-77270083D01*
X144279990Y-77270279D01*
X144278554Y-77284857D01*
X144278478Y-77285242D01*
X144275076Y-77296457D01*
X144271309Y-77315398D01*
X144271308Y-77334603D01*
X144275057Y-77353446D01*
X144282407Y-77371192D01*
X144293079Y-77387165D01*
X144306661Y-77400747D01*
X144322633Y-77411419D01*
X144340379Y-77418770D01*
X144359269Y-77422527D01*
X144368883Y-77423000D01*
X144437080Y-77423000D01*
X144456288Y-77421109D01*
X144474673Y-77415531D01*
X144491614Y-77406476D01*
X144506463Y-77394290D01*
X144518649Y-77379441D01*
X144527704Y-77362500D01*
X144533282Y-77344115D01*
X144535164Y-77325000D01*
X144533277Y-77305837D01*
X144530940Y-77296511D01*
X144527522Y-77285242D01*
X144527446Y-77284857D01*
X144526010Y-77270279D01*
X144526000Y-77270083D01*
X144526000Y-77225000D01*
X144527000Y-77223268D01*
X144529000Y-77223268D01*
X144529990Y-77224804D01*
X144531891Y-77244114D01*
X144537469Y-77262499D01*
X144546524Y-77279441D01*
X144558710Y-77294290D01*
X144573559Y-77306476D01*
X144590501Y-77315531D01*
X144608886Y-77321109D01*
X144628094Y-77323000D01*
X144827906Y-77323000D01*
X144847114Y-77321109D01*
X144865499Y-77315531D01*
X144882441Y-77306476D01*
X144897290Y-77294290D01*
X144909476Y-77279441D01*
X144918531Y-77262499D01*
X144924109Y-77244114D01*
X144926010Y-77224804D01*
X144927175Y-77223178D01*
X144929165Y-77223374D01*
X144930000Y-77225000D01*
X144930000Y-77270083D01*
X144929990Y-77270279D01*
X144928554Y-77284857D01*
X144928478Y-77285242D01*
X144925076Y-77296457D01*
X144921309Y-77315398D01*
X144921308Y-77334603D01*
X144925057Y-77353446D01*
X144932407Y-77371192D01*
X144943079Y-77387165D01*
X144956661Y-77400747D01*
X144972633Y-77411419D01*
X144990379Y-77418770D01*
X145009269Y-77422527D01*
X145018883Y-77423000D01*
X145087080Y-77423000D01*
X145106288Y-77421109D01*
X145124673Y-77415531D01*
X145141614Y-77406476D01*
X145156463Y-77394290D01*
X145168649Y-77379441D01*
X145177704Y-77362500D01*
X145183282Y-77344115D01*
X145185164Y-77325000D01*
X145183277Y-77305837D01*
X145180940Y-77296511D01*
X145177522Y-77285242D01*
X145177446Y-77284857D01*
X145176010Y-77270279D01*
X145176000Y-77270083D01*
X145176000Y-77225000D01*
X145177000Y-77223268D01*
X145179000Y-77223268D01*
X145179990Y-77224804D01*
X145181891Y-77244114D01*
X145187469Y-77262499D01*
X145196524Y-77279441D01*
X145208710Y-77294290D01*
X145223559Y-77306476D01*
X145240501Y-77315531D01*
X145258886Y-77321109D01*
X145278094Y-77323000D01*
X145477906Y-77323000D01*
X145497114Y-77321109D01*
X145515499Y-77315531D01*
X145532441Y-77306476D01*
X145547290Y-77294290D01*
X145559476Y-77279441D01*
X145568531Y-77262499D01*
X145574109Y-77244114D01*
X145576010Y-77224804D01*
X145577175Y-77223178D01*
X145579165Y-77223374D01*
X145580000Y-77225000D01*
X145580000Y-77270083D01*
X145579990Y-77270279D01*
X145578554Y-77284857D01*
X145578478Y-77285242D01*
X145575076Y-77296457D01*
X145571309Y-77315398D01*
X145571308Y-77334603D01*
X145575057Y-77353446D01*
X145582407Y-77371192D01*
X145593079Y-77387165D01*
X145606661Y-77400747D01*
X145622633Y-77411419D01*
X145640379Y-77418770D01*
X145659269Y-77422527D01*
X145668883Y-77423000D01*
X145737080Y-77423000D01*
X145756288Y-77421109D01*
X145774673Y-77415531D01*
X145791614Y-77406476D01*
X145806463Y-77394290D01*
X145818649Y-77379441D01*
X145827704Y-77362500D01*
X145833282Y-77344115D01*
X145835164Y-77325000D01*
X145833277Y-77305837D01*
X145830940Y-77296511D01*
X145827522Y-77285242D01*
X145827446Y-77284857D01*
X145826010Y-77270279D01*
X145826000Y-77270083D01*
X145826000Y-77225000D01*
X145827000Y-77223268D01*
X145829000Y-77223268D01*
X145829990Y-77224804D01*
X145831891Y-77244114D01*
X145837469Y-77262499D01*
X145846524Y-77279441D01*
X145858710Y-77294290D01*
X145873559Y-77306476D01*
X145890501Y-77315531D01*
X145908886Y-77321109D01*
X145928094Y-77323000D01*
X146127906Y-77323000D01*
X146147114Y-77321109D01*
X146165499Y-77315531D01*
X146182441Y-77306476D01*
X146197290Y-77294290D01*
X146209476Y-77279441D01*
X146218531Y-77262499D01*
X146224109Y-77244114D01*
X146226010Y-77224804D01*
X146227175Y-77223178D01*
X146229165Y-77223374D01*
G37*
G36*
X146879165Y-77223374D02*
G01*
X146880000Y-77225000D01*
X146880000Y-77270083D01*
X146879990Y-77270279D01*
X146878554Y-77284857D01*
X146878478Y-77285242D01*
X146875076Y-77296457D01*
X146871309Y-77315398D01*
X146871308Y-77334603D01*
X146875057Y-77353446D01*
X146882407Y-77371192D01*
X146893079Y-77387165D01*
X146906661Y-77400747D01*
X146922633Y-77411419D01*
X146940379Y-77418770D01*
X146959269Y-77422527D01*
X146968924Y-77423002D01*
X146970605Y-77424086D01*
X146970507Y-77426084D01*
X146968826Y-77427000D01*
X146387174Y-77427000D01*
X146385442Y-77426000D01*
X146385442Y-77424000D01*
X146386978Y-77423010D01*
X146406288Y-77421109D01*
X146424673Y-77415531D01*
X146441614Y-77406476D01*
X146456463Y-77394290D01*
X146468649Y-77379441D01*
X146477704Y-77362500D01*
X146483282Y-77344115D01*
X146485164Y-77325000D01*
X146483277Y-77305837D01*
X146480940Y-77296511D01*
X146477522Y-77285242D01*
X146477446Y-77284857D01*
X146476010Y-77270279D01*
X146476000Y-77270083D01*
X146476000Y-77225000D01*
X146477000Y-77223268D01*
X146479000Y-77223268D01*
X146479990Y-77224804D01*
X146481891Y-77244114D01*
X146487469Y-77262499D01*
X146496524Y-77279441D01*
X146508710Y-77294290D01*
X146523559Y-77306476D01*
X146540501Y-77315531D01*
X146558886Y-77321109D01*
X146578094Y-77323000D01*
X146777906Y-77323000D01*
X146797114Y-77321109D01*
X146815499Y-77315531D01*
X146832441Y-77306476D01*
X146847290Y-77294290D01*
X146859476Y-77279441D01*
X146868531Y-77262499D01*
X146874109Y-77244114D01*
X146876010Y-77224804D01*
X146877175Y-77223178D01*
X146879165Y-77223374D01*
G37*
M02*
