%TF.GenerationSoftware,KiCad,Pcbnew,(5.1.12)-1*%
%TF.CreationDate,2021-12-20T15:12:04-08:00*%
%TF.ProjectId,controlBoard,636f6e74-726f-46c4-926f-6172642e6b69,rev?*%
%TF.SameCoordinates,Original*%
%TF.FileFunction,Legend,Top*%
%TF.FilePolarity,Positive*%
%FSLAX46Y46*%
G04 Gerber Fmt 4.6, Leading zero omitted, Abs format (unit mm)*
G04 Created by KiCad (PCBNEW (5.1.12)-1) date 2021-12-20 15:12:04*
%MOMM*%
%LPD*%
G01*
G04 APERTURE LIST*
%ADD10C,0.150000*%
%ADD11C,0.120000*%
%ADD12O,1.300000X1.850000*%
%ADD13C,0.100000*%
%ADD14O,1.800000X1.800000*%
G04 APERTURE END LIST*
D10*
X143773809Y-75404761D02*
X143916666Y-75452380D01*
X144154761Y-75452380D01*
X144250000Y-75404761D01*
X144297619Y-75357142D01*
X144345238Y-75261904D01*
X144345238Y-75166666D01*
X144297619Y-75071428D01*
X144250000Y-75023809D01*
X144154761Y-74976190D01*
X143964285Y-74928571D01*
X143869047Y-74880952D01*
X143821428Y-74833333D01*
X143773809Y-74738095D01*
X143773809Y-74642857D01*
X143821428Y-74547619D01*
X143869047Y-74500000D01*
X143964285Y-74452380D01*
X144202380Y-74452380D01*
X144345238Y-74500000D01*
X145011904Y-75785714D02*
X145011904Y-74357142D01*
X145726190Y-75071428D02*
X146488095Y-75071428D01*
X146107142Y-75452380D02*
X146107142Y-74690476D01*
X147202380Y-75785714D02*
X147202380Y-74357142D01*
X147916666Y-75071428D02*
X148678571Y-75071428D01*
X163500000Y-82071428D02*
X163642857Y-82214285D01*
X163500000Y-82357142D01*
X163357142Y-82214285D01*
X163500000Y-82071428D01*
X163500000Y-82357142D01*
D11*
X171810000Y-75060000D02*
X171810000Y-70340000D01*
X171810000Y-70340000D02*
X157690000Y-70340000D01*
X157690000Y-70340000D02*
X157690000Y-75060000D01*
X157690000Y-75060000D02*
X171810000Y-75060000D01*
X170050000Y-75060000D02*
X170050000Y-75260000D01*
X170050000Y-75260000D02*
X170350000Y-75260000D01*
X170350000Y-75260000D02*
X170350000Y-75060000D01*
X170050000Y-75160000D02*
X170350000Y-75160000D01*
X169250000Y-75060000D02*
X169250000Y-74450000D01*
X169250000Y-74450000D02*
X171200000Y-74450000D01*
X171200000Y-74450000D02*
X171200000Y-70950000D01*
X171200000Y-70950000D02*
X158300000Y-70950000D01*
X158300000Y-70950000D02*
X158300000Y-74450000D01*
X158300000Y-74450000D02*
X160250000Y-74450000D01*
X160250000Y-74450000D02*
X160250000Y-75060000D01*
X171810000Y-73750000D02*
X171200000Y-73750000D01*
X171810000Y-72450000D02*
X171200000Y-72450000D01*
X157690000Y-73750000D02*
X158300000Y-73750000D01*
X157690000Y-72450000D02*
X158300000Y-72450000D01*
X168850000Y-70950000D02*
X168850000Y-71450000D01*
X168850000Y-71450000D02*
X168650000Y-71450000D01*
X168650000Y-71450000D02*
X168650000Y-70950000D01*
X168750000Y-70950000D02*
X168750000Y-71450000D01*
X166850000Y-70950000D02*
X166850000Y-71450000D01*
X166850000Y-71450000D02*
X166650000Y-71450000D01*
X166650000Y-71450000D02*
X166650000Y-70950000D01*
X166750000Y-70950000D02*
X166750000Y-71450000D01*
X164850000Y-70950000D02*
X164850000Y-71450000D01*
X164850000Y-71450000D02*
X164650000Y-71450000D01*
X164650000Y-71450000D02*
X164650000Y-70950000D01*
X164750000Y-70950000D02*
X164750000Y-71450000D01*
X162850000Y-70950000D02*
X162850000Y-71450000D01*
X162850000Y-71450000D02*
X162650000Y-71450000D01*
X162650000Y-71450000D02*
X162650000Y-70950000D01*
X162750000Y-70950000D02*
X162750000Y-71450000D01*
X160850000Y-70950000D02*
X160850000Y-71450000D01*
X160850000Y-71450000D02*
X160650000Y-71450000D01*
X160650000Y-71450000D02*
X160650000Y-70950000D01*
X160750000Y-70950000D02*
X160750000Y-71450000D01*
X170860000Y-75360000D02*
X172110000Y-75360000D01*
X172110000Y-75360000D02*
X172110000Y-74110000D01*
D10*
X152900000Y-85011000D02*
X152900000Y-86436000D01*
X152675000Y-77761000D02*
X152675000Y-78086000D01*
X159925000Y-77761000D02*
X159925000Y-78086000D01*
X159925000Y-85011000D02*
X159925000Y-84686000D01*
X152675000Y-85011000D02*
X152675000Y-84686000D01*
X159925000Y-85011000D02*
X159600000Y-85011000D01*
X159925000Y-77761000D02*
X159600000Y-77761000D01*
X152675000Y-77761000D02*
X153000000Y-77761000D01*
X152675000Y-85011000D02*
X152900000Y-85011000D01*
D11*
X166950000Y-91250000D02*
X165550000Y-91250000D01*
X164850000Y-90550000D02*
X164850000Y-89950000D01*
X165550000Y-89250000D02*
X166950000Y-89250000D01*
X167650000Y-89950000D02*
X167650000Y-90550000D01*
X167650000Y-90550000D02*
G75*
G02*
X166950000Y-91250000I-700000J0D01*
G01*
X166950000Y-89250000D02*
G75*
G02*
X167650000Y-89950000I0J-700000D01*
G01*
X164850000Y-89950000D02*
G75*
G02*
X165550000Y-89250000I700000J0D01*
G01*
X165550000Y-91250000D02*
G75*
G02*
X164850000Y-90550000I0J700000D01*
G01*
X163850000Y-99450000D02*
X163850000Y-99700000D01*
X163850000Y-99700000D02*
X160150000Y-99700000D01*
X160150000Y-99700000D02*
X160150000Y-99450000D01*
X163850000Y-97050000D02*
X163850000Y-96800000D01*
X163850000Y-96800000D02*
X160150000Y-96800000D01*
X160150000Y-96800000D02*
X160150000Y-97050000D01*
X153150000Y-96800000D02*
X153150000Y-97050000D01*
X156850000Y-96800000D02*
X153150000Y-96800000D01*
X156850000Y-97050000D02*
X156850000Y-96800000D01*
X153150000Y-99700000D02*
X153150000Y-99450000D01*
X156850000Y-99700000D02*
X153150000Y-99700000D01*
X156850000Y-99450000D02*
X156850000Y-99700000D01*
X163400000Y-83300000D02*
X163400000Y-83050000D01*
X163400000Y-83050000D02*
X167100000Y-83050000D01*
X167100000Y-83050000D02*
X167100000Y-83300000D01*
X163400000Y-85700000D02*
X163400000Y-85950000D01*
X163400000Y-85950000D02*
X167100000Y-85950000D01*
X167100000Y-85950000D02*
X167100000Y-85700000D01*
X168920000Y-83920000D02*
X170250000Y-83920000D01*
X168920000Y-85250000D02*
X168920000Y-83920000D01*
X168920000Y-86520000D02*
X171580000Y-86520000D01*
X171580000Y-86520000D02*
X171580000Y-99280000D01*
X168920000Y-86520000D02*
X168920000Y-99280000D01*
X168920000Y-99280000D02*
X171580000Y-99280000D01*
X151650000Y-88400000D02*
X151650000Y-91000000D01*
X136950000Y-88400000D02*
X151650000Y-88400000D01*
X151650000Y-97600000D02*
X149750000Y-97600000D01*
X151650000Y-94900000D02*
X151650000Y-97600000D01*
X136950000Y-97600000D02*
X136950000Y-88400000D01*
X145750000Y-97600000D02*
X136950000Y-97600000D01*
X150800000Y-88200000D02*
X151850000Y-88200000D01*
X151850000Y-89250000D02*
X151850000Y-88200000D01*
X154163000Y-91974400D02*
X161413000Y-91974400D01*
X154163000Y-88374400D02*
X154163000Y-91974400D01*
X161413000Y-88374400D02*
X154163000Y-88374400D01*
X154985000Y-73223752D02*
X154985000Y-72701248D01*
X153515000Y-73223752D02*
X153515000Y-72701248D01*
X166265000Y-96488748D02*
X166265000Y-97011252D01*
X167735000Y-96488748D02*
X167735000Y-97011252D01*
X148488000Y-81960000D02*
X148488000Y-82710000D01*
X148488000Y-82710000D02*
X147738000Y-82710000D01*
X142268000Y-77240000D02*
X142268000Y-76490000D01*
X142268000Y-76490000D02*
X143018000Y-76490000D01*
X142268000Y-81960000D02*
X142268000Y-82710000D01*
X142268000Y-82710000D02*
X143018000Y-82710000D01*
X148488000Y-77240000D02*
X148488000Y-76490000D01*
X143272936Y-86235000D02*
X143727064Y-86235000D01*
X143272936Y-84765000D02*
X143727064Y-84765000D01*
X163936200Y-81954000D02*
X163936200Y-80624000D01*
X165266200Y-81954000D02*
X163936200Y-81954000D01*
X163936200Y-79354000D02*
X163936200Y-76754000D01*
X166536200Y-79354000D02*
X163936200Y-79354000D01*
X166536200Y-81954000D02*
X166536200Y-79354000D01*
X163936200Y-76754000D02*
X171676200Y-76754000D01*
X166536200Y-81954000D02*
X171676200Y-81954000D01*
X171676200Y-81954000D02*
X171676200Y-76754000D01*
X142270000Y-74181600D02*
X142270000Y-72851600D01*
X143600000Y-74181600D02*
X142270000Y-74181600D01*
X144870000Y-74181600D02*
X144870000Y-71521600D01*
X144870000Y-71521600D02*
X150010000Y-71521600D01*
X144870000Y-74181600D02*
X150010000Y-74181600D01*
X150010000Y-74181600D02*
X150010000Y-71521600D01*
X151265000Y-72666548D02*
X151265000Y-73189052D01*
X152735000Y-72666548D02*
X152735000Y-73189052D01*
X162007748Y-94973400D02*
X162530252Y-94973400D01*
X162007748Y-93503400D02*
X162530252Y-93503400D01*
X155418252Y-93503400D02*
X154895748Y-93503400D01*
X155418252Y-94973400D02*
X154895748Y-94973400D01*
X148482248Y-84969000D02*
X149004752Y-84969000D01*
X148482248Y-86439000D02*
X149004752Y-86439000D01*
D10*
X164416666Y-75452380D02*
X164416666Y-76166666D01*
X164369047Y-76309523D01*
X164273809Y-76404761D01*
X164130952Y-76452380D01*
X164035714Y-76452380D01*
X164797619Y-75452380D02*
X165416666Y-75452380D01*
X165083333Y-75833333D01*
X165226190Y-75833333D01*
X165321428Y-75880952D01*
X165369047Y-75928571D01*
X165416666Y-76023809D01*
X165416666Y-76261904D01*
X165369047Y-76357142D01*
X165321428Y-76404761D01*
X165226190Y-76452380D01*
X164940476Y-76452380D01*
X164845238Y-76404761D01*
X164797619Y-76357142D01*
X151238095Y-76452380D02*
X151238095Y-77261904D01*
X151285714Y-77357142D01*
X151333333Y-77404761D01*
X151428571Y-77452380D01*
X151619047Y-77452380D01*
X151714285Y-77404761D01*
X151761904Y-77357142D01*
X151809523Y-77261904D01*
X151809523Y-76452380D01*
X152809523Y-77452380D02*
X152238095Y-77452380D01*
X152523809Y-77452380D02*
X152523809Y-76452380D01*
X152428571Y-76595238D01*
X152333333Y-76690476D01*
X152238095Y-76738095D01*
X165416666Y-87952380D02*
X165416666Y-88666666D01*
X165369047Y-88809523D01*
X165273809Y-88904761D01*
X165130952Y-88952380D01*
X165035714Y-88952380D01*
X165892857Y-88952380D02*
X165892857Y-87952380D01*
X166273809Y-87952380D01*
X166369047Y-88000000D01*
X166416666Y-88047619D01*
X166464285Y-88142857D01*
X166464285Y-88285714D01*
X166416666Y-88380952D01*
X166369047Y-88428571D01*
X166273809Y-88476190D01*
X165892857Y-88476190D01*
X167416666Y-88952380D02*
X166845238Y-88952380D01*
X167130952Y-88952380D02*
X167130952Y-87952380D01*
X167035714Y-88095238D01*
X166940476Y-88190476D01*
X166845238Y-88238095D01*
X160916666Y-96404761D02*
X161059523Y-96452380D01*
X161297619Y-96452380D01*
X161392857Y-96404761D01*
X161440476Y-96357142D01*
X161488095Y-96261904D01*
X161488095Y-96166666D01*
X161440476Y-96071428D01*
X161392857Y-96023809D01*
X161297619Y-95976190D01*
X161107142Y-95928571D01*
X161011904Y-95880952D01*
X160964285Y-95833333D01*
X160916666Y-95738095D01*
X160916666Y-95642857D01*
X160964285Y-95547619D01*
X161011904Y-95500000D01*
X161107142Y-95452380D01*
X161345238Y-95452380D01*
X161488095Y-95500000D01*
X161821428Y-95452380D02*
X162059523Y-96452380D01*
X162250000Y-95738095D01*
X162440476Y-96452380D01*
X162678571Y-95452380D01*
X163011904Y-95547619D02*
X163059523Y-95500000D01*
X163154761Y-95452380D01*
X163392857Y-95452380D01*
X163488095Y-95500000D01*
X163535714Y-95547619D01*
X163583333Y-95642857D01*
X163583333Y-95738095D01*
X163535714Y-95880952D01*
X162964285Y-96452380D01*
X163583333Y-96452380D01*
X153916666Y-96404761D02*
X154059523Y-96452380D01*
X154297619Y-96452380D01*
X154392857Y-96404761D01*
X154440476Y-96357142D01*
X154488095Y-96261904D01*
X154488095Y-96166666D01*
X154440476Y-96071428D01*
X154392857Y-96023809D01*
X154297619Y-95976190D01*
X154107142Y-95928571D01*
X154011904Y-95880952D01*
X153964285Y-95833333D01*
X153916666Y-95738095D01*
X153916666Y-95642857D01*
X153964285Y-95547619D01*
X154011904Y-95500000D01*
X154107142Y-95452380D01*
X154345238Y-95452380D01*
X154488095Y-95500000D01*
X154821428Y-95452380D02*
X155059523Y-96452380D01*
X155250000Y-95738095D01*
X155440476Y-96452380D01*
X155678571Y-95452380D01*
X156583333Y-96452380D02*
X156011904Y-96452380D01*
X156297619Y-96452380D02*
X156297619Y-95452380D01*
X156202380Y-95595238D01*
X156107142Y-95690476D01*
X156011904Y-95738095D01*
X163916666Y-87154761D02*
X164059523Y-87202380D01*
X164297619Y-87202380D01*
X164392857Y-87154761D01*
X164440476Y-87107142D01*
X164488095Y-87011904D01*
X164488095Y-86916666D01*
X164440476Y-86821428D01*
X164392857Y-86773809D01*
X164297619Y-86726190D01*
X164107142Y-86678571D01*
X164011904Y-86630952D01*
X163964285Y-86583333D01*
X163916666Y-86488095D01*
X163916666Y-86392857D01*
X163964285Y-86297619D01*
X164011904Y-86250000D01*
X164107142Y-86202380D01*
X164345238Y-86202380D01*
X164488095Y-86250000D01*
X164821428Y-86202380D02*
X165059523Y-87202380D01*
X165250000Y-86488095D01*
X165440476Y-87202380D01*
X165678571Y-86202380D01*
X165964285Y-86202380D02*
X166583333Y-86202380D01*
X166250000Y-86583333D01*
X166392857Y-86583333D01*
X166488095Y-86630952D01*
X166535714Y-86678571D01*
X166583333Y-86773809D01*
X166583333Y-87011904D01*
X166535714Y-87107142D01*
X166488095Y-87154761D01*
X166392857Y-87202380D01*
X166107142Y-87202380D01*
X166011904Y-87154761D01*
X165964285Y-87107142D01*
X169916666Y-82372380D02*
X169916666Y-83086666D01*
X169869047Y-83229523D01*
X169773809Y-83324761D01*
X169630952Y-83372380D01*
X169535714Y-83372380D01*
X170916666Y-83372380D02*
X170345238Y-83372380D01*
X170630952Y-83372380D02*
X170630952Y-82372380D01*
X170535714Y-82515238D01*
X170440476Y-82610476D01*
X170345238Y-82658095D01*
X142666666Y-98202380D02*
X142666666Y-98916666D01*
X142619047Y-99059523D01*
X142523809Y-99154761D01*
X142380952Y-99202380D01*
X142285714Y-99202380D01*
X143571428Y-98535714D02*
X143571428Y-99202380D01*
X143333333Y-98154761D02*
X143095238Y-98869047D01*
X143714285Y-98869047D01*
X158236809Y-87350590D02*
X158236809Y-87826780D01*
X157903476Y-86826780D02*
X158236809Y-87350590D01*
X158570142Y-86826780D01*
X159427285Y-87826780D02*
X158855857Y-87826780D01*
X159141571Y-87826780D02*
X159141571Y-86826780D01*
X159046333Y-86969638D01*
X158951095Y-87064876D01*
X158855857Y-87112495D01*
X154083333Y-75857142D02*
X154035714Y-75904761D01*
X153892857Y-75952380D01*
X153797619Y-75952380D01*
X153654761Y-75904761D01*
X153559523Y-75809523D01*
X153511904Y-75714285D01*
X153464285Y-75523809D01*
X153464285Y-75380952D01*
X153511904Y-75190476D01*
X153559523Y-75095238D01*
X153654761Y-75000000D01*
X153797619Y-74952380D01*
X153892857Y-74952380D01*
X154035714Y-75000000D01*
X154083333Y-75047619D01*
X154464285Y-75047619D02*
X154511904Y-75000000D01*
X154607142Y-74952380D01*
X154845238Y-74952380D01*
X154940476Y-75000000D01*
X154988095Y-75047619D01*
X155035714Y-75142857D01*
X155035714Y-75238095D01*
X154988095Y-75380952D01*
X154416666Y-75952380D01*
X155035714Y-75952380D01*
X166833333Y-99607142D02*
X166785714Y-99654761D01*
X166642857Y-99702380D01*
X166547619Y-99702380D01*
X166404761Y-99654761D01*
X166309523Y-99559523D01*
X166261904Y-99464285D01*
X166214285Y-99273809D01*
X166214285Y-99130952D01*
X166261904Y-98940476D01*
X166309523Y-98845238D01*
X166404761Y-98750000D01*
X166547619Y-98702380D01*
X166642857Y-98702380D01*
X166785714Y-98750000D01*
X166833333Y-98797619D01*
X167785714Y-99702380D02*
X167214285Y-99702380D01*
X167500000Y-99702380D02*
X167500000Y-98702380D01*
X167404761Y-98845238D01*
X167309523Y-98940476D01*
X167214285Y-98988095D01*
X144738095Y-83452380D02*
X144738095Y-84261904D01*
X144785714Y-84357142D01*
X144833333Y-84404761D01*
X144928571Y-84452380D01*
X145119047Y-84452380D01*
X145214285Y-84404761D01*
X145261904Y-84357142D01*
X145309523Y-84261904D01*
X145309523Y-83452380D01*
X145738095Y-83547619D02*
X145785714Y-83500000D01*
X145880952Y-83452380D01*
X146119047Y-83452380D01*
X146214285Y-83500000D01*
X146261904Y-83547619D01*
X146309523Y-83642857D01*
X146309523Y-83738095D01*
X146261904Y-83880952D01*
X145690476Y-84452380D01*
X146309523Y-84452380D01*
X143333333Y-87952380D02*
X143000000Y-87476190D01*
X142761904Y-87952380D02*
X142761904Y-86952380D01*
X143142857Y-86952380D01*
X143238095Y-87000000D01*
X143285714Y-87047619D01*
X143333333Y-87142857D01*
X143333333Y-87285714D01*
X143285714Y-87380952D01*
X143238095Y-87428571D01*
X143142857Y-87476190D01*
X142761904Y-87476190D01*
X143666666Y-86952380D02*
X144285714Y-86952380D01*
X143952380Y-87333333D01*
X144095238Y-87333333D01*
X144190476Y-87380952D01*
X144238095Y-87428571D01*
X144285714Y-87523809D01*
X144285714Y-87761904D01*
X144238095Y-87857142D01*
X144190476Y-87904761D01*
X144095238Y-87952380D01*
X143809523Y-87952380D01*
X143714285Y-87904761D01*
X143666666Y-87857142D01*
X161666666Y-76952380D02*
X161666666Y-77666666D01*
X161619047Y-77809523D01*
X161523809Y-77904761D01*
X161380952Y-77952380D01*
X161285714Y-77952380D01*
X162619047Y-76952380D02*
X162142857Y-76952380D01*
X162095238Y-77428571D01*
X162142857Y-77380952D01*
X162238095Y-77333333D01*
X162476190Y-77333333D01*
X162571428Y-77380952D01*
X162619047Y-77428571D01*
X162666666Y-77523809D01*
X162666666Y-77761904D01*
X162619047Y-77857142D01*
X162571428Y-77904761D01*
X162476190Y-77952380D01*
X162238095Y-77952380D01*
X162142857Y-77904761D01*
X162095238Y-77857142D01*
X145916666Y-69952380D02*
X145916666Y-70666666D01*
X145869047Y-70809523D01*
X145773809Y-70904761D01*
X145630952Y-70952380D01*
X145535714Y-70952380D01*
X146345238Y-70047619D02*
X146392857Y-70000000D01*
X146488095Y-69952380D01*
X146726190Y-69952380D01*
X146821428Y-70000000D01*
X146869047Y-70047619D01*
X146916666Y-70142857D01*
X146916666Y-70238095D01*
X146869047Y-70380952D01*
X146297619Y-70952380D01*
X146916666Y-70952380D01*
X151833333Y-75857142D02*
X151785714Y-75904761D01*
X151642857Y-75952380D01*
X151547619Y-75952380D01*
X151404761Y-75904761D01*
X151309523Y-75809523D01*
X151261904Y-75714285D01*
X151214285Y-75523809D01*
X151214285Y-75380952D01*
X151261904Y-75190476D01*
X151309523Y-75095238D01*
X151404761Y-75000000D01*
X151547619Y-74952380D01*
X151642857Y-74952380D01*
X151785714Y-75000000D01*
X151833333Y-75047619D01*
X152690476Y-74952380D02*
X152500000Y-74952380D01*
X152404761Y-75000000D01*
X152357142Y-75047619D01*
X152261904Y-75190476D01*
X152214285Y-75380952D01*
X152214285Y-75761904D01*
X152261904Y-75857142D01*
X152309523Y-75904761D01*
X152404761Y-75952380D01*
X152595238Y-75952380D01*
X152690476Y-75904761D01*
X152738095Y-75857142D01*
X152785714Y-75761904D01*
X152785714Y-75523809D01*
X152738095Y-75428571D01*
X152690476Y-75380952D01*
X152595238Y-75333333D01*
X152404761Y-75333333D01*
X152309523Y-75380952D01*
X152261904Y-75428571D01*
X152214285Y-75523809D01*
X165083333Y-94607142D02*
X165035714Y-94654761D01*
X164892857Y-94702380D01*
X164797619Y-94702380D01*
X164654761Y-94654761D01*
X164559523Y-94559523D01*
X164511904Y-94464285D01*
X164464285Y-94273809D01*
X164464285Y-94130952D01*
X164511904Y-93940476D01*
X164559523Y-93845238D01*
X164654761Y-93750000D01*
X164797619Y-93702380D01*
X164892857Y-93702380D01*
X165035714Y-93750000D01*
X165083333Y-93797619D01*
X165988095Y-93702380D02*
X165511904Y-93702380D01*
X165464285Y-94178571D01*
X165511904Y-94130952D01*
X165607142Y-94083333D01*
X165845238Y-94083333D01*
X165940476Y-94130952D01*
X165988095Y-94178571D01*
X166035714Y-94273809D01*
X166035714Y-94511904D01*
X165988095Y-94607142D01*
X165940476Y-94654761D01*
X165845238Y-94702380D01*
X165607142Y-94702380D01*
X165511904Y-94654761D01*
X165464285Y-94607142D01*
X158083333Y-94607142D02*
X158035714Y-94654761D01*
X157892857Y-94702380D01*
X157797619Y-94702380D01*
X157654761Y-94654761D01*
X157559523Y-94559523D01*
X157511904Y-94464285D01*
X157464285Y-94273809D01*
X157464285Y-94130952D01*
X157511904Y-93940476D01*
X157559523Y-93845238D01*
X157654761Y-93750000D01*
X157797619Y-93702380D01*
X157892857Y-93702380D01*
X158035714Y-93750000D01*
X158083333Y-93797619D01*
X158940476Y-94035714D02*
X158940476Y-94702380D01*
X158702380Y-93654761D02*
X158464285Y-94369047D01*
X159083333Y-94369047D01*
X148583333Y-87857142D02*
X148535714Y-87904761D01*
X148392857Y-87952380D01*
X148297619Y-87952380D01*
X148154761Y-87904761D01*
X148059523Y-87809523D01*
X148011904Y-87714285D01*
X147964285Y-87523809D01*
X147964285Y-87380952D01*
X148011904Y-87190476D01*
X148059523Y-87095238D01*
X148154761Y-87000000D01*
X148297619Y-86952380D01*
X148392857Y-86952380D01*
X148535714Y-87000000D01*
X148583333Y-87047619D01*
X148916666Y-86952380D02*
X149535714Y-86952380D01*
X149202380Y-87333333D01*
X149345238Y-87333333D01*
X149440476Y-87380952D01*
X149488095Y-87428571D01*
X149535714Y-87523809D01*
X149535714Y-87761904D01*
X149488095Y-87857142D01*
X149440476Y-87904761D01*
X149345238Y-87952380D01*
X149059523Y-87952380D01*
X148964285Y-87904761D01*
X148916666Y-87857142D01*
%LPC*%
D12*
X159750000Y-73250000D03*
X161750000Y-73250000D03*
X163750000Y-73250000D03*
X165750000Y-73250000D03*
X167750000Y-73250000D03*
G36*
G01*
X170400000Y-72595832D02*
X170400000Y-73904168D01*
G75*
G02*
X170129168Y-74175000I-270832J0D01*
G01*
X169370832Y-74175000D01*
G75*
G02*
X169100000Y-73904168I0J270832D01*
G01*
X169100000Y-72595832D01*
G75*
G02*
X169370832Y-72325000I270832J0D01*
G01*
X170129168Y-72325000D01*
G75*
G02*
X170400000Y-72595832I0J-270832D01*
G01*
G37*
G36*
G01*
X152900000Y-83911000D02*
X152900000Y-84461000D01*
G75*
G02*
X152850000Y-84511000I-50000J0D01*
G01*
X151250000Y-84511000D01*
G75*
G02*
X151200000Y-84461000I0J50000D01*
G01*
X151200000Y-83911000D01*
G75*
G02*
X151250000Y-83861000I50000J0D01*
G01*
X152850000Y-83861000D01*
G75*
G02*
X152900000Y-83911000I0J-50000D01*
G01*
G37*
G36*
G01*
X152900000Y-83111000D02*
X152900000Y-83661000D01*
G75*
G02*
X152850000Y-83711000I-50000J0D01*
G01*
X151250000Y-83711000D01*
G75*
G02*
X151200000Y-83661000I0J50000D01*
G01*
X151200000Y-83111000D01*
G75*
G02*
X151250000Y-83061000I50000J0D01*
G01*
X152850000Y-83061000D01*
G75*
G02*
X152900000Y-83111000I0J-50000D01*
G01*
G37*
G36*
G01*
X152900000Y-82311000D02*
X152900000Y-82861000D01*
G75*
G02*
X152850000Y-82911000I-50000J0D01*
G01*
X151250000Y-82911000D01*
G75*
G02*
X151200000Y-82861000I0J50000D01*
G01*
X151200000Y-82311000D01*
G75*
G02*
X151250000Y-82261000I50000J0D01*
G01*
X152850000Y-82261000D01*
G75*
G02*
X152900000Y-82311000I0J-50000D01*
G01*
G37*
G36*
G01*
X152900000Y-81511000D02*
X152900000Y-82061000D01*
G75*
G02*
X152850000Y-82111000I-50000J0D01*
G01*
X151250000Y-82111000D01*
G75*
G02*
X151200000Y-82061000I0J50000D01*
G01*
X151200000Y-81511000D01*
G75*
G02*
X151250000Y-81461000I50000J0D01*
G01*
X152850000Y-81461000D01*
G75*
G02*
X152900000Y-81511000I0J-50000D01*
G01*
G37*
G36*
G01*
X152900000Y-80711000D02*
X152900000Y-81261000D01*
G75*
G02*
X152850000Y-81311000I-50000J0D01*
G01*
X151250000Y-81311000D01*
G75*
G02*
X151200000Y-81261000I0J50000D01*
G01*
X151200000Y-80711000D01*
G75*
G02*
X151250000Y-80661000I50000J0D01*
G01*
X152850000Y-80661000D01*
G75*
G02*
X152900000Y-80711000I0J-50000D01*
G01*
G37*
G36*
G01*
X152900000Y-79911000D02*
X152900000Y-80461000D01*
G75*
G02*
X152850000Y-80511000I-50000J0D01*
G01*
X151250000Y-80511000D01*
G75*
G02*
X151200000Y-80461000I0J50000D01*
G01*
X151200000Y-79911000D01*
G75*
G02*
X151250000Y-79861000I50000J0D01*
G01*
X152850000Y-79861000D01*
G75*
G02*
X152900000Y-79911000I0J-50000D01*
G01*
G37*
G36*
G01*
X152900000Y-79111000D02*
X152900000Y-79661000D01*
G75*
G02*
X152850000Y-79711000I-50000J0D01*
G01*
X151250000Y-79711000D01*
G75*
G02*
X151200000Y-79661000I0J50000D01*
G01*
X151200000Y-79111000D01*
G75*
G02*
X151250000Y-79061000I50000J0D01*
G01*
X152850000Y-79061000D01*
G75*
G02*
X152900000Y-79111000I0J-50000D01*
G01*
G37*
G36*
G01*
X152900000Y-78311000D02*
X152900000Y-78861000D01*
G75*
G02*
X152850000Y-78911000I-50000J0D01*
G01*
X151250000Y-78911000D01*
G75*
G02*
X151200000Y-78861000I0J50000D01*
G01*
X151200000Y-78311000D01*
G75*
G02*
X151250000Y-78261000I50000J0D01*
G01*
X152850000Y-78261000D01*
G75*
G02*
X152900000Y-78311000I0J-50000D01*
G01*
G37*
G36*
G01*
X153775000Y-77986000D02*
X153225000Y-77986000D01*
G75*
G02*
X153175000Y-77936000I0J50000D01*
G01*
X153175000Y-76336000D01*
G75*
G02*
X153225000Y-76286000I50000J0D01*
G01*
X153775000Y-76286000D01*
G75*
G02*
X153825000Y-76336000I0J-50000D01*
G01*
X153825000Y-77936000D01*
G75*
G02*
X153775000Y-77986000I-50000J0D01*
G01*
G37*
G36*
G01*
X154575000Y-77986000D02*
X154025000Y-77986000D01*
G75*
G02*
X153975000Y-77936000I0J50000D01*
G01*
X153975000Y-76336000D01*
G75*
G02*
X154025000Y-76286000I50000J0D01*
G01*
X154575000Y-76286000D01*
G75*
G02*
X154625000Y-76336000I0J-50000D01*
G01*
X154625000Y-77936000D01*
G75*
G02*
X154575000Y-77986000I-50000J0D01*
G01*
G37*
G36*
G01*
X155375000Y-77986000D02*
X154825000Y-77986000D01*
G75*
G02*
X154775000Y-77936000I0J50000D01*
G01*
X154775000Y-76336000D01*
G75*
G02*
X154825000Y-76286000I50000J0D01*
G01*
X155375000Y-76286000D01*
G75*
G02*
X155425000Y-76336000I0J-50000D01*
G01*
X155425000Y-77936000D01*
G75*
G02*
X155375000Y-77986000I-50000J0D01*
G01*
G37*
G36*
G01*
X156175000Y-77986000D02*
X155625000Y-77986000D01*
G75*
G02*
X155575000Y-77936000I0J50000D01*
G01*
X155575000Y-76336000D01*
G75*
G02*
X155625000Y-76286000I50000J0D01*
G01*
X156175000Y-76286000D01*
G75*
G02*
X156225000Y-76336000I0J-50000D01*
G01*
X156225000Y-77936000D01*
G75*
G02*
X156175000Y-77986000I-50000J0D01*
G01*
G37*
G36*
G01*
X156975000Y-77986000D02*
X156425000Y-77986000D01*
G75*
G02*
X156375000Y-77936000I0J50000D01*
G01*
X156375000Y-76336000D01*
G75*
G02*
X156425000Y-76286000I50000J0D01*
G01*
X156975000Y-76286000D01*
G75*
G02*
X157025000Y-76336000I0J-50000D01*
G01*
X157025000Y-77936000D01*
G75*
G02*
X156975000Y-77986000I-50000J0D01*
G01*
G37*
G36*
G01*
X157775000Y-77986000D02*
X157225000Y-77986000D01*
G75*
G02*
X157175000Y-77936000I0J50000D01*
G01*
X157175000Y-76336000D01*
G75*
G02*
X157225000Y-76286000I50000J0D01*
G01*
X157775000Y-76286000D01*
G75*
G02*
X157825000Y-76336000I0J-50000D01*
G01*
X157825000Y-77936000D01*
G75*
G02*
X157775000Y-77986000I-50000J0D01*
G01*
G37*
G36*
G01*
X158575000Y-77986000D02*
X158025000Y-77986000D01*
G75*
G02*
X157975000Y-77936000I0J50000D01*
G01*
X157975000Y-76336000D01*
G75*
G02*
X158025000Y-76286000I50000J0D01*
G01*
X158575000Y-76286000D01*
G75*
G02*
X158625000Y-76336000I0J-50000D01*
G01*
X158625000Y-77936000D01*
G75*
G02*
X158575000Y-77986000I-50000J0D01*
G01*
G37*
G36*
G01*
X159375000Y-77986000D02*
X158825000Y-77986000D01*
G75*
G02*
X158775000Y-77936000I0J50000D01*
G01*
X158775000Y-76336000D01*
G75*
G02*
X158825000Y-76286000I50000J0D01*
G01*
X159375000Y-76286000D01*
G75*
G02*
X159425000Y-76336000I0J-50000D01*
G01*
X159425000Y-77936000D01*
G75*
G02*
X159375000Y-77986000I-50000J0D01*
G01*
G37*
G36*
G01*
X161400000Y-78311000D02*
X161400000Y-78861000D01*
G75*
G02*
X161350000Y-78911000I-50000J0D01*
G01*
X159750000Y-78911000D01*
G75*
G02*
X159700000Y-78861000I0J50000D01*
G01*
X159700000Y-78311000D01*
G75*
G02*
X159750000Y-78261000I50000J0D01*
G01*
X161350000Y-78261000D01*
G75*
G02*
X161400000Y-78311000I0J-50000D01*
G01*
G37*
G36*
G01*
X161400000Y-79111000D02*
X161400000Y-79661000D01*
G75*
G02*
X161350000Y-79711000I-50000J0D01*
G01*
X159750000Y-79711000D01*
G75*
G02*
X159700000Y-79661000I0J50000D01*
G01*
X159700000Y-79111000D01*
G75*
G02*
X159750000Y-79061000I50000J0D01*
G01*
X161350000Y-79061000D01*
G75*
G02*
X161400000Y-79111000I0J-50000D01*
G01*
G37*
G36*
G01*
X161400000Y-79911000D02*
X161400000Y-80461000D01*
G75*
G02*
X161350000Y-80511000I-50000J0D01*
G01*
X159750000Y-80511000D01*
G75*
G02*
X159700000Y-80461000I0J50000D01*
G01*
X159700000Y-79911000D01*
G75*
G02*
X159750000Y-79861000I50000J0D01*
G01*
X161350000Y-79861000D01*
G75*
G02*
X161400000Y-79911000I0J-50000D01*
G01*
G37*
G36*
G01*
X161400000Y-80711000D02*
X161400000Y-81261000D01*
G75*
G02*
X161350000Y-81311000I-50000J0D01*
G01*
X159750000Y-81311000D01*
G75*
G02*
X159700000Y-81261000I0J50000D01*
G01*
X159700000Y-80711000D01*
G75*
G02*
X159750000Y-80661000I50000J0D01*
G01*
X161350000Y-80661000D01*
G75*
G02*
X161400000Y-80711000I0J-50000D01*
G01*
G37*
G36*
G01*
X161400000Y-81511000D02*
X161400000Y-82061000D01*
G75*
G02*
X161350000Y-82111000I-50000J0D01*
G01*
X159750000Y-82111000D01*
G75*
G02*
X159700000Y-82061000I0J50000D01*
G01*
X159700000Y-81511000D01*
G75*
G02*
X159750000Y-81461000I50000J0D01*
G01*
X161350000Y-81461000D01*
G75*
G02*
X161400000Y-81511000I0J-50000D01*
G01*
G37*
G36*
G01*
X161400000Y-82311000D02*
X161400000Y-82861000D01*
G75*
G02*
X161350000Y-82911000I-50000J0D01*
G01*
X159750000Y-82911000D01*
G75*
G02*
X159700000Y-82861000I0J50000D01*
G01*
X159700000Y-82311000D01*
G75*
G02*
X159750000Y-82261000I50000J0D01*
G01*
X161350000Y-82261000D01*
G75*
G02*
X161400000Y-82311000I0J-50000D01*
G01*
G37*
G36*
G01*
X161400000Y-83111000D02*
X161400000Y-83661000D01*
G75*
G02*
X161350000Y-83711000I-50000J0D01*
G01*
X159750000Y-83711000D01*
G75*
G02*
X159700000Y-83661000I0J50000D01*
G01*
X159700000Y-83111000D01*
G75*
G02*
X159750000Y-83061000I50000J0D01*
G01*
X161350000Y-83061000D01*
G75*
G02*
X161400000Y-83111000I0J-50000D01*
G01*
G37*
G36*
G01*
X161400000Y-83911000D02*
X161400000Y-84461000D01*
G75*
G02*
X161350000Y-84511000I-50000J0D01*
G01*
X159750000Y-84511000D01*
G75*
G02*
X159700000Y-84461000I0J50000D01*
G01*
X159700000Y-83911000D01*
G75*
G02*
X159750000Y-83861000I50000J0D01*
G01*
X161350000Y-83861000D01*
G75*
G02*
X161400000Y-83911000I0J-50000D01*
G01*
G37*
G36*
G01*
X159375000Y-86486000D02*
X158825000Y-86486000D01*
G75*
G02*
X158775000Y-86436000I0J50000D01*
G01*
X158775000Y-84836000D01*
G75*
G02*
X158825000Y-84786000I50000J0D01*
G01*
X159375000Y-84786000D01*
G75*
G02*
X159425000Y-84836000I0J-50000D01*
G01*
X159425000Y-86436000D01*
G75*
G02*
X159375000Y-86486000I-50000J0D01*
G01*
G37*
G36*
G01*
X158575000Y-86486000D02*
X158025000Y-86486000D01*
G75*
G02*
X157975000Y-86436000I0J50000D01*
G01*
X157975000Y-84836000D01*
G75*
G02*
X158025000Y-84786000I50000J0D01*
G01*
X158575000Y-84786000D01*
G75*
G02*
X158625000Y-84836000I0J-50000D01*
G01*
X158625000Y-86436000D01*
G75*
G02*
X158575000Y-86486000I-50000J0D01*
G01*
G37*
G36*
G01*
X157775000Y-86486000D02*
X157225000Y-86486000D01*
G75*
G02*
X157175000Y-86436000I0J50000D01*
G01*
X157175000Y-84836000D01*
G75*
G02*
X157225000Y-84786000I50000J0D01*
G01*
X157775000Y-84786000D01*
G75*
G02*
X157825000Y-84836000I0J-50000D01*
G01*
X157825000Y-86436000D01*
G75*
G02*
X157775000Y-86486000I-50000J0D01*
G01*
G37*
G36*
G01*
X156975000Y-86486000D02*
X156425000Y-86486000D01*
G75*
G02*
X156375000Y-86436000I0J50000D01*
G01*
X156375000Y-84836000D01*
G75*
G02*
X156425000Y-84786000I50000J0D01*
G01*
X156975000Y-84786000D01*
G75*
G02*
X157025000Y-84836000I0J-50000D01*
G01*
X157025000Y-86436000D01*
G75*
G02*
X156975000Y-86486000I-50000J0D01*
G01*
G37*
G36*
G01*
X156175000Y-86486000D02*
X155625000Y-86486000D01*
G75*
G02*
X155575000Y-86436000I0J50000D01*
G01*
X155575000Y-84836000D01*
G75*
G02*
X155625000Y-84786000I50000J0D01*
G01*
X156175000Y-84786000D01*
G75*
G02*
X156225000Y-84836000I0J-50000D01*
G01*
X156225000Y-86436000D01*
G75*
G02*
X156175000Y-86486000I-50000J0D01*
G01*
G37*
G36*
G01*
X155375000Y-86486000D02*
X154825000Y-86486000D01*
G75*
G02*
X154775000Y-86436000I0J50000D01*
G01*
X154775000Y-84836000D01*
G75*
G02*
X154825000Y-84786000I50000J0D01*
G01*
X155375000Y-84786000D01*
G75*
G02*
X155425000Y-84836000I0J-50000D01*
G01*
X155425000Y-86436000D01*
G75*
G02*
X155375000Y-86486000I-50000J0D01*
G01*
G37*
G36*
G01*
X154575000Y-86486000D02*
X154025000Y-86486000D01*
G75*
G02*
X153975000Y-86436000I0J50000D01*
G01*
X153975000Y-84836000D01*
G75*
G02*
X154025000Y-84786000I50000J0D01*
G01*
X154575000Y-84786000D01*
G75*
G02*
X154625000Y-84836000I0J-50000D01*
G01*
X154625000Y-86436000D01*
G75*
G02*
X154575000Y-86486000I-50000J0D01*
G01*
G37*
G36*
G01*
X153775000Y-86486000D02*
X153225000Y-86486000D01*
G75*
G02*
X153175000Y-86436000I0J50000D01*
G01*
X153175000Y-84836000D01*
G75*
G02*
X153225000Y-84786000I50000J0D01*
G01*
X153775000Y-84786000D01*
G75*
G02*
X153825000Y-84836000I0J-50000D01*
G01*
X153825000Y-86436000D01*
G75*
G02*
X153775000Y-86486000I-50000J0D01*
G01*
G37*
D13*
G36*
X165593889Y-91049398D02*
G01*
X165575466Y-91049398D01*
X165570565Y-91049157D01*
X165521734Y-91044347D01*
X165516881Y-91043627D01*
X165468756Y-91034055D01*
X165463995Y-91032863D01*
X165417040Y-91018619D01*
X165412421Y-91016966D01*
X165367088Y-90998189D01*
X165362651Y-90996091D01*
X165319378Y-90972960D01*
X165315171Y-90970438D01*
X165274372Y-90943178D01*
X165270430Y-90940254D01*
X165232501Y-90909126D01*
X165228866Y-90905831D01*
X165194169Y-90871134D01*
X165190874Y-90867499D01*
X165159746Y-90829570D01*
X165156822Y-90825628D01*
X165129562Y-90784829D01*
X165127040Y-90780622D01*
X165103909Y-90737349D01*
X165101811Y-90732912D01*
X165083034Y-90687579D01*
X165081381Y-90682960D01*
X165067137Y-90636005D01*
X165065945Y-90631244D01*
X165056373Y-90583119D01*
X165055653Y-90578266D01*
X165050843Y-90529435D01*
X165050602Y-90524534D01*
X165050602Y-90506111D01*
X165050000Y-90500000D01*
X165050000Y-90000000D01*
X165050602Y-89993889D01*
X165050602Y-89975466D01*
X165050843Y-89970565D01*
X165055653Y-89921734D01*
X165056373Y-89916881D01*
X165065945Y-89868756D01*
X165067137Y-89863995D01*
X165081381Y-89817040D01*
X165083034Y-89812421D01*
X165101811Y-89767088D01*
X165103909Y-89762651D01*
X165127040Y-89719378D01*
X165129562Y-89715171D01*
X165156822Y-89674372D01*
X165159746Y-89670430D01*
X165190874Y-89632501D01*
X165194169Y-89628866D01*
X165228866Y-89594169D01*
X165232501Y-89590874D01*
X165270430Y-89559746D01*
X165274372Y-89556822D01*
X165315171Y-89529562D01*
X165319378Y-89527040D01*
X165362651Y-89503909D01*
X165367088Y-89501811D01*
X165412421Y-89483034D01*
X165417040Y-89481381D01*
X165463995Y-89467137D01*
X165468756Y-89465945D01*
X165516881Y-89456373D01*
X165521734Y-89455653D01*
X165570565Y-89450843D01*
X165575466Y-89450602D01*
X165593889Y-89450602D01*
X165600000Y-89450000D01*
X166100000Y-89450000D01*
X166109755Y-89450961D01*
X166119134Y-89453806D01*
X166127779Y-89458427D01*
X166135355Y-89464645D01*
X166141573Y-89472221D01*
X166146194Y-89480866D01*
X166149039Y-89490245D01*
X166150000Y-89500000D01*
X166150000Y-91000000D01*
X166149039Y-91009755D01*
X166146194Y-91019134D01*
X166141573Y-91027779D01*
X166135355Y-91035355D01*
X166127779Y-91041573D01*
X166119134Y-91046194D01*
X166109755Y-91049039D01*
X166100000Y-91050000D01*
X165600000Y-91050000D01*
X165593889Y-91049398D01*
G37*
G36*
X166390245Y-91049039D02*
G01*
X166380866Y-91046194D01*
X166372221Y-91041573D01*
X166364645Y-91035355D01*
X166358427Y-91027779D01*
X166353806Y-91019134D01*
X166350961Y-91009755D01*
X166350000Y-91000000D01*
X166350000Y-89500000D01*
X166350961Y-89490245D01*
X166353806Y-89480866D01*
X166358427Y-89472221D01*
X166364645Y-89464645D01*
X166372221Y-89458427D01*
X166380866Y-89453806D01*
X166390245Y-89450961D01*
X166400000Y-89450000D01*
X166900000Y-89450000D01*
X166906111Y-89450602D01*
X166924534Y-89450602D01*
X166929435Y-89450843D01*
X166978266Y-89455653D01*
X166983119Y-89456373D01*
X167031244Y-89465945D01*
X167036005Y-89467137D01*
X167082960Y-89481381D01*
X167087579Y-89483034D01*
X167132912Y-89501811D01*
X167137349Y-89503909D01*
X167180622Y-89527040D01*
X167184829Y-89529562D01*
X167225628Y-89556822D01*
X167229570Y-89559746D01*
X167267499Y-89590874D01*
X167271134Y-89594169D01*
X167305831Y-89628866D01*
X167309126Y-89632501D01*
X167340254Y-89670430D01*
X167343178Y-89674372D01*
X167370438Y-89715171D01*
X167372960Y-89719378D01*
X167396091Y-89762651D01*
X167398189Y-89767088D01*
X167416966Y-89812421D01*
X167418619Y-89817040D01*
X167432863Y-89863995D01*
X167434055Y-89868756D01*
X167443627Y-89916881D01*
X167444347Y-89921734D01*
X167449157Y-89970565D01*
X167449398Y-89975466D01*
X167449398Y-89993889D01*
X167450000Y-90000000D01*
X167450000Y-90500000D01*
X167449398Y-90506111D01*
X167449398Y-90524534D01*
X167449157Y-90529435D01*
X167444347Y-90578266D01*
X167443627Y-90583119D01*
X167434055Y-90631244D01*
X167432863Y-90636005D01*
X167418619Y-90682960D01*
X167416966Y-90687579D01*
X167398189Y-90732912D01*
X167396091Y-90737349D01*
X167372960Y-90780622D01*
X167370438Y-90784829D01*
X167343178Y-90825628D01*
X167340254Y-90829570D01*
X167309126Y-90867499D01*
X167305831Y-90871134D01*
X167271134Y-90905831D01*
X167267499Y-90909126D01*
X167229570Y-90940254D01*
X167225628Y-90943178D01*
X167184829Y-90970438D01*
X167180622Y-90972960D01*
X167137349Y-90996091D01*
X167132912Y-90998189D01*
X167087579Y-91016966D01*
X167082960Y-91018619D01*
X167036005Y-91032863D01*
X167031244Y-91034055D01*
X166983119Y-91043627D01*
X166978266Y-91044347D01*
X166929435Y-91049157D01*
X166924534Y-91049398D01*
X166906111Y-91049398D01*
X166900000Y-91050000D01*
X166400000Y-91050000D01*
X166390245Y-91049039D01*
G37*
G36*
G01*
X164800000Y-97250000D02*
X164800000Y-99250000D01*
G75*
G02*
X164750000Y-99300000I-50000J0D01*
G01*
X163400000Y-99300000D01*
G75*
G02*
X163350000Y-99250000I0J50000D01*
G01*
X163350000Y-97250000D01*
G75*
G02*
X163400000Y-97200000I50000J0D01*
G01*
X164750000Y-97200000D01*
G75*
G02*
X164800000Y-97250000I0J-50000D01*
G01*
G37*
G36*
G01*
X160650000Y-97250000D02*
X160650000Y-99250000D01*
G75*
G02*
X160600000Y-99300000I-50000J0D01*
G01*
X159250000Y-99300000D01*
G75*
G02*
X159200000Y-99250000I0J50000D01*
G01*
X159200000Y-97250000D01*
G75*
G02*
X159250000Y-97200000I50000J0D01*
G01*
X160600000Y-97200000D01*
G75*
G02*
X160650000Y-97250000I0J-50000D01*
G01*
G37*
G36*
G01*
X153650000Y-97250000D02*
X153650000Y-99250000D01*
G75*
G02*
X153600000Y-99300000I-50000J0D01*
G01*
X152250000Y-99300000D01*
G75*
G02*
X152200000Y-99250000I0J50000D01*
G01*
X152200000Y-97250000D01*
G75*
G02*
X152250000Y-97200000I50000J0D01*
G01*
X153600000Y-97200000D01*
G75*
G02*
X153650000Y-97250000I0J-50000D01*
G01*
G37*
G36*
G01*
X157800000Y-97250000D02*
X157800000Y-99250000D01*
G75*
G02*
X157750000Y-99300000I-50000J0D01*
G01*
X156400000Y-99300000D01*
G75*
G02*
X156350000Y-99250000I0J50000D01*
G01*
X156350000Y-97250000D01*
G75*
G02*
X156400000Y-97200000I50000J0D01*
G01*
X157750000Y-97200000D01*
G75*
G02*
X157800000Y-97250000I0J-50000D01*
G01*
G37*
G36*
G01*
X162450000Y-85500000D02*
X162450000Y-83500000D01*
G75*
G02*
X162500000Y-83450000I50000J0D01*
G01*
X163850000Y-83450000D01*
G75*
G02*
X163900000Y-83500000I0J-50000D01*
G01*
X163900000Y-85500000D01*
G75*
G02*
X163850000Y-85550000I-50000J0D01*
G01*
X162500000Y-85550000D01*
G75*
G02*
X162450000Y-85500000I0J50000D01*
G01*
G37*
G36*
G01*
X166600000Y-85500000D02*
X166600000Y-83500000D01*
G75*
G02*
X166650000Y-83450000I50000J0D01*
G01*
X168000000Y-83450000D01*
G75*
G02*
X168050000Y-83500000I0J-50000D01*
G01*
X168050000Y-85500000D01*
G75*
G02*
X168000000Y-85550000I-50000J0D01*
G01*
X166650000Y-85550000D01*
G75*
G02*
X166600000Y-85500000I0J50000D01*
G01*
G37*
D14*
X170250000Y-97950000D03*
X170250000Y-95410000D03*
X170250000Y-92870000D03*
X170250000Y-90330000D03*
X170250000Y-87790000D03*
G36*
G01*
X169350000Y-86100000D02*
X169350000Y-84400000D01*
G75*
G02*
X169400000Y-84350000I50000J0D01*
G01*
X171100000Y-84350000D01*
G75*
G02*
X171150000Y-84400000I0J-50000D01*
G01*
X171150000Y-86100000D01*
G75*
G02*
X171100000Y-86150000I-50000J0D01*
G01*
X169400000Y-86150000D01*
G75*
G02*
X169350000Y-86100000I0J50000D01*
G01*
G37*
G36*
G01*
X145950000Y-98600000D02*
X145950000Y-96800000D01*
G75*
G02*
X146850000Y-95900000I900000J0D01*
G01*
X148650000Y-95900000D01*
G75*
G02*
X149550000Y-96800000I0J-900000D01*
G01*
X149550000Y-98600000D01*
G75*
G02*
X148650000Y-99500000I-900000J0D01*
G01*
X146850000Y-99500000D01*
G75*
G02*
X145950000Y-98600000I0J900000D01*
G01*
G37*
G36*
G01*
X143200000Y-94025000D02*
X143200000Y-91975000D01*
G75*
G02*
X143975000Y-91200000I775000J0D01*
G01*
X145525000Y-91200000D01*
G75*
G02*
X146300000Y-91975000I0J-775000D01*
G01*
X146300000Y-94025000D01*
G75*
G02*
X145525000Y-94800000I-775000J0D01*
G01*
X143975000Y-94800000D01*
G75*
G02*
X143200000Y-94025000I0J775000D01*
G01*
G37*
G36*
G01*
X148950000Y-94750000D02*
X148950000Y-91250000D01*
G75*
G02*
X149000000Y-91200000I50000J0D01*
G01*
X152500000Y-91200000D01*
G75*
G02*
X152550000Y-91250000I0J-50000D01*
G01*
X152550000Y-94750000D01*
G75*
G02*
X152500000Y-94800000I-50000J0D01*
G01*
X149000000Y-94800000D01*
G75*
G02*
X148950000Y-94750000I0J50000D01*
G01*
G37*
G36*
G01*
X159513000Y-91374400D02*
X159513000Y-88974400D01*
G75*
G02*
X159563000Y-88924400I50000J0D01*
G01*
X163063000Y-88924400D01*
G75*
G02*
X163113000Y-88974400I0J-50000D01*
G01*
X163113000Y-91374400D01*
G75*
G02*
X163063000Y-91424400I-50000J0D01*
G01*
X159563000Y-91424400D01*
G75*
G02*
X159513000Y-91374400I0J50000D01*
G01*
G37*
G36*
G01*
X154313000Y-91374400D02*
X154313000Y-88974400D01*
G75*
G02*
X154363000Y-88924400I50000J0D01*
G01*
X157863000Y-88924400D01*
G75*
G02*
X157913000Y-88974400I0J-50000D01*
G01*
X157913000Y-91374400D01*
G75*
G02*
X157863000Y-91424400I-50000J0D01*
G01*
X154363000Y-91424400D01*
G75*
G02*
X154313000Y-91374400I0J50000D01*
G01*
G37*
G36*
G01*
X154753724Y-72562500D02*
X153746276Y-72562500D01*
G75*
G02*
X153475000Y-72291224I0J271276D01*
G01*
X153475000Y-71558776D01*
G75*
G02*
X153746276Y-71287500I271276J0D01*
G01*
X154753724Y-71287500D01*
G75*
G02*
X155025000Y-71558776I0J-271276D01*
G01*
X155025000Y-72291224D01*
G75*
G02*
X154753724Y-72562500I-271276J0D01*
G01*
G37*
G36*
G01*
X154753724Y-74637500D02*
X153746276Y-74637500D01*
G75*
G02*
X153475000Y-74366224I0J271276D01*
G01*
X153475000Y-73633776D01*
G75*
G02*
X153746276Y-73362500I271276J0D01*
G01*
X154753724Y-73362500D01*
G75*
G02*
X155025000Y-73633776I0J-271276D01*
G01*
X155025000Y-74366224D01*
G75*
G02*
X154753724Y-74637500I-271276J0D01*
G01*
G37*
G36*
G01*
X166496276Y-97150000D02*
X167503724Y-97150000D01*
G75*
G02*
X167775000Y-97421276I0J-271276D01*
G01*
X167775000Y-98153724D01*
G75*
G02*
X167503724Y-98425000I-271276J0D01*
G01*
X166496276Y-98425000D01*
G75*
G02*
X166225000Y-98153724I0J271276D01*
G01*
X166225000Y-97421276D01*
G75*
G02*
X166496276Y-97150000I271276J0D01*
G01*
G37*
G36*
G01*
X166496276Y-95075000D02*
X167503724Y-95075000D01*
G75*
G02*
X167775000Y-95346276I0J-271276D01*
G01*
X167775000Y-96078724D01*
G75*
G02*
X167503724Y-96350000I-271276J0D01*
G01*
X166496276Y-96350000D01*
G75*
G02*
X166225000Y-96078724I0J271276D01*
G01*
X166225000Y-95346276D01*
G75*
G02*
X166496276Y-95075000I271276J0D01*
G01*
G37*
G36*
G01*
X147228000Y-76200000D02*
X147428000Y-76200000D01*
G75*
G02*
X147528000Y-76300000I0J-100000D01*
G01*
X147528000Y-77225000D01*
G75*
G02*
X147428000Y-77325000I-100000J0D01*
G01*
X147228000Y-77325000D01*
G75*
G02*
X147128000Y-77225000I0J100000D01*
G01*
X147128000Y-76300000D01*
G75*
G02*
X147228000Y-76200000I100000J0D01*
G01*
G37*
G36*
G01*
X146578000Y-76200000D02*
X146778000Y-76200000D01*
G75*
G02*
X146878000Y-76300000I0J-100000D01*
G01*
X146878000Y-77225000D01*
G75*
G02*
X146778000Y-77325000I-100000J0D01*
G01*
X146578000Y-77325000D01*
G75*
G02*
X146478000Y-77225000I0J100000D01*
G01*
X146478000Y-76300000D01*
G75*
G02*
X146578000Y-76200000I100000J0D01*
G01*
G37*
G36*
G01*
X145928000Y-76200000D02*
X146128000Y-76200000D01*
G75*
G02*
X146228000Y-76300000I0J-100000D01*
G01*
X146228000Y-77225000D01*
G75*
G02*
X146128000Y-77325000I-100000J0D01*
G01*
X145928000Y-77325000D01*
G75*
G02*
X145828000Y-77225000I0J100000D01*
G01*
X145828000Y-76300000D01*
G75*
G02*
X145928000Y-76200000I100000J0D01*
G01*
G37*
G36*
G01*
X145278000Y-76200000D02*
X145478000Y-76200000D01*
G75*
G02*
X145578000Y-76300000I0J-100000D01*
G01*
X145578000Y-77225000D01*
G75*
G02*
X145478000Y-77325000I-100000J0D01*
G01*
X145278000Y-77325000D01*
G75*
G02*
X145178000Y-77225000I0J100000D01*
G01*
X145178000Y-76300000D01*
G75*
G02*
X145278000Y-76200000I100000J0D01*
G01*
G37*
G36*
G01*
X144628000Y-76200000D02*
X144828000Y-76200000D01*
G75*
G02*
X144928000Y-76300000I0J-100000D01*
G01*
X144928000Y-77225000D01*
G75*
G02*
X144828000Y-77325000I-100000J0D01*
G01*
X144628000Y-77325000D01*
G75*
G02*
X144528000Y-77225000I0J100000D01*
G01*
X144528000Y-76300000D01*
G75*
G02*
X144628000Y-76200000I100000J0D01*
G01*
G37*
G36*
G01*
X143978000Y-76200000D02*
X144178000Y-76200000D01*
G75*
G02*
X144278000Y-76300000I0J-100000D01*
G01*
X144278000Y-77225000D01*
G75*
G02*
X144178000Y-77325000I-100000J0D01*
G01*
X143978000Y-77325000D01*
G75*
G02*
X143878000Y-77225000I0J100000D01*
G01*
X143878000Y-76300000D01*
G75*
G02*
X143978000Y-76200000I100000J0D01*
G01*
G37*
G36*
G01*
X143328000Y-76200000D02*
X143528000Y-76200000D01*
G75*
G02*
X143628000Y-76300000I0J-100000D01*
G01*
X143628000Y-77225000D01*
G75*
G02*
X143528000Y-77325000I-100000J0D01*
G01*
X143328000Y-77325000D01*
G75*
G02*
X143228000Y-77225000I0J100000D01*
G01*
X143228000Y-76300000D01*
G75*
G02*
X143328000Y-76200000I100000J0D01*
G01*
G37*
G36*
G01*
X142078000Y-77450000D02*
X143003000Y-77450000D01*
G75*
G02*
X143103000Y-77550000I0J-100000D01*
G01*
X143103000Y-77750000D01*
G75*
G02*
X143003000Y-77850000I-100000J0D01*
G01*
X142078000Y-77850000D01*
G75*
G02*
X141978000Y-77750000I0J100000D01*
G01*
X141978000Y-77550000D01*
G75*
G02*
X142078000Y-77450000I100000J0D01*
G01*
G37*
G36*
G01*
X142078000Y-78100000D02*
X143003000Y-78100000D01*
G75*
G02*
X143103000Y-78200000I0J-100000D01*
G01*
X143103000Y-78400000D01*
G75*
G02*
X143003000Y-78500000I-100000J0D01*
G01*
X142078000Y-78500000D01*
G75*
G02*
X141978000Y-78400000I0J100000D01*
G01*
X141978000Y-78200000D01*
G75*
G02*
X142078000Y-78100000I100000J0D01*
G01*
G37*
G36*
G01*
X142078000Y-78750000D02*
X143003000Y-78750000D01*
G75*
G02*
X143103000Y-78850000I0J-100000D01*
G01*
X143103000Y-79050000D01*
G75*
G02*
X143003000Y-79150000I-100000J0D01*
G01*
X142078000Y-79150000D01*
G75*
G02*
X141978000Y-79050000I0J100000D01*
G01*
X141978000Y-78850000D01*
G75*
G02*
X142078000Y-78750000I100000J0D01*
G01*
G37*
G36*
G01*
X142078000Y-79400000D02*
X143003000Y-79400000D01*
G75*
G02*
X143103000Y-79500000I0J-100000D01*
G01*
X143103000Y-79700000D01*
G75*
G02*
X143003000Y-79800000I-100000J0D01*
G01*
X142078000Y-79800000D01*
G75*
G02*
X141978000Y-79700000I0J100000D01*
G01*
X141978000Y-79500000D01*
G75*
G02*
X142078000Y-79400000I100000J0D01*
G01*
G37*
G36*
G01*
X142078000Y-80050000D02*
X143003000Y-80050000D01*
G75*
G02*
X143103000Y-80150000I0J-100000D01*
G01*
X143103000Y-80350000D01*
G75*
G02*
X143003000Y-80450000I-100000J0D01*
G01*
X142078000Y-80450000D01*
G75*
G02*
X141978000Y-80350000I0J100000D01*
G01*
X141978000Y-80150000D01*
G75*
G02*
X142078000Y-80050000I100000J0D01*
G01*
G37*
G36*
G01*
X142078000Y-80700000D02*
X143003000Y-80700000D01*
G75*
G02*
X143103000Y-80800000I0J-100000D01*
G01*
X143103000Y-81000000D01*
G75*
G02*
X143003000Y-81100000I-100000J0D01*
G01*
X142078000Y-81100000D01*
G75*
G02*
X141978000Y-81000000I0J100000D01*
G01*
X141978000Y-80800000D01*
G75*
G02*
X142078000Y-80700000I100000J0D01*
G01*
G37*
G36*
G01*
X142078000Y-81350000D02*
X143003000Y-81350000D01*
G75*
G02*
X143103000Y-81450000I0J-100000D01*
G01*
X143103000Y-81650000D01*
G75*
G02*
X143003000Y-81750000I-100000J0D01*
G01*
X142078000Y-81750000D01*
G75*
G02*
X141978000Y-81650000I0J100000D01*
G01*
X141978000Y-81450000D01*
G75*
G02*
X142078000Y-81350000I100000J0D01*
G01*
G37*
G36*
G01*
X143328000Y-81875000D02*
X143528000Y-81875000D01*
G75*
G02*
X143628000Y-81975000I0J-100000D01*
G01*
X143628000Y-82900000D01*
G75*
G02*
X143528000Y-83000000I-100000J0D01*
G01*
X143328000Y-83000000D01*
G75*
G02*
X143228000Y-82900000I0J100000D01*
G01*
X143228000Y-81975000D01*
G75*
G02*
X143328000Y-81875000I100000J0D01*
G01*
G37*
G36*
G01*
X143978000Y-81875000D02*
X144178000Y-81875000D01*
G75*
G02*
X144278000Y-81975000I0J-100000D01*
G01*
X144278000Y-82900000D01*
G75*
G02*
X144178000Y-83000000I-100000J0D01*
G01*
X143978000Y-83000000D01*
G75*
G02*
X143878000Y-82900000I0J100000D01*
G01*
X143878000Y-81975000D01*
G75*
G02*
X143978000Y-81875000I100000J0D01*
G01*
G37*
G36*
G01*
X144628000Y-81875000D02*
X144828000Y-81875000D01*
G75*
G02*
X144928000Y-81975000I0J-100000D01*
G01*
X144928000Y-82900000D01*
G75*
G02*
X144828000Y-83000000I-100000J0D01*
G01*
X144628000Y-83000000D01*
G75*
G02*
X144528000Y-82900000I0J100000D01*
G01*
X144528000Y-81975000D01*
G75*
G02*
X144628000Y-81875000I100000J0D01*
G01*
G37*
G36*
G01*
X145278000Y-81875000D02*
X145478000Y-81875000D01*
G75*
G02*
X145578000Y-81975000I0J-100000D01*
G01*
X145578000Y-82900000D01*
G75*
G02*
X145478000Y-83000000I-100000J0D01*
G01*
X145278000Y-83000000D01*
G75*
G02*
X145178000Y-82900000I0J100000D01*
G01*
X145178000Y-81975000D01*
G75*
G02*
X145278000Y-81875000I100000J0D01*
G01*
G37*
G36*
G01*
X145928000Y-81875000D02*
X146128000Y-81875000D01*
G75*
G02*
X146228000Y-81975000I0J-100000D01*
G01*
X146228000Y-82900000D01*
G75*
G02*
X146128000Y-83000000I-100000J0D01*
G01*
X145928000Y-83000000D01*
G75*
G02*
X145828000Y-82900000I0J100000D01*
G01*
X145828000Y-81975000D01*
G75*
G02*
X145928000Y-81875000I100000J0D01*
G01*
G37*
G36*
G01*
X146578000Y-81875000D02*
X146778000Y-81875000D01*
G75*
G02*
X146878000Y-81975000I0J-100000D01*
G01*
X146878000Y-82900000D01*
G75*
G02*
X146778000Y-83000000I-100000J0D01*
G01*
X146578000Y-83000000D01*
G75*
G02*
X146478000Y-82900000I0J100000D01*
G01*
X146478000Y-81975000D01*
G75*
G02*
X146578000Y-81875000I100000J0D01*
G01*
G37*
G36*
G01*
X147228000Y-81875000D02*
X147428000Y-81875000D01*
G75*
G02*
X147528000Y-81975000I0J-100000D01*
G01*
X147528000Y-82900000D01*
G75*
G02*
X147428000Y-83000000I-100000J0D01*
G01*
X147228000Y-83000000D01*
G75*
G02*
X147128000Y-82900000I0J100000D01*
G01*
X147128000Y-81975000D01*
G75*
G02*
X147228000Y-81875000I100000J0D01*
G01*
G37*
G36*
G01*
X147753000Y-81350000D02*
X148678000Y-81350000D01*
G75*
G02*
X148778000Y-81450000I0J-100000D01*
G01*
X148778000Y-81650000D01*
G75*
G02*
X148678000Y-81750000I-100000J0D01*
G01*
X147753000Y-81750000D01*
G75*
G02*
X147653000Y-81650000I0J100000D01*
G01*
X147653000Y-81450000D01*
G75*
G02*
X147753000Y-81350000I100000J0D01*
G01*
G37*
G36*
G01*
X147753000Y-80700000D02*
X148678000Y-80700000D01*
G75*
G02*
X148778000Y-80800000I0J-100000D01*
G01*
X148778000Y-81000000D01*
G75*
G02*
X148678000Y-81100000I-100000J0D01*
G01*
X147753000Y-81100000D01*
G75*
G02*
X147653000Y-81000000I0J100000D01*
G01*
X147653000Y-80800000D01*
G75*
G02*
X147753000Y-80700000I100000J0D01*
G01*
G37*
G36*
G01*
X147753000Y-80050000D02*
X148678000Y-80050000D01*
G75*
G02*
X148778000Y-80150000I0J-100000D01*
G01*
X148778000Y-80350000D01*
G75*
G02*
X148678000Y-80450000I-100000J0D01*
G01*
X147753000Y-80450000D01*
G75*
G02*
X147653000Y-80350000I0J100000D01*
G01*
X147653000Y-80150000D01*
G75*
G02*
X147753000Y-80050000I100000J0D01*
G01*
G37*
G36*
G01*
X147753000Y-79400000D02*
X148678000Y-79400000D01*
G75*
G02*
X148778000Y-79500000I0J-100000D01*
G01*
X148778000Y-79700000D01*
G75*
G02*
X148678000Y-79800000I-100000J0D01*
G01*
X147753000Y-79800000D01*
G75*
G02*
X147653000Y-79700000I0J100000D01*
G01*
X147653000Y-79500000D01*
G75*
G02*
X147753000Y-79400000I100000J0D01*
G01*
G37*
G36*
G01*
X147753000Y-78750000D02*
X148678000Y-78750000D01*
G75*
G02*
X148778000Y-78850000I0J-100000D01*
G01*
X148778000Y-79050000D01*
G75*
G02*
X148678000Y-79150000I-100000J0D01*
G01*
X147753000Y-79150000D01*
G75*
G02*
X147653000Y-79050000I0J100000D01*
G01*
X147653000Y-78850000D01*
G75*
G02*
X147753000Y-78750000I100000J0D01*
G01*
G37*
G36*
G01*
X147753000Y-78100000D02*
X148678000Y-78100000D01*
G75*
G02*
X148778000Y-78200000I0J-100000D01*
G01*
X148778000Y-78400000D01*
G75*
G02*
X148678000Y-78500000I-100000J0D01*
G01*
X147753000Y-78500000D01*
G75*
G02*
X147653000Y-78400000I0J100000D01*
G01*
X147653000Y-78200000D01*
G75*
G02*
X147753000Y-78100000I100000J0D01*
G01*
G37*
G36*
G01*
X147753000Y-77450000D02*
X148678000Y-77450000D01*
G75*
G02*
X148778000Y-77550000I0J-100000D01*
G01*
X148778000Y-77750000D01*
G75*
G02*
X148678000Y-77850000I-100000J0D01*
G01*
X147753000Y-77850000D01*
G75*
G02*
X147653000Y-77750000I0J100000D01*
G01*
X147653000Y-77550000D01*
G75*
G02*
X147753000Y-77450000I100000J0D01*
G01*
G37*
G36*
G01*
X143253000Y-77425000D02*
X147503000Y-77425000D01*
G75*
G02*
X147553000Y-77475000I0J-50000D01*
G01*
X147553000Y-81725000D01*
G75*
G02*
X147503000Y-81775000I-50000J0D01*
G01*
X143253000Y-81775000D01*
G75*
G02*
X143203000Y-81725000I0J50000D01*
G01*
X143203000Y-77475000D01*
G75*
G02*
X143253000Y-77425000I50000J0D01*
G01*
G37*
G36*
G01*
X143850000Y-85979168D02*
X143850000Y-85020832D01*
G75*
G02*
X144120832Y-84750000I270832J0D01*
G01*
X144879168Y-84750000D01*
G75*
G02*
X145150000Y-85020832I0J-270832D01*
G01*
X145150000Y-85979168D01*
G75*
G02*
X144879168Y-86250000I-270832J0D01*
G01*
X144120832Y-86250000D01*
G75*
G02*
X143850000Y-85979168I0J270832D01*
G01*
G37*
G36*
G01*
X141850000Y-85979168D02*
X141850000Y-85020832D01*
G75*
G02*
X142120832Y-84750000I270832J0D01*
G01*
X142879168Y-84750000D01*
G75*
G02*
X143150000Y-85020832I0J-270832D01*
G01*
X143150000Y-85979168D01*
G75*
G02*
X142879168Y-86250000I-270832J0D01*
G01*
X142120832Y-86250000D01*
G75*
G02*
X141850000Y-85979168I0J270832D01*
G01*
G37*
X170346200Y-78084000D03*
X170346200Y-80624000D03*
X167806200Y-78084000D03*
X167806200Y-80624000D03*
X165266200Y-78084000D03*
G36*
G01*
X166116200Y-81524000D02*
X164416200Y-81524000D01*
G75*
G02*
X164366200Y-81474000I0J50000D01*
G01*
X164366200Y-79774000D01*
G75*
G02*
X164416200Y-79724000I50000J0D01*
G01*
X166116200Y-79724000D01*
G75*
G02*
X166166200Y-79774000I0J-50000D01*
G01*
X166166200Y-81474000D01*
G75*
G02*
X166116200Y-81524000I-50000J0D01*
G01*
G37*
X148680000Y-72851600D03*
X146140000Y-72851600D03*
G36*
G01*
X144450000Y-73751600D02*
X142750000Y-73751600D01*
G75*
G02*
X142700000Y-73701600I0J50000D01*
G01*
X142700000Y-72001600D01*
G75*
G02*
X142750000Y-71951600I50000J0D01*
G01*
X144450000Y-71951600D01*
G75*
G02*
X144500000Y-72001600I0J-50000D01*
G01*
X144500000Y-73701600D01*
G75*
G02*
X144450000Y-73751600I-50000J0D01*
G01*
G37*
G36*
G01*
X151496276Y-73327800D02*
X152503724Y-73327800D01*
G75*
G02*
X152775000Y-73599076I0J-271276D01*
G01*
X152775000Y-74331524D01*
G75*
G02*
X152503724Y-74602800I-271276J0D01*
G01*
X151496276Y-74602800D01*
G75*
G02*
X151225000Y-74331524I0J271276D01*
G01*
X151225000Y-73599076D01*
G75*
G02*
X151496276Y-73327800I271276J0D01*
G01*
G37*
G36*
G01*
X151496276Y-71252800D02*
X152503724Y-71252800D01*
G75*
G02*
X152775000Y-71524076I0J-271276D01*
G01*
X152775000Y-72256524D01*
G75*
G02*
X152503724Y-72527800I-271276J0D01*
G01*
X151496276Y-72527800D01*
G75*
G02*
X151225000Y-72256524I0J271276D01*
G01*
X151225000Y-71524076D01*
G75*
G02*
X151496276Y-71252800I271276J0D01*
G01*
G37*
G36*
G01*
X162669000Y-94742124D02*
X162669000Y-93734676D01*
G75*
G02*
X162940276Y-93463400I271276J0D01*
G01*
X163672724Y-93463400D01*
G75*
G02*
X163944000Y-93734676I0J-271276D01*
G01*
X163944000Y-94742124D01*
G75*
G02*
X163672724Y-95013400I-271276J0D01*
G01*
X162940276Y-95013400D01*
G75*
G02*
X162669000Y-94742124I0J271276D01*
G01*
G37*
G36*
G01*
X160594000Y-94742124D02*
X160594000Y-93734676D01*
G75*
G02*
X160865276Y-93463400I271276J0D01*
G01*
X161597724Y-93463400D01*
G75*
G02*
X161869000Y-93734676I0J-271276D01*
G01*
X161869000Y-94742124D01*
G75*
G02*
X161597724Y-95013400I-271276J0D01*
G01*
X160865276Y-95013400D01*
G75*
G02*
X160594000Y-94742124I0J271276D01*
G01*
G37*
G36*
G01*
X154757000Y-93734676D02*
X154757000Y-94742124D01*
G75*
G02*
X154485724Y-95013400I-271276J0D01*
G01*
X153753276Y-95013400D01*
G75*
G02*
X153482000Y-94742124I0J271276D01*
G01*
X153482000Y-93734676D01*
G75*
G02*
X153753276Y-93463400I271276J0D01*
G01*
X154485724Y-93463400D01*
G75*
G02*
X154757000Y-93734676I0J-271276D01*
G01*
G37*
G36*
G01*
X156832000Y-93734676D02*
X156832000Y-94742124D01*
G75*
G02*
X156560724Y-95013400I-271276J0D01*
G01*
X155828276Y-95013400D01*
G75*
G02*
X155557000Y-94742124I0J271276D01*
G01*
X155557000Y-93734676D01*
G75*
G02*
X155828276Y-93463400I271276J0D01*
G01*
X156560724Y-93463400D01*
G75*
G02*
X156832000Y-93734676I0J-271276D01*
G01*
G37*
G36*
G01*
X147068500Y-86207724D02*
X147068500Y-85200276D01*
G75*
G02*
X147339776Y-84929000I271276J0D01*
G01*
X148072224Y-84929000D01*
G75*
G02*
X148343500Y-85200276I0J-271276D01*
G01*
X148343500Y-86207724D01*
G75*
G02*
X148072224Y-86479000I-271276J0D01*
G01*
X147339776Y-86479000D01*
G75*
G02*
X147068500Y-86207724I0J271276D01*
G01*
G37*
G36*
G01*
X149143500Y-86207724D02*
X149143500Y-85200276D01*
G75*
G02*
X149414776Y-84929000I271276J0D01*
G01*
X150147224Y-84929000D01*
G75*
G02*
X150418500Y-85200276I0J-271276D01*
G01*
X150418500Y-86207724D01*
G75*
G02*
X150147224Y-86479000I-271276J0D01*
G01*
X149414776Y-86479000D01*
G75*
G02*
X149143500Y-86207724I0J271276D01*
G01*
G37*
M02*
