M48
; DRILL file {KiCad (5.1.12)-1} date 12/20/21 15:12:07
; FORMAT={-:-/ absolute / metric / decimal}
; #@! TF.CreationDate,2021-12-20T15:12:07-08:00
; #@! TF.GenerationSoftware,Kicad,Pcbnew,(5.1.12)-1
; #@! TF.FileFunction,Plated,1,2,PTH
FMAT,2
METRIC
T1C0.350
T2C0.400
T3C0.750
T4C1.000
%
G90
G05
T1
X142.25Y-83.75
X147.5Y-85.25
X148.25Y-83.25
X148.5Y-76.25
X149.5Y-82.25
X150.5Y-77.25
X150.5Y-83.75
X151.75Y-85.5
X152.25Y-86.91
X152.75Y-88.75
X154.75Y-79.75
X156.0Y-84.0
X157.476Y-83.824
X157.5Y-83.0
X158.5Y-82.0
X160.0Y-94.5
X160.25Y-87.75
X162.0Y-84.5
X165.25Y-92.75
T2
X150.25Y-87.75
X152.555Y-85.098
X153.5Y-84.25
X162.56Y-86.36
X168.0Y-91.75
T3
X159.75Y-73.25
X161.75Y-73.25
X163.75Y-73.25
X165.75Y-73.25
X167.75Y-73.25
X169.75Y-73.25
T4
X143.6Y-72.852
X146.14Y-72.852
X148.68Y-72.852
X165.266Y-78.084
X165.266Y-80.624
X167.806Y-78.084
X167.806Y-80.624
X170.25Y-85.25
X170.25Y-87.79
X170.25Y-90.33
X170.25Y-92.87
X170.25Y-95.41
X170.25Y-97.95
X170.346Y-78.084
X170.346Y-80.624
T4
X144.75Y-92.0G85X144.75Y-94.0
G05
X146.75Y-97.7G85X148.75Y-97.7
G05
X150.75Y-92.0G85X150.75Y-94.0
G05
T0
M30
