%TF.GenerationSoftware,KiCad,Pcbnew,(5.1.12)-1*%
%TF.CreationDate,2021-12-20T15:12:04-08:00*%
%TF.ProjectId,controlBoard,636f6e74-726f-46c4-926f-6172642e6b69,rev?*%
%TF.SameCoordinates,Original*%
%TF.FileFunction,Copper,L2,Bot*%
%TF.FilePolarity,Positive*%
%FSLAX46Y46*%
G04 Gerber Fmt 4.6, Leading zero omitted, Abs format (unit mm)*
G04 Created by KiCad (PCBNEW (5.1.12)-1) date 2021-12-20 15:12:04*
%MOMM*%
%LPD*%
G01*
G04 APERTURE LIST*
%TA.AperFunction,ComponentPad*%
%ADD10O,1.200000X1.750000*%
%TD*%
%TA.AperFunction,ComponentPad*%
%ADD11O,1.700000X1.700000*%
%TD*%
%TA.AperFunction,ComponentPad*%
%ADD12R,1.700000X1.700000*%
%TD*%
%TA.AperFunction,ComponentPad*%
%ADD13R,3.500000X3.500000*%
%TD*%
%TA.AperFunction,ViaPad*%
%ADD14C,0.800000*%
%TD*%
%TA.AperFunction,ViaPad*%
%ADD15C,0.600000*%
%TD*%
%TA.AperFunction,Conductor*%
%ADD16C,0.500000*%
%TD*%
%TA.AperFunction,Conductor*%
%ADD17C,1.000000*%
%TD*%
%TA.AperFunction,Conductor*%
%ADD18C,0.200000*%
%TD*%
%TA.AperFunction,Conductor*%
%ADD19C,0.100000*%
%TD*%
G04 APERTURE END LIST*
D10*
X159750000Y-73250000D03*
X161750000Y-73250000D03*
X163750000Y-73250000D03*
X165750000Y-73250000D03*
X167750000Y-73250000D03*
%TA.AperFunction,ComponentPad*%
G36*
G01*
X170350000Y-72624999D02*
X170350000Y-73875001D01*
G75*
G02*
X170100001Y-74125000I-249999J0D01*
G01*
X169399999Y-74125000D01*
G75*
G02*
X169150000Y-73875001I0J249999D01*
G01*
X169150000Y-72624999D01*
G75*
G02*
X169399999Y-72375000I249999J0D01*
G01*
X170100001Y-72375000D01*
G75*
G02*
X170350000Y-72624999I0J-249999D01*
G01*
G37*
%TD.AperFunction*%
D11*
X170250000Y-97950000D03*
X170250000Y-95410000D03*
X170250000Y-92870000D03*
X170250000Y-90330000D03*
X170250000Y-87790000D03*
D12*
X170250000Y-85250000D03*
%TA.AperFunction,ComponentPad*%
G36*
G01*
X146000000Y-98575000D02*
X146000000Y-96825000D01*
G75*
G02*
X146875000Y-95950000I875000J0D01*
G01*
X148625000Y-95950000D01*
G75*
G02*
X149500000Y-96825000I0J-875000D01*
G01*
X149500000Y-98575000D01*
G75*
G02*
X148625000Y-99450000I-875000J0D01*
G01*
X146875000Y-99450000D01*
G75*
G02*
X146000000Y-98575000I0J875000D01*
G01*
G37*
%TD.AperFunction*%
%TA.AperFunction,ComponentPad*%
G36*
G01*
X143250000Y-94000000D02*
X143250000Y-92000000D01*
G75*
G02*
X144000000Y-91250000I750000J0D01*
G01*
X145500000Y-91250000D01*
G75*
G02*
X146250000Y-92000000I0J-750000D01*
G01*
X146250000Y-94000000D01*
G75*
G02*
X145500000Y-94750000I-750000J0D01*
G01*
X144000000Y-94750000D01*
G75*
G02*
X143250000Y-94000000I0J750000D01*
G01*
G37*
%TD.AperFunction*%
D13*
X150750000Y-93000000D03*
D11*
X170346200Y-78084000D03*
X170346200Y-80624000D03*
X167806200Y-78084000D03*
X167806200Y-80624000D03*
X165266200Y-78084000D03*
D12*
X165266200Y-80624000D03*
D11*
X148680000Y-72851600D03*
X146140000Y-72851600D03*
D12*
X143600000Y-72851600D03*
D14*
X150250000Y-87750000D03*
D15*
X165250000Y-92750000D03*
X148250000Y-83250000D03*
X147500000Y-85250000D03*
X150500000Y-77250000D03*
X154750000Y-79750000D03*
X151750000Y-85500000D03*
X142250000Y-83750000D03*
X150500000Y-83750000D03*
X156000000Y-84000000D03*
X149500000Y-82250000D03*
X148500000Y-76250000D03*
D14*
X162560000Y-86360000D03*
X168000000Y-91750000D03*
D15*
X152750000Y-88750000D03*
X152250000Y-86909800D03*
X160000000Y-94500000D03*
X160250000Y-87750000D03*
X158500000Y-82000000D03*
X162000000Y-84500000D03*
X157475737Y-83824266D03*
X157500000Y-83000000D03*
D14*
X153500000Y-84250000D03*
X152554987Y-85097507D03*
D16*
X146875000Y-88875000D02*
X146875000Y-89125000D01*
D17*
X146875000Y-89125000D02*
X146140000Y-88390000D01*
D16*
X164051599Y-71551599D02*
X165750000Y-73250000D01*
X147440001Y-71551599D02*
X164051599Y-71551599D01*
X146140000Y-72851600D02*
X147440001Y-71551599D01*
X165266200Y-78084000D02*
X165266200Y-76233800D01*
X165750000Y-75750000D02*
X165750000Y-73250000D01*
X165266200Y-76233800D02*
X165750000Y-75750000D01*
D18*
X165250000Y-92750000D02*
X162000000Y-96000000D01*
X153750000Y-96000000D02*
X150750000Y-93000000D01*
X162000000Y-96000000D02*
X153750000Y-96000000D01*
X147890000Y-83610000D02*
X146140000Y-83610000D01*
D17*
X146140000Y-83610000D02*
X146140000Y-72851600D01*
D18*
X148250000Y-83250000D02*
X147890000Y-83610000D01*
D17*
X146140000Y-88390000D02*
X146140000Y-83610000D01*
D16*
X148125000Y-89875000D02*
X148125000Y-90375000D01*
X150250000Y-87750000D02*
X148125000Y-89875000D01*
D17*
X148125000Y-90375000D02*
X146875000Y-89125000D01*
X150750000Y-93000000D02*
X148125000Y-90375000D01*
D18*
X152250000Y-88250000D02*
X152250000Y-86909800D01*
X152750000Y-88750000D02*
X152250000Y-88250000D01*
X160000000Y-88000000D02*
X160250000Y-87750000D01*
X160000000Y-94500000D02*
X160000000Y-88000000D01*
X161000000Y-84500000D02*
X162000000Y-84500000D01*
X158500000Y-82000000D02*
X161000000Y-84500000D01*
X166470200Y-84500000D02*
X163175000Y-84500000D01*
X170346200Y-80624000D02*
X166470200Y-84500000D01*
X162000000Y-84500000D02*
X163175000Y-84500000D01*
X169061471Y-95410000D02*
X170250000Y-95410000D01*
X157475737Y-83824266D02*
X169061471Y-95410000D01*
X167370000Y-92870000D02*
X170250000Y-92870000D01*
X157500000Y-83000000D02*
X167370000Y-92870000D01*
X161750000Y-76000000D02*
X161750000Y-73250000D01*
X153500000Y-84250000D02*
X161750000Y-76000000D01*
X163750000Y-75036002D02*
X163750000Y-73250000D01*
X153688495Y-85097507D02*
X163750000Y-75036002D01*
X152554987Y-85097507D02*
X153688495Y-85097507D01*
X170800642Y-69731636D02*
X171089839Y-69818950D01*
X171356563Y-69960770D01*
X171590666Y-70151701D01*
X171783219Y-70384457D01*
X171926899Y-70650189D01*
X172016227Y-70938760D01*
X172050001Y-71260098D01*
X172050000Y-98977994D01*
X172018364Y-99300642D01*
X171931050Y-99589839D01*
X171789230Y-99856563D01*
X171598303Y-100090662D01*
X171365544Y-100283219D01*
X171099812Y-100426899D01*
X170811238Y-100516227D01*
X170489912Y-100550000D01*
X142772006Y-100550000D01*
X142449358Y-100518364D01*
X142160161Y-100431050D01*
X141893437Y-100289230D01*
X141659338Y-100098303D01*
X141466781Y-99865544D01*
X141323101Y-99599812D01*
X141233773Y-99311238D01*
X141200000Y-98989912D01*
X141200000Y-96825000D01*
X145598065Y-96825000D01*
X145598065Y-98575000D01*
X145622601Y-98824118D01*
X145695266Y-99063662D01*
X145813267Y-99284427D01*
X145972071Y-99477929D01*
X146165573Y-99636733D01*
X146386338Y-99754734D01*
X146625882Y-99827399D01*
X146875000Y-99851935D01*
X148625000Y-99851935D01*
X148874118Y-99827399D01*
X149113662Y-99754734D01*
X149334427Y-99636733D01*
X149527929Y-99477929D01*
X149686733Y-99284427D01*
X149804734Y-99063662D01*
X149877399Y-98824118D01*
X149901935Y-98575000D01*
X149901935Y-97826886D01*
X169000000Y-97826886D01*
X169000000Y-98073114D01*
X169048037Y-98314611D01*
X169142265Y-98542097D01*
X169279062Y-98746828D01*
X169453172Y-98920938D01*
X169657903Y-99057735D01*
X169885389Y-99151963D01*
X170126886Y-99200000D01*
X170373114Y-99200000D01*
X170614611Y-99151963D01*
X170842097Y-99057735D01*
X171046828Y-98920938D01*
X171220938Y-98746828D01*
X171357735Y-98542097D01*
X171451963Y-98314611D01*
X171500000Y-98073114D01*
X171500000Y-97826886D01*
X171451963Y-97585389D01*
X171357735Y-97357903D01*
X171220938Y-97153172D01*
X171046828Y-96979062D01*
X170842097Y-96842265D01*
X170614611Y-96748037D01*
X170373114Y-96700000D01*
X170126886Y-96700000D01*
X169885389Y-96748037D01*
X169657903Y-96842265D01*
X169453172Y-96979062D01*
X169279062Y-97153172D01*
X169142265Y-97357903D01*
X169048037Y-97585389D01*
X169000000Y-97826886D01*
X149901935Y-97826886D01*
X149901935Y-96825000D01*
X149877399Y-96575882D01*
X149804734Y-96336338D01*
X149686733Y-96115573D01*
X149527929Y-95922071D01*
X149334427Y-95763267D01*
X149113662Y-95645266D01*
X148874118Y-95572601D01*
X148625000Y-95548065D01*
X146875000Y-95548065D01*
X146625882Y-95572601D01*
X146386338Y-95645266D01*
X146165573Y-95763267D01*
X145972071Y-95922071D01*
X145813267Y-96115573D01*
X145695266Y-96336338D01*
X145622601Y-96575882D01*
X145598065Y-96825000D01*
X141200000Y-96825000D01*
X141200000Y-94750000D01*
X142848065Y-94750000D01*
X142855788Y-94828414D01*
X142878660Y-94903814D01*
X142915803Y-94973303D01*
X142965789Y-95034211D01*
X143026697Y-95084197D01*
X143096186Y-95121340D01*
X143171586Y-95144212D01*
X143250000Y-95151935D01*
X144600000Y-95150000D01*
X144700000Y-95050000D01*
X144700000Y-93050000D01*
X144800000Y-93050000D01*
X144800000Y-95050000D01*
X144900000Y-95150000D01*
X146250000Y-95151935D01*
X146328414Y-95144212D01*
X146403814Y-95121340D01*
X146473303Y-95084197D01*
X146534211Y-95034211D01*
X146584197Y-94973303D01*
X146621340Y-94903814D01*
X146644212Y-94828414D01*
X146651935Y-94750000D01*
X146650000Y-93150000D01*
X146550000Y-93050000D01*
X144800000Y-93050000D01*
X144700000Y-93050000D01*
X142950000Y-93050000D01*
X142850000Y-93150000D01*
X142848065Y-94750000D01*
X141200000Y-94750000D01*
X141200000Y-91250000D01*
X142848065Y-91250000D01*
X142850000Y-92850000D01*
X142950000Y-92950000D01*
X144700000Y-92950000D01*
X144700000Y-90950000D01*
X144800000Y-90950000D01*
X144800000Y-92950000D01*
X146550000Y-92950000D01*
X146650000Y-92850000D01*
X146651935Y-91250000D01*
X146644212Y-91171586D01*
X146621340Y-91096186D01*
X146584197Y-91026697D01*
X146534211Y-90965789D01*
X146473303Y-90915803D01*
X146403814Y-90878660D01*
X146328414Y-90855788D01*
X146250000Y-90848065D01*
X144900000Y-90850000D01*
X144800000Y-90950000D01*
X144700000Y-90950000D01*
X144600000Y-90850000D01*
X143250000Y-90848065D01*
X143171586Y-90855788D01*
X143096186Y-90878660D01*
X143026697Y-90915803D01*
X142965789Y-90965789D01*
X142915803Y-91026697D01*
X142878660Y-91096186D01*
X142855788Y-91171586D01*
X142848065Y-91250000D01*
X141200000Y-91250000D01*
X141200000Y-72001600D01*
X142348065Y-72001600D01*
X142348065Y-73701600D01*
X142355788Y-73780014D01*
X142378660Y-73855414D01*
X142415803Y-73924903D01*
X142465789Y-73985811D01*
X142526697Y-74035797D01*
X142596186Y-74072940D01*
X142671586Y-74095812D01*
X142750000Y-74103535D01*
X144450000Y-74103535D01*
X144528414Y-74095812D01*
X144603814Y-74072940D01*
X144673303Y-74035797D01*
X144734211Y-73985811D01*
X144784197Y-73924903D01*
X144821340Y-73855414D01*
X144844212Y-73780014D01*
X144851935Y-73701600D01*
X144851935Y-72728486D01*
X144890000Y-72728486D01*
X144890000Y-72974714D01*
X144938037Y-73216211D01*
X145032265Y-73443697D01*
X145169062Y-73648428D01*
X145240001Y-73719367D01*
X145240000Y-83654206D01*
X145240001Y-83654216D01*
X145240000Y-88345793D01*
X145235646Y-88390000D01*
X145240000Y-88434206D01*
X145253023Y-88566430D01*
X145304486Y-88736080D01*
X145388057Y-88892431D01*
X145500525Y-89029475D01*
X145534865Y-89057657D01*
X146269862Y-89792655D01*
X146269867Y-89792659D01*
X147519862Y-91042655D01*
X147519868Y-91042660D01*
X148598065Y-92120857D01*
X148598065Y-94750000D01*
X148605788Y-94828414D01*
X148628660Y-94903814D01*
X148665803Y-94973303D01*
X148715789Y-95034211D01*
X148776697Y-95084197D01*
X148846186Y-95121340D01*
X148921586Y-95144212D01*
X149000000Y-95151935D01*
X152194829Y-95151935D01*
X153379080Y-96336187D01*
X153394736Y-96355264D01*
X153470871Y-96417746D01*
X153557733Y-96464175D01*
X153651983Y-96492765D01*
X153750000Y-96502419D01*
X153774560Y-96500000D01*
X161975440Y-96500000D01*
X162000000Y-96502419D01*
X162024560Y-96500000D01*
X162098017Y-96492765D01*
X162192267Y-96464175D01*
X162279129Y-96417746D01*
X162355264Y-96355264D01*
X162370929Y-96336176D01*
X165257106Y-93450000D01*
X165318944Y-93450000D01*
X165454182Y-93423099D01*
X165581574Y-93370332D01*
X165696224Y-93293726D01*
X165793726Y-93196224D01*
X165870332Y-93081574D01*
X165915908Y-92971543D01*
X168690546Y-95746181D01*
X168706207Y-95765264D01*
X168782342Y-95827746D01*
X168869204Y-95874175D01*
X168963454Y-95902765D01*
X169036911Y-95910000D01*
X169036912Y-95910000D01*
X169061470Y-95912419D01*
X169086028Y-95910000D01*
X169104117Y-95910000D01*
X169142265Y-96002097D01*
X169279062Y-96206828D01*
X169453172Y-96380938D01*
X169657903Y-96517735D01*
X169885389Y-96611963D01*
X170126886Y-96660000D01*
X170373114Y-96660000D01*
X170614611Y-96611963D01*
X170842097Y-96517735D01*
X171046828Y-96380938D01*
X171220938Y-96206828D01*
X171357735Y-96002097D01*
X171451963Y-95774611D01*
X171500000Y-95533114D01*
X171500000Y-95286886D01*
X171451963Y-95045389D01*
X171357735Y-94817903D01*
X171220938Y-94613172D01*
X171046828Y-94439062D01*
X170842097Y-94302265D01*
X170614611Y-94208037D01*
X170373114Y-94160000D01*
X170126886Y-94160000D01*
X169885389Y-94208037D01*
X169657903Y-94302265D01*
X169453172Y-94439062D01*
X169279062Y-94613172D01*
X169155970Y-94797393D01*
X167728577Y-93370000D01*
X169104117Y-93370000D01*
X169142265Y-93462097D01*
X169279062Y-93666828D01*
X169453172Y-93840938D01*
X169657903Y-93977735D01*
X169885389Y-94071963D01*
X170126886Y-94120000D01*
X170373114Y-94120000D01*
X170614611Y-94071963D01*
X170842097Y-93977735D01*
X171046828Y-93840938D01*
X171220938Y-93666828D01*
X171357735Y-93462097D01*
X171451963Y-93234611D01*
X171500000Y-92993114D01*
X171500000Y-92746886D01*
X171451963Y-92505389D01*
X171357735Y-92277903D01*
X171220938Y-92073172D01*
X171046828Y-91899062D01*
X170842097Y-91762265D01*
X170614611Y-91668037D01*
X170373114Y-91620000D01*
X170126886Y-91620000D01*
X169885389Y-91668037D01*
X169657903Y-91762265D01*
X169453172Y-91899062D01*
X169279062Y-92073172D01*
X169142265Y-92277903D01*
X169104117Y-92370000D01*
X167577107Y-92370000D01*
X165413993Y-90206886D01*
X169000000Y-90206886D01*
X169000000Y-90453114D01*
X169048037Y-90694611D01*
X169142265Y-90922097D01*
X169279062Y-91126828D01*
X169453172Y-91300938D01*
X169657903Y-91437735D01*
X169885389Y-91531963D01*
X170126886Y-91580000D01*
X170373114Y-91580000D01*
X170614611Y-91531963D01*
X170842097Y-91437735D01*
X171046828Y-91300938D01*
X171220938Y-91126828D01*
X171357735Y-90922097D01*
X171451963Y-90694611D01*
X171500000Y-90453114D01*
X171500000Y-90206886D01*
X171451963Y-89965389D01*
X171357735Y-89737903D01*
X171220938Y-89533172D01*
X171046828Y-89359062D01*
X170842097Y-89222265D01*
X170614611Y-89128037D01*
X170373114Y-89080000D01*
X170126886Y-89080000D01*
X169885389Y-89128037D01*
X169657903Y-89222265D01*
X169453172Y-89359062D01*
X169279062Y-89533172D01*
X169142265Y-89737903D01*
X169048037Y-89965389D01*
X169000000Y-90206886D01*
X165413993Y-90206886D01*
X162873993Y-87666886D01*
X169000000Y-87666886D01*
X169000000Y-87913114D01*
X169048037Y-88154611D01*
X169142265Y-88382097D01*
X169279062Y-88586828D01*
X169453172Y-88760938D01*
X169657903Y-88897735D01*
X169885389Y-88991963D01*
X170126886Y-89040000D01*
X170373114Y-89040000D01*
X170614611Y-88991963D01*
X170842097Y-88897735D01*
X171046828Y-88760938D01*
X171220938Y-88586828D01*
X171357735Y-88382097D01*
X171451963Y-88154611D01*
X171500000Y-87913114D01*
X171500000Y-87666886D01*
X171451963Y-87425389D01*
X171357735Y-87197903D01*
X171220938Y-86993172D01*
X171046828Y-86819062D01*
X170842097Y-86682265D01*
X170614611Y-86588037D01*
X170373114Y-86540000D01*
X170126886Y-86540000D01*
X169885389Y-86588037D01*
X169657903Y-86682265D01*
X169453172Y-86819062D01*
X169279062Y-86993172D01*
X169142265Y-87197903D01*
X169048037Y-87425389D01*
X169000000Y-87666886D01*
X162873993Y-87666886D01*
X161307106Y-86100000D01*
X168998065Y-86100000D01*
X169005788Y-86178414D01*
X169028660Y-86253814D01*
X169065803Y-86323303D01*
X169115789Y-86384211D01*
X169176697Y-86434197D01*
X169246186Y-86471340D01*
X169321586Y-86494212D01*
X169400000Y-86501935D01*
X170100000Y-86500000D01*
X170200000Y-86400000D01*
X170200000Y-85300000D01*
X170300000Y-85300000D01*
X170300000Y-86400000D01*
X170400000Y-86500000D01*
X171100000Y-86501935D01*
X171178414Y-86494212D01*
X171253814Y-86471340D01*
X171323303Y-86434197D01*
X171384211Y-86384211D01*
X171434197Y-86323303D01*
X171471340Y-86253814D01*
X171494212Y-86178414D01*
X171501935Y-86100000D01*
X171500000Y-85400000D01*
X171400000Y-85300000D01*
X170300000Y-85300000D01*
X170200000Y-85300000D01*
X169100000Y-85300000D01*
X169000000Y-85400000D01*
X168998065Y-86100000D01*
X161307106Y-86100000D01*
X158200000Y-82992895D01*
X158200000Y-82931056D01*
X158173099Y-82795818D01*
X158120332Y-82668426D01*
X158043726Y-82553776D01*
X157946224Y-82456274D01*
X157831574Y-82379668D01*
X157704182Y-82326901D01*
X157568944Y-82300000D01*
X157431056Y-82300000D01*
X157295818Y-82326901D01*
X157168426Y-82379668D01*
X157053776Y-82456274D01*
X156956274Y-82553776D01*
X156879668Y-82668426D01*
X156826901Y-82795818D01*
X156800000Y-82931056D01*
X156800000Y-83068944D01*
X156826901Y-83204182D01*
X156879668Y-83331574D01*
X156921364Y-83393977D01*
X156855405Y-83492692D01*
X156802638Y-83620084D01*
X156775737Y-83755322D01*
X156775737Y-83893210D01*
X156802638Y-84028448D01*
X156855405Y-84155840D01*
X156932011Y-84270490D01*
X157029513Y-84367992D01*
X157144163Y-84444598D01*
X157271555Y-84497365D01*
X157406793Y-84524266D01*
X157468632Y-84524266D01*
X160028458Y-87084092D01*
X159918426Y-87129668D01*
X159803776Y-87206274D01*
X159706274Y-87303776D01*
X159629668Y-87418426D01*
X159576901Y-87545818D01*
X159550000Y-87681056D01*
X159550000Y-87781216D01*
X159535826Y-87807733D01*
X159507235Y-87901983D01*
X159497581Y-88000000D01*
X159500001Y-88024570D01*
X159500000Y-94010050D01*
X159456274Y-94053776D01*
X159379668Y-94168426D01*
X159326901Y-94295818D01*
X159300000Y-94431056D01*
X159300000Y-94568944D01*
X159326901Y-94704182D01*
X159379668Y-94831574D01*
X159456274Y-94946224D01*
X159553776Y-95043726D01*
X159668426Y-95120332D01*
X159795818Y-95173099D01*
X159931056Y-95200000D01*
X160068944Y-95200000D01*
X160204182Y-95173099D01*
X160331574Y-95120332D01*
X160446224Y-95043726D01*
X160543726Y-94946224D01*
X160620332Y-94831574D01*
X160673099Y-94704182D01*
X160700000Y-94568944D01*
X160700000Y-94431056D01*
X160673099Y-94295818D01*
X160620332Y-94168426D01*
X160543726Y-94053776D01*
X160500000Y-94010050D01*
X160500000Y-88404121D01*
X160581574Y-88370332D01*
X160696224Y-88293726D01*
X160793726Y-88196224D01*
X160870332Y-88081574D01*
X160915908Y-87971542D01*
X165028457Y-92084092D01*
X164918426Y-92129668D01*
X164803776Y-92206274D01*
X164706274Y-92303776D01*
X164629668Y-92418426D01*
X164576901Y-92545818D01*
X164550000Y-92681056D01*
X164550000Y-92742894D01*
X161792895Y-95500000D01*
X153957107Y-95500000D01*
X152901935Y-94444829D01*
X152901935Y-91250000D01*
X152894212Y-91171586D01*
X152871340Y-91096186D01*
X152834197Y-91026697D01*
X152784211Y-90965789D01*
X152723303Y-90915803D01*
X152653814Y-90878660D01*
X152578414Y-90855788D01*
X152500000Y-90848065D01*
X149870857Y-90848065D01*
X148971015Y-89948223D01*
X150379280Y-88539958D01*
X150483351Y-88519257D01*
X150628942Y-88458951D01*
X150759970Y-88371401D01*
X150871401Y-88259970D01*
X150958951Y-88128942D01*
X151019257Y-87983351D01*
X151050000Y-87828793D01*
X151050000Y-87671207D01*
X151019257Y-87516649D01*
X150958951Y-87371058D01*
X150871401Y-87240030D01*
X150759970Y-87128599D01*
X150628942Y-87041049D01*
X150483351Y-86980743D01*
X150328793Y-86950000D01*
X150171207Y-86950000D01*
X150016649Y-86980743D01*
X149871058Y-87041049D01*
X149740030Y-87128599D01*
X149628599Y-87240030D01*
X149541049Y-87371058D01*
X149480743Y-87516649D01*
X149460042Y-87620720D01*
X148051777Y-89028985D01*
X147542659Y-88519867D01*
X147542655Y-88519862D01*
X147040000Y-88017208D01*
X147040000Y-86840856D01*
X151550000Y-86840856D01*
X151550000Y-86978744D01*
X151576901Y-87113982D01*
X151629668Y-87241374D01*
X151706274Y-87356024D01*
X151750001Y-87399751D01*
X151750000Y-88225440D01*
X151747581Y-88250000D01*
X151750000Y-88274559D01*
X151757235Y-88348016D01*
X151785825Y-88442266D01*
X151832254Y-88529129D01*
X151894736Y-88605264D01*
X151913823Y-88620929D01*
X152050000Y-88757106D01*
X152050000Y-88818944D01*
X152076901Y-88954182D01*
X152129668Y-89081574D01*
X152206274Y-89196224D01*
X152303776Y-89293726D01*
X152418426Y-89370332D01*
X152545818Y-89423099D01*
X152681056Y-89450000D01*
X152818944Y-89450000D01*
X152954182Y-89423099D01*
X153081574Y-89370332D01*
X153196224Y-89293726D01*
X153293726Y-89196224D01*
X153370332Y-89081574D01*
X153423099Y-88954182D01*
X153450000Y-88818944D01*
X153450000Y-88681056D01*
X153423099Y-88545818D01*
X153370332Y-88418426D01*
X153293726Y-88303776D01*
X153196224Y-88206274D01*
X153081574Y-88129668D01*
X152954182Y-88076901D01*
X152818944Y-88050000D01*
X152757106Y-88050000D01*
X152750000Y-88042894D01*
X152750000Y-87399750D01*
X152793726Y-87356024D01*
X152870332Y-87241374D01*
X152923099Y-87113982D01*
X152950000Y-86978744D01*
X152950000Y-86840856D01*
X152923099Y-86705618D01*
X152870332Y-86578226D01*
X152793726Y-86463576D01*
X152696224Y-86366074D01*
X152581574Y-86289468D01*
X152454182Y-86236701D01*
X152318944Y-86209800D01*
X152181056Y-86209800D01*
X152045818Y-86236701D01*
X151918426Y-86289468D01*
X151803776Y-86366074D01*
X151706274Y-86463576D01*
X151629668Y-86578226D01*
X151576901Y-86705618D01*
X151550000Y-86840856D01*
X147040000Y-86840856D01*
X147040000Y-84110000D01*
X147865440Y-84110000D01*
X147890000Y-84112419D01*
X147914560Y-84110000D01*
X147988017Y-84102765D01*
X148082267Y-84074175D01*
X148169129Y-84027746D01*
X148245264Y-83965264D01*
X148257791Y-83950000D01*
X148318944Y-83950000D01*
X148454182Y-83923099D01*
X148581574Y-83870332D01*
X148696224Y-83793726D01*
X148793726Y-83696224D01*
X148870332Y-83581574D01*
X148923099Y-83454182D01*
X148950000Y-83318944D01*
X148950000Y-83181056D01*
X148923099Y-83045818D01*
X148870332Y-82918426D01*
X148793726Y-82803776D01*
X148696224Y-82706274D01*
X148581574Y-82629668D01*
X148454182Y-82576901D01*
X148318944Y-82550000D01*
X148181056Y-82550000D01*
X148045818Y-82576901D01*
X147918426Y-82629668D01*
X147803776Y-82706274D01*
X147706274Y-82803776D01*
X147629668Y-82918426D01*
X147576901Y-83045818D01*
X147564134Y-83110000D01*
X147040000Y-83110000D01*
X147040000Y-73719366D01*
X147110938Y-73648428D01*
X147247735Y-73443697D01*
X147341963Y-73216211D01*
X147365800Y-73096371D01*
X147454197Y-73096371D01*
X147525503Y-73330810D01*
X147641176Y-73546833D01*
X147796770Y-73736139D01*
X147986306Y-73891452D01*
X148202500Y-74006805D01*
X148435229Y-74077401D01*
X148630000Y-74000513D01*
X148630000Y-72901600D01*
X148730000Y-72901600D01*
X148730000Y-74000513D01*
X148924771Y-74077401D01*
X149157500Y-74006805D01*
X149373694Y-73891452D01*
X149563230Y-73736139D01*
X149718824Y-73546833D01*
X149834497Y-73330810D01*
X149843868Y-73300000D01*
X158750000Y-73300000D01*
X158750000Y-73575000D01*
X158778969Y-73769130D01*
X158845254Y-73953878D01*
X158946308Y-74122144D01*
X159078248Y-74267463D01*
X159236003Y-74384249D01*
X159413510Y-74468015D01*
X159544377Y-74503631D01*
X159700000Y-74423610D01*
X159700000Y-73300000D01*
X158750000Y-73300000D01*
X149843868Y-73300000D01*
X149905803Y-73096371D01*
X149829002Y-72901600D01*
X148730000Y-72901600D01*
X148630000Y-72901600D01*
X147530998Y-72901600D01*
X147454197Y-73096371D01*
X147365800Y-73096371D01*
X147390000Y-72974714D01*
X147390000Y-72728486D01*
X147355549Y-72555290D01*
X147519844Y-72390994D01*
X147454197Y-72606829D01*
X147530998Y-72801600D01*
X148630000Y-72801600D01*
X148630000Y-72781600D01*
X148730000Y-72781600D01*
X148730000Y-72801600D01*
X149829002Y-72801600D01*
X149905803Y-72606829D01*
X149834497Y-72372390D01*
X149743044Y-72201599D01*
X159120039Y-72201599D01*
X159078248Y-72232537D01*
X158946308Y-72377856D01*
X158845254Y-72546122D01*
X158778969Y-72730870D01*
X158750000Y-72925000D01*
X158750000Y-73200000D01*
X159700000Y-73200000D01*
X159700000Y-73180000D01*
X159800000Y-73180000D01*
X159800000Y-73200000D01*
X160750000Y-73200000D01*
X160750000Y-73300000D01*
X159800000Y-73300000D01*
X159800000Y-74423610D01*
X159955623Y-74503631D01*
X160086490Y-74468015D01*
X160263997Y-74384249D01*
X160421752Y-74267463D01*
X160553692Y-74122144D01*
X160654746Y-73953878D01*
X160721031Y-73769130D01*
X160750000Y-73575000D01*
X160750000Y-73574120D01*
X160764470Y-73721033D01*
X160821651Y-73909534D01*
X160914508Y-74083258D01*
X161039472Y-74235528D01*
X161191742Y-74360492D01*
X161250001Y-74391632D01*
X161250000Y-75792893D01*
X153590555Y-83452340D01*
X153578793Y-83450000D01*
X153421207Y-83450000D01*
X153266649Y-83480743D01*
X153121058Y-83541049D01*
X152990030Y-83628599D01*
X152878599Y-83740030D01*
X152791049Y-83871058D01*
X152730743Y-84016649D01*
X152700000Y-84171207D01*
X152700000Y-84310679D01*
X152633780Y-84297507D01*
X152476194Y-84297507D01*
X152321636Y-84328250D01*
X152176045Y-84388556D01*
X152045017Y-84476106D01*
X151933586Y-84587537D01*
X151846036Y-84718565D01*
X151785730Y-84864156D01*
X151754987Y-85018714D01*
X151754987Y-85176300D01*
X151785730Y-85330858D01*
X151846036Y-85476449D01*
X151933586Y-85607477D01*
X152045017Y-85718908D01*
X152176045Y-85806458D01*
X152321636Y-85866764D01*
X152476194Y-85897507D01*
X152633780Y-85897507D01*
X152788338Y-85866764D01*
X152933929Y-85806458D01*
X153064957Y-85718908D01*
X153176388Y-85607477D01*
X153183050Y-85597507D01*
X153663935Y-85597507D01*
X153688495Y-85599926D01*
X153713055Y-85597507D01*
X153786512Y-85590272D01*
X153880762Y-85561682D01*
X153967624Y-85515253D01*
X154043759Y-85452771D01*
X154059424Y-85433683D01*
X157562051Y-81931056D01*
X157800000Y-81931056D01*
X157800000Y-82068944D01*
X157826901Y-82204182D01*
X157879668Y-82331574D01*
X157956274Y-82446224D01*
X158053776Y-82543726D01*
X158168426Y-82620332D01*
X158295818Y-82673099D01*
X158431056Y-82700000D01*
X158492895Y-82700000D01*
X160629075Y-84836181D01*
X160644736Y-84855264D01*
X160720871Y-84917746D01*
X160807733Y-84964175D01*
X160901983Y-84992765D01*
X161000000Y-85002419D01*
X161024560Y-85000000D01*
X161510050Y-85000000D01*
X161553776Y-85043726D01*
X161668426Y-85120332D01*
X161795818Y-85173099D01*
X161931056Y-85200000D01*
X162068944Y-85200000D01*
X162204182Y-85173099D01*
X162331574Y-85120332D01*
X162446224Y-85043726D01*
X162489950Y-85000000D01*
X166445640Y-85000000D01*
X166470200Y-85002419D01*
X166494760Y-85000000D01*
X166568217Y-84992765D01*
X166662467Y-84964175D01*
X166749329Y-84917746D01*
X166825464Y-84855264D01*
X166841129Y-84836176D01*
X167277305Y-84400000D01*
X168998065Y-84400000D01*
X169000000Y-85100000D01*
X169100000Y-85200000D01*
X170200000Y-85200000D01*
X170200000Y-84100000D01*
X170300000Y-84100000D01*
X170300000Y-85200000D01*
X171400000Y-85200000D01*
X171500000Y-85100000D01*
X171501935Y-84400000D01*
X171494212Y-84321586D01*
X171471340Y-84246186D01*
X171434197Y-84176697D01*
X171384211Y-84115789D01*
X171323303Y-84065803D01*
X171253814Y-84028660D01*
X171178414Y-84005788D01*
X171100000Y-83998065D01*
X170400000Y-84000000D01*
X170300000Y-84100000D01*
X170200000Y-84100000D01*
X170100000Y-84000000D01*
X169400000Y-83998065D01*
X169321586Y-84005788D01*
X169246186Y-84028660D01*
X169176697Y-84065803D01*
X169115789Y-84115789D01*
X169065803Y-84176697D01*
X169028660Y-84246186D01*
X169005788Y-84321586D01*
X168998065Y-84400000D01*
X167277305Y-84400000D01*
X169889492Y-81787815D01*
X169981589Y-81825963D01*
X170223086Y-81874000D01*
X170469314Y-81874000D01*
X170710811Y-81825963D01*
X170938297Y-81731735D01*
X171143028Y-81594938D01*
X171317138Y-81420828D01*
X171453935Y-81216097D01*
X171548163Y-80988611D01*
X171596200Y-80747114D01*
X171596200Y-80500886D01*
X171548163Y-80259389D01*
X171453935Y-80031903D01*
X171317138Y-79827172D01*
X171143028Y-79653062D01*
X170938297Y-79516265D01*
X170710811Y-79422037D01*
X170469314Y-79374000D01*
X170223086Y-79374000D01*
X169981589Y-79422037D01*
X169754103Y-79516265D01*
X169549372Y-79653062D01*
X169375262Y-79827172D01*
X169238465Y-80031903D01*
X169144237Y-80259389D01*
X169096200Y-80500886D01*
X169096200Y-80747114D01*
X169144237Y-80988611D01*
X169182385Y-81080708D01*
X166263095Y-84000000D01*
X162489950Y-84000000D01*
X162446224Y-83956274D01*
X162331574Y-83879668D01*
X162204182Y-83826901D01*
X162068944Y-83800000D01*
X161931056Y-83800000D01*
X161795818Y-83826901D01*
X161668426Y-83879668D01*
X161553776Y-83956274D01*
X161510050Y-84000000D01*
X161207106Y-84000000D01*
X159200000Y-81992895D01*
X159200000Y-81931056D01*
X159173099Y-81795818D01*
X159120332Y-81668426D01*
X159043726Y-81553776D01*
X158946224Y-81456274D01*
X158831574Y-81379668D01*
X158704182Y-81326901D01*
X158568944Y-81300000D01*
X158431056Y-81300000D01*
X158295818Y-81326901D01*
X158168426Y-81379668D01*
X158053776Y-81456274D01*
X157956274Y-81553776D01*
X157879668Y-81668426D01*
X157826901Y-81795818D01*
X157800000Y-81931056D01*
X157562051Y-81931056D01*
X159719107Y-79774000D01*
X164014265Y-79774000D01*
X164014265Y-81474000D01*
X164021988Y-81552414D01*
X164044860Y-81627814D01*
X164082003Y-81697303D01*
X164131989Y-81758211D01*
X164192897Y-81808197D01*
X164262386Y-81845340D01*
X164337786Y-81868212D01*
X164416200Y-81875935D01*
X166116200Y-81875935D01*
X166194614Y-81868212D01*
X166270014Y-81845340D01*
X166339503Y-81808197D01*
X166400411Y-81758211D01*
X166450397Y-81697303D01*
X166487540Y-81627814D01*
X166510412Y-81552414D01*
X166518135Y-81474000D01*
X166518135Y-80500886D01*
X166556200Y-80500886D01*
X166556200Y-80747114D01*
X166604237Y-80988611D01*
X166698465Y-81216097D01*
X166835262Y-81420828D01*
X167009372Y-81594938D01*
X167214103Y-81731735D01*
X167441589Y-81825963D01*
X167683086Y-81874000D01*
X167929314Y-81874000D01*
X168170811Y-81825963D01*
X168398297Y-81731735D01*
X168603028Y-81594938D01*
X168777138Y-81420828D01*
X168913935Y-81216097D01*
X169008163Y-80988611D01*
X169056200Y-80747114D01*
X169056200Y-80500886D01*
X169008163Y-80259389D01*
X168913935Y-80031903D01*
X168777138Y-79827172D01*
X168603028Y-79653062D01*
X168398297Y-79516265D01*
X168170811Y-79422037D01*
X167929314Y-79374000D01*
X167683086Y-79374000D01*
X167441589Y-79422037D01*
X167214103Y-79516265D01*
X167009372Y-79653062D01*
X166835262Y-79827172D01*
X166698465Y-80031903D01*
X166604237Y-80259389D01*
X166556200Y-80500886D01*
X166518135Y-80500886D01*
X166518135Y-79774000D01*
X166510412Y-79695586D01*
X166487540Y-79620186D01*
X166450397Y-79550697D01*
X166400411Y-79489789D01*
X166339503Y-79439803D01*
X166270014Y-79402660D01*
X166194614Y-79379788D01*
X166116200Y-79372065D01*
X164416200Y-79372065D01*
X164337786Y-79379788D01*
X164262386Y-79402660D01*
X164192897Y-79439803D01*
X164131989Y-79489789D01*
X164082003Y-79550697D01*
X164044860Y-79620186D01*
X164021988Y-79695586D01*
X164014265Y-79774000D01*
X159719107Y-79774000D01*
X164086187Y-75406922D01*
X164105264Y-75391266D01*
X164167746Y-75315131D01*
X164214175Y-75228269D01*
X164242765Y-75134019D01*
X164250000Y-75060562D01*
X164250000Y-75060561D01*
X164252419Y-75036002D01*
X164250000Y-75011442D01*
X164250000Y-74391631D01*
X164308258Y-74360492D01*
X164460528Y-74235528D01*
X164585492Y-74083258D01*
X164678349Y-73909535D01*
X164735530Y-73721034D01*
X164750000Y-73574120D01*
X164764470Y-73721033D01*
X164821651Y-73909534D01*
X164914508Y-74083258D01*
X165039472Y-74235528D01*
X165100001Y-74285202D01*
X165100000Y-75480761D01*
X164829157Y-75751605D01*
X164804358Y-75771957D01*
X164784005Y-75796757D01*
X164784002Y-75796760D01*
X164723130Y-75870932D01*
X164662773Y-75983853D01*
X164625606Y-76106378D01*
X164613056Y-76233800D01*
X164616201Y-76265731D01*
X164616201Y-77014954D01*
X164469372Y-77113062D01*
X164295262Y-77287172D01*
X164158465Y-77491903D01*
X164064237Y-77719389D01*
X164016200Y-77960886D01*
X164016200Y-78207114D01*
X164064237Y-78448611D01*
X164158465Y-78676097D01*
X164295262Y-78880828D01*
X164469372Y-79054938D01*
X164674103Y-79191735D01*
X164901589Y-79285963D01*
X165143086Y-79334000D01*
X165389314Y-79334000D01*
X165630811Y-79285963D01*
X165858297Y-79191735D01*
X166063028Y-79054938D01*
X166237138Y-78880828D01*
X166373935Y-78676097D01*
X166468163Y-78448611D01*
X166516200Y-78207114D01*
X166516200Y-77960886D01*
X166556200Y-77960886D01*
X166556200Y-78207114D01*
X166604237Y-78448611D01*
X166698465Y-78676097D01*
X166835262Y-78880828D01*
X167009372Y-79054938D01*
X167214103Y-79191735D01*
X167441589Y-79285963D01*
X167683086Y-79334000D01*
X167929314Y-79334000D01*
X168170811Y-79285963D01*
X168398297Y-79191735D01*
X168603028Y-79054938D01*
X168777138Y-78880828D01*
X168913935Y-78676097D01*
X169008163Y-78448611D01*
X169032000Y-78328771D01*
X169120397Y-78328771D01*
X169191703Y-78563210D01*
X169307376Y-78779233D01*
X169462970Y-78968539D01*
X169652506Y-79123852D01*
X169868700Y-79239205D01*
X170101429Y-79309801D01*
X170296200Y-79232913D01*
X170296200Y-78134000D01*
X170396200Y-78134000D01*
X170396200Y-79232913D01*
X170590971Y-79309801D01*
X170823700Y-79239205D01*
X171039894Y-79123852D01*
X171229430Y-78968539D01*
X171385024Y-78779233D01*
X171500697Y-78563210D01*
X171572003Y-78328771D01*
X171495202Y-78134000D01*
X170396200Y-78134000D01*
X170296200Y-78134000D01*
X169197198Y-78134000D01*
X169120397Y-78328771D01*
X169032000Y-78328771D01*
X169056200Y-78207114D01*
X169056200Y-77960886D01*
X169032001Y-77839229D01*
X169120397Y-77839229D01*
X169197198Y-78034000D01*
X170296200Y-78034000D01*
X170296200Y-76935087D01*
X170396200Y-76935087D01*
X170396200Y-78034000D01*
X171495202Y-78034000D01*
X171572003Y-77839229D01*
X171500697Y-77604790D01*
X171385024Y-77388767D01*
X171229430Y-77199461D01*
X171039894Y-77044148D01*
X170823700Y-76928795D01*
X170590971Y-76858199D01*
X170396200Y-76935087D01*
X170296200Y-76935087D01*
X170101429Y-76858199D01*
X169868700Y-76928795D01*
X169652506Y-77044148D01*
X169462970Y-77199461D01*
X169307376Y-77388767D01*
X169191703Y-77604790D01*
X169120397Y-77839229D01*
X169032001Y-77839229D01*
X169008163Y-77719389D01*
X168913935Y-77491903D01*
X168777138Y-77287172D01*
X168603028Y-77113062D01*
X168398297Y-76976265D01*
X168170811Y-76882037D01*
X167929314Y-76834000D01*
X167683086Y-76834000D01*
X167441589Y-76882037D01*
X167214103Y-76976265D01*
X167009372Y-77113062D01*
X166835262Y-77287172D01*
X166698465Y-77491903D01*
X166604237Y-77719389D01*
X166556200Y-77960886D01*
X166516200Y-77960886D01*
X166468163Y-77719389D01*
X166373935Y-77491903D01*
X166237138Y-77287172D01*
X166063028Y-77113062D01*
X165916200Y-77014955D01*
X165916200Y-76503038D01*
X166187044Y-76232195D01*
X166211843Y-76211843D01*
X166232196Y-76187043D01*
X166232199Y-76187040D01*
X166293070Y-76112868D01*
X166353427Y-75999948D01*
X166390595Y-75877422D01*
X166391234Y-75870932D01*
X166400000Y-75781932D01*
X166400000Y-75781924D01*
X166403144Y-75750000D01*
X166400000Y-75718076D01*
X166400000Y-74285202D01*
X166460528Y-74235528D01*
X166585492Y-74083258D01*
X166678349Y-73909535D01*
X166735530Y-73721034D01*
X166750000Y-73574120D01*
X166764470Y-73721033D01*
X166821651Y-73909534D01*
X166914508Y-74083258D01*
X167039472Y-74235528D01*
X167191742Y-74360492D01*
X167365465Y-74453349D01*
X167553966Y-74510530D01*
X167750000Y-74529838D01*
X167946033Y-74510530D01*
X168134534Y-74453349D01*
X168308258Y-74360492D01*
X168460528Y-74235528D01*
X168585492Y-74083258D01*
X168678349Y-73909535D01*
X168735530Y-73721034D01*
X168748065Y-73593766D01*
X168748065Y-73875001D01*
X168760592Y-74002187D01*
X168797691Y-74124485D01*
X168857936Y-74237196D01*
X168939012Y-74335988D01*
X169037804Y-74417064D01*
X169150515Y-74477309D01*
X169272813Y-74514408D01*
X169399999Y-74526935D01*
X170100001Y-74526935D01*
X170227187Y-74514408D01*
X170349485Y-74477309D01*
X170462196Y-74417064D01*
X170560988Y-74335988D01*
X170642064Y-74237196D01*
X170702309Y-74124485D01*
X170739408Y-74002187D01*
X170751935Y-73875001D01*
X170751935Y-72624999D01*
X170739408Y-72497813D01*
X170702309Y-72375515D01*
X170642064Y-72262804D01*
X170560988Y-72164012D01*
X170462196Y-72082936D01*
X170349485Y-72022691D01*
X170227187Y-71985592D01*
X170100001Y-71973065D01*
X169399999Y-71973065D01*
X169272813Y-71985592D01*
X169150515Y-72022691D01*
X169037804Y-72082936D01*
X168939012Y-72164012D01*
X168857936Y-72262804D01*
X168797691Y-72375515D01*
X168760592Y-72497813D01*
X168748065Y-72624999D01*
X168748065Y-72906235D01*
X168735530Y-72778967D01*
X168678349Y-72590465D01*
X168585492Y-72416742D01*
X168460528Y-72264472D01*
X168308258Y-72139508D01*
X168134535Y-72046651D01*
X167946034Y-71989470D01*
X167750000Y-71970162D01*
X167553967Y-71989470D01*
X167365466Y-72046651D01*
X167191743Y-72139508D01*
X167039473Y-72264472D01*
X166914509Y-72416742D01*
X166821651Y-72590465D01*
X166764470Y-72778966D01*
X166750000Y-72925880D01*
X166735530Y-72778967D01*
X166678349Y-72590465D01*
X166585492Y-72416742D01*
X166460528Y-72264472D01*
X166308258Y-72139508D01*
X166134535Y-72046651D01*
X165946034Y-71989470D01*
X165750000Y-71970162D01*
X165553967Y-71989470D01*
X165442516Y-72023278D01*
X164533799Y-71114561D01*
X164513442Y-71089756D01*
X164414467Y-71008529D01*
X164301547Y-70948172D01*
X164179021Y-70911004D01*
X164083531Y-70901599D01*
X164083520Y-70901599D01*
X164051599Y-70898455D01*
X164019678Y-70901599D01*
X147471922Y-70901599D01*
X147440000Y-70898455D01*
X147408079Y-70901599D01*
X147408069Y-70901599D01*
X147312579Y-70911004D01*
X147190053Y-70948172D01*
X147077133Y-71008529D01*
X147077131Y-71008530D01*
X147077132Y-71008530D01*
X147002960Y-71069401D01*
X147002958Y-71069403D01*
X146978158Y-71089756D01*
X146957805Y-71114556D01*
X146436310Y-71636051D01*
X146263114Y-71601600D01*
X146016886Y-71601600D01*
X145775389Y-71649637D01*
X145547903Y-71743865D01*
X145343172Y-71880662D01*
X145169062Y-72054772D01*
X145032265Y-72259503D01*
X144938037Y-72486989D01*
X144890000Y-72728486D01*
X144851935Y-72728486D01*
X144851935Y-72001600D01*
X144844212Y-71923186D01*
X144821340Y-71847786D01*
X144784197Y-71778297D01*
X144734211Y-71717389D01*
X144673303Y-71667403D01*
X144603814Y-71630260D01*
X144528414Y-71607388D01*
X144450000Y-71599665D01*
X142750000Y-71599665D01*
X142671586Y-71607388D01*
X142596186Y-71630260D01*
X142526697Y-71667403D01*
X142465789Y-71717389D01*
X142415803Y-71778297D01*
X142378660Y-71847786D01*
X142355788Y-71923186D01*
X142348065Y-72001600D01*
X141200000Y-72001600D01*
X141200000Y-71272006D01*
X141231636Y-70949358D01*
X141318950Y-70660161D01*
X141460770Y-70393437D01*
X141651701Y-70159334D01*
X141884457Y-69966781D01*
X142150189Y-69823101D01*
X142438760Y-69733773D01*
X142760088Y-69700000D01*
X170477994Y-69700000D01*
X170800642Y-69731636D01*
%TA.AperFunction,Conductor*%
D19*
G36*
X170800642Y-69731636D02*
G01*
X171089839Y-69818950D01*
X171356563Y-69960770D01*
X171590666Y-70151701D01*
X171783219Y-70384457D01*
X171926899Y-70650189D01*
X172016227Y-70938760D01*
X172050001Y-71260098D01*
X172050000Y-98977994D01*
X172018364Y-99300642D01*
X171931050Y-99589839D01*
X171789230Y-99856563D01*
X171598303Y-100090662D01*
X171365544Y-100283219D01*
X171099812Y-100426899D01*
X170811238Y-100516227D01*
X170489912Y-100550000D01*
X142772006Y-100550000D01*
X142449358Y-100518364D01*
X142160161Y-100431050D01*
X141893437Y-100289230D01*
X141659338Y-100098303D01*
X141466781Y-99865544D01*
X141323101Y-99599812D01*
X141233773Y-99311238D01*
X141200000Y-98989912D01*
X141200000Y-96825000D01*
X145598065Y-96825000D01*
X145598065Y-98575000D01*
X145622601Y-98824118D01*
X145695266Y-99063662D01*
X145813267Y-99284427D01*
X145972071Y-99477929D01*
X146165573Y-99636733D01*
X146386338Y-99754734D01*
X146625882Y-99827399D01*
X146875000Y-99851935D01*
X148625000Y-99851935D01*
X148874118Y-99827399D01*
X149113662Y-99754734D01*
X149334427Y-99636733D01*
X149527929Y-99477929D01*
X149686733Y-99284427D01*
X149804734Y-99063662D01*
X149877399Y-98824118D01*
X149901935Y-98575000D01*
X149901935Y-97826886D01*
X169000000Y-97826886D01*
X169000000Y-98073114D01*
X169048037Y-98314611D01*
X169142265Y-98542097D01*
X169279062Y-98746828D01*
X169453172Y-98920938D01*
X169657903Y-99057735D01*
X169885389Y-99151963D01*
X170126886Y-99200000D01*
X170373114Y-99200000D01*
X170614611Y-99151963D01*
X170842097Y-99057735D01*
X171046828Y-98920938D01*
X171220938Y-98746828D01*
X171357735Y-98542097D01*
X171451963Y-98314611D01*
X171500000Y-98073114D01*
X171500000Y-97826886D01*
X171451963Y-97585389D01*
X171357735Y-97357903D01*
X171220938Y-97153172D01*
X171046828Y-96979062D01*
X170842097Y-96842265D01*
X170614611Y-96748037D01*
X170373114Y-96700000D01*
X170126886Y-96700000D01*
X169885389Y-96748037D01*
X169657903Y-96842265D01*
X169453172Y-96979062D01*
X169279062Y-97153172D01*
X169142265Y-97357903D01*
X169048037Y-97585389D01*
X169000000Y-97826886D01*
X149901935Y-97826886D01*
X149901935Y-96825000D01*
X149877399Y-96575882D01*
X149804734Y-96336338D01*
X149686733Y-96115573D01*
X149527929Y-95922071D01*
X149334427Y-95763267D01*
X149113662Y-95645266D01*
X148874118Y-95572601D01*
X148625000Y-95548065D01*
X146875000Y-95548065D01*
X146625882Y-95572601D01*
X146386338Y-95645266D01*
X146165573Y-95763267D01*
X145972071Y-95922071D01*
X145813267Y-96115573D01*
X145695266Y-96336338D01*
X145622601Y-96575882D01*
X145598065Y-96825000D01*
X141200000Y-96825000D01*
X141200000Y-94750000D01*
X142848065Y-94750000D01*
X142855788Y-94828414D01*
X142878660Y-94903814D01*
X142915803Y-94973303D01*
X142965789Y-95034211D01*
X143026697Y-95084197D01*
X143096186Y-95121340D01*
X143171586Y-95144212D01*
X143250000Y-95151935D01*
X144600000Y-95150000D01*
X144700000Y-95050000D01*
X144700000Y-93050000D01*
X144800000Y-93050000D01*
X144800000Y-95050000D01*
X144900000Y-95150000D01*
X146250000Y-95151935D01*
X146328414Y-95144212D01*
X146403814Y-95121340D01*
X146473303Y-95084197D01*
X146534211Y-95034211D01*
X146584197Y-94973303D01*
X146621340Y-94903814D01*
X146644212Y-94828414D01*
X146651935Y-94750000D01*
X146650000Y-93150000D01*
X146550000Y-93050000D01*
X144800000Y-93050000D01*
X144700000Y-93050000D01*
X142950000Y-93050000D01*
X142850000Y-93150000D01*
X142848065Y-94750000D01*
X141200000Y-94750000D01*
X141200000Y-91250000D01*
X142848065Y-91250000D01*
X142850000Y-92850000D01*
X142950000Y-92950000D01*
X144700000Y-92950000D01*
X144700000Y-90950000D01*
X144800000Y-90950000D01*
X144800000Y-92950000D01*
X146550000Y-92950000D01*
X146650000Y-92850000D01*
X146651935Y-91250000D01*
X146644212Y-91171586D01*
X146621340Y-91096186D01*
X146584197Y-91026697D01*
X146534211Y-90965789D01*
X146473303Y-90915803D01*
X146403814Y-90878660D01*
X146328414Y-90855788D01*
X146250000Y-90848065D01*
X144900000Y-90850000D01*
X144800000Y-90950000D01*
X144700000Y-90950000D01*
X144600000Y-90850000D01*
X143250000Y-90848065D01*
X143171586Y-90855788D01*
X143096186Y-90878660D01*
X143026697Y-90915803D01*
X142965789Y-90965789D01*
X142915803Y-91026697D01*
X142878660Y-91096186D01*
X142855788Y-91171586D01*
X142848065Y-91250000D01*
X141200000Y-91250000D01*
X141200000Y-72001600D01*
X142348065Y-72001600D01*
X142348065Y-73701600D01*
X142355788Y-73780014D01*
X142378660Y-73855414D01*
X142415803Y-73924903D01*
X142465789Y-73985811D01*
X142526697Y-74035797D01*
X142596186Y-74072940D01*
X142671586Y-74095812D01*
X142750000Y-74103535D01*
X144450000Y-74103535D01*
X144528414Y-74095812D01*
X144603814Y-74072940D01*
X144673303Y-74035797D01*
X144734211Y-73985811D01*
X144784197Y-73924903D01*
X144821340Y-73855414D01*
X144844212Y-73780014D01*
X144851935Y-73701600D01*
X144851935Y-72728486D01*
X144890000Y-72728486D01*
X144890000Y-72974714D01*
X144938037Y-73216211D01*
X145032265Y-73443697D01*
X145169062Y-73648428D01*
X145240001Y-73719367D01*
X145240000Y-83654206D01*
X145240001Y-83654216D01*
X145240000Y-88345793D01*
X145235646Y-88390000D01*
X145240000Y-88434206D01*
X145253023Y-88566430D01*
X145304486Y-88736080D01*
X145388057Y-88892431D01*
X145500525Y-89029475D01*
X145534865Y-89057657D01*
X146269862Y-89792655D01*
X146269867Y-89792659D01*
X147519862Y-91042655D01*
X147519868Y-91042660D01*
X148598065Y-92120857D01*
X148598065Y-94750000D01*
X148605788Y-94828414D01*
X148628660Y-94903814D01*
X148665803Y-94973303D01*
X148715789Y-95034211D01*
X148776697Y-95084197D01*
X148846186Y-95121340D01*
X148921586Y-95144212D01*
X149000000Y-95151935D01*
X152194829Y-95151935D01*
X153379080Y-96336187D01*
X153394736Y-96355264D01*
X153470871Y-96417746D01*
X153557733Y-96464175D01*
X153651983Y-96492765D01*
X153750000Y-96502419D01*
X153774560Y-96500000D01*
X161975440Y-96500000D01*
X162000000Y-96502419D01*
X162024560Y-96500000D01*
X162098017Y-96492765D01*
X162192267Y-96464175D01*
X162279129Y-96417746D01*
X162355264Y-96355264D01*
X162370929Y-96336176D01*
X165257106Y-93450000D01*
X165318944Y-93450000D01*
X165454182Y-93423099D01*
X165581574Y-93370332D01*
X165696224Y-93293726D01*
X165793726Y-93196224D01*
X165870332Y-93081574D01*
X165915908Y-92971543D01*
X168690546Y-95746181D01*
X168706207Y-95765264D01*
X168782342Y-95827746D01*
X168869204Y-95874175D01*
X168963454Y-95902765D01*
X169036911Y-95910000D01*
X169036912Y-95910000D01*
X169061470Y-95912419D01*
X169086028Y-95910000D01*
X169104117Y-95910000D01*
X169142265Y-96002097D01*
X169279062Y-96206828D01*
X169453172Y-96380938D01*
X169657903Y-96517735D01*
X169885389Y-96611963D01*
X170126886Y-96660000D01*
X170373114Y-96660000D01*
X170614611Y-96611963D01*
X170842097Y-96517735D01*
X171046828Y-96380938D01*
X171220938Y-96206828D01*
X171357735Y-96002097D01*
X171451963Y-95774611D01*
X171500000Y-95533114D01*
X171500000Y-95286886D01*
X171451963Y-95045389D01*
X171357735Y-94817903D01*
X171220938Y-94613172D01*
X171046828Y-94439062D01*
X170842097Y-94302265D01*
X170614611Y-94208037D01*
X170373114Y-94160000D01*
X170126886Y-94160000D01*
X169885389Y-94208037D01*
X169657903Y-94302265D01*
X169453172Y-94439062D01*
X169279062Y-94613172D01*
X169155970Y-94797393D01*
X167728577Y-93370000D01*
X169104117Y-93370000D01*
X169142265Y-93462097D01*
X169279062Y-93666828D01*
X169453172Y-93840938D01*
X169657903Y-93977735D01*
X169885389Y-94071963D01*
X170126886Y-94120000D01*
X170373114Y-94120000D01*
X170614611Y-94071963D01*
X170842097Y-93977735D01*
X171046828Y-93840938D01*
X171220938Y-93666828D01*
X171357735Y-93462097D01*
X171451963Y-93234611D01*
X171500000Y-92993114D01*
X171500000Y-92746886D01*
X171451963Y-92505389D01*
X171357735Y-92277903D01*
X171220938Y-92073172D01*
X171046828Y-91899062D01*
X170842097Y-91762265D01*
X170614611Y-91668037D01*
X170373114Y-91620000D01*
X170126886Y-91620000D01*
X169885389Y-91668037D01*
X169657903Y-91762265D01*
X169453172Y-91899062D01*
X169279062Y-92073172D01*
X169142265Y-92277903D01*
X169104117Y-92370000D01*
X167577107Y-92370000D01*
X165413993Y-90206886D01*
X169000000Y-90206886D01*
X169000000Y-90453114D01*
X169048037Y-90694611D01*
X169142265Y-90922097D01*
X169279062Y-91126828D01*
X169453172Y-91300938D01*
X169657903Y-91437735D01*
X169885389Y-91531963D01*
X170126886Y-91580000D01*
X170373114Y-91580000D01*
X170614611Y-91531963D01*
X170842097Y-91437735D01*
X171046828Y-91300938D01*
X171220938Y-91126828D01*
X171357735Y-90922097D01*
X171451963Y-90694611D01*
X171500000Y-90453114D01*
X171500000Y-90206886D01*
X171451963Y-89965389D01*
X171357735Y-89737903D01*
X171220938Y-89533172D01*
X171046828Y-89359062D01*
X170842097Y-89222265D01*
X170614611Y-89128037D01*
X170373114Y-89080000D01*
X170126886Y-89080000D01*
X169885389Y-89128037D01*
X169657903Y-89222265D01*
X169453172Y-89359062D01*
X169279062Y-89533172D01*
X169142265Y-89737903D01*
X169048037Y-89965389D01*
X169000000Y-90206886D01*
X165413993Y-90206886D01*
X162873993Y-87666886D01*
X169000000Y-87666886D01*
X169000000Y-87913114D01*
X169048037Y-88154611D01*
X169142265Y-88382097D01*
X169279062Y-88586828D01*
X169453172Y-88760938D01*
X169657903Y-88897735D01*
X169885389Y-88991963D01*
X170126886Y-89040000D01*
X170373114Y-89040000D01*
X170614611Y-88991963D01*
X170842097Y-88897735D01*
X171046828Y-88760938D01*
X171220938Y-88586828D01*
X171357735Y-88382097D01*
X171451963Y-88154611D01*
X171500000Y-87913114D01*
X171500000Y-87666886D01*
X171451963Y-87425389D01*
X171357735Y-87197903D01*
X171220938Y-86993172D01*
X171046828Y-86819062D01*
X170842097Y-86682265D01*
X170614611Y-86588037D01*
X170373114Y-86540000D01*
X170126886Y-86540000D01*
X169885389Y-86588037D01*
X169657903Y-86682265D01*
X169453172Y-86819062D01*
X169279062Y-86993172D01*
X169142265Y-87197903D01*
X169048037Y-87425389D01*
X169000000Y-87666886D01*
X162873993Y-87666886D01*
X161307106Y-86100000D01*
X168998065Y-86100000D01*
X169005788Y-86178414D01*
X169028660Y-86253814D01*
X169065803Y-86323303D01*
X169115789Y-86384211D01*
X169176697Y-86434197D01*
X169246186Y-86471340D01*
X169321586Y-86494212D01*
X169400000Y-86501935D01*
X170100000Y-86500000D01*
X170200000Y-86400000D01*
X170200000Y-85300000D01*
X170300000Y-85300000D01*
X170300000Y-86400000D01*
X170400000Y-86500000D01*
X171100000Y-86501935D01*
X171178414Y-86494212D01*
X171253814Y-86471340D01*
X171323303Y-86434197D01*
X171384211Y-86384211D01*
X171434197Y-86323303D01*
X171471340Y-86253814D01*
X171494212Y-86178414D01*
X171501935Y-86100000D01*
X171500000Y-85400000D01*
X171400000Y-85300000D01*
X170300000Y-85300000D01*
X170200000Y-85300000D01*
X169100000Y-85300000D01*
X169000000Y-85400000D01*
X168998065Y-86100000D01*
X161307106Y-86100000D01*
X158200000Y-82992895D01*
X158200000Y-82931056D01*
X158173099Y-82795818D01*
X158120332Y-82668426D01*
X158043726Y-82553776D01*
X157946224Y-82456274D01*
X157831574Y-82379668D01*
X157704182Y-82326901D01*
X157568944Y-82300000D01*
X157431056Y-82300000D01*
X157295818Y-82326901D01*
X157168426Y-82379668D01*
X157053776Y-82456274D01*
X156956274Y-82553776D01*
X156879668Y-82668426D01*
X156826901Y-82795818D01*
X156800000Y-82931056D01*
X156800000Y-83068944D01*
X156826901Y-83204182D01*
X156879668Y-83331574D01*
X156921364Y-83393977D01*
X156855405Y-83492692D01*
X156802638Y-83620084D01*
X156775737Y-83755322D01*
X156775737Y-83893210D01*
X156802638Y-84028448D01*
X156855405Y-84155840D01*
X156932011Y-84270490D01*
X157029513Y-84367992D01*
X157144163Y-84444598D01*
X157271555Y-84497365D01*
X157406793Y-84524266D01*
X157468632Y-84524266D01*
X160028458Y-87084092D01*
X159918426Y-87129668D01*
X159803776Y-87206274D01*
X159706274Y-87303776D01*
X159629668Y-87418426D01*
X159576901Y-87545818D01*
X159550000Y-87681056D01*
X159550000Y-87781216D01*
X159535826Y-87807733D01*
X159507235Y-87901983D01*
X159497581Y-88000000D01*
X159500001Y-88024570D01*
X159500000Y-94010050D01*
X159456274Y-94053776D01*
X159379668Y-94168426D01*
X159326901Y-94295818D01*
X159300000Y-94431056D01*
X159300000Y-94568944D01*
X159326901Y-94704182D01*
X159379668Y-94831574D01*
X159456274Y-94946224D01*
X159553776Y-95043726D01*
X159668426Y-95120332D01*
X159795818Y-95173099D01*
X159931056Y-95200000D01*
X160068944Y-95200000D01*
X160204182Y-95173099D01*
X160331574Y-95120332D01*
X160446224Y-95043726D01*
X160543726Y-94946224D01*
X160620332Y-94831574D01*
X160673099Y-94704182D01*
X160700000Y-94568944D01*
X160700000Y-94431056D01*
X160673099Y-94295818D01*
X160620332Y-94168426D01*
X160543726Y-94053776D01*
X160500000Y-94010050D01*
X160500000Y-88404121D01*
X160581574Y-88370332D01*
X160696224Y-88293726D01*
X160793726Y-88196224D01*
X160870332Y-88081574D01*
X160915908Y-87971542D01*
X165028457Y-92084092D01*
X164918426Y-92129668D01*
X164803776Y-92206274D01*
X164706274Y-92303776D01*
X164629668Y-92418426D01*
X164576901Y-92545818D01*
X164550000Y-92681056D01*
X164550000Y-92742894D01*
X161792895Y-95500000D01*
X153957107Y-95500000D01*
X152901935Y-94444829D01*
X152901935Y-91250000D01*
X152894212Y-91171586D01*
X152871340Y-91096186D01*
X152834197Y-91026697D01*
X152784211Y-90965789D01*
X152723303Y-90915803D01*
X152653814Y-90878660D01*
X152578414Y-90855788D01*
X152500000Y-90848065D01*
X149870857Y-90848065D01*
X148971015Y-89948223D01*
X150379280Y-88539958D01*
X150483351Y-88519257D01*
X150628942Y-88458951D01*
X150759970Y-88371401D01*
X150871401Y-88259970D01*
X150958951Y-88128942D01*
X151019257Y-87983351D01*
X151050000Y-87828793D01*
X151050000Y-87671207D01*
X151019257Y-87516649D01*
X150958951Y-87371058D01*
X150871401Y-87240030D01*
X150759970Y-87128599D01*
X150628942Y-87041049D01*
X150483351Y-86980743D01*
X150328793Y-86950000D01*
X150171207Y-86950000D01*
X150016649Y-86980743D01*
X149871058Y-87041049D01*
X149740030Y-87128599D01*
X149628599Y-87240030D01*
X149541049Y-87371058D01*
X149480743Y-87516649D01*
X149460042Y-87620720D01*
X148051777Y-89028985D01*
X147542659Y-88519867D01*
X147542655Y-88519862D01*
X147040000Y-88017208D01*
X147040000Y-86840856D01*
X151550000Y-86840856D01*
X151550000Y-86978744D01*
X151576901Y-87113982D01*
X151629668Y-87241374D01*
X151706274Y-87356024D01*
X151750001Y-87399751D01*
X151750000Y-88225440D01*
X151747581Y-88250000D01*
X151750000Y-88274559D01*
X151757235Y-88348016D01*
X151785825Y-88442266D01*
X151832254Y-88529129D01*
X151894736Y-88605264D01*
X151913823Y-88620929D01*
X152050000Y-88757106D01*
X152050000Y-88818944D01*
X152076901Y-88954182D01*
X152129668Y-89081574D01*
X152206274Y-89196224D01*
X152303776Y-89293726D01*
X152418426Y-89370332D01*
X152545818Y-89423099D01*
X152681056Y-89450000D01*
X152818944Y-89450000D01*
X152954182Y-89423099D01*
X153081574Y-89370332D01*
X153196224Y-89293726D01*
X153293726Y-89196224D01*
X153370332Y-89081574D01*
X153423099Y-88954182D01*
X153450000Y-88818944D01*
X153450000Y-88681056D01*
X153423099Y-88545818D01*
X153370332Y-88418426D01*
X153293726Y-88303776D01*
X153196224Y-88206274D01*
X153081574Y-88129668D01*
X152954182Y-88076901D01*
X152818944Y-88050000D01*
X152757106Y-88050000D01*
X152750000Y-88042894D01*
X152750000Y-87399750D01*
X152793726Y-87356024D01*
X152870332Y-87241374D01*
X152923099Y-87113982D01*
X152950000Y-86978744D01*
X152950000Y-86840856D01*
X152923099Y-86705618D01*
X152870332Y-86578226D01*
X152793726Y-86463576D01*
X152696224Y-86366074D01*
X152581574Y-86289468D01*
X152454182Y-86236701D01*
X152318944Y-86209800D01*
X152181056Y-86209800D01*
X152045818Y-86236701D01*
X151918426Y-86289468D01*
X151803776Y-86366074D01*
X151706274Y-86463576D01*
X151629668Y-86578226D01*
X151576901Y-86705618D01*
X151550000Y-86840856D01*
X147040000Y-86840856D01*
X147040000Y-84110000D01*
X147865440Y-84110000D01*
X147890000Y-84112419D01*
X147914560Y-84110000D01*
X147988017Y-84102765D01*
X148082267Y-84074175D01*
X148169129Y-84027746D01*
X148245264Y-83965264D01*
X148257791Y-83950000D01*
X148318944Y-83950000D01*
X148454182Y-83923099D01*
X148581574Y-83870332D01*
X148696224Y-83793726D01*
X148793726Y-83696224D01*
X148870332Y-83581574D01*
X148923099Y-83454182D01*
X148950000Y-83318944D01*
X148950000Y-83181056D01*
X148923099Y-83045818D01*
X148870332Y-82918426D01*
X148793726Y-82803776D01*
X148696224Y-82706274D01*
X148581574Y-82629668D01*
X148454182Y-82576901D01*
X148318944Y-82550000D01*
X148181056Y-82550000D01*
X148045818Y-82576901D01*
X147918426Y-82629668D01*
X147803776Y-82706274D01*
X147706274Y-82803776D01*
X147629668Y-82918426D01*
X147576901Y-83045818D01*
X147564134Y-83110000D01*
X147040000Y-83110000D01*
X147040000Y-73719366D01*
X147110938Y-73648428D01*
X147247735Y-73443697D01*
X147341963Y-73216211D01*
X147365800Y-73096371D01*
X147454197Y-73096371D01*
X147525503Y-73330810D01*
X147641176Y-73546833D01*
X147796770Y-73736139D01*
X147986306Y-73891452D01*
X148202500Y-74006805D01*
X148435229Y-74077401D01*
X148630000Y-74000513D01*
X148630000Y-72901600D01*
X148730000Y-72901600D01*
X148730000Y-74000513D01*
X148924771Y-74077401D01*
X149157500Y-74006805D01*
X149373694Y-73891452D01*
X149563230Y-73736139D01*
X149718824Y-73546833D01*
X149834497Y-73330810D01*
X149843868Y-73300000D01*
X158750000Y-73300000D01*
X158750000Y-73575000D01*
X158778969Y-73769130D01*
X158845254Y-73953878D01*
X158946308Y-74122144D01*
X159078248Y-74267463D01*
X159236003Y-74384249D01*
X159413510Y-74468015D01*
X159544377Y-74503631D01*
X159700000Y-74423610D01*
X159700000Y-73300000D01*
X158750000Y-73300000D01*
X149843868Y-73300000D01*
X149905803Y-73096371D01*
X149829002Y-72901600D01*
X148730000Y-72901600D01*
X148630000Y-72901600D01*
X147530998Y-72901600D01*
X147454197Y-73096371D01*
X147365800Y-73096371D01*
X147390000Y-72974714D01*
X147390000Y-72728486D01*
X147355549Y-72555290D01*
X147519844Y-72390994D01*
X147454197Y-72606829D01*
X147530998Y-72801600D01*
X148630000Y-72801600D01*
X148630000Y-72781600D01*
X148730000Y-72781600D01*
X148730000Y-72801600D01*
X149829002Y-72801600D01*
X149905803Y-72606829D01*
X149834497Y-72372390D01*
X149743044Y-72201599D01*
X159120039Y-72201599D01*
X159078248Y-72232537D01*
X158946308Y-72377856D01*
X158845254Y-72546122D01*
X158778969Y-72730870D01*
X158750000Y-72925000D01*
X158750000Y-73200000D01*
X159700000Y-73200000D01*
X159700000Y-73180000D01*
X159800000Y-73180000D01*
X159800000Y-73200000D01*
X160750000Y-73200000D01*
X160750000Y-73300000D01*
X159800000Y-73300000D01*
X159800000Y-74423610D01*
X159955623Y-74503631D01*
X160086490Y-74468015D01*
X160263997Y-74384249D01*
X160421752Y-74267463D01*
X160553692Y-74122144D01*
X160654746Y-73953878D01*
X160721031Y-73769130D01*
X160750000Y-73575000D01*
X160750000Y-73574120D01*
X160764470Y-73721033D01*
X160821651Y-73909534D01*
X160914508Y-74083258D01*
X161039472Y-74235528D01*
X161191742Y-74360492D01*
X161250001Y-74391632D01*
X161250000Y-75792893D01*
X153590555Y-83452340D01*
X153578793Y-83450000D01*
X153421207Y-83450000D01*
X153266649Y-83480743D01*
X153121058Y-83541049D01*
X152990030Y-83628599D01*
X152878599Y-83740030D01*
X152791049Y-83871058D01*
X152730743Y-84016649D01*
X152700000Y-84171207D01*
X152700000Y-84310679D01*
X152633780Y-84297507D01*
X152476194Y-84297507D01*
X152321636Y-84328250D01*
X152176045Y-84388556D01*
X152045017Y-84476106D01*
X151933586Y-84587537D01*
X151846036Y-84718565D01*
X151785730Y-84864156D01*
X151754987Y-85018714D01*
X151754987Y-85176300D01*
X151785730Y-85330858D01*
X151846036Y-85476449D01*
X151933586Y-85607477D01*
X152045017Y-85718908D01*
X152176045Y-85806458D01*
X152321636Y-85866764D01*
X152476194Y-85897507D01*
X152633780Y-85897507D01*
X152788338Y-85866764D01*
X152933929Y-85806458D01*
X153064957Y-85718908D01*
X153176388Y-85607477D01*
X153183050Y-85597507D01*
X153663935Y-85597507D01*
X153688495Y-85599926D01*
X153713055Y-85597507D01*
X153786512Y-85590272D01*
X153880762Y-85561682D01*
X153967624Y-85515253D01*
X154043759Y-85452771D01*
X154059424Y-85433683D01*
X157562051Y-81931056D01*
X157800000Y-81931056D01*
X157800000Y-82068944D01*
X157826901Y-82204182D01*
X157879668Y-82331574D01*
X157956274Y-82446224D01*
X158053776Y-82543726D01*
X158168426Y-82620332D01*
X158295818Y-82673099D01*
X158431056Y-82700000D01*
X158492895Y-82700000D01*
X160629075Y-84836181D01*
X160644736Y-84855264D01*
X160720871Y-84917746D01*
X160807733Y-84964175D01*
X160901983Y-84992765D01*
X161000000Y-85002419D01*
X161024560Y-85000000D01*
X161510050Y-85000000D01*
X161553776Y-85043726D01*
X161668426Y-85120332D01*
X161795818Y-85173099D01*
X161931056Y-85200000D01*
X162068944Y-85200000D01*
X162204182Y-85173099D01*
X162331574Y-85120332D01*
X162446224Y-85043726D01*
X162489950Y-85000000D01*
X166445640Y-85000000D01*
X166470200Y-85002419D01*
X166494760Y-85000000D01*
X166568217Y-84992765D01*
X166662467Y-84964175D01*
X166749329Y-84917746D01*
X166825464Y-84855264D01*
X166841129Y-84836176D01*
X167277305Y-84400000D01*
X168998065Y-84400000D01*
X169000000Y-85100000D01*
X169100000Y-85200000D01*
X170200000Y-85200000D01*
X170200000Y-84100000D01*
X170300000Y-84100000D01*
X170300000Y-85200000D01*
X171400000Y-85200000D01*
X171500000Y-85100000D01*
X171501935Y-84400000D01*
X171494212Y-84321586D01*
X171471340Y-84246186D01*
X171434197Y-84176697D01*
X171384211Y-84115789D01*
X171323303Y-84065803D01*
X171253814Y-84028660D01*
X171178414Y-84005788D01*
X171100000Y-83998065D01*
X170400000Y-84000000D01*
X170300000Y-84100000D01*
X170200000Y-84100000D01*
X170100000Y-84000000D01*
X169400000Y-83998065D01*
X169321586Y-84005788D01*
X169246186Y-84028660D01*
X169176697Y-84065803D01*
X169115789Y-84115789D01*
X169065803Y-84176697D01*
X169028660Y-84246186D01*
X169005788Y-84321586D01*
X168998065Y-84400000D01*
X167277305Y-84400000D01*
X169889492Y-81787815D01*
X169981589Y-81825963D01*
X170223086Y-81874000D01*
X170469314Y-81874000D01*
X170710811Y-81825963D01*
X170938297Y-81731735D01*
X171143028Y-81594938D01*
X171317138Y-81420828D01*
X171453935Y-81216097D01*
X171548163Y-80988611D01*
X171596200Y-80747114D01*
X171596200Y-80500886D01*
X171548163Y-80259389D01*
X171453935Y-80031903D01*
X171317138Y-79827172D01*
X171143028Y-79653062D01*
X170938297Y-79516265D01*
X170710811Y-79422037D01*
X170469314Y-79374000D01*
X170223086Y-79374000D01*
X169981589Y-79422037D01*
X169754103Y-79516265D01*
X169549372Y-79653062D01*
X169375262Y-79827172D01*
X169238465Y-80031903D01*
X169144237Y-80259389D01*
X169096200Y-80500886D01*
X169096200Y-80747114D01*
X169144237Y-80988611D01*
X169182385Y-81080708D01*
X166263095Y-84000000D01*
X162489950Y-84000000D01*
X162446224Y-83956274D01*
X162331574Y-83879668D01*
X162204182Y-83826901D01*
X162068944Y-83800000D01*
X161931056Y-83800000D01*
X161795818Y-83826901D01*
X161668426Y-83879668D01*
X161553776Y-83956274D01*
X161510050Y-84000000D01*
X161207106Y-84000000D01*
X159200000Y-81992895D01*
X159200000Y-81931056D01*
X159173099Y-81795818D01*
X159120332Y-81668426D01*
X159043726Y-81553776D01*
X158946224Y-81456274D01*
X158831574Y-81379668D01*
X158704182Y-81326901D01*
X158568944Y-81300000D01*
X158431056Y-81300000D01*
X158295818Y-81326901D01*
X158168426Y-81379668D01*
X158053776Y-81456274D01*
X157956274Y-81553776D01*
X157879668Y-81668426D01*
X157826901Y-81795818D01*
X157800000Y-81931056D01*
X157562051Y-81931056D01*
X159719107Y-79774000D01*
X164014265Y-79774000D01*
X164014265Y-81474000D01*
X164021988Y-81552414D01*
X164044860Y-81627814D01*
X164082003Y-81697303D01*
X164131989Y-81758211D01*
X164192897Y-81808197D01*
X164262386Y-81845340D01*
X164337786Y-81868212D01*
X164416200Y-81875935D01*
X166116200Y-81875935D01*
X166194614Y-81868212D01*
X166270014Y-81845340D01*
X166339503Y-81808197D01*
X166400411Y-81758211D01*
X166450397Y-81697303D01*
X166487540Y-81627814D01*
X166510412Y-81552414D01*
X166518135Y-81474000D01*
X166518135Y-80500886D01*
X166556200Y-80500886D01*
X166556200Y-80747114D01*
X166604237Y-80988611D01*
X166698465Y-81216097D01*
X166835262Y-81420828D01*
X167009372Y-81594938D01*
X167214103Y-81731735D01*
X167441589Y-81825963D01*
X167683086Y-81874000D01*
X167929314Y-81874000D01*
X168170811Y-81825963D01*
X168398297Y-81731735D01*
X168603028Y-81594938D01*
X168777138Y-81420828D01*
X168913935Y-81216097D01*
X169008163Y-80988611D01*
X169056200Y-80747114D01*
X169056200Y-80500886D01*
X169008163Y-80259389D01*
X168913935Y-80031903D01*
X168777138Y-79827172D01*
X168603028Y-79653062D01*
X168398297Y-79516265D01*
X168170811Y-79422037D01*
X167929314Y-79374000D01*
X167683086Y-79374000D01*
X167441589Y-79422037D01*
X167214103Y-79516265D01*
X167009372Y-79653062D01*
X166835262Y-79827172D01*
X166698465Y-80031903D01*
X166604237Y-80259389D01*
X166556200Y-80500886D01*
X166518135Y-80500886D01*
X166518135Y-79774000D01*
X166510412Y-79695586D01*
X166487540Y-79620186D01*
X166450397Y-79550697D01*
X166400411Y-79489789D01*
X166339503Y-79439803D01*
X166270014Y-79402660D01*
X166194614Y-79379788D01*
X166116200Y-79372065D01*
X164416200Y-79372065D01*
X164337786Y-79379788D01*
X164262386Y-79402660D01*
X164192897Y-79439803D01*
X164131989Y-79489789D01*
X164082003Y-79550697D01*
X164044860Y-79620186D01*
X164021988Y-79695586D01*
X164014265Y-79774000D01*
X159719107Y-79774000D01*
X164086187Y-75406922D01*
X164105264Y-75391266D01*
X164167746Y-75315131D01*
X164214175Y-75228269D01*
X164242765Y-75134019D01*
X164250000Y-75060562D01*
X164250000Y-75060561D01*
X164252419Y-75036002D01*
X164250000Y-75011442D01*
X164250000Y-74391631D01*
X164308258Y-74360492D01*
X164460528Y-74235528D01*
X164585492Y-74083258D01*
X164678349Y-73909535D01*
X164735530Y-73721034D01*
X164750000Y-73574120D01*
X164764470Y-73721033D01*
X164821651Y-73909534D01*
X164914508Y-74083258D01*
X165039472Y-74235528D01*
X165100001Y-74285202D01*
X165100000Y-75480761D01*
X164829157Y-75751605D01*
X164804358Y-75771957D01*
X164784005Y-75796757D01*
X164784002Y-75796760D01*
X164723130Y-75870932D01*
X164662773Y-75983853D01*
X164625606Y-76106378D01*
X164613056Y-76233800D01*
X164616201Y-76265731D01*
X164616201Y-77014954D01*
X164469372Y-77113062D01*
X164295262Y-77287172D01*
X164158465Y-77491903D01*
X164064237Y-77719389D01*
X164016200Y-77960886D01*
X164016200Y-78207114D01*
X164064237Y-78448611D01*
X164158465Y-78676097D01*
X164295262Y-78880828D01*
X164469372Y-79054938D01*
X164674103Y-79191735D01*
X164901589Y-79285963D01*
X165143086Y-79334000D01*
X165389314Y-79334000D01*
X165630811Y-79285963D01*
X165858297Y-79191735D01*
X166063028Y-79054938D01*
X166237138Y-78880828D01*
X166373935Y-78676097D01*
X166468163Y-78448611D01*
X166516200Y-78207114D01*
X166516200Y-77960886D01*
X166556200Y-77960886D01*
X166556200Y-78207114D01*
X166604237Y-78448611D01*
X166698465Y-78676097D01*
X166835262Y-78880828D01*
X167009372Y-79054938D01*
X167214103Y-79191735D01*
X167441589Y-79285963D01*
X167683086Y-79334000D01*
X167929314Y-79334000D01*
X168170811Y-79285963D01*
X168398297Y-79191735D01*
X168603028Y-79054938D01*
X168777138Y-78880828D01*
X168913935Y-78676097D01*
X169008163Y-78448611D01*
X169032000Y-78328771D01*
X169120397Y-78328771D01*
X169191703Y-78563210D01*
X169307376Y-78779233D01*
X169462970Y-78968539D01*
X169652506Y-79123852D01*
X169868700Y-79239205D01*
X170101429Y-79309801D01*
X170296200Y-79232913D01*
X170296200Y-78134000D01*
X170396200Y-78134000D01*
X170396200Y-79232913D01*
X170590971Y-79309801D01*
X170823700Y-79239205D01*
X171039894Y-79123852D01*
X171229430Y-78968539D01*
X171385024Y-78779233D01*
X171500697Y-78563210D01*
X171572003Y-78328771D01*
X171495202Y-78134000D01*
X170396200Y-78134000D01*
X170296200Y-78134000D01*
X169197198Y-78134000D01*
X169120397Y-78328771D01*
X169032000Y-78328771D01*
X169056200Y-78207114D01*
X169056200Y-77960886D01*
X169032001Y-77839229D01*
X169120397Y-77839229D01*
X169197198Y-78034000D01*
X170296200Y-78034000D01*
X170296200Y-76935087D01*
X170396200Y-76935087D01*
X170396200Y-78034000D01*
X171495202Y-78034000D01*
X171572003Y-77839229D01*
X171500697Y-77604790D01*
X171385024Y-77388767D01*
X171229430Y-77199461D01*
X171039894Y-77044148D01*
X170823700Y-76928795D01*
X170590971Y-76858199D01*
X170396200Y-76935087D01*
X170296200Y-76935087D01*
X170101429Y-76858199D01*
X169868700Y-76928795D01*
X169652506Y-77044148D01*
X169462970Y-77199461D01*
X169307376Y-77388767D01*
X169191703Y-77604790D01*
X169120397Y-77839229D01*
X169032001Y-77839229D01*
X169008163Y-77719389D01*
X168913935Y-77491903D01*
X168777138Y-77287172D01*
X168603028Y-77113062D01*
X168398297Y-76976265D01*
X168170811Y-76882037D01*
X167929314Y-76834000D01*
X167683086Y-76834000D01*
X167441589Y-76882037D01*
X167214103Y-76976265D01*
X167009372Y-77113062D01*
X166835262Y-77287172D01*
X166698465Y-77491903D01*
X166604237Y-77719389D01*
X166556200Y-77960886D01*
X166516200Y-77960886D01*
X166468163Y-77719389D01*
X166373935Y-77491903D01*
X166237138Y-77287172D01*
X166063028Y-77113062D01*
X165916200Y-77014955D01*
X165916200Y-76503038D01*
X166187044Y-76232195D01*
X166211843Y-76211843D01*
X166232196Y-76187043D01*
X166232199Y-76187040D01*
X166293070Y-76112868D01*
X166353427Y-75999948D01*
X166390595Y-75877422D01*
X166391234Y-75870932D01*
X166400000Y-75781932D01*
X166400000Y-75781924D01*
X166403144Y-75750000D01*
X166400000Y-75718076D01*
X166400000Y-74285202D01*
X166460528Y-74235528D01*
X166585492Y-74083258D01*
X166678349Y-73909535D01*
X166735530Y-73721034D01*
X166750000Y-73574120D01*
X166764470Y-73721033D01*
X166821651Y-73909534D01*
X166914508Y-74083258D01*
X167039472Y-74235528D01*
X167191742Y-74360492D01*
X167365465Y-74453349D01*
X167553966Y-74510530D01*
X167750000Y-74529838D01*
X167946033Y-74510530D01*
X168134534Y-74453349D01*
X168308258Y-74360492D01*
X168460528Y-74235528D01*
X168585492Y-74083258D01*
X168678349Y-73909535D01*
X168735530Y-73721034D01*
X168748065Y-73593766D01*
X168748065Y-73875001D01*
X168760592Y-74002187D01*
X168797691Y-74124485D01*
X168857936Y-74237196D01*
X168939012Y-74335988D01*
X169037804Y-74417064D01*
X169150515Y-74477309D01*
X169272813Y-74514408D01*
X169399999Y-74526935D01*
X170100001Y-74526935D01*
X170227187Y-74514408D01*
X170349485Y-74477309D01*
X170462196Y-74417064D01*
X170560988Y-74335988D01*
X170642064Y-74237196D01*
X170702309Y-74124485D01*
X170739408Y-74002187D01*
X170751935Y-73875001D01*
X170751935Y-72624999D01*
X170739408Y-72497813D01*
X170702309Y-72375515D01*
X170642064Y-72262804D01*
X170560988Y-72164012D01*
X170462196Y-72082936D01*
X170349485Y-72022691D01*
X170227187Y-71985592D01*
X170100001Y-71973065D01*
X169399999Y-71973065D01*
X169272813Y-71985592D01*
X169150515Y-72022691D01*
X169037804Y-72082936D01*
X168939012Y-72164012D01*
X168857936Y-72262804D01*
X168797691Y-72375515D01*
X168760592Y-72497813D01*
X168748065Y-72624999D01*
X168748065Y-72906235D01*
X168735530Y-72778967D01*
X168678349Y-72590465D01*
X168585492Y-72416742D01*
X168460528Y-72264472D01*
X168308258Y-72139508D01*
X168134535Y-72046651D01*
X167946034Y-71989470D01*
X167750000Y-71970162D01*
X167553967Y-71989470D01*
X167365466Y-72046651D01*
X167191743Y-72139508D01*
X167039473Y-72264472D01*
X166914509Y-72416742D01*
X166821651Y-72590465D01*
X166764470Y-72778966D01*
X166750000Y-72925880D01*
X166735530Y-72778967D01*
X166678349Y-72590465D01*
X166585492Y-72416742D01*
X166460528Y-72264472D01*
X166308258Y-72139508D01*
X166134535Y-72046651D01*
X165946034Y-71989470D01*
X165750000Y-71970162D01*
X165553967Y-71989470D01*
X165442516Y-72023278D01*
X164533799Y-71114561D01*
X164513442Y-71089756D01*
X164414467Y-71008529D01*
X164301547Y-70948172D01*
X164179021Y-70911004D01*
X164083531Y-70901599D01*
X164083520Y-70901599D01*
X164051599Y-70898455D01*
X164019678Y-70901599D01*
X147471922Y-70901599D01*
X147440000Y-70898455D01*
X147408079Y-70901599D01*
X147408069Y-70901599D01*
X147312579Y-70911004D01*
X147190053Y-70948172D01*
X147077133Y-71008529D01*
X147077131Y-71008530D01*
X147077132Y-71008530D01*
X147002960Y-71069401D01*
X147002958Y-71069403D01*
X146978158Y-71089756D01*
X146957805Y-71114556D01*
X146436310Y-71636051D01*
X146263114Y-71601600D01*
X146016886Y-71601600D01*
X145775389Y-71649637D01*
X145547903Y-71743865D01*
X145343172Y-71880662D01*
X145169062Y-72054772D01*
X145032265Y-72259503D01*
X144938037Y-72486989D01*
X144890000Y-72728486D01*
X144851935Y-72728486D01*
X144851935Y-72001600D01*
X144844212Y-71923186D01*
X144821340Y-71847786D01*
X144784197Y-71778297D01*
X144734211Y-71717389D01*
X144673303Y-71667403D01*
X144603814Y-71630260D01*
X144528414Y-71607388D01*
X144450000Y-71599665D01*
X142750000Y-71599665D01*
X142671586Y-71607388D01*
X142596186Y-71630260D01*
X142526697Y-71667403D01*
X142465789Y-71717389D01*
X142415803Y-71778297D01*
X142378660Y-71847786D01*
X142355788Y-71923186D01*
X142348065Y-72001600D01*
X141200000Y-72001600D01*
X141200000Y-71272006D01*
X141231636Y-70949358D01*
X141318950Y-70660161D01*
X141460770Y-70393437D01*
X141651701Y-70159334D01*
X141884457Y-69966781D01*
X142150189Y-69823101D01*
X142438760Y-69733773D01*
X142760088Y-69700000D01*
X170477994Y-69700000D01*
X170800642Y-69731636D01*
G37*
%TD.AperFunction*%
M02*
