G04 #@! TF.GenerationSoftware,KiCad,Pcbnew,(5.1.12)-1*
G04 #@! TF.CreationDate,2022-01-11T22:34:17-08:00*
G04 #@! TF.ProjectId,controlBoard,636f6e74-726f-46c4-926f-6172642e6b69,rev?*
G04 #@! TF.SameCoordinates,Original*
G04 #@! TF.FileFunction,Copper,L2,Bot*
G04 #@! TF.FilePolarity,Positive*
%FSLAX46Y46*%
G04 Gerber Fmt 4.6, Leading zero omitted, Abs format (unit mm)*
G04 Created by KiCad (PCBNEW (5.1.12)-1) date 2022-01-11 22:34:17*
%MOMM*%
%LPD*%
G01*
G04 APERTURE LIST*
G04 #@! TA.AperFunction,SMDPad,CuDef*
%ADD10C,1.500000*%
G04 #@! TD*
G04 #@! TA.AperFunction,ComponentPad*
%ADD11O,1.700000X1.700000*%
G04 #@! TD*
G04 #@! TA.AperFunction,ComponentPad*
%ADD12R,1.700000X1.700000*%
G04 #@! TD*
G04 #@! TA.AperFunction,ComponentPad*
%ADD13R,3.500000X3.500000*%
G04 #@! TD*
G04 #@! TA.AperFunction,ComponentPad*
%ADD14O,1.200000X1.750000*%
G04 #@! TD*
G04 #@! TA.AperFunction,ViaPad*
%ADD15C,0.600000*%
G04 #@! TD*
G04 #@! TA.AperFunction,ViaPad*
%ADD16C,0.800000*%
G04 #@! TD*
G04 #@! TA.AperFunction,Conductor*
%ADD17C,0.200000*%
G04 #@! TD*
G04 #@! TA.AperFunction,Conductor*
%ADD18C,0.250000*%
G04 #@! TD*
G04 #@! TA.AperFunction,Conductor*
%ADD19C,0.100000*%
G04 #@! TD*
G04 APERTURE END LIST*
D10*
X166000000Y-73000000D03*
X160250000Y-81750000D03*
X156750000Y-81750000D03*
X148250000Y-72500000D03*
D11*
X176540000Y-79080000D03*
X174000000Y-79080000D03*
X176540000Y-76540000D03*
X174000000Y-76540000D03*
X176540000Y-74000000D03*
D12*
X174000000Y-74000000D03*
G04 #@! TA.AperFunction,ComponentPad*
G36*
G01*
X146000000Y-98575000D02*
X146000000Y-96825000D01*
G75*
G02*
X146875000Y-95950000I875000J0D01*
G01*
X148625000Y-95950000D01*
G75*
G02*
X149500000Y-96825000I0J-875000D01*
G01*
X149500000Y-98575000D01*
G75*
G02*
X148625000Y-99450000I-875000J0D01*
G01*
X146875000Y-99450000D01*
G75*
G02*
X146000000Y-98575000I0J875000D01*
G01*
G37*
G04 #@! TD.AperFunction*
G04 #@! TA.AperFunction,ComponentPad*
G36*
G01*
X143250000Y-94000000D02*
X143250000Y-92000000D01*
G75*
G02*
X144000000Y-91250000I750000J0D01*
G01*
X145500000Y-91250000D01*
G75*
G02*
X146250000Y-92000000I0J-750000D01*
G01*
X146250000Y-94000000D01*
G75*
G02*
X145500000Y-94750000I-750000J0D01*
G01*
X144000000Y-94750000D01*
G75*
G02*
X143250000Y-94000000I0J750000D01*
G01*
G37*
G04 #@! TD.AperFunction*
D13*
X150750000Y-93000000D03*
D14*
X175000000Y-68500000D03*
X173000000Y-68500000D03*
X171000000Y-68500000D03*
X169000000Y-68500000D03*
X167000000Y-68500000D03*
G04 #@! TA.AperFunction,ComponentPad*
G36*
G01*
X164400000Y-69125001D02*
X164400000Y-67874999D01*
G75*
G02*
X164649999Y-67625000I249999J0D01*
G01*
X165350001Y-67625000D01*
G75*
G02*
X165600000Y-67874999I0J-249999D01*
G01*
X165600000Y-69125001D01*
G75*
G02*
X165350001Y-69375000I-249999J0D01*
G01*
X164649999Y-69375000D01*
G75*
G02*
X164400000Y-69125001I0J249999D01*
G01*
G37*
G04 #@! TD.AperFunction*
D11*
X176250000Y-97950000D03*
X176250000Y-95410000D03*
X176250000Y-92870000D03*
X176250000Y-90330000D03*
X176250000Y-87790000D03*
D12*
X176250000Y-85250000D03*
D11*
X143170000Y-68250000D03*
X145710000Y-68250000D03*
D12*
X148250000Y-68250000D03*
D15*
X159350622Y-84810452D03*
X166400000Y-84000000D03*
X170250000Y-92250000D03*
X157578000Y-79622000D03*
X159600000Y-75625000D03*
X150000000Y-78600000D03*
X164400000Y-75200000D03*
X167600000Y-84000000D03*
X152600000Y-71800000D03*
X162200000Y-68200000D03*
X160600000Y-72800000D03*
X152800000Y-80000000D03*
X153000000Y-86600000D03*
D16*
X165250000Y-83750000D03*
X150250000Y-73250000D03*
X142000000Y-70500000D03*
D15*
X150000000Y-86250000D03*
X167750000Y-80200000D03*
X163800000Y-84200000D03*
X169200000Y-77800000D03*
X168500000Y-92250000D03*
X161400000Y-85600000D03*
X168200000Y-79400000D03*
X168600000Y-78600000D03*
X156300000Y-71450000D03*
X162800000Y-81800000D03*
X162200000Y-81200000D03*
X162376266Y-83376206D03*
X169200000Y-76600000D03*
X159712999Y-78712999D03*
X160500000Y-75500000D03*
X159700346Y-77700346D03*
D17*
X165589548Y-84810452D02*
X166400000Y-84000000D01*
X159350622Y-84810452D02*
X165589548Y-84810452D01*
X165589548Y-87589548D02*
X165589548Y-84810452D01*
D18*
X157578000Y-77647000D02*
X159600000Y-75625000D01*
X157578000Y-79622000D02*
X157578000Y-77647000D01*
D17*
X170250000Y-92250000D02*
X165589548Y-87589548D01*
X167400000Y-80200000D02*
X167750000Y-80200000D01*
X163800000Y-83800000D02*
X167400000Y-80200000D01*
X163800000Y-84200000D02*
X163800000Y-83800000D01*
X170480000Y-79080000D02*
X174000000Y-79080000D01*
X169200000Y-77800000D02*
X170480000Y-79080000D01*
X161850000Y-85600000D02*
X161800000Y-85600000D01*
X168500000Y-92250000D02*
X161850000Y-85600000D01*
X161800000Y-85600000D02*
X161400000Y-85600000D01*
X168800000Y-87960000D02*
X176250000Y-95410000D01*
X168800000Y-80000000D02*
X168800000Y-87960000D01*
X168200000Y-79400000D02*
X168800000Y-80000000D01*
X169600000Y-86220000D02*
X176250000Y-92870000D01*
X169600000Y-79600000D02*
X169600000Y-86220000D01*
X168600000Y-78600000D02*
X169600000Y-79600000D01*
X148250000Y-72500000D02*
X148250000Y-68250000D01*
X153100000Y-68250000D02*
X148250000Y-68250000D01*
X156300000Y-71450000D02*
X153100000Y-68250000D01*
X173000000Y-71600000D02*
X173000000Y-68500000D01*
X162800000Y-81800000D02*
X173000000Y-71600000D01*
X171000000Y-72400000D02*
X171000000Y-68500000D01*
X162200000Y-81200000D02*
X171000000Y-72400000D01*
X162376266Y-83376206D02*
X169152472Y-76600000D01*
X156750000Y-81675998D02*
X156750000Y-81750000D01*
X159712999Y-78712999D02*
X156750000Y-81675998D01*
D18*
X159700346Y-77700346D02*
X160250000Y-77150692D01*
X160250000Y-75750000D02*
X160500000Y-75500000D01*
X160250000Y-77150692D02*
X160250000Y-75750000D01*
D17*
X160999999Y-78999999D02*
X159700346Y-77700346D01*
X160999999Y-81000001D02*
X160999999Y-78999999D01*
X160250000Y-81750000D02*
X160999999Y-81000001D01*
X169000000Y-70000000D02*
X166000000Y-73000000D01*
X169000000Y-68500000D02*
X169000000Y-70000000D01*
X176550642Y-66481636D02*
X176839839Y-66568950D01*
X177106563Y-66710770D01*
X177340666Y-66901701D01*
X177533219Y-67134457D01*
X177676899Y-67400189D01*
X177766227Y-67688760D01*
X177800001Y-68010098D01*
X177800000Y-98977994D01*
X177768364Y-99300642D01*
X177681050Y-99589839D01*
X177539230Y-99856563D01*
X177348303Y-100090662D01*
X177115544Y-100283219D01*
X176849812Y-100426899D01*
X176561238Y-100516227D01*
X176239912Y-100550000D01*
X142772006Y-100550000D01*
X142449358Y-100518364D01*
X142160161Y-100431050D01*
X141893437Y-100289230D01*
X141659338Y-100098303D01*
X141466781Y-99865544D01*
X141323101Y-99599812D01*
X141233773Y-99311238D01*
X141200000Y-98989912D01*
X141200000Y-96825000D01*
X145598065Y-96825000D01*
X145598065Y-98575000D01*
X145622601Y-98824118D01*
X145695266Y-99063662D01*
X145813267Y-99284427D01*
X145972071Y-99477929D01*
X146165573Y-99636733D01*
X146386338Y-99754734D01*
X146625882Y-99827399D01*
X146875000Y-99851935D01*
X148625000Y-99851935D01*
X148874118Y-99827399D01*
X149113662Y-99754734D01*
X149334427Y-99636733D01*
X149527929Y-99477929D01*
X149686733Y-99284427D01*
X149804734Y-99063662D01*
X149877399Y-98824118D01*
X149901935Y-98575000D01*
X149901935Y-97826886D01*
X175000000Y-97826886D01*
X175000000Y-98073114D01*
X175048037Y-98314611D01*
X175142265Y-98542097D01*
X175279062Y-98746828D01*
X175453172Y-98920938D01*
X175657903Y-99057735D01*
X175885389Y-99151963D01*
X176126886Y-99200000D01*
X176373114Y-99200000D01*
X176614611Y-99151963D01*
X176842097Y-99057735D01*
X177046828Y-98920938D01*
X177220938Y-98746828D01*
X177357735Y-98542097D01*
X177451963Y-98314611D01*
X177500000Y-98073114D01*
X177500000Y-97826886D01*
X177451963Y-97585389D01*
X177357735Y-97357903D01*
X177220938Y-97153172D01*
X177046828Y-96979062D01*
X176842097Y-96842265D01*
X176614611Y-96748037D01*
X176373114Y-96700000D01*
X176126886Y-96700000D01*
X175885389Y-96748037D01*
X175657903Y-96842265D01*
X175453172Y-96979062D01*
X175279062Y-97153172D01*
X175142265Y-97357903D01*
X175048037Y-97585389D01*
X175000000Y-97826886D01*
X149901935Y-97826886D01*
X149901935Y-96825000D01*
X149877399Y-96575882D01*
X149804734Y-96336338D01*
X149686733Y-96115573D01*
X149527929Y-95922071D01*
X149334427Y-95763267D01*
X149113662Y-95645266D01*
X148874118Y-95572601D01*
X148625000Y-95548065D01*
X146875000Y-95548065D01*
X146625882Y-95572601D01*
X146386338Y-95645266D01*
X146165573Y-95763267D01*
X145972071Y-95922071D01*
X145813267Y-96115573D01*
X145695266Y-96336338D01*
X145622601Y-96575882D01*
X145598065Y-96825000D01*
X141200000Y-96825000D01*
X141200000Y-94750000D01*
X142848065Y-94750000D01*
X142855788Y-94828414D01*
X142878660Y-94903814D01*
X142915803Y-94973303D01*
X142965789Y-95034211D01*
X143026697Y-95084197D01*
X143096186Y-95121340D01*
X143171586Y-95144212D01*
X143250000Y-95151935D01*
X144600000Y-95150000D01*
X144700000Y-95050000D01*
X144700000Y-93050000D01*
X144800000Y-93050000D01*
X144800000Y-95050000D01*
X144900000Y-95150000D01*
X146250000Y-95151935D01*
X146328414Y-95144212D01*
X146403814Y-95121340D01*
X146473303Y-95084197D01*
X146534211Y-95034211D01*
X146584197Y-94973303D01*
X146621340Y-94903814D01*
X146644212Y-94828414D01*
X146651935Y-94750000D01*
X146650000Y-93150000D01*
X146550000Y-93050000D01*
X144800000Y-93050000D01*
X144700000Y-93050000D01*
X142950000Y-93050000D01*
X142850000Y-93150000D01*
X142848065Y-94750000D01*
X141200000Y-94750000D01*
X141200000Y-91250000D01*
X142848065Y-91250000D01*
X142850000Y-92850000D01*
X142950000Y-92950000D01*
X144700000Y-92950000D01*
X144700000Y-90950000D01*
X144800000Y-90950000D01*
X144800000Y-92950000D01*
X146550000Y-92950000D01*
X146650000Y-92850000D01*
X146651935Y-91250000D01*
X148598065Y-91250000D01*
X148598065Y-94750000D01*
X148605788Y-94828414D01*
X148628660Y-94903814D01*
X148665803Y-94973303D01*
X148715789Y-95034211D01*
X148776697Y-95084197D01*
X148846186Y-95121340D01*
X148921586Y-95144212D01*
X149000000Y-95151935D01*
X152500000Y-95151935D01*
X152578414Y-95144212D01*
X152653814Y-95121340D01*
X152723303Y-95084197D01*
X152784211Y-95034211D01*
X152834197Y-94973303D01*
X152871340Y-94903814D01*
X152894212Y-94828414D01*
X152901935Y-94750000D01*
X152901935Y-91250000D01*
X152894212Y-91171586D01*
X152871340Y-91096186D01*
X152834197Y-91026697D01*
X152784211Y-90965789D01*
X152723303Y-90915803D01*
X152653814Y-90878660D01*
X152578414Y-90855788D01*
X152500000Y-90848065D01*
X149000000Y-90848065D01*
X148921586Y-90855788D01*
X148846186Y-90878660D01*
X148776697Y-90915803D01*
X148715789Y-90965789D01*
X148665803Y-91026697D01*
X148628660Y-91096186D01*
X148605788Y-91171586D01*
X148598065Y-91250000D01*
X146651935Y-91250000D01*
X146644212Y-91171586D01*
X146621340Y-91096186D01*
X146584197Y-91026697D01*
X146534211Y-90965789D01*
X146473303Y-90915803D01*
X146403814Y-90878660D01*
X146328414Y-90855788D01*
X146250000Y-90848065D01*
X144900000Y-90850000D01*
X144800000Y-90950000D01*
X144700000Y-90950000D01*
X144600000Y-90850000D01*
X143250000Y-90848065D01*
X143171586Y-90855788D01*
X143096186Y-90878660D01*
X143026697Y-90915803D01*
X142965789Y-90965789D01*
X142915803Y-91026697D01*
X142878660Y-91096186D01*
X142855788Y-91171586D01*
X142848065Y-91250000D01*
X141200000Y-91250000D01*
X141200000Y-84741508D01*
X158650622Y-84741508D01*
X158650622Y-84879396D01*
X158677523Y-85014634D01*
X158730290Y-85142026D01*
X158806896Y-85256676D01*
X158904398Y-85354178D01*
X159019048Y-85430784D01*
X159146440Y-85483551D01*
X159281678Y-85510452D01*
X159419566Y-85510452D01*
X159554804Y-85483551D01*
X159682196Y-85430784D01*
X159796846Y-85354178D01*
X159840572Y-85310452D01*
X160762260Y-85310452D01*
X160726901Y-85395818D01*
X160700000Y-85531056D01*
X160700000Y-85668944D01*
X160726901Y-85804182D01*
X160779668Y-85931574D01*
X160856274Y-86046224D01*
X160953776Y-86143726D01*
X161068426Y-86220332D01*
X161195818Y-86273099D01*
X161331056Y-86300000D01*
X161468944Y-86300000D01*
X161604182Y-86273099D01*
X161731574Y-86220332D01*
X161750549Y-86207654D01*
X167800000Y-92257106D01*
X167800000Y-92318944D01*
X167826901Y-92454182D01*
X167879668Y-92581574D01*
X167956274Y-92696224D01*
X168053776Y-92793726D01*
X168168426Y-92870332D01*
X168295818Y-92923099D01*
X168431056Y-92950000D01*
X168568944Y-92950000D01*
X168704182Y-92923099D01*
X168831574Y-92870332D01*
X168946224Y-92793726D01*
X169043726Y-92696224D01*
X169120332Y-92581574D01*
X169173099Y-92454182D01*
X169200000Y-92318944D01*
X169200000Y-92181056D01*
X169173099Y-92045818D01*
X169120332Y-91918426D01*
X169043726Y-91803776D01*
X168946224Y-91706274D01*
X168831574Y-91629668D01*
X168704182Y-91576901D01*
X168568944Y-91550000D01*
X168507106Y-91550000D01*
X162267557Y-85310452D01*
X165089549Y-85310452D01*
X165089548Y-87564988D01*
X165087129Y-87589548D01*
X165089548Y-87614107D01*
X165096783Y-87687564D01*
X165125373Y-87781814D01*
X165171802Y-87868677D01*
X165234284Y-87944812D01*
X165253372Y-87960477D01*
X169550000Y-92257107D01*
X169550000Y-92318944D01*
X169576901Y-92454182D01*
X169629668Y-92581574D01*
X169706274Y-92696224D01*
X169803776Y-92793726D01*
X169918426Y-92870332D01*
X170045818Y-92923099D01*
X170181056Y-92950000D01*
X170318944Y-92950000D01*
X170454182Y-92923099D01*
X170581574Y-92870332D01*
X170696224Y-92793726D01*
X170793726Y-92696224D01*
X170870332Y-92581574D01*
X170923099Y-92454182D01*
X170950000Y-92318944D01*
X170950000Y-92181056D01*
X170923099Y-92045818D01*
X170870332Y-91918426D01*
X170793726Y-91803776D01*
X170696224Y-91706274D01*
X170581574Y-91629668D01*
X170454182Y-91576901D01*
X170318944Y-91550000D01*
X170257107Y-91550000D01*
X166089548Y-87382443D01*
X166089548Y-85017557D01*
X166407106Y-84700000D01*
X166468944Y-84700000D01*
X166604182Y-84673099D01*
X166731574Y-84620332D01*
X166846224Y-84543726D01*
X166943726Y-84446224D01*
X167020332Y-84331574D01*
X167073099Y-84204182D01*
X167100000Y-84068944D01*
X167100000Y-83931056D01*
X167073099Y-83795818D01*
X167020332Y-83668426D01*
X166943726Y-83553776D01*
X166846224Y-83456274D01*
X166731574Y-83379668D01*
X166604182Y-83326901D01*
X166468944Y-83300000D01*
X166331056Y-83300000D01*
X166195818Y-83326901D01*
X166068426Y-83379668D01*
X165953776Y-83456274D01*
X165856274Y-83553776D01*
X165779668Y-83668426D01*
X165726901Y-83795818D01*
X165700000Y-83931056D01*
X165700000Y-83992894D01*
X165382443Y-84310452D01*
X164491743Y-84310452D01*
X164500000Y-84268944D01*
X164500000Y-84131056D01*
X164473099Y-83995818D01*
X164425706Y-83881399D01*
X167466756Y-80840351D01*
X167545818Y-80873099D01*
X167681056Y-80900000D01*
X167818944Y-80900000D01*
X167954182Y-80873099D01*
X168081574Y-80820332D01*
X168196224Y-80743726D01*
X168293726Y-80646224D01*
X168300000Y-80636834D01*
X168300001Y-87935430D01*
X168297581Y-87960000D01*
X168307235Y-88058017D01*
X168317534Y-88091967D01*
X168335826Y-88152267D01*
X168382255Y-88239129D01*
X168444737Y-88315264D01*
X168463820Y-88330925D01*
X175086185Y-94953291D01*
X175048037Y-95045389D01*
X175000000Y-95286886D01*
X175000000Y-95533114D01*
X175048037Y-95774611D01*
X175142265Y-96002097D01*
X175279062Y-96206828D01*
X175453172Y-96380938D01*
X175657903Y-96517735D01*
X175885389Y-96611963D01*
X176126886Y-96660000D01*
X176373114Y-96660000D01*
X176614611Y-96611963D01*
X176842097Y-96517735D01*
X177046828Y-96380938D01*
X177220938Y-96206828D01*
X177357735Y-96002097D01*
X177451963Y-95774611D01*
X177500000Y-95533114D01*
X177500000Y-95286886D01*
X177451963Y-95045389D01*
X177357735Y-94817903D01*
X177220938Y-94613172D01*
X177046828Y-94439062D01*
X176842097Y-94302265D01*
X176614611Y-94208037D01*
X176373114Y-94160000D01*
X176126886Y-94160000D01*
X175885389Y-94208037D01*
X175793291Y-94246185D01*
X169300000Y-87752895D01*
X169300000Y-86627105D01*
X175086185Y-92413291D01*
X175048037Y-92505389D01*
X175000000Y-92746886D01*
X175000000Y-92993114D01*
X175048037Y-93234611D01*
X175142265Y-93462097D01*
X175279062Y-93666828D01*
X175453172Y-93840938D01*
X175657903Y-93977735D01*
X175885389Y-94071963D01*
X176126886Y-94120000D01*
X176373114Y-94120000D01*
X176614611Y-94071963D01*
X176842097Y-93977735D01*
X177046828Y-93840938D01*
X177220938Y-93666828D01*
X177357735Y-93462097D01*
X177451963Y-93234611D01*
X177500000Y-92993114D01*
X177500000Y-92746886D01*
X177451963Y-92505389D01*
X177357735Y-92277903D01*
X177220938Y-92073172D01*
X177046828Y-91899062D01*
X176842097Y-91762265D01*
X176614611Y-91668037D01*
X176373114Y-91620000D01*
X176126886Y-91620000D01*
X175885389Y-91668037D01*
X175793291Y-91706185D01*
X174293992Y-90206886D01*
X175000000Y-90206886D01*
X175000000Y-90453114D01*
X175048037Y-90694611D01*
X175142265Y-90922097D01*
X175279062Y-91126828D01*
X175453172Y-91300938D01*
X175657903Y-91437735D01*
X175885389Y-91531963D01*
X176126886Y-91580000D01*
X176373114Y-91580000D01*
X176614611Y-91531963D01*
X176842097Y-91437735D01*
X177046828Y-91300938D01*
X177220938Y-91126828D01*
X177357735Y-90922097D01*
X177451963Y-90694611D01*
X177500000Y-90453114D01*
X177500000Y-90206886D01*
X177451963Y-89965389D01*
X177357735Y-89737903D01*
X177220938Y-89533172D01*
X177046828Y-89359062D01*
X176842097Y-89222265D01*
X176614611Y-89128037D01*
X176373114Y-89080000D01*
X176126886Y-89080000D01*
X175885389Y-89128037D01*
X175657903Y-89222265D01*
X175453172Y-89359062D01*
X175279062Y-89533172D01*
X175142265Y-89737903D01*
X175048037Y-89965389D01*
X175000000Y-90206886D01*
X174293992Y-90206886D01*
X171753992Y-87666886D01*
X175000000Y-87666886D01*
X175000000Y-87913114D01*
X175048037Y-88154611D01*
X175142265Y-88382097D01*
X175279062Y-88586828D01*
X175453172Y-88760938D01*
X175657903Y-88897735D01*
X175885389Y-88991963D01*
X176126886Y-89040000D01*
X176373114Y-89040000D01*
X176614611Y-88991963D01*
X176842097Y-88897735D01*
X177046828Y-88760938D01*
X177220938Y-88586828D01*
X177357735Y-88382097D01*
X177451963Y-88154611D01*
X177500000Y-87913114D01*
X177500000Y-87666886D01*
X177451963Y-87425389D01*
X177357735Y-87197903D01*
X177220938Y-86993172D01*
X177046828Y-86819062D01*
X176842097Y-86682265D01*
X176614611Y-86588037D01*
X176373114Y-86540000D01*
X176126886Y-86540000D01*
X175885389Y-86588037D01*
X175657903Y-86682265D01*
X175453172Y-86819062D01*
X175279062Y-86993172D01*
X175142265Y-87197903D01*
X175048037Y-87425389D01*
X175000000Y-87666886D01*
X171753992Y-87666886D01*
X170187106Y-86100000D01*
X174998065Y-86100000D01*
X175005788Y-86178414D01*
X175028660Y-86253814D01*
X175065803Y-86323303D01*
X175115789Y-86384211D01*
X175176697Y-86434197D01*
X175246186Y-86471340D01*
X175321586Y-86494212D01*
X175400000Y-86501935D01*
X176100000Y-86500000D01*
X176200000Y-86400000D01*
X176200000Y-85300000D01*
X176300000Y-85300000D01*
X176300000Y-86400000D01*
X176400000Y-86500000D01*
X177100000Y-86501935D01*
X177178414Y-86494212D01*
X177253814Y-86471340D01*
X177323303Y-86434197D01*
X177384211Y-86384211D01*
X177434197Y-86323303D01*
X177471340Y-86253814D01*
X177494212Y-86178414D01*
X177501935Y-86100000D01*
X177500000Y-85400000D01*
X177400000Y-85300000D01*
X176300000Y-85300000D01*
X176200000Y-85300000D01*
X175100000Y-85300000D01*
X175000000Y-85400000D01*
X174998065Y-86100000D01*
X170187106Y-86100000D01*
X170100000Y-86012895D01*
X170100000Y-84400000D01*
X174998065Y-84400000D01*
X175000000Y-85100000D01*
X175100000Y-85200000D01*
X176200000Y-85200000D01*
X176200000Y-84100000D01*
X176300000Y-84100000D01*
X176300000Y-85200000D01*
X177400000Y-85200000D01*
X177500000Y-85100000D01*
X177501935Y-84400000D01*
X177494212Y-84321586D01*
X177471340Y-84246186D01*
X177434197Y-84176697D01*
X177384211Y-84115789D01*
X177323303Y-84065803D01*
X177253814Y-84028660D01*
X177178414Y-84005788D01*
X177100000Y-83998065D01*
X176400000Y-84000000D01*
X176300000Y-84100000D01*
X176200000Y-84100000D01*
X176100000Y-84000000D01*
X175400000Y-83998065D01*
X175321586Y-84005788D01*
X175246186Y-84028660D01*
X175176697Y-84065803D01*
X175115789Y-84115789D01*
X175065803Y-84176697D01*
X175028660Y-84246186D01*
X175005788Y-84321586D01*
X174998065Y-84400000D01*
X170100000Y-84400000D01*
X170100000Y-79624560D01*
X170102419Y-79600000D01*
X170092765Y-79501983D01*
X170082743Y-79468944D01*
X170064175Y-79407733D01*
X170022318Y-79329425D01*
X170109080Y-79416187D01*
X170124736Y-79435264D01*
X170200871Y-79497746D01*
X170287733Y-79544175D01*
X170381983Y-79572765D01*
X170455440Y-79580000D01*
X170455449Y-79580000D01*
X170479999Y-79582418D01*
X170504549Y-79580000D01*
X172854117Y-79580000D01*
X172892265Y-79672097D01*
X173029062Y-79876828D01*
X173203172Y-80050938D01*
X173407903Y-80187735D01*
X173635389Y-80281963D01*
X173876886Y-80330000D01*
X174123114Y-80330000D01*
X174364611Y-80281963D01*
X174592097Y-80187735D01*
X174796828Y-80050938D01*
X174970938Y-79876828D01*
X175107735Y-79672097D01*
X175201963Y-79444611D01*
X175225800Y-79324771D01*
X175314199Y-79324771D01*
X175384795Y-79557500D01*
X175500148Y-79773694D01*
X175655461Y-79963230D01*
X175844767Y-80118824D01*
X176060790Y-80234497D01*
X176295229Y-80305803D01*
X176490000Y-80229002D01*
X176490000Y-79130000D01*
X176590000Y-79130000D01*
X176590000Y-80229002D01*
X176784771Y-80305803D01*
X177019210Y-80234497D01*
X177235233Y-80118824D01*
X177424539Y-79963230D01*
X177579852Y-79773694D01*
X177695205Y-79557500D01*
X177765801Y-79324771D01*
X177688913Y-79130000D01*
X176590000Y-79130000D01*
X176490000Y-79130000D01*
X175391087Y-79130000D01*
X175314199Y-79324771D01*
X175225800Y-79324771D01*
X175250000Y-79203114D01*
X175250000Y-78956886D01*
X175225801Y-78835229D01*
X175314199Y-78835229D01*
X175391087Y-79030000D01*
X176490000Y-79030000D01*
X176490000Y-77930998D01*
X176590000Y-77930998D01*
X176590000Y-79030000D01*
X177688913Y-79030000D01*
X177765801Y-78835229D01*
X177695205Y-78602500D01*
X177579852Y-78386306D01*
X177424539Y-78196770D01*
X177235233Y-78041176D01*
X177019210Y-77925503D01*
X176784771Y-77854197D01*
X176590000Y-77930998D01*
X176490000Y-77930998D01*
X176295229Y-77854197D01*
X176060790Y-77925503D01*
X175844767Y-78041176D01*
X175655461Y-78196770D01*
X175500148Y-78386306D01*
X175384795Y-78602500D01*
X175314199Y-78835229D01*
X175225801Y-78835229D01*
X175201963Y-78715389D01*
X175107735Y-78487903D01*
X174970938Y-78283172D01*
X174796828Y-78109062D01*
X174592097Y-77972265D01*
X174364611Y-77878037D01*
X174123114Y-77830000D01*
X173876886Y-77830000D01*
X173635389Y-77878037D01*
X173407903Y-77972265D01*
X173203172Y-78109062D01*
X173029062Y-78283172D01*
X172892265Y-78487903D01*
X172854117Y-78580000D01*
X170687107Y-78580000D01*
X169900000Y-77792894D01*
X169900000Y-77731056D01*
X169873099Y-77595818D01*
X169820332Y-77468426D01*
X169743726Y-77353776D01*
X169646224Y-77256274D01*
X169562003Y-77200000D01*
X169646224Y-77143726D01*
X169743726Y-77046224D01*
X169820332Y-76931574D01*
X169873099Y-76804182D01*
X169900000Y-76668944D01*
X169900000Y-76531056D01*
X169877290Y-76416886D01*
X172750000Y-76416886D01*
X172750000Y-76663114D01*
X172798037Y-76904611D01*
X172892265Y-77132097D01*
X173029062Y-77336828D01*
X173203172Y-77510938D01*
X173407903Y-77647735D01*
X173635389Y-77741963D01*
X173876886Y-77790000D01*
X174123114Y-77790000D01*
X174364611Y-77741963D01*
X174592097Y-77647735D01*
X174796828Y-77510938D01*
X174970938Y-77336828D01*
X175107735Y-77132097D01*
X175201963Y-76904611D01*
X175250000Y-76663114D01*
X175250000Y-76416886D01*
X175290000Y-76416886D01*
X175290000Y-76663114D01*
X175338037Y-76904611D01*
X175432265Y-77132097D01*
X175569062Y-77336828D01*
X175743172Y-77510938D01*
X175947903Y-77647735D01*
X176175389Y-77741963D01*
X176416886Y-77790000D01*
X176663114Y-77790000D01*
X176904611Y-77741963D01*
X177132097Y-77647735D01*
X177336828Y-77510938D01*
X177510938Y-77336828D01*
X177647735Y-77132097D01*
X177741963Y-76904611D01*
X177790000Y-76663114D01*
X177790000Y-76416886D01*
X177741963Y-76175389D01*
X177647735Y-75947903D01*
X177510938Y-75743172D01*
X177336828Y-75569062D01*
X177132097Y-75432265D01*
X176904611Y-75338037D01*
X176663114Y-75290000D01*
X176416886Y-75290000D01*
X176175389Y-75338037D01*
X175947903Y-75432265D01*
X175743172Y-75569062D01*
X175569062Y-75743172D01*
X175432265Y-75947903D01*
X175338037Y-76175389D01*
X175290000Y-76416886D01*
X175250000Y-76416886D01*
X175201963Y-76175389D01*
X175107735Y-75947903D01*
X174970938Y-75743172D01*
X174796828Y-75569062D01*
X174592097Y-75432265D01*
X174364611Y-75338037D01*
X174123114Y-75290000D01*
X173876886Y-75290000D01*
X173635389Y-75338037D01*
X173407903Y-75432265D01*
X173203172Y-75569062D01*
X173029062Y-75743172D01*
X172892265Y-75947903D01*
X172798037Y-76175389D01*
X172750000Y-76416886D01*
X169877290Y-76416886D01*
X169873099Y-76395818D01*
X169820332Y-76268426D01*
X169743726Y-76153776D01*
X169646224Y-76056274D01*
X169531574Y-75979668D01*
X169404182Y-75926901D01*
X169384183Y-75922923D01*
X172157106Y-73150000D01*
X172748065Y-73150000D01*
X172748065Y-74850000D01*
X172755788Y-74928414D01*
X172778660Y-75003814D01*
X172815803Y-75073303D01*
X172865789Y-75134211D01*
X172926697Y-75184197D01*
X172996186Y-75221340D01*
X173071586Y-75244212D01*
X173150000Y-75251935D01*
X174850000Y-75251935D01*
X174928414Y-75244212D01*
X175003814Y-75221340D01*
X175073303Y-75184197D01*
X175134211Y-75134211D01*
X175184197Y-75073303D01*
X175221340Y-75003814D01*
X175244212Y-74928414D01*
X175251935Y-74850000D01*
X175251935Y-73876886D01*
X175290000Y-73876886D01*
X175290000Y-74123114D01*
X175338037Y-74364611D01*
X175432265Y-74592097D01*
X175569062Y-74796828D01*
X175743172Y-74970938D01*
X175947903Y-75107735D01*
X176175389Y-75201963D01*
X176416886Y-75250000D01*
X176663114Y-75250000D01*
X176904611Y-75201963D01*
X177132097Y-75107735D01*
X177336828Y-74970938D01*
X177510938Y-74796828D01*
X177647735Y-74592097D01*
X177741963Y-74364611D01*
X177790000Y-74123114D01*
X177790000Y-73876886D01*
X177741963Y-73635389D01*
X177647735Y-73407903D01*
X177510938Y-73203172D01*
X177336828Y-73029062D01*
X177132097Y-72892265D01*
X176904611Y-72798037D01*
X176663114Y-72750000D01*
X176416886Y-72750000D01*
X176175389Y-72798037D01*
X175947903Y-72892265D01*
X175743172Y-73029062D01*
X175569062Y-73203172D01*
X175432265Y-73407903D01*
X175338037Y-73635389D01*
X175290000Y-73876886D01*
X175251935Y-73876886D01*
X175251935Y-73150000D01*
X175244212Y-73071586D01*
X175221340Y-72996186D01*
X175184197Y-72926697D01*
X175134211Y-72865789D01*
X175073303Y-72815803D01*
X175003814Y-72778660D01*
X174928414Y-72755788D01*
X174850000Y-72748065D01*
X173150000Y-72748065D01*
X173071586Y-72755788D01*
X172996186Y-72778660D01*
X172926697Y-72815803D01*
X172865789Y-72865789D01*
X172815803Y-72926697D01*
X172778660Y-72996186D01*
X172755788Y-73071586D01*
X172748065Y-73150000D01*
X172157106Y-73150000D01*
X173336187Y-71970920D01*
X173355264Y-71955264D01*
X173417746Y-71879129D01*
X173464175Y-71792267D01*
X173492765Y-71698017D01*
X173500000Y-71624560D01*
X173500000Y-71624551D01*
X173502418Y-71600001D01*
X173500000Y-71575451D01*
X173500000Y-69641632D01*
X173558258Y-69610492D01*
X173710528Y-69485528D01*
X173835492Y-69333258D01*
X173928349Y-69159535D01*
X173985530Y-68971033D01*
X174000000Y-68824120D01*
X174000000Y-68825000D01*
X174028969Y-69019130D01*
X174095254Y-69203878D01*
X174196308Y-69372144D01*
X174328248Y-69517463D01*
X174486003Y-69634249D01*
X174663510Y-69718015D01*
X174794377Y-69753631D01*
X174950000Y-69673610D01*
X174950000Y-68550000D01*
X175050000Y-68550000D01*
X175050000Y-69673610D01*
X175205623Y-69753631D01*
X175336490Y-69718015D01*
X175513997Y-69634249D01*
X175671752Y-69517463D01*
X175803692Y-69372144D01*
X175904746Y-69203878D01*
X175971031Y-69019130D01*
X176000000Y-68825000D01*
X176000000Y-68550000D01*
X175050000Y-68550000D01*
X174950000Y-68550000D01*
X174000000Y-68550000D01*
X174000000Y-68450000D01*
X174950000Y-68450000D01*
X174950000Y-67326390D01*
X175050000Y-67326390D01*
X175050000Y-68450000D01*
X176000000Y-68450000D01*
X176000000Y-68175000D01*
X175971031Y-67980870D01*
X175904746Y-67796122D01*
X175803692Y-67627856D01*
X175671752Y-67482537D01*
X175513997Y-67365751D01*
X175336490Y-67281985D01*
X175205623Y-67246369D01*
X175050000Y-67326390D01*
X174950000Y-67326390D01*
X174794377Y-67246369D01*
X174663510Y-67281985D01*
X174486003Y-67365751D01*
X174328248Y-67482537D01*
X174196308Y-67627856D01*
X174095254Y-67796122D01*
X174028969Y-67980870D01*
X174000000Y-68175000D01*
X174000000Y-68175880D01*
X173985530Y-68028966D01*
X173928349Y-67840465D01*
X173835492Y-67666742D01*
X173710528Y-67514472D01*
X173558258Y-67389508D01*
X173384534Y-67296651D01*
X173196033Y-67239470D01*
X173000000Y-67220162D01*
X172803966Y-67239470D01*
X172615465Y-67296651D01*
X172441742Y-67389508D01*
X172289472Y-67514472D01*
X172164508Y-67666742D01*
X172071651Y-67840466D01*
X172014470Y-68028967D01*
X172000000Y-68175880D01*
X171985530Y-68028966D01*
X171928349Y-67840465D01*
X171835492Y-67666742D01*
X171710528Y-67514472D01*
X171558258Y-67389508D01*
X171384534Y-67296651D01*
X171196033Y-67239470D01*
X171000000Y-67220162D01*
X170803966Y-67239470D01*
X170615465Y-67296651D01*
X170441742Y-67389508D01*
X170289472Y-67514472D01*
X170164508Y-67666742D01*
X170071651Y-67840466D01*
X170014470Y-68028967D01*
X170000000Y-68175880D01*
X169985530Y-68028966D01*
X169928349Y-67840465D01*
X169835492Y-67666742D01*
X169710528Y-67514472D01*
X169558258Y-67389508D01*
X169384534Y-67296651D01*
X169196033Y-67239470D01*
X169000000Y-67220162D01*
X168803966Y-67239470D01*
X168615465Y-67296651D01*
X168441742Y-67389508D01*
X168289472Y-67514472D01*
X168164508Y-67666742D01*
X168071651Y-67840466D01*
X168014470Y-68028967D01*
X168000000Y-68175880D01*
X167985530Y-68028966D01*
X167928349Y-67840465D01*
X167835492Y-67666742D01*
X167710528Y-67514472D01*
X167558258Y-67389508D01*
X167384534Y-67296651D01*
X167196033Y-67239470D01*
X167000000Y-67220162D01*
X166803966Y-67239470D01*
X166615465Y-67296651D01*
X166441742Y-67389508D01*
X166289472Y-67514472D01*
X166164508Y-67666742D01*
X166071651Y-67840466D01*
X166014470Y-68028967D01*
X166001935Y-68156235D01*
X166001935Y-67874999D01*
X165989408Y-67747813D01*
X165952309Y-67625515D01*
X165892064Y-67512804D01*
X165810988Y-67414012D01*
X165712196Y-67332936D01*
X165599485Y-67272691D01*
X165477187Y-67235592D01*
X165350001Y-67223065D01*
X164649999Y-67223065D01*
X164522813Y-67235592D01*
X164400515Y-67272691D01*
X164287804Y-67332936D01*
X164189012Y-67414012D01*
X164107936Y-67512804D01*
X164047691Y-67625515D01*
X164010592Y-67747813D01*
X163998065Y-67874999D01*
X163998065Y-69125001D01*
X164010592Y-69252187D01*
X164047691Y-69374485D01*
X164107936Y-69487196D01*
X164189012Y-69585988D01*
X164287804Y-69667064D01*
X164400515Y-69727309D01*
X164522813Y-69764408D01*
X164649999Y-69776935D01*
X165350001Y-69776935D01*
X165477187Y-69764408D01*
X165599485Y-69727309D01*
X165712196Y-69667064D01*
X165810988Y-69585988D01*
X165892064Y-69487196D01*
X165952309Y-69374485D01*
X165989408Y-69252187D01*
X166001935Y-69125001D01*
X166001935Y-68843766D01*
X166014470Y-68971034D01*
X166071651Y-69159535D01*
X166164509Y-69333258D01*
X166289473Y-69485528D01*
X166441743Y-69610492D01*
X166615466Y-69703349D01*
X166803967Y-69760530D01*
X167000000Y-69779838D01*
X167196034Y-69760530D01*
X167384535Y-69703349D01*
X167558258Y-69610492D01*
X167710528Y-69485528D01*
X167835492Y-69333258D01*
X167928349Y-69159535D01*
X167985530Y-68971033D01*
X168000000Y-68824120D01*
X168014470Y-68971034D01*
X168071651Y-69159535D01*
X168164509Y-69333258D01*
X168289473Y-69485528D01*
X168441743Y-69610492D01*
X168500001Y-69641631D01*
X168500001Y-69792892D01*
X166380173Y-71912722D01*
X166335443Y-71894194D01*
X166113265Y-71850000D01*
X165886735Y-71850000D01*
X165664557Y-71894194D01*
X165455271Y-71980884D01*
X165266918Y-72106737D01*
X165106737Y-72266918D01*
X164980884Y-72455271D01*
X164894194Y-72664557D01*
X164850000Y-72886735D01*
X164850000Y-73113265D01*
X164894194Y-73335443D01*
X164980884Y-73544729D01*
X165106737Y-73733082D01*
X165266918Y-73893263D01*
X165455271Y-74019116D01*
X165664557Y-74105806D01*
X165886735Y-74150000D01*
X166113265Y-74150000D01*
X166335443Y-74105806D01*
X166544729Y-74019116D01*
X166733082Y-73893263D01*
X166893263Y-73733082D01*
X167019116Y-73544729D01*
X167105806Y-73335443D01*
X167150000Y-73113265D01*
X167150000Y-72886735D01*
X167105806Y-72664557D01*
X167087278Y-72619827D01*
X169336187Y-70370920D01*
X169355264Y-70355264D01*
X169417746Y-70279129D01*
X169464175Y-70192267D01*
X169492765Y-70098017D01*
X169500000Y-70024560D01*
X169502419Y-70000000D01*
X169500000Y-69975440D01*
X169500000Y-69641632D01*
X169558258Y-69610492D01*
X169710528Y-69485528D01*
X169835492Y-69333258D01*
X169928349Y-69159535D01*
X169985530Y-68971033D01*
X170000000Y-68824120D01*
X170014470Y-68971034D01*
X170071651Y-69159535D01*
X170164509Y-69333258D01*
X170289473Y-69485528D01*
X170441743Y-69610492D01*
X170500001Y-69641631D01*
X170500000Y-72192893D01*
X162192895Y-80500000D01*
X162131056Y-80500000D01*
X161995818Y-80526901D01*
X161868426Y-80579668D01*
X161753776Y-80656274D01*
X161656274Y-80753776D01*
X161579668Y-80868426D01*
X161526901Y-80995818D01*
X161500000Y-81131056D01*
X161500000Y-81268944D01*
X161526901Y-81404182D01*
X161579668Y-81531574D01*
X161656274Y-81646224D01*
X161753776Y-81743726D01*
X161868426Y-81820332D01*
X161995818Y-81873099D01*
X162105153Y-81894847D01*
X162126901Y-82004182D01*
X162179668Y-82131574D01*
X162256274Y-82246224D01*
X162353776Y-82343726D01*
X162468426Y-82420332D01*
X162579165Y-82466201D01*
X162369161Y-82676206D01*
X162307322Y-82676206D01*
X162172084Y-82703107D01*
X162044692Y-82755874D01*
X161930042Y-82832480D01*
X161832540Y-82929982D01*
X161755934Y-83044632D01*
X161703167Y-83172024D01*
X161676266Y-83307262D01*
X161676266Y-83445150D01*
X161703167Y-83580388D01*
X161755934Y-83707780D01*
X161832540Y-83822430D01*
X161930042Y-83919932D01*
X162044692Y-83996538D01*
X162172084Y-84049305D01*
X162307322Y-84076206D01*
X162445210Y-84076206D01*
X162580448Y-84049305D01*
X162707840Y-83996538D01*
X162822490Y-83919932D01*
X162919992Y-83822430D01*
X162996598Y-83707780D01*
X163049365Y-83580388D01*
X163076266Y-83445150D01*
X163076266Y-83383311D01*
X167900000Y-78559579D01*
X167900000Y-78668944D01*
X167917945Y-78759157D01*
X167868426Y-78779668D01*
X167753776Y-78856274D01*
X167656274Y-78953776D01*
X167579668Y-79068426D01*
X167526901Y-79195818D01*
X167500000Y-79331056D01*
X167500000Y-79468944D01*
X167514139Y-79540023D01*
X167418426Y-79579668D01*
X167303776Y-79656274D01*
X167231406Y-79728644D01*
X167207733Y-79735825D01*
X167120871Y-79782254D01*
X167044736Y-79844736D01*
X167029080Y-79863813D01*
X163463819Y-83429076D01*
X163444737Y-83444736D01*
X163382255Y-83520871D01*
X163335826Y-83607733D01*
X163307235Y-83701983D01*
X163307144Y-83702906D01*
X163256274Y-83753776D01*
X163179668Y-83868426D01*
X163126901Y-83995818D01*
X163100000Y-84131056D01*
X163100000Y-84268944D01*
X163108257Y-84310452D01*
X159840572Y-84310452D01*
X159796846Y-84266726D01*
X159682196Y-84190120D01*
X159554804Y-84137353D01*
X159419566Y-84110452D01*
X159281678Y-84110452D01*
X159146440Y-84137353D01*
X159019048Y-84190120D01*
X158904398Y-84266726D01*
X158806896Y-84364228D01*
X158730290Y-84478878D01*
X158677523Y-84606270D01*
X158650622Y-84741508D01*
X141200000Y-84741508D01*
X141200000Y-81636735D01*
X155600000Y-81636735D01*
X155600000Y-81863265D01*
X155644194Y-82085443D01*
X155730884Y-82294729D01*
X155856737Y-82483082D01*
X156016918Y-82643263D01*
X156205271Y-82769116D01*
X156414557Y-82855806D01*
X156636735Y-82900000D01*
X156863265Y-82900000D01*
X157085443Y-82855806D01*
X157294729Y-82769116D01*
X157483082Y-82643263D01*
X157643263Y-82483082D01*
X157769116Y-82294729D01*
X157855806Y-82085443D01*
X157900000Y-81863265D01*
X157900000Y-81636735D01*
X157855806Y-81414557D01*
X157815603Y-81317500D01*
X159720106Y-79412999D01*
X159781943Y-79412999D01*
X159917181Y-79386098D01*
X160044573Y-79333331D01*
X160159223Y-79256725D01*
X160256725Y-79159223D01*
X160333331Y-79044573D01*
X160334542Y-79041649D01*
X160500000Y-79207107D01*
X160499999Y-80627198D01*
X160363265Y-80600000D01*
X160136735Y-80600000D01*
X159914557Y-80644194D01*
X159705271Y-80730884D01*
X159516918Y-80856737D01*
X159356737Y-81016918D01*
X159230884Y-81205271D01*
X159144194Y-81414557D01*
X159100000Y-81636735D01*
X159100000Y-81863265D01*
X159144194Y-82085443D01*
X159230884Y-82294729D01*
X159356737Y-82483082D01*
X159516918Y-82643263D01*
X159705271Y-82769116D01*
X159914557Y-82855806D01*
X160136735Y-82900000D01*
X160363265Y-82900000D01*
X160585443Y-82855806D01*
X160794729Y-82769116D01*
X160983082Y-82643263D01*
X161143263Y-82483082D01*
X161269116Y-82294729D01*
X161355806Y-82085443D01*
X161400000Y-81863265D01*
X161400000Y-81636735D01*
X161355806Y-81414557D01*
X161337339Y-81369975D01*
X161355263Y-81355265D01*
X161417745Y-81279130D01*
X161464174Y-81192268D01*
X161492764Y-81098018D01*
X161499999Y-81024561D01*
X161499999Y-81024560D01*
X161502418Y-81000001D01*
X161499999Y-80975441D01*
X161499999Y-79024559D01*
X161502418Y-78999999D01*
X161492764Y-78901982D01*
X161485831Y-78879128D01*
X161464174Y-78807732D01*
X161417745Y-78720870D01*
X161355263Y-78644735D01*
X161336186Y-78629079D01*
X160425130Y-77718024D01*
X160602995Y-77540159D01*
X160623027Y-77523719D01*
X160688633Y-77443778D01*
X160737383Y-77352573D01*
X160767403Y-77253610D01*
X160775000Y-77176480D01*
X160775000Y-77176473D01*
X160777539Y-77150693D01*
X160775000Y-77124913D01*
X160775000Y-76143765D01*
X160831574Y-76120332D01*
X160946224Y-76043726D01*
X161043726Y-75946224D01*
X161120332Y-75831574D01*
X161173099Y-75704182D01*
X161200000Y-75568944D01*
X161200000Y-75431056D01*
X161173099Y-75295818D01*
X161120332Y-75168426D01*
X161043726Y-75053776D01*
X160946224Y-74956274D01*
X160831574Y-74879668D01*
X160704182Y-74826901D01*
X160568944Y-74800000D01*
X160431056Y-74800000D01*
X160295818Y-74826901D01*
X160168426Y-74879668D01*
X160053776Y-74956274D01*
X159975819Y-75034231D01*
X159931574Y-75004668D01*
X159804182Y-74951901D01*
X159668944Y-74925000D01*
X159531056Y-74925000D01*
X159395818Y-74951901D01*
X159268426Y-75004668D01*
X159153776Y-75081274D01*
X159056274Y-75178776D01*
X158979668Y-75293426D01*
X158926901Y-75420818D01*
X158900000Y-75556056D01*
X158900000Y-75582537D01*
X157225005Y-77257534D01*
X157204974Y-77273973D01*
X157188535Y-77294004D01*
X157139367Y-77353915D01*
X157090617Y-77445120D01*
X157060597Y-77544083D01*
X157050461Y-77647000D01*
X157053001Y-77672790D01*
X157053000Y-79157050D01*
X157034274Y-79175776D01*
X156957668Y-79290426D01*
X156904901Y-79417818D01*
X156878000Y-79553056D01*
X156878000Y-79690944D01*
X156904901Y-79826182D01*
X156957668Y-79953574D01*
X157034274Y-80068224D01*
X157131776Y-80165726D01*
X157246426Y-80242332D01*
X157373818Y-80295099D01*
X157415502Y-80303391D01*
X157076481Y-80642411D01*
X156863265Y-80600000D01*
X156636735Y-80600000D01*
X156414557Y-80644194D01*
X156205271Y-80730884D01*
X156016918Y-80856737D01*
X155856737Y-81016918D01*
X155730884Y-81205271D01*
X155644194Y-81414557D01*
X155600000Y-81636735D01*
X141200000Y-81636735D01*
X141200000Y-68494771D01*
X141944197Y-68494771D01*
X142015503Y-68729210D01*
X142131176Y-68945233D01*
X142286770Y-69134539D01*
X142476306Y-69289852D01*
X142692500Y-69405205D01*
X142925229Y-69475801D01*
X143120000Y-69398913D01*
X143120000Y-68300000D01*
X143220000Y-68300000D01*
X143220000Y-69398913D01*
X143414771Y-69475801D01*
X143647500Y-69405205D01*
X143863694Y-69289852D01*
X144053230Y-69134539D01*
X144208824Y-68945233D01*
X144324497Y-68729210D01*
X144395803Y-68494771D01*
X144319002Y-68300000D01*
X143220000Y-68300000D01*
X143120000Y-68300000D01*
X142020998Y-68300000D01*
X141944197Y-68494771D01*
X141200000Y-68494771D01*
X141200000Y-68022006D01*
X141201645Y-68005229D01*
X141944197Y-68005229D01*
X142020998Y-68200000D01*
X143120000Y-68200000D01*
X143120000Y-67101087D01*
X143220000Y-67101087D01*
X143220000Y-68200000D01*
X144319002Y-68200000D01*
X144347831Y-68126886D01*
X144460000Y-68126886D01*
X144460000Y-68373114D01*
X144508037Y-68614611D01*
X144602265Y-68842097D01*
X144739062Y-69046828D01*
X144913172Y-69220938D01*
X145117903Y-69357735D01*
X145345389Y-69451963D01*
X145586886Y-69500000D01*
X145833114Y-69500000D01*
X146074611Y-69451963D01*
X146302097Y-69357735D01*
X146506828Y-69220938D01*
X146680938Y-69046828D01*
X146817735Y-68842097D01*
X146911963Y-68614611D01*
X146960000Y-68373114D01*
X146960000Y-68126886D01*
X146911963Y-67885389D01*
X146817735Y-67657903D01*
X146680938Y-67453172D01*
X146627766Y-67400000D01*
X146998065Y-67400000D01*
X146998065Y-69100000D01*
X147005788Y-69178414D01*
X147028660Y-69253814D01*
X147065803Y-69323303D01*
X147115789Y-69384211D01*
X147176697Y-69434197D01*
X147246186Y-69471340D01*
X147321586Y-69494212D01*
X147400000Y-69501935D01*
X147750001Y-69501935D01*
X147750000Y-71462356D01*
X147705271Y-71480884D01*
X147516918Y-71606737D01*
X147356737Y-71766918D01*
X147230884Y-71955271D01*
X147144194Y-72164557D01*
X147100000Y-72386735D01*
X147100000Y-72613265D01*
X147144194Y-72835443D01*
X147230884Y-73044729D01*
X147356737Y-73233082D01*
X147516918Y-73393263D01*
X147705271Y-73519116D01*
X147914557Y-73605806D01*
X148136735Y-73650000D01*
X148363265Y-73650000D01*
X148585443Y-73605806D01*
X148794729Y-73519116D01*
X148983082Y-73393263D01*
X149143263Y-73233082D01*
X149269116Y-73044729D01*
X149355806Y-72835443D01*
X149400000Y-72613265D01*
X149400000Y-72386735D01*
X149355806Y-72164557D01*
X149269116Y-71955271D01*
X149143263Y-71766918D01*
X148983082Y-71606737D01*
X148794729Y-71480884D01*
X148750000Y-71462356D01*
X148750000Y-69501935D01*
X149100000Y-69501935D01*
X149178414Y-69494212D01*
X149253814Y-69471340D01*
X149323303Y-69434197D01*
X149384211Y-69384211D01*
X149434197Y-69323303D01*
X149471340Y-69253814D01*
X149494212Y-69178414D01*
X149501935Y-69100000D01*
X149501935Y-68750000D01*
X152892895Y-68750000D01*
X155600000Y-71457107D01*
X155600000Y-71518944D01*
X155626901Y-71654182D01*
X155679668Y-71781574D01*
X155756274Y-71896224D01*
X155853776Y-71993726D01*
X155968426Y-72070332D01*
X156095818Y-72123099D01*
X156231056Y-72150000D01*
X156368944Y-72150000D01*
X156504182Y-72123099D01*
X156631574Y-72070332D01*
X156746224Y-71993726D01*
X156843726Y-71896224D01*
X156920332Y-71781574D01*
X156973099Y-71654182D01*
X157000000Y-71518944D01*
X157000000Y-71381056D01*
X156973099Y-71245818D01*
X156920332Y-71118426D01*
X156843726Y-71003776D01*
X156746224Y-70906274D01*
X156631574Y-70829668D01*
X156504182Y-70776901D01*
X156368944Y-70750000D01*
X156307107Y-70750000D01*
X153470929Y-67913824D01*
X153455264Y-67894736D01*
X153379129Y-67832254D01*
X153292267Y-67785825D01*
X153198017Y-67757235D01*
X153124560Y-67750000D01*
X153100000Y-67747581D01*
X153075440Y-67750000D01*
X149501935Y-67750000D01*
X149501935Y-67400000D01*
X149494212Y-67321586D01*
X149471340Y-67246186D01*
X149434197Y-67176697D01*
X149384211Y-67115789D01*
X149323303Y-67065803D01*
X149253814Y-67028660D01*
X149178414Y-67005788D01*
X149100000Y-66998065D01*
X147400000Y-66998065D01*
X147321586Y-67005788D01*
X147246186Y-67028660D01*
X147176697Y-67065803D01*
X147115789Y-67115789D01*
X147065803Y-67176697D01*
X147028660Y-67246186D01*
X147005788Y-67321586D01*
X146998065Y-67400000D01*
X146627766Y-67400000D01*
X146506828Y-67279062D01*
X146302097Y-67142265D01*
X146074611Y-67048037D01*
X145833114Y-67000000D01*
X145586886Y-67000000D01*
X145345389Y-67048037D01*
X145117903Y-67142265D01*
X144913172Y-67279062D01*
X144739062Y-67453172D01*
X144602265Y-67657903D01*
X144508037Y-67885389D01*
X144460000Y-68126886D01*
X144347831Y-68126886D01*
X144395803Y-68005229D01*
X144324497Y-67770790D01*
X144208824Y-67554767D01*
X144053230Y-67365461D01*
X143863694Y-67210148D01*
X143647500Y-67094795D01*
X143414771Y-67024199D01*
X143220000Y-67101087D01*
X143120000Y-67101087D01*
X142925229Y-67024199D01*
X142692500Y-67094795D01*
X142476306Y-67210148D01*
X142286770Y-67365461D01*
X142131176Y-67554767D01*
X142015503Y-67770790D01*
X141944197Y-68005229D01*
X141201645Y-68005229D01*
X141231636Y-67699358D01*
X141318950Y-67410161D01*
X141460770Y-67143437D01*
X141651701Y-66909334D01*
X141884457Y-66716781D01*
X142150189Y-66573101D01*
X142438760Y-66483773D01*
X142760088Y-66450000D01*
X176227994Y-66450000D01*
X176550642Y-66481636D01*
G04 #@! TA.AperFunction,Conductor*
D19*
G36*
X176550642Y-66481636D02*
G01*
X176839839Y-66568950D01*
X177106563Y-66710770D01*
X177340666Y-66901701D01*
X177533219Y-67134457D01*
X177676899Y-67400189D01*
X177766227Y-67688760D01*
X177800001Y-68010098D01*
X177800000Y-98977994D01*
X177768364Y-99300642D01*
X177681050Y-99589839D01*
X177539230Y-99856563D01*
X177348303Y-100090662D01*
X177115544Y-100283219D01*
X176849812Y-100426899D01*
X176561238Y-100516227D01*
X176239912Y-100550000D01*
X142772006Y-100550000D01*
X142449358Y-100518364D01*
X142160161Y-100431050D01*
X141893437Y-100289230D01*
X141659338Y-100098303D01*
X141466781Y-99865544D01*
X141323101Y-99599812D01*
X141233773Y-99311238D01*
X141200000Y-98989912D01*
X141200000Y-96825000D01*
X145598065Y-96825000D01*
X145598065Y-98575000D01*
X145622601Y-98824118D01*
X145695266Y-99063662D01*
X145813267Y-99284427D01*
X145972071Y-99477929D01*
X146165573Y-99636733D01*
X146386338Y-99754734D01*
X146625882Y-99827399D01*
X146875000Y-99851935D01*
X148625000Y-99851935D01*
X148874118Y-99827399D01*
X149113662Y-99754734D01*
X149334427Y-99636733D01*
X149527929Y-99477929D01*
X149686733Y-99284427D01*
X149804734Y-99063662D01*
X149877399Y-98824118D01*
X149901935Y-98575000D01*
X149901935Y-97826886D01*
X175000000Y-97826886D01*
X175000000Y-98073114D01*
X175048037Y-98314611D01*
X175142265Y-98542097D01*
X175279062Y-98746828D01*
X175453172Y-98920938D01*
X175657903Y-99057735D01*
X175885389Y-99151963D01*
X176126886Y-99200000D01*
X176373114Y-99200000D01*
X176614611Y-99151963D01*
X176842097Y-99057735D01*
X177046828Y-98920938D01*
X177220938Y-98746828D01*
X177357735Y-98542097D01*
X177451963Y-98314611D01*
X177500000Y-98073114D01*
X177500000Y-97826886D01*
X177451963Y-97585389D01*
X177357735Y-97357903D01*
X177220938Y-97153172D01*
X177046828Y-96979062D01*
X176842097Y-96842265D01*
X176614611Y-96748037D01*
X176373114Y-96700000D01*
X176126886Y-96700000D01*
X175885389Y-96748037D01*
X175657903Y-96842265D01*
X175453172Y-96979062D01*
X175279062Y-97153172D01*
X175142265Y-97357903D01*
X175048037Y-97585389D01*
X175000000Y-97826886D01*
X149901935Y-97826886D01*
X149901935Y-96825000D01*
X149877399Y-96575882D01*
X149804734Y-96336338D01*
X149686733Y-96115573D01*
X149527929Y-95922071D01*
X149334427Y-95763267D01*
X149113662Y-95645266D01*
X148874118Y-95572601D01*
X148625000Y-95548065D01*
X146875000Y-95548065D01*
X146625882Y-95572601D01*
X146386338Y-95645266D01*
X146165573Y-95763267D01*
X145972071Y-95922071D01*
X145813267Y-96115573D01*
X145695266Y-96336338D01*
X145622601Y-96575882D01*
X145598065Y-96825000D01*
X141200000Y-96825000D01*
X141200000Y-94750000D01*
X142848065Y-94750000D01*
X142855788Y-94828414D01*
X142878660Y-94903814D01*
X142915803Y-94973303D01*
X142965789Y-95034211D01*
X143026697Y-95084197D01*
X143096186Y-95121340D01*
X143171586Y-95144212D01*
X143250000Y-95151935D01*
X144600000Y-95150000D01*
X144700000Y-95050000D01*
X144700000Y-93050000D01*
X144800000Y-93050000D01*
X144800000Y-95050000D01*
X144900000Y-95150000D01*
X146250000Y-95151935D01*
X146328414Y-95144212D01*
X146403814Y-95121340D01*
X146473303Y-95084197D01*
X146534211Y-95034211D01*
X146584197Y-94973303D01*
X146621340Y-94903814D01*
X146644212Y-94828414D01*
X146651935Y-94750000D01*
X146650000Y-93150000D01*
X146550000Y-93050000D01*
X144800000Y-93050000D01*
X144700000Y-93050000D01*
X142950000Y-93050000D01*
X142850000Y-93150000D01*
X142848065Y-94750000D01*
X141200000Y-94750000D01*
X141200000Y-91250000D01*
X142848065Y-91250000D01*
X142850000Y-92850000D01*
X142950000Y-92950000D01*
X144700000Y-92950000D01*
X144700000Y-90950000D01*
X144800000Y-90950000D01*
X144800000Y-92950000D01*
X146550000Y-92950000D01*
X146650000Y-92850000D01*
X146651935Y-91250000D01*
X148598065Y-91250000D01*
X148598065Y-94750000D01*
X148605788Y-94828414D01*
X148628660Y-94903814D01*
X148665803Y-94973303D01*
X148715789Y-95034211D01*
X148776697Y-95084197D01*
X148846186Y-95121340D01*
X148921586Y-95144212D01*
X149000000Y-95151935D01*
X152500000Y-95151935D01*
X152578414Y-95144212D01*
X152653814Y-95121340D01*
X152723303Y-95084197D01*
X152784211Y-95034211D01*
X152834197Y-94973303D01*
X152871340Y-94903814D01*
X152894212Y-94828414D01*
X152901935Y-94750000D01*
X152901935Y-91250000D01*
X152894212Y-91171586D01*
X152871340Y-91096186D01*
X152834197Y-91026697D01*
X152784211Y-90965789D01*
X152723303Y-90915803D01*
X152653814Y-90878660D01*
X152578414Y-90855788D01*
X152500000Y-90848065D01*
X149000000Y-90848065D01*
X148921586Y-90855788D01*
X148846186Y-90878660D01*
X148776697Y-90915803D01*
X148715789Y-90965789D01*
X148665803Y-91026697D01*
X148628660Y-91096186D01*
X148605788Y-91171586D01*
X148598065Y-91250000D01*
X146651935Y-91250000D01*
X146644212Y-91171586D01*
X146621340Y-91096186D01*
X146584197Y-91026697D01*
X146534211Y-90965789D01*
X146473303Y-90915803D01*
X146403814Y-90878660D01*
X146328414Y-90855788D01*
X146250000Y-90848065D01*
X144900000Y-90850000D01*
X144800000Y-90950000D01*
X144700000Y-90950000D01*
X144600000Y-90850000D01*
X143250000Y-90848065D01*
X143171586Y-90855788D01*
X143096186Y-90878660D01*
X143026697Y-90915803D01*
X142965789Y-90965789D01*
X142915803Y-91026697D01*
X142878660Y-91096186D01*
X142855788Y-91171586D01*
X142848065Y-91250000D01*
X141200000Y-91250000D01*
X141200000Y-84741508D01*
X158650622Y-84741508D01*
X158650622Y-84879396D01*
X158677523Y-85014634D01*
X158730290Y-85142026D01*
X158806896Y-85256676D01*
X158904398Y-85354178D01*
X159019048Y-85430784D01*
X159146440Y-85483551D01*
X159281678Y-85510452D01*
X159419566Y-85510452D01*
X159554804Y-85483551D01*
X159682196Y-85430784D01*
X159796846Y-85354178D01*
X159840572Y-85310452D01*
X160762260Y-85310452D01*
X160726901Y-85395818D01*
X160700000Y-85531056D01*
X160700000Y-85668944D01*
X160726901Y-85804182D01*
X160779668Y-85931574D01*
X160856274Y-86046224D01*
X160953776Y-86143726D01*
X161068426Y-86220332D01*
X161195818Y-86273099D01*
X161331056Y-86300000D01*
X161468944Y-86300000D01*
X161604182Y-86273099D01*
X161731574Y-86220332D01*
X161750549Y-86207654D01*
X167800000Y-92257106D01*
X167800000Y-92318944D01*
X167826901Y-92454182D01*
X167879668Y-92581574D01*
X167956274Y-92696224D01*
X168053776Y-92793726D01*
X168168426Y-92870332D01*
X168295818Y-92923099D01*
X168431056Y-92950000D01*
X168568944Y-92950000D01*
X168704182Y-92923099D01*
X168831574Y-92870332D01*
X168946224Y-92793726D01*
X169043726Y-92696224D01*
X169120332Y-92581574D01*
X169173099Y-92454182D01*
X169200000Y-92318944D01*
X169200000Y-92181056D01*
X169173099Y-92045818D01*
X169120332Y-91918426D01*
X169043726Y-91803776D01*
X168946224Y-91706274D01*
X168831574Y-91629668D01*
X168704182Y-91576901D01*
X168568944Y-91550000D01*
X168507106Y-91550000D01*
X162267557Y-85310452D01*
X165089549Y-85310452D01*
X165089548Y-87564988D01*
X165087129Y-87589548D01*
X165089548Y-87614107D01*
X165096783Y-87687564D01*
X165125373Y-87781814D01*
X165171802Y-87868677D01*
X165234284Y-87944812D01*
X165253372Y-87960477D01*
X169550000Y-92257107D01*
X169550000Y-92318944D01*
X169576901Y-92454182D01*
X169629668Y-92581574D01*
X169706274Y-92696224D01*
X169803776Y-92793726D01*
X169918426Y-92870332D01*
X170045818Y-92923099D01*
X170181056Y-92950000D01*
X170318944Y-92950000D01*
X170454182Y-92923099D01*
X170581574Y-92870332D01*
X170696224Y-92793726D01*
X170793726Y-92696224D01*
X170870332Y-92581574D01*
X170923099Y-92454182D01*
X170950000Y-92318944D01*
X170950000Y-92181056D01*
X170923099Y-92045818D01*
X170870332Y-91918426D01*
X170793726Y-91803776D01*
X170696224Y-91706274D01*
X170581574Y-91629668D01*
X170454182Y-91576901D01*
X170318944Y-91550000D01*
X170257107Y-91550000D01*
X166089548Y-87382443D01*
X166089548Y-85017557D01*
X166407106Y-84700000D01*
X166468944Y-84700000D01*
X166604182Y-84673099D01*
X166731574Y-84620332D01*
X166846224Y-84543726D01*
X166943726Y-84446224D01*
X167020332Y-84331574D01*
X167073099Y-84204182D01*
X167100000Y-84068944D01*
X167100000Y-83931056D01*
X167073099Y-83795818D01*
X167020332Y-83668426D01*
X166943726Y-83553776D01*
X166846224Y-83456274D01*
X166731574Y-83379668D01*
X166604182Y-83326901D01*
X166468944Y-83300000D01*
X166331056Y-83300000D01*
X166195818Y-83326901D01*
X166068426Y-83379668D01*
X165953776Y-83456274D01*
X165856274Y-83553776D01*
X165779668Y-83668426D01*
X165726901Y-83795818D01*
X165700000Y-83931056D01*
X165700000Y-83992894D01*
X165382443Y-84310452D01*
X164491743Y-84310452D01*
X164500000Y-84268944D01*
X164500000Y-84131056D01*
X164473099Y-83995818D01*
X164425706Y-83881399D01*
X167466756Y-80840351D01*
X167545818Y-80873099D01*
X167681056Y-80900000D01*
X167818944Y-80900000D01*
X167954182Y-80873099D01*
X168081574Y-80820332D01*
X168196224Y-80743726D01*
X168293726Y-80646224D01*
X168300000Y-80636834D01*
X168300001Y-87935430D01*
X168297581Y-87960000D01*
X168307235Y-88058017D01*
X168317534Y-88091967D01*
X168335826Y-88152267D01*
X168382255Y-88239129D01*
X168444737Y-88315264D01*
X168463820Y-88330925D01*
X175086185Y-94953291D01*
X175048037Y-95045389D01*
X175000000Y-95286886D01*
X175000000Y-95533114D01*
X175048037Y-95774611D01*
X175142265Y-96002097D01*
X175279062Y-96206828D01*
X175453172Y-96380938D01*
X175657903Y-96517735D01*
X175885389Y-96611963D01*
X176126886Y-96660000D01*
X176373114Y-96660000D01*
X176614611Y-96611963D01*
X176842097Y-96517735D01*
X177046828Y-96380938D01*
X177220938Y-96206828D01*
X177357735Y-96002097D01*
X177451963Y-95774611D01*
X177500000Y-95533114D01*
X177500000Y-95286886D01*
X177451963Y-95045389D01*
X177357735Y-94817903D01*
X177220938Y-94613172D01*
X177046828Y-94439062D01*
X176842097Y-94302265D01*
X176614611Y-94208037D01*
X176373114Y-94160000D01*
X176126886Y-94160000D01*
X175885389Y-94208037D01*
X175793291Y-94246185D01*
X169300000Y-87752895D01*
X169300000Y-86627105D01*
X175086185Y-92413291D01*
X175048037Y-92505389D01*
X175000000Y-92746886D01*
X175000000Y-92993114D01*
X175048037Y-93234611D01*
X175142265Y-93462097D01*
X175279062Y-93666828D01*
X175453172Y-93840938D01*
X175657903Y-93977735D01*
X175885389Y-94071963D01*
X176126886Y-94120000D01*
X176373114Y-94120000D01*
X176614611Y-94071963D01*
X176842097Y-93977735D01*
X177046828Y-93840938D01*
X177220938Y-93666828D01*
X177357735Y-93462097D01*
X177451963Y-93234611D01*
X177500000Y-92993114D01*
X177500000Y-92746886D01*
X177451963Y-92505389D01*
X177357735Y-92277903D01*
X177220938Y-92073172D01*
X177046828Y-91899062D01*
X176842097Y-91762265D01*
X176614611Y-91668037D01*
X176373114Y-91620000D01*
X176126886Y-91620000D01*
X175885389Y-91668037D01*
X175793291Y-91706185D01*
X174293992Y-90206886D01*
X175000000Y-90206886D01*
X175000000Y-90453114D01*
X175048037Y-90694611D01*
X175142265Y-90922097D01*
X175279062Y-91126828D01*
X175453172Y-91300938D01*
X175657903Y-91437735D01*
X175885389Y-91531963D01*
X176126886Y-91580000D01*
X176373114Y-91580000D01*
X176614611Y-91531963D01*
X176842097Y-91437735D01*
X177046828Y-91300938D01*
X177220938Y-91126828D01*
X177357735Y-90922097D01*
X177451963Y-90694611D01*
X177500000Y-90453114D01*
X177500000Y-90206886D01*
X177451963Y-89965389D01*
X177357735Y-89737903D01*
X177220938Y-89533172D01*
X177046828Y-89359062D01*
X176842097Y-89222265D01*
X176614611Y-89128037D01*
X176373114Y-89080000D01*
X176126886Y-89080000D01*
X175885389Y-89128037D01*
X175657903Y-89222265D01*
X175453172Y-89359062D01*
X175279062Y-89533172D01*
X175142265Y-89737903D01*
X175048037Y-89965389D01*
X175000000Y-90206886D01*
X174293992Y-90206886D01*
X171753992Y-87666886D01*
X175000000Y-87666886D01*
X175000000Y-87913114D01*
X175048037Y-88154611D01*
X175142265Y-88382097D01*
X175279062Y-88586828D01*
X175453172Y-88760938D01*
X175657903Y-88897735D01*
X175885389Y-88991963D01*
X176126886Y-89040000D01*
X176373114Y-89040000D01*
X176614611Y-88991963D01*
X176842097Y-88897735D01*
X177046828Y-88760938D01*
X177220938Y-88586828D01*
X177357735Y-88382097D01*
X177451963Y-88154611D01*
X177500000Y-87913114D01*
X177500000Y-87666886D01*
X177451963Y-87425389D01*
X177357735Y-87197903D01*
X177220938Y-86993172D01*
X177046828Y-86819062D01*
X176842097Y-86682265D01*
X176614611Y-86588037D01*
X176373114Y-86540000D01*
X176126886Y-86540000D01*
X175885389Y-86588037D01*
X175657903Y-86682265D01*
X175453172Y-86819062D01*
X175279062Y-86993172D01*
X175142265Y-87197903D01*
X175048037Y-87425389D01*
X175000000Y-87666886D01*
X171753992Y-87666886D01*
X170187106Y-86100000D01*
X174998065Y-86100000D01*
X175005788Y-86178414D01*
X175028660Y-86253814D01*
X175065803Y-86323303D01*
X175115789Y-86384211D01*
X175176697Y-86434197D01*
X175246186Y-86471340D01*
X175321586Y-86494212D01*
X175400000Y-86501935D01*
X176100000Y-86500000D01*
X176200000Y-86400000D01*
X176200000Y-85300000D01*
X176300000Y-85300000D01*
X176300000Y-86400000D01*
X176400000Y-86500000D01*
X177100000Y-86501935D01*
X177178414Y-86494212D01*
X177253814Y-86471340D01*
X177323303Y-86434197D01*
X177384211Y-86384211D01*
X177434197Y-86323303D01*
X177471340Y-86253814D01*
X177494212Y-86178414D01*
X177501935Y-86100000D01*
X177500000Y-85400000D01*
X177400000Y-85300000D01*
X176300000Y-85300000D01*
X176200000Y-85300000D01*
X175100000Y-85300000D01*
X175000000Y-85400000D01*
X174998065Y-86100000D01*
X170187106Y-86100000D01*
X170100000Y-86012895D01*
X170100000Y-84400000D01*
X174998065Y-84400000D01*
X175000000Y-85100000D01*
X175100000Y-85200000D01*
X176200000Y-85200000D01*
X176200000Y-84100000D01*
X176300000Y-84100000D01*
X176300000Y-85200000D01*
X177400000Y-85200000D01*
X177500000Y-85100000D01*
X177501935Y-84400000D01*
X177494212Y-84321586D01*
X177471340Y-84246186D01*
X177434197Y-84176697D01*
X177384211Y-84115789D01*
X177323303Y-84065803D01*
X177253814Y-84028660D01*
X177178414Y-84005788D01*
X177100000Y-83998065D01*
X176400000Y-84000000D01*
X176300000Y-84100000D01*
X176200000Y-84100000D01*
X176100000Y-84000000D01*
X175400000Y-83998065D01*
X175321586Y-84005788D01*
X175246186Y-84028660D01*
X175176697Y-84065803D01*
X175115789Y-84115789D01*
X175065803Y-84176697D01*
X175028660Y-84246186D01*
X175005788Y-84321586D01*
X174998065Y-84400000D01*
X170100000Y-84400000D01*
X170100000Y-79624560D01*
X170102419Y-79600000D01*
X170092765Y-79501983D01*
X170082743Y-79468944D01*
X170064175Y-79407733D01*
X170022318Y-79329425D01*
X170109080Y-79416187D01*
X170124736Y-79435264D01*
X170200871Y-79497746D01*
X170287733Y-79544175D01*
X170381983Y-79572765D01*
X170455440Y-79580000D01*
X170455449Y-79580000D01*
X170479999Y-79582418D01*
X170504549Y-79580000D01*
X172854117Y-79580000D01*
X172892265Y-79672097D01*
X173029062Y-79876828D01*
X173203172Y-80050938D01*
X173407903Y-80187735D01*
X173635389Y-80281963D01*
X173876886Y-80330000D01*
X174123114Y-80330000D01*
X174364611Y-80281963D01*
X174592097Y-80187735D01*
X174796828Y-80050938D01*
X174970938Y-79876828D01*
X175107735Y-79672097D01*
X175201963Y-79444611D01*
X175225800Y-79324771D01*
X175314199Y-79324771D01*
X175384795Y-79557500D01*
X175500148Y-79773694D01*
X175655461Y-79963230D01*
X175844767Y-80118824D01*
X176060790Y-80234497D01*
X176295229Y-80305803D01*
X176490000Y-80229002D01*
X176490000Y-79130000D01*
X176590000Y-79130000D01*
X176590000Y-80229002D01*
X176784771Y-80305803D01*
X177019210Y-80234497D01*
X177235233Y-80118824D01*
X177424539Y-79963230D01*
X177579852Y-79773694D01*
X177695205Y-79557500D01*
X177765801Y-79324771D01*
X177688913Y-79130000D01*
X176590000Y-79130000D01*
X176490000Y-79130000D01*
X175391087Y-79130000D01*
X175314199Y-79324771D01*
X175225800Y-79324771D01*
X175250000Y-79203114D01*
X175250000Y-78956886D01*
X175225801Y-78835229D01*
X175314199Y-78835229D01*
X175391087Y-79030000D01*
X176490000Y-79030000D01*
X176490000Y-77930998D01*
X176590000Y-77930998D01*
X176590000Y-79030000D01*
X177688913Y-79030000D01*
X177765801Y-78835229D01*
X177695205Y-78602500D01*
X177579852Y-78386306D01*
X177424539Y-78196770D01*
X177235233Y-78041176D01*
X177019210Y-77925503D01*
X176784771Y-77854197D01*
X176590000Y-77930998D01*
X176490000Y-77930998D01*
X176295229Y-77854197D01*
X176060790Y-77925503D01*
X175844767Y-78041176D01*
X175655461Y-78196770D01*
X175500148Y-78386306D01*
X175384795Y-78602500D01*
X175314199Y-78835229D01*
X175225801Y-78835229D01*
X175201963Y-78715389D01*
X175107735Y-78487903D01*
X174970938Y-78283172D01*
X174796828Y-78109062D01*
X174592097Y-77972265D01*
X174364611Y-77878037D01*
X174123114Y-77830000D01*
X173876886Y-77830000D01*
X173635389Y-77878037D01*
X173407903Y-77972265D01*
X173203172Y-78109062D01*
X173029062Y-78283172D01*
X172892265Y-78487903D01*
X172854117Y-78580000D01*
X170687107Y-78580000D01*
X169900000Y-77792894D01*
X169900000Y-77731056D01*
X169873099Y-77595818D01*
X169820332Y-77468426D01*
X169743726Y-77353776D01*
X169646224Y-77256274D01*
X169562003Y-77200000D01*
X169646224Y-77143726D01*
X169743726Y-77046224D01*
X169820332Y-76931574D01*
X169873099Y-76804182D01*
X169900000Y-76668944D01*
X169900000Y-76531056D01*
X169877290Y-76416886D01*
X172750000Y-76416886D01*
X172750000Y-76663114D01*
X172798037Y-76904611D01*
X172892265Y-77132097D01*
X173029062Y-77336828D01*
X173203172Y-77510938D01*
X173407903Y-77647735D01*
X173635389Y-77741963D01*
X173876886Y-77790000D01*
X174123114Y-77790000D01*
X174364611Y-77741963D01*
X174592097Y-77647735D01*
X174796828Y-77510938D01*
X174970938Y-77336828D01*
X175107735Y-77132097D01*
X175201963Y-76904611D01*
X175250000Y-76663114D01*
X175250000Y-76416886D01*
X175290000Y-76416886D01*
X175290000Y-76663114D01*
X175338037Y-76904611D01*
X175432265Y-77132097D01*
X175569062Y-77336828D01*
X175743172Y-77510938D01*
X175947903Y-77647735D01*
X176175389Y-77741963D01*
X176416886Y-77790000D01*
X176663114Y-77790000D01*
X176904611Y-77741963D01*
X177132097Y-77647735D01*
X177336828Y-77510938D01*
X177510938Y-77336828D01*
X177647735Y-77132097D01*
X177741963Y-76904611D01*
X177790000Y-76663114D01*
X177790000Y-76416886D01*
X177741963Y-76175389D01*
X177647735Y-75947903D01*
X177510938Y-75743172D01*
X177336828Y-75569062D01*
X177132097Y-75432265D01*
X176904611Y-75338037D01*
X176663114Y-75290000D01*
X176416886Y-75290000D01*
X176175389Y-75338037D01*
X175947903Y-75432265D01*
X175743172Y-75569062D01*
X175569062Y-75743172D01*
X175432265Y-75947903D01*
X175338037Y-76175389D01*
X175290000Y-76416886D01*
X175250000Y-76416886D01*
X175201963Y-76175389D01*
X175107735Y-75947903D01*
X174970938Y-75743172D01*
X174796828Y-75569062D01*
X174592097Y-75432265D01*
X174364611Y-75338037D01*
X174123114Y-75290000D01*
X173876886Y-75290000D01*
X173635389Y-75338037D01*
X173407903Y-75432265D01*
X173203172Y-75569062D01*
X173029062Y-75743172D01*
X172892265Y-75947903D01*
X172798037Y-76175389D01*
X172750000Y-76416886D01*
X169877290Y-76416886D01*
X169873099Y-76395818D01*
X169820332Y-76268426D01*
X169743726Y-76153776D01*
X169646224Y-76056274D01*
X169531574Y-75979668D01*
X169404182Y-75926901D01*
X169384183Y-75922923D01*
X172157106Y-73150000D01*
X172748065Y-73150000D01*
X172748065Y-74850000D01*
X172755788Y-74928414D01*
X172778660Y-75003814D01*
X172815803Y-75073303D01*
X172865789Y-75134211D01*
X172926697Y-75184197D01*
X172996186Y-75221340D01*
X173071586Y-75244212D01*
X173150000Y-75251935D01*
X174850000Y-75251935D01*
X174928414Y-75244212D01*
X175003814Y-75221340D01*
X175073303Y-75184197D01*
X175134211Y-75134211D01*
X175184197Y-75073303D01*
X175221340Y-75003814D01*
X175244212Y-74928414D01*
X175251935Y-74850000D01*
X175251935Y-73876886D01*
X175290000Y-73876886D01*
X175290000Y-74123114D01*
X175338037Y-74364611D01*
X175432265Y-74592097D01*
X175569062Y-74796828D01*
X175743172Y-74970938D01*
X175947903Y-75107735D01*
X176175389Y-75201963D01*
X176416886Y-75250000D01*
X176663114Y-75250000D01*
X176904611Y-75201963D01*
X177132097Y-75107735D01*
X177336828Y-74970938D01*
X177510938Y-74796828D01*
X177647735Y-74592097D01*
X177741963Y-74364611D01*
X177790000Y-74123114D01*
X177790000Y-73876886D01*
X177741963Y-73635389D01*
X177647735Y-73407903D01*
X177510938Y-73203172D01*
X177336828Y-73029062D01*
X177132097Y-72892265D01*
X176904611Y-72798037D01*
X176663114Y-72750000D01*
X176416886Y-72750000D01*
X176175389Y-72798037D01*
X175947903Y-72892265D01*
X175743172Y-73029062D01*
X175569062Y-73203172D01*
X175432265Y-73407903D01*
X175338037Y-73635389D01*
X175290000Y-73876886D01*
X175251935Y-73876886D01*
X175251935Y-73150000D01*
X175244212Y-73071586D01*
X175221340Y-72996186D01*
X175184197Y-72926697D01*
X175134211Y-72865789D01*
X175073303Y-72815803D01*
X175003814Y-72778660D01*
X174928414Y-72755788D01*
X174850000Y-72748065D01*
X173150000Y-72748065D01*
X173071586Y-72755788D01*
X172996186Y-72778660D01*
X172926697Y-72815803D01*
X172865789Y-72865789D01*
X172815803Y-72926697D01*
X172778660Y-72996186D01*
X172755788Y-73071586D01*
X172748065Y-73150000D01*
X172157106Y-73150000D01*
X173336187Y-71970920D01*
X173355264Y-71955264D01*
X173417746Y-71879129D01*
X173464175Y-71792267D01*
X173492765Y-71698017D01*
X173500000Y-71624560D01*
X173500000Y-71624551D01*
X173502418Y-71600001D01*
X173500000Y-71575451D01*
X173500000Y-69641632D01*
X173558258Y-69610492D01*
X173710528Y-69485528D01*
X173835492Y-69333258D01*
X173928349Y-69159535D01*
X173985530Y-68971033D01*
X174000000Y-68824120D01*
X174000000Y-68825000D01*
X174028969Y-69019130D01*
X174095254Y-69203878D01*
X174196308Y-69372144D01*
X174328248Y-69517463D01*
X174486003Y-69634249D01*
X174663510Y-69718015D01*
X174794377Y-69753631D01*
X174950000Y-69673610D01*
X174950000Y-68550000D01*
X175050000Y-68550000D01*
X175050000Y-69673610D01*
X175205623Y-69753631D01*
X175336490Y-69718015D01*
X175513997Y-69634249D01*
X175671752Y-69517463D01*
X175803692Y-69372144D01*
X175904746Y-69203878D01*
X175971031Y-69019130D01*
X176000000Y-68825000D01*
X176000000Y-68550000D01*
X175050000Y-68550000D01*
X174950000Y-68550000D01*
X174000000Y-68550000D01*
X174000000Y-68450000D01*
X174950000Y-68450000D01*
X174950000Y-67326390D01*
X175050000Y-67326390D01*
X175050000Y-68450000D01*
X176000000Y-68450000D01*
X176000000Y-68175000D01*
X175971031Y-67980870D01*
X175904746Y-67796122D01*
X175803692Y-67627856D01*
X175671752Y-67482537D01*
X175513997Y-67365751D01*
X175336490Y-67281985D01*
X175205623Y-67246369D01*
X175050000Y-67326390D01*
X174950000Y-67326390D01*
X174794377Y-67246369D01*
X174663510Y-67281985D01*
X174486003Y-67365751D01*
X174328248Y-67482537D01*
X174196308Y-67627856D01*
X174095254Y-67796122D01*
X174028969Y-67980870D01*
X174000000Y-68175000D01*
X174000000Y-68175880D01*
X173985530Y-68028966D01*
X173928349Y-67840465D01*
X173835492Y-67666742D01*
X173710528Y-67514472D01*
X173558258Y-67389508D01*
X173384534Y-67296651D01*
X173196033Y-67239470D01*
X173000000Y-67220162D01*
X172803966Y-67239470D01*
X172615465Y-67296651D01*
X172441742Y-67389508D01*
X172289472Y-67514472D01*
X172164508Y-67666742D01*
X172071651Y-67840466D01*
X172014470Y-68028967D01*
X172000000Y-68175880D01*
X171985530Y-68028966D01*
X171928349Y-67840465D01*
X171835492Y-67666742D01*
X171710528Y-67514472D01*
X171558258Y-67389508D01*
X171384534Y-67296651D01*
X171196033Y-67239470D01*
X171000000Y-67220162D01*
X170803966Y-67239470D01*
X170615465Y-67296651D01*
X170441742Y-67389508D01*
X170289472Y-67514472D01*
X170164508Y-67666742D01*
X170071651Y-67840466D01*
X170014470Y-68028967D01*
X170000000Y-68175880D01*
X169985530Y-68028966D01*
X169928349Y-67840465D01*
X169835492Y-67666742D01*
X169710528Y-67514472D01*
X169558258Y-67389508D01*
X169384534Y-67296651D01*
X169196033Y-67239470D01*
X169000000Y-67220162D01*
X168803966Y-67239470D01*
X168615465Y-67296651D01*
X168441742Y-67389508D01*
X168289472Y-67514472D01*
X168164508Y-67666742D01*
X168071651Y-67840466D01*
X168014470Y-68028967D01*
X168000000Y-68175880D01*
X167985530Y-68028966D01*
X167928349Y-67840465D01*
X167835492Y-67666742D01*
X167710528Y-67514472D01*
X167558258Y-67389508D01*
X167384534Y-67296651D01*
X167196033Y-67239470D01*
X167000000Y-67220162D01*
X166803966Y-67239470D01*
X166615465Y-67296651D01*
X166441742Y-67389508D01*
X166289472Y-67514472D01*
X166164508Y-67666742D01*
X166071651Y-67840466D01*
X166014470Y-68028967D01*
X166001935Y-68156235D01*
X166001935Y-67874999D01*
X165989408Y-67747813D01*
X165952309Y-67625515D01*
X165892064Y-67512804D01*
X165810988Y-67414012D01*
X165712196Y-67332936D01*
X165599485Y-67272691D01*
X165477187Y-67235592D01*
X165350001Y-67223065D01*
X164649999Y-67223065D01*
X164522813Y-67235592D01*
X164400515Y-67272691D01*
X164287804Y-67332936D01*
X164189012Y-67414012D01*
X164107936Y-67512804D01*
X164047691Y-67625515D01*
X164010592Y-67747813D01*
X163998065Y-67874999D01*
X163998065Y-69125001D01*
X164010592Y-69252187D01*
X164047691Y-69374485D01*
X164107936Y-69487196D01*
X164189012Y-69585988D01*
X164287804Y-69667064D01*
X164400515Y-69727309D01*
X164522813Y-69764408D01*
X164649999Y-69776935D01*
X165350001Y-69776935D01*
X165477187Y-69764408D01*
X165599485Y-69727309D01*
X165712196Y-69667064D01*
X165810988Y-69585988D01*
X165892064Y-69487196D01*
X165952309Y-69374485D01*
X165989408Y-69252187D01*
X166001935Y-69125001D01*
X166001935Y-68843766D01*
X166014470Y-68971034D01*
X166071651Y-69159535D01*
X166164509Y-69333258D01*
X166289473Y-69485528D01*
X166441743Y-69610492D01*
X166615466Y-69703349D01*
X166803967Y-69760530D01*
X167000000Y-69779838D01*
X167196034Y-69760530D01*
X167384535Y-69703349D01*
X167558258Y-69610492D01*
X167710528Y-69485528D01*
X167835492Y-69333258D01*
X167928349Y-69159535D01*
X167985530Y-68971033D01*
X168000000Y-68824120D01*
X168014470Y-68971034D01*
X168071651Y-69159535D01*
X168164509Y-69333258D01*
X168289473Y-69485528D01*
X168441743Y-69610492D01*
X168500001Y-69641631D01*
X168500001Y-69792892D01*
X166380173Y-71912722D01*
X166335443Y-71894194D01*
X166113265Y-71850000D01*
X165886735Y-71850000D01*
X165664557Y-71894194D01*
X165455271Y-71980884D01*
X165266918Y-72106737D01*
X165106737Y-72266918D01*
X164980884Y-72455271D01*
X164894194Y-72664557D01*
X164850000Y-72886735D01*
X164850000Y-73113265D01*
X164894194Y-73335443D01*
X164980884Y-73544729D01*
X165106737Y-73733082D01*
X165266918Y-73893263D01*
X165455271Y-74019116D01*
X165664557Y-74105806D01*
X165886735Y-74150000D01*
X166113265Y-74150000D01*
X166335443Y-74105806D01*
X166544729Y-74019116D01*
X166733082Y-73893263D01*
X166893263Y-73733082D01*
X167019116Y-73544729D01*
X167105806Y-73335443D01*
X167150000Y-73113265D01*
X167150000Y-72886735D01*
X167105806Y-72664557D01*
X167087278Y-72619827D01*
X169336187Y-70370920D01*
X169355264Y-70355264D01*
X169417746Y-70279129D01*
X169464175Y-70192267D01*
X169492765Y-70098017D01*
X169500000Y-70024560D01*
X169502419Y-70000000D01*
X169500000Y-69975440D01*
X169500000Y-69641632D01*
X169558258Y-69610492D01*
X169710528Y-69485528D01*
X169835492Y-69333258D01*
X169928349Y-69159535D01*
X169985530Y-68971033D01*
X170000000Y-68824120D01*
X170014470Y-68971034D01*
X170071651Y-69159535D01*
X170164509Y-69333258D01*
X170289473Y-69485528D01*
X170441743Y-69610492D01*
X170500001Y-69641631D01*
X170500000Y-72192893D01*
X162192895Y-80500000D01*
X162131056Y-80500000D01*
X161995818Y-80526901D01*
X161868426Y-80579668D01*
X161753776Y-80656274D01*
X161656274Y-80753776D01*
X161579668Y-80868426D01*
X161526901Y-80995818D01*
X161500000Y-81131056D01*
X161500000Y-81268944D01*
X161526901Y-81404182D01*
X161579668Y-81531574D01*
X161656274Y-81646224D01*
X161753776Y-81743726D01*
X161868426Y-81820332D01*
X161995818Y-81873099D01*
X162105153Y-81894847D01*
X162126901Y-82004182D01*
X162179668Y-82131574D01*
X162256274Y-82246224D01*
X162353776Y-82343726D01*
X162468426Y-82420332D01*
X162579165Y-82466201D01*
X162369161Y-82676206D01*
X162307322Y-82676206D01*
X162172084Y-82703107D01*
X162044692Y-82755874D01*
X161930042Y-82832480D01*
X161832540Y-82929982D01*
X161755934Y-83044632D01*
X161703167Y-83172024D01*
X161676266Y-83307262D01*
X161676266Y-83445150D01*
X161703167Y-83580388D01*
X161755934Y-83707780D01*
X161832540Y-83822430D01*
X161930042Y-83919932D01*
X162044692Y-83996538D01*
X162172084Y-84049305D01*
X162307322Y-84076206D01*
X162445210Y-84076206D01*
X162580448Y-84049305D01*
X162707840Y-83996538D01*
X162822490Y-83919932D01*
X162919992Y-83822430D01*
X162996598Y-83707780D01*
X163049365Y-83580388D01*
X163076266Y-83445150D01*
X163076266Y-83383311D01*
X167900000Y-78559579D01*
X167900000Y-78668944D01*
X167917945Y-78759157D01*
X167868426Y-78779668D01*
X167753776Y-78856274D01*
X167656274Y-78953776D01*
X167579668Y-79068426D01*
X167526901Y-79195818D01*
X167500000Y-79331056D01*
X167500000Y-79468944D01*
X167514139Y-79540023D01*
X167418426Y-79579668D01*
X167303776Y-79656274D01*
X167231406Y-79728644D01*
X167207733Y-79735825D01*
X167120871Y-79782254D01*
X167044736Y-79844736D01*
X167029080Y-79863813D01*
X163463819Y-83429076D01*
X163444737Y-83444736D01*
X163382255Y-83520871D01*
X163335826Y-83607733D01*
X163307235Y-83701983D01*
X163307144Y-83702906D01*
X163256274Y-83753776D01*
X163179668Y-83868426D01*
X163126901Y-83995818D01*
X163100000Y-84131056D01*
X163100000Y-84268944D01*
X163108257Y-84310452D01*
X159840572Y-84310452D01*
X159796846Y-84266726D01*
X159682196Y-84190120D01*
X159554804Y-84137353D01*
X159419566Y-84110452D01*
X159281678Y-84110452D01*
X159146440Y-84137353D01*
X159019048Y-84190120D01*
X158904398Y-84266726D01*
X158806896Y-84364228D01*
X158730290Y-84478878D01*
X158677523Y-84606270D01*
X158650622Y-84741508D01*
X141200000Y-84741508D01*
X141200000Y-81636735D01*
X155600000Y-81636735D01*
X155600000Y-81863265D01*
X155644194Y-82085443D01*
X155730884Y-82294729D01*
X155856737Y-82483082D01*
X156016918Y-82643263D01*
X156205271Y-82769116D01*
X156414557Y-82855806D01*
X156636735Y-82900000D01*
X156863265Y-82900000D01*
X157085443Y-82855806D01*
X157294729Y-82769116D01*
X157483082Y-82643263D01*
X157643263Y-82483082D01*
X157769116Y-82294729D01*
X157855806Y-82085443D01*
X157900000Y-81863265D01*
X157900000Y-81636735D01*
X157855806Y-81414557D01*
X157815603Y-81317500D01*
X159720106Y-79412999D01*
X159781943Y-79412999D01*
X159917181Y-79386098D01*
X160044573Y-79333331D01*
X160159223Y-79256725D01*
X160256725Y-79159223D01*
X160333331Y-79044573D01*
X160334542Y-79041649D01*
X160500000Y-79207107D01*
X160499999Y-80627198D01*
X160363265Y-80600000D01*
X160136735Y-80600000D01*
X159914557Y-80644194D01*
X159705271Y-80730884D01*
X159516918Y-80856737D01*
X159356737Y-81016918D01*
X159230884Y-81205271D01*
X159144194Y-81414557D01*
X159100000Y-81636735D01*
X159100000Y-81863265D01*
X159144194Y-82085443D01*
X159230884Y-82294729D01*
X159356737Y-82483082D01*
X159516918Y-82643263D01*
X159705271Y-82769116D01*
X159914557Y-82855806D01*
X160136735Y-82900000D01*
X160363265Y-82900000D01*
X160585443Y-82855806D01*
X160794729Y-82769116D01*
X160983082Y-82643263D01*
X161143263Y-82483082D01*
X161269116Y-82294729D01*
X161355806Y-82085443D01*
X161400000Y-81863265D01*
X161400000Y-81636735D01*
X161355806Y-81414557D01*
X161337339Y-81369975D01*
X161355263Y-81355265D01*
X161417745Y-81279130D01*
X161464174Y-81192268D01*
X161492764Y-81098018D01*
X161499999Y-81024561D01*
X161499999Y-81024560D01*
X161502418Y-81000001D01*
X161499999Y-80975441D01*
X161499999Y-79024559D01*
X161502418Y-78999999D01*
X161492764Y-78901982D01*
X161485831Y-78879128D01*
X161464174Y-78807732D01*
X161417745Y-78720870D01*
X161355263Y-78644735D01*
X161336186Y-78629079D01*
X160425130Y-77718024D01*
X160602995Y-77540159D01*
X160623027Y-77523719D01*
X160688633Y-77443778D01*
X160737383Y-77352573D01*
X160767403Y-77253610D01*
X160775000Y-77176480D01*
X160775000Y-77176473D01*
X160777539Y-77150693D01*
X160775000Y-77124913D01*
X160775000Y-76143765D01*
X160831574Y-76120332D01*
X160946224Y-76043726D01*
X161043726Y-75946224D01*
X161120332Y-75831574D01*
X161173099Y-75704182D01*
X161200000Y-75568944D01*
X161200000Y-75431056D01*
X161173099Y-75295818D01*
X161120332Y-75168426D01*
X161043726Y-75053776D01*
X160946224Y-74956274D01*
X160831574Y-74879668D01*
X160704182Y-74826901D01*
X160568944Y-74800000D01*
X160431056Y-74800000D01*
X160295818Y-74826901D01*
X160168426Y-74879668D01*
X160053776Y-74956274D01*
X159975819Y-75034231D01*
X159931574Y-75004668D01*
X159804182Y-74951901D01*
X159668944Y-74925000D01*
X159531056Y-74925000D01*
X159395818Y-74951901D01*
X159268426Y-75004668D01*
X159153776Y-75081274D01*
X159056274Y-75178776D01*
X158979668Y-75293426D01*
X158926901Y-75420818D01*
X158900000Y-75556056D01*
X158900000Y-75582537D01*
X157225005Y-77257534D01*
X157204974Y-77273973D01*
X157188535Y-77294004D01*
X157139367Y-77353915D01*
X157090617Y-77445120D01*
X157060597Y-77544083D01*
X157050461Y-77647000D01*
X157053001Y-77672790D01*
X157053000Y-79157050D01*
X157034274Y-79175776D01*
X156957668Y-79290426D01*
X156904901Y-79417818D01*
X156878000Y-79553056D01*
X156878000Y-79690944D01*
X156904901Y-79826182D01*
X156957668Y-79953574D01*
X157034274Y-80068224D01*
X157131776Y-80165726D01*
X157246426Y-80242332D01*
X157373818Y-80295099D01*
X157415502Y-80303391D01*
X157076481Y-80642411D01*
X156863265Y-80600000D01*
X156636735Y-80600000D01*
X156414557Y-80644194D01*
X156205271Y-80730884D01*
X156016918Y-80856737D01*
X155856737Y-81016918D01*
X155730884Y-81205271D01*
X155644194Y-81414557D01*
X155600000Y-81636735D01*
X141200000Y-81636735D01*
X141200000Y-68494771D01*
X141944197Y-68494771D01*
X142015503Y-68729210D01*
X142131176Y-68945233D01*
X142286770Y-69134539D01*
X142476306Y-69289852D01*
X142692500Y-69405205D01*
X142925229Y-69475801D01*
X143120000Y-69398913D01*
X143120000Y-68300000D01*
X143220000Y-68300000D01*
X143220000Y-69398913D01*
X143414771Y-69475801D01*
X143647500Y-69405205D01*
X143863694Y-69289852D01*
X144053230Y-69134539D01*
X144208824Y-68945233D01*
X144324497Y-68729210D01*
X144395803Y-68494771D01*
X144319002Y-68300000D01*
X143220000Y-68300000D01*
X143120000Y-68300000D01*
X142020998Y-68300000D01*
X141944197Y-68494771D01*
X141200000Y-68494771D01*
X141200000Y-68022006D01*
X141201645Y-68005229D01*
X141944197Y-68005229D01*
X142020998Y-68200000D01*
X143120000Y-68200000D01*
X143120000Y-67101087D01*
X143220000Y-67101087D01*
X143220000Y-68200000D01*
X144319002Y-68200000D01*
X144347831Y-68126886D01*
X144460000Y-68126886D01*
X144460000Y-68373114D01*
X144508037Y-68614611D01*
X144602265Y-68842097D01*
X144739062Y-69046828D01*
X144913172Y-69220938D01*
X145117903Y-69357735D01*
X145345389Y-69451963D01*
X145586886Y-69500000D01*
X145833114Y-69500000D01*
X146074611Y-69451963D01*
X146302097Y-69357735D01*
X146506828Y-69220938D01*
X146680938Y-69046828D01*
X146817735Y-68842097D01*
X146911963Y-68614611D01*
X146960000Y-68373114D01*
X146960000Y-68126886D01*
X146911963Y-67885389D01*
X146817735Y-67657903D01*
X146680938Y-67453172D01*
X146627766Y-67400000D01*
X146998065Y-67400000D01*
X146998065Y-69100000D01*
X147005788Y-69178414D01*
X147028660Y-69253814D01*
X147065803Y-69323303D01*
X147115789Y-69384211D01*
X147176697Y-69434197D01*
X147246186Y-69471340D01*
X147321586Y-69494212D01*
X147400000Y-69501935D01*
X147750001Y-69501935D01*
X147750000Y-71462356D01*
X147705271Y-71480884D01*
X147516918Y-71606737D01*
X147356737Y-71766918D01*
X147230884Y-71955271D01*
X147144194Y-72164557D01*
X147100000Y-72386735D01*
X147100000Y-72613265D01*
X147144194Y-72835443D01*
X147230884Y-73044729D01*
X147356737Y-73233082D01*
X147516918Y-73393263D01*
X147705271Y-73519116D01*
X147914557Y-73605806D01*
X148136735Y-73650000D01*
X148363265Y-73650000D01*
X148585443Y-73605806D01*
X148794729Y-73519116D01*
X148983082Y-73393263D01*
X149143263Y-73233082D01*
X149269116Y-73044729D01*
X149355806Y-72835443D01*
X149400000Y-72613265D01*
X149400000Y-72386735D01*
X149355806Y-72164557D01*
X149269116Y-71955271D01*
X149143263Y-71766918D01*
X148983082Y-71606737D01*
X148794729Y-71480884D01*
X148750000Y-71462356D01*
X148750000Y-69501935D01*
X149100000Y-69501935D01*
X149178414Y-69494212D01*
X149253814Y-69471340D01*
X149323303Y-69434197D01*
X149384211Y-69384211D01*
X149434197Y-69323303D01*
X149471340Y-69253814D01*
X149494212Y-69178414D01*
X149501935Y-69100000D01*
X149501935Y-68750000D01*
X152892895Y-68750000D01*
X155600000Y-71457107D01*
X155600000Y-71518944D01*
X155626901Y-71654182D01*
X155679668Y-71781574D01*
X155756274Y-71896224D01*
X155853776Y-71993726D01*
X155968426Y-72070332D01*
X156095818Y-72123099D01*
X156231056Y-72150000D01*
X156368944Y-72150000D01*
X156504182Y-72123099D01*
X156631574Y-72070332D01*
X156746224Y-71993726D01*
X156843726Y-71896224D01*
X156920332Y-71781574D01*
X156973099Y-71654182D01*
X157000000Y-71518944D01*
X157000000Y-71381056D01*
X156973099Y-71245818D01*
X156920332Y-71118426D01*
X156843726Y-71003776D01*
X156746224Y-70906274D01*
X156631574Y-70829668D01*
X156504182Y-70776901D01*
X156368944Y-70750000D01*
X156307107Y-70750000D01*
X153470929Y-67913824D01*
X153455264Y-67894736D01*
X153379129Y-67832254D01*
X153292267Y-67785825D01*
X153198017Y-67757235D01*
X153124560Y-67750000D01*
X153100000Y-67747581D01*
X153075440Y-67750000D01*
X149501935Y-67750000D01*
X149501935Y-67400000D01*
X149494212Y-67321586D01*
X149471340Y-67246186D01*
X149434197Y-67176697D01*
X149384211Y-67115789D01*
X149323303Y-67065803D01*
X149253814Y-67028660D01*
X149178414Y-67005788D01*
X149100000Y-66998065D01*
X147400000Y-66998065D01*
X147321586Y-67005788D01*
X147246186Y-67028660D01*
X147176697Y-67065803D01*
X147115789Y-67115789D01*
X147065803Y-67176697D01*
X147028660Y-67246186D01*
X147005788Y-67321586D01*
X146998065Y-67400000D01*
X146627766Y-67400000D01*
X146506828Y-67279062D01*
X146302097Y-67142265D01*
X146074611Y-67048037D01*
X145833114Y-67000000D01*
X145586886Y-67000000D01*
X145345389Y-67048037D01*
X145117903Y-67142265D01*
X144913172Y-67279062D01*
X144739062Y-67453172D01*
X144602265Y-67657903D01*
X144508037Y-67885389D01*
X144460000Y-68126886D01*
X144347831Y-68126886D01*
X144395803Y-68005229D01*
X144324497Y-67770790D01*
X144208824Y-67554767D01*
X144053230Y-67365461D01*
X143863694Y-67210148D01*
X143647500Y-67094795D01*
X143414771Y-67024199D01*
X143220000Y-67101087D01*
X143120000Y-67101087D01*
X142925229Y-67024199D01*
X142692500Y-67094795D01*
X142476306Y-67210148D01*
X142286770Y-67365461D01*
X142131176Y-67554767D01*
X142015503Y-67770790D01*
X141944197Y-68005229D01*
X141201645Y-68005229D01*
X141231636Y-67699358D01*
X141318950Y-67410161D01*
X141460770Y-67143437D01*
X141651701Y-66909334D01*
X141884457Y-66716781D01*
X142150189Y-66573101D01*
X142438760Y-66483773D01*
X142760088Y-66450000D01*
X176227994Y-66450000D01*
X176550642Y-66481636D01*
G37*
G04 #@! TD.AperFunction*
M02*
