G04 #@! TF.GenerationSoftware,KiCad,Pcbnew,(5.1.12)-1*
G04 #@! TF.CreationDate,2022-01-11T22:34:17-08:00*
G04 #@! TF.ProjectId,controlBoard,636f6e74-726f-46c4-926f-6172642e6b69,rev?*
G04 #@! TF.SameCoordinates,Original*
G04 #@! TF.FileFunction,Soldermask,Top*
G04 #@! TF.FilePolarity,Negative*
%FSLAX46Y46*%
G04 Gerber Fmt 4.6, Leading zero omitted, Abs format (unit mm)*
G04 Created by KiCad (PCBNEW (5.1.12)-1) date 2022-01-11 22:34:17*
%MOMM*%
%LPD*%
G01*
G04 APERTURE LIST*
%ADD10C,0.100000*%
%ADD11O,1.800000X1.800000*%
%ADD12O,1.300000X1.850000*%
G04 APERTURE END LIST*
G36*
G01*
X152580000Y-68540000D02*
X152020000Y-68540000D01*
G75*
G02*
X151950000Y-68470000I0J70000D01*
G01*
X151950000Y-67160000D01*
G75*
G02*
X152020000Y-67090000I70000J0D01*
G01*
X152580000Y-67090000D01*
G75*
G02*
X152650000Y-67160000I0J-70000D01*
G01*
X152650000Y-68470000D01*
G75*
G02*
X152580000Y-68540000I-70000J0D01*
G01*
G37*
G36*
G01*
X154480000Y-68540000D02*
X153920000Y-68540000D01*
G75*
G02*
X153850000Y-68470000I0J70000D01*
G01*
X153850000Y-67160000D01*
G75*
G02*
X153920000Y-67090000I70000J0D01*
G01*
X154480000Y-67090000D01*
G75*
G02*
X154550000Y-67160000I0J-70000D01*
G01*
X154550000Y-68470000D01*
G75*
G02*
X154480000Y-68540000I-70000J0D01*
G01*
G37*
G36*
G01*
X154480000Y-70910000D02*
X153920000Y-70910000D01*
G75*
G02*
X153850000Y-70840000I0J70000D01*
G01*
X153850000Y-69530000D01*
G75*
G02*
X153920000Y-69460000I70000J0D01*
G01*
X154480000Y-69460000D01*
G75*
G02*
X154550000Y-69530000I0J-70000D01*
G01*
X154550000Y-70840000D01*
G75*
G02*
X154480000Y-70910000I-70000J0D01*
G01*
G37*
G36*
G01*
X153530000Y-70910000D02*
X152970000Y-70910000D01*
G75*
G02*
X152900000Y-70840000I0J70000D01*
G01*
X152900000Y-69530000D01*
G75*
G02*
X152970000Y-69460000I70000J0D01*
G01*
X153530000Y-69460000D01*
G75*
G02*
X153600000Y-69530000I0J-70000D01*
G01*
X153600000Y-70840000D01*
G75*
G02*
X153530000Y-70910000I-70000J0D01*
G01*
G37*
G36*
G01*
X152580000Y-70910000D02*
X152020000Y-70910000D01*
G75*
G02*
X151950000Y-70840000I0J70000D01*
G01*
X151950000Y-69530000D01*
G75*
G02*
X152020000Y-69460000I70000J0D01*
G01*
X152580000Y-69460000D01*
G75*
G02*
X152650000Y-69530000I0J-70000D01*
G01*
X152650000Y-70840000D01*
G75*
G02*
X152580000Y-70910000I-70000J0D01*
G01*
G37*
G36*
G01*
X155996276Y-67325000D02*
X157003724Y-67325000D01*
G75*
G02*
X157275000Y-67596276I0J-271276D01*
G01*
X157275000Y-68328724D01*
G75*
G02*
X157003724Y-68600000I-271276J0D01*
G01*
X155996276Y-68600000D01*
G75*
G02*
X155725000Y-68328724I0J271276D01*
G01*
X155725000Y-67596276D01*
G75*
G02*
X155996276Y-67325000I271276J0D01*
G01*
G37*
G36*
G01*
X155996276Y-69400000D02*
X157003724Y-69400000D01*
G75*
G02*
X157275000Y-69671276I0J-271276D01*
G01*
X157275000Y-70403724D01*
G75*
G02*
X157003724Y-70675000I-271276J0D01*
G01*
X155996276Y-70675000D01*
G75*
G02*
X155725000Y-70403724I0J271276D01*
G01*
X155725000Y-69671276D01*
G75*
G02*
X155996276Y-69400000I271276J0D01*
G01*
G37*
D10*
G36*
X156806111Y-94700602D02*
G01*
X156824534Y-94700602D01*
X156829435Y-94700843D01*
X156878266Y-94705653D01*
X156883119Y-94706373D01*
X156931244Y-94715945D01*
X156936005Y-94717137D01*
X156982960Y-94731381D01*
X156987579Y-94733034D01*
X157032912Y-94751811D01*
X157037349Y-94753909D01*
X157080622Y-94777040D01*
X157084829Y-94779562D01*
X157125628Y-94806822D01*
X157129570Y-94809746D01*
X157167499Y-94840874D01*
X157171134Y-94844169D01*
X157205831Y-94878866D01*
X157209126Y-94882501D01*
X157240254Y-94920430D01*
X157243178Y-94924372D01*
X157270438Y-94965171D01*
X157272960Y-94969378D01*
X157296091Y-95012651D01*
X157298189Y-95017088D01*
X157316966Y-95062421D01*
X157318619Y-95067040D01*
X157332863Y-95113995D01*
X157334055Y-95118756D01*
X157343627Y-95166881D01*
X157344347Y-95171734D01*
X157349157Y-95220565D01*
X157349398Y-95225466D01*
X157349398Y-95243889D01*
X157350000Y-95250000D01*
X157350000Y-95750000D01*
X157349398Y-95756111D01*
X157349398Y-95774534D01*
X157349157Y-95779435D01*
X157344347Y-95828266D01*
X157343627Y-95833119D01*
X157334055Y-95881244D01*
X157332863Y-95886005D01*
X157318619Y-95932960D01*
X157316966Y-95937579D01*
X157298189Y-95982912D01*
X157296091Y-95987349D01*
X157272960Y-96030622D01*
X157270438Y-96034829D01*
X157243178Y-96075628D01*
X157240254Y-96079570D01*
X157209126Y-96117499D01*
X157205831Y-96121134D01*
X157171134Y-96155831D01*
X157167499Y-96159126D01*
X157129570Y-96190254D01*
X157125628Y-96193178D01*
X157084829Y-96220438D01*
X157080622Y-96222960D01*
X157037349Y-96246091D01*
X157032912Y-96248189D01*
X156987579Y-96266966D01*
X156982960Y-96268619D01*
X156936005Y-96282863D01*
X156931244Y-96284055D01*
X156883119Y-96293627D01*
X156878266Y-96294347D01*
X156829435Y-96299157D01*
X156824534Y-96299398D01*
X156806111Y-96299398D01*
X156800000Y-96300000D01*
X156300000Y-96300000D01*
X156290245Y-96299039D01*
X156280866Y-96296194D01*
X156272221Y-96291573D01*
X156264645Y-96285355D01*
X156258427Y-96277779D01*
X156253806Y-96269134D01*
X156250961Y-96259755D01*
X156250000Y-96250000D01*
X156250000Y-94750000D01*
X156250961Y-94740245D01*
X156253806Y-94730866D01*
X156258427Y-94722221D01*
X156264645Y-94714645D01*
X156272221Y-94708427D01*
X156280866Y-94703806D01*
X156290245Y-94700961D01*
X156300000Y-94700000D01*
X156800000Y-94700000D01*
X156806111Y-94700602D01*
G37*
G36*
X156009755Y-94700961D02*
G01*
X156019134Y-94703806D01*
X156027779Y-94708427D01*
X156035355Y-94714645D01*
X156041573Y-94722221D01*
X156046194Y-94730866D01*
X156049039Y-94740245D01*
X156050000Y-94750000D01*
X156050000Y-96250000D01*
X156049039Y-96259755D01*
X156046194Y-96269134D01*
X156041573Y-96277779D01*
X156035355Y-96285355D01*
X156027779Y-96291573D01*
X156019134Y-96296194D01*
X156009755Y-96299039D01*
X156000000Y-96300000D01*
X155500000Y-96300000D01*
X155493889Y-96299398D01*
X155475466Y-96299398D01*
X155470565Y-96299157D01*
X155421734Y-96294347D01*
X155416881Y-96293627D01*
X155368756Y-96284055D01*
X155363995Y-96282863D01*
X155317040Y-96268619D01*
X155312421Y-96266966D01*
X155267088Y-96248189D01*
X155262651Y-96246091D01*
X155219378Y-96222960D01*
X155215171Y-96220438D01*
X155174372Y-96193178D01*
X155170430Y-96190254D01*
X155132501Y-96159126D01*
X155128866Y-96155831D01*
X155094169Y-96121134D01*
X155090874Y-96117499D01*
X155059746Y-96079570D01*
X155056822Y-96075628D01*
X155029562Y-96034829D01*
X155027040Y-96030622D01*
X155003909Y-95987349D01*
X155001811Y-95982912D01*
X154983034Y-95937579D01*
X154981381Y-95932960D01*
X154967137Y-95886005D01*
X154965945Y-95881244D01*
X154956373Y-95833119D01*
X154955653Y-95828266D01*
X154950843Y-95779435D01*
X154950602Y-95774534D01*
X154950602Y-95756111D01*
X154950000Y-95750000D01*
X154950000Y-95250000D01*
X154950602Y-95243889D01*
X154950602Y-95225466D01*
X154950843Y-95220565D01*
X154955653Y-95171734D01*
X154956373Y-95166881D01*
X154965945Y-95118756D01*
X154967137Y-95113995D01*
X154981381Y-95067040D01*
X154983034Y-95062421D01*
X155001811Y-95017088D01*
X155003909Y-95012651D01*
X155027040Y-94969378D01*
X155029562Y-94965171D01*
X155056822Y-94924372D01*
X155059746Y-94920430D01*
X155090874Y-94882501D01*
X155094169Y-94878866D01*
X155128866Y-94844169D01*
X155132501Y-94840874D01*
X155170430Y-94809746D01*
X155174372Y-94806822D01*
X155215171Y-94779562D01*
X155219378Y-94777040D01*
X155262651Y-94753909D01*
X155267088Y-94751811D01*
X155312421Y-94733034D01*
X155317040Y-94731381D01*
X155363995Y-94717137D01*
X155368756Y-94715945D01*
X155416881Y-94706373D01*
X155421734Y-94705653D01*
X155470565Y-94700843D01*
X155475466Y-94700602D01*
X155493889Y-94700602D01*
X155500000Y-94700000D01*
X156000000Y-94700000D01*
X156009755Y-94700961D01*
G37*
G36*
G01*
X163150000Y-79911000D02*
X163150000Y-80461000D01*
G75*
G02*
X163100000Y-80511000I-50000J0D01*
G01*
X161500000Y-80511000D01*
G75*
G02*
X161450000Y-80461000I0J50000D01*
G01*
X161450000Y-79911000D01*
G75*
G02*
X161500000Y-79861000I50000J0D01*
G01*
X163100000Y-79861000D01*
G75*
G02*
X163150000Y-79911000I0J-50000D01*
G01*
G37*
G36*
G01*
X163150000Y-79111000D02*
X163150000Y-79661000D01*
G75*
G02*
X163100000Y-79711000I-50000J0D01*
G01*
X161500000Y-79711000D01*
G75*
G02*
X161450000Y-79661000I0J50000D01*
G01*
X161450000Y-79111000D01*
G75*
G02*
X161500000Y-79061000I50000J0D01*
G01*
X163100000Y-79061000D01*
G75*
G02*
X163150000Y-79111000I0J-50000D01*
G01*
G37*
G36*
G01*
X163150000Y-78311000D02*
X163150000Y-78861000D01*
G75*
G02*
X163100000Y-78911000I-50000J0D01*
G01*
X161500000Y-78911000D01*
G75*
G02*
X161450000Y-78861000I0J50000D01*
G01*
X161450000Y-78311000D01*
G75*
G02*
X161500000Y-78261000I50000J0D01*
G01*
X163100000Y-78261000D01*
G75*
G02*
X163150000Y-78311000I0J-50000D01*
G01*
G37*
G36*
G01*
X163150000Y-77511000D02*
X163150000Y-78061000D01*
G75*
G02*
X163100000Y-78111000I-50000J0D01*
G01*
X161500000Y-78111000D01*
G75*
G02*
X161450000Y-78061000I0J50000D01*
G01*
X161450000Y-77511000D01*
G75*
G02*
X161500000Y-77461000I50000J0D01*
G01*
X163100000Y-77461000D01*
G75*
G02*
X163150000Y-77511000I0J-50000D01*
G01*
G37*
G36*
G01*
X163150000Y-76711000D02*
X163150000Y-77261000D01*
G75*
G02*
X163100000Y-77311000I-50000J0D01*
G01*
X161500000Y-77311000D01*
G75*
G02*
X161450000Y-77261000I0J50000D01*
G01*
X161450000Y-76711000D01*
G75*
G02*
X161500000Y-76661000I50000J0D01*
G01*
X163100000Y-76661000D01*
G75*
G02*
X163150000Y-76711000I0J-50000D01*
G01*
G37*
G36*
G01*
X163150000Y-75911000D02*
X163150000Y-76461000D01*
G75*
G02*
X163100000Y-76511000I-50000J0D01*
G01*
X161500000Y-76511000D01*
G75*
G02*
X161450000Y-76461000I0J50000D01*
G01*
X161450000Y-75911000D01*
G75*
G02*
X161500000Y-75861000I50000J0D01*
G01*
X163100000Y-75861000D01*
G75*
G02*
X163150000Y-75911000I0J-50000D01*
G01*
G37*
G36*
G01*
X163150000Y-75111000D02*
X163150000Y-75661000D01*
G75*
G02*
X163100000Y-75711000I-50000J0D01*
G01*
X161500000Y-75711000D01*
G75*
G02*
X161450000Y-75661000I0J50000D01*
G01*
X161450000Y-75111000D01*
G75*
G02*
X161500000Y-75061000I50000J0D01*
G01*
X163100000Y-75061000D01*
G75*
G02*
X163150000Y-75111000I0J-50000D01*
G01*
G37*
G36*
G01*
X163150000Y-74311000D02*
X163150000Y-74861000D01*
G75*
G02*
X163100000Y-74911000I-50000J0D01*
G01*
X161500000Y-74911000D01*
G75*
G02*
X161450000Y-74861000I0J50000D01*
G01*
X161450000Y-74311000D01*
G75*
G02*
X161500000Y-74261000I50000J0D01*
G01*
X163100000Y-74261000D01*
G75*
G02*
X163150000Y-74311000I0J-50000D01*
G01*
G37*
G36*
G01*
X164025000Y-73986000D02*
X163475000Y-73986000D01*
G75*
G02*
X163425000Y-73936000I0J50000D01*
G01*
X163425000Y-72336000D01*
G75*
G02*
X163475000Y-72286000I50000J0D01*
G01*
X164025000Y-72286000D01*
G75*
G02*
X164075000Y-72336000I0J-50000D01*
G01*
X164075000Y-73936000D01*
G75*
G02*
X164025000Y-73986000I-50000J0D01*
G01*
G37*
G36*
G01*
X164825000Y-73986000D02*
X164275000Y-73986000D01*
G75*
G02*
X164225000Y-73936000I0J50000D01*
G01*
X164225000Y-72336000D01*
G75*
G02*
X164275000Y-72286000I50000J0D01*
G01*
X164825000Y-72286000D01*
G75*
G02*
X164875000Y-72336000I0J-50000D01*
G01*
X164875000Y-73936000D01*
G75*
G02*
X164825000Y-73986000I-50000J0D01*
G01*
G37*
G36*
G01*
X165625000Y-73986000D02*
X165075000Y-73986000D01*
G75*
G02*
X165025000Y-73936000I0J50000D01*
G01*
X165025000Y-72336000D01*
G75*
G02*
X165075000Y-72286000I50000J0D01*
G01*
X165625000Y-72286000D01*
G75*
G02*
X165675000Y-72336000I0J-50000D01*
G01*
X165675000Y-73936000D01*
G75*
G02*
X165625000Y-73986000I-50000J0D01*
G01*
G37*
G36*
G01*
X166425000Y-73986000D02*
X165875000Y-73986000D01*
G75*
G02*
X165825000Y-73936000I0J50000D01*
G01*
X165825000Y-72336000D01*
G75*
G02*
X165875000Y-72286000I50000J0D01*
G01*
X166425000Y-72286000D01*
G75*
G02*
X166475000Y-72336000I0J-50000D01*
G01*
X166475000Y-73936000D01*
G75*
G02*
X166425000Y-73986000I-50000J0D01*
G01*
G37*
G36*
G01*
X167225000Y-73986000D02*
X166675000Y-73986000D01*
G75*
G02*
X166625000Y-73936000I0J50000D01*
G01*
X166625000Y-72336000D01*
G75*
G02*
X166675000Y-72286000I50000J0D01*
G01*
X167225000Y-72286000D01*
G75*
G02*
X167275000Y-72336000I0J-50000D01*
G01*
X167275000Y-73936000D01*
G75*
G02*
X167225000Y-73986000I-50000J0D01*
G01*
G37*
G36*
G01*
X168025000Y-73986000D02*
X167475000Y-73986000D01*
G75*
G02*
X167425000Y-73936000I0J50000D01*
G01*
X167425000Y-72336000D01*
G75*
G02*
X167475000Y-72286000I50000J0D01*
G01*
X168025000Y-72286000D01*
G75*
G02*
X168075000Y-72336000I0J-50000D01*
G01*
X168075000Y-73936000D01*
G75*
G02*
X168025000Y-73986000I-50000J0D01*
G01*
G37*
G36*
G01*
X168825000Y-73986000D02*
X168275000Y-73986000D01*
G75*
G02*
X168225000Y-73936000I0J50000D01*
G01*
X168225000Y-72336000D01*
G75*
G02*
X168275000Y-72286000I50000J0D01*
G01*
X168825000Y-72286000D01*
G75*
G02*
X168875000Y-72336000I0J-50000D01*
G01*
X168875000Y-73936000D01*
G75*
G02*
X168825000Y-73986000I-50000J0D01*
G01*
G37*
G36*
G01*
X169625000Y-73986000D02*
X169075000Y-73986000D01*
G75*
G02*
X169025000Y-73936000I0J50000D01*
G01*
X169025000Y-72336000D01*
G75*
G02*
X169075000Y-72286000I50000J0D01*
G01*
X169625000Y-72286000D01*
G75*
G02*
X169675000Y-72336000I0J-50000D01*
G01*
X169675000Y-73936000D01*
G75*
G02*
X169625000Y-73986000I-50000J0D01*
G01*
G37*
G36*
G01*
X171650000Y-74311000D02*
X171650000Y-74861000D01*
G75*
G02*
X171600000Y-74911000I-50000J0D01*
G01*
X170000000Y-74911000D01*
G75*
G02*
X169950000Y-74861000I0J50000D01*
G01*
X169950000Y-74311000D01*
G75*
G02*
X170000000Y-74261000I50000J0D01*
G01*
X171600000Y-74261000D01*
G75*
G02*
X171650000Y-74311000I0J-50000D01*
G01*
G37*
G36*
G01*
X171650000Y-75111000D02*
X171650000Y-75661000D01*
G75*
G02*
X171600000Y-75711000I-50000J0D01*
G01*
X170000000Y-75711000D01*
G75*
G02*
X169950000Y-75661000I0J50000D01*
G01*
X169950000Y-75111000D01*
G75*
G02*
X170000000Y-75061000I50000J0D01*
G01*
X171600000Y-75061000D01*
G75*
G02*
X171650000Y-75111000I0J-50000D01*
G01*
G37*
G36*
G01*
X171650000Y-75911000D02*
X171650000Y-76461000D01*
G75*
G02*
X171600000Y-76511000I-50000J0D01*
G01*
X170000000Y-76511000D01*
G75*
G02*
X169950000Y-76461000I0J50000D01*
G01*
X169950000Y-75911000D01*
G75*
G02*
X170000000Y-75861000I50000J0D01*
G01*
X171600000Y-75861000D01*
G75*
G02*
X171650000Y-75911000I0J-50000D01*
G01*
G37*
G36*
G01*
X171650000Y-76711000D02*
X171650000Y-77261000D01*
G75*
G02*
X171600000Y-77311000I-50000J0D01*
G01*
X170000000Y-77311000D01*
G75*
G02*
X169950000Y-77261000I0J50000D01*
G01*
X169950000Y-76711000D01*
G75*
G02*
X170000000Y-76661000I50000J0D01*
G01*
X171600000Y-76661000D01*
G75*
G02*
X171650000Y-76711000I0J-50000D01*
G01*
G37*
G36*
G01*
X171650000Y-77511000D02*
X171650000Y-78061000D01*
G75*
G02*
X171600000Y-78111000I-50000J0D01*
G01*
X170000000Y-78111000D01*
G75*
G02*
X169950000Y-78061000I0J50000D01*
G01*
X169950000Y-77511000D01*
G75*
G02*
X170000000Y-77461000I50000J0D01*
G01*
X171600000Y-77461000D01*
G75*
G02*
X171650000Y-77511000I0J-50000D01*
G01*
G37*
G36*
G01*
X171650000Y-78311000D02*
X171650000Y-78861000D01*
G75*
G02*
X171600000Y-78911000I-50000J0D01*
G01*
X170000000Y-78911000D01*
G75*
G02*
X169950000Y-78861000I0J50000D01*
G01*
X169950000Y-78311000D01*
G75*
G02*
X170000000Y-78261000I50000J0D01*
G01*
X171600000Y-78261000D01*
G75*
G02*
X171650000Y-78311000I0J-50000D01*
G01*
G37*
G36*
G01*
X171650000Y-79111000D02*
X171650000Y-79661000D01*
G75*
G02*
X171600000Y-79711000I-50000J0D01*
G01*
X170000000Y-79711000D01*
G75*
G02*
X169950000Y-79661000I0J50000D01*
G01*
X169950000Y-79111000D01*
G75*
G02*
X170000000Y-79061000I50000J0D01*
G01*
X171600000Y-79061000D01*
G75*
G02*
X171650000Y-79111000I0J-50000D01*
G01*
G37*
G36*
G01*
X171650000Y-79911000D02*
X171650000Y-80461000D01*
G75*
G02*
X171600000Y-80511000I-50000J0D01*
G01*
X170000000Y-80511000D01*
G75*
G02*
X169950000Y-80461000I0J50000D01*
G01*
X169950000Y-79911000D01*
G75*
G02*
X170000000Y-79861000I50000J0D01*
G01*
X171600000Y-79861000D01*
G75*
G02*
X171650000Y-79911000I0J-50000D01*
G01*
G37*
G36*
G01*
X169625000Y-82486000D02*
X169075000Y-82486000D01*
G75*
G02*
X169025000Y-82436000I0J50000D01*
G01*
X169025000Y-80836000D01*
G75*
G02*
X169075000Y-80786000I50000J0D01*
G01*
X169625000Y-80786000D01*
G75*
G02*
X169675000Y-80836000I0J-50000D01*
G01*
X169675000Y-82436000D01*
G75*
G02*
X169625000Y-82486000I-50000J0D01*
G01*
G37*
G36*
G01*
X168825000Y-82486000D02*
X168275000Y-82486000D01*
G75*
G02*
X168225000Y-82436000I0J50000D01*
G01*
X168225000Y-80836000D01*
G75*
G02*
X168275000Y-80786000I50000J0D01*
G01*
X168825000Y-80786000D01*
G75*
G02*
X168875000Y-80836000I0J-50000D01*
G01*
X168875000Y-82436000D01*
G75*
G02*
X168825000Y-82486000I-50000J0D01*
G01*
G37*
G36*
G01*
X168025000Y-82486000D02*
X167475000Y-82486000D01*
G75*
G02*
X167425000Y-82436000I0J50000D01*
G01*
X167425000Y-80836000D01*
G75*
G02*
X167475000Y-80786000I50000J0D01*
G01*
X168025000Y-80786000D01*
G75*
G02*
X168075000Y-80836000I0J-50000D01*
G01*
X168075000Y-82436000D01*
G75*
G02*
X168025000Y-82486000I-50000J0D01*
G01*
G37*
G36*
G01*
X167225000Y-82486000D02*
X166675000Y-82486000D01*
G75*
G02*
X166625000Y-82436000I0J50000D01*
G01*
X166625000Y-80836000D01*
G75*
G02*
X166675000Y-80786000I50000J0D01*
G01*
X167225000Y-80786000D01*
G75*
G02*
X167275000Y-80836000I0J-50000D01*
G01*
X167275000Y-82436000D01*
G75*
G02*
X167225000Y-82486000I-50000J0D01*
G01*
G37*
G36*
G01*
X166425000Y-82486000D02*
X165875000Y-82486000D01*
G75*
G02*
X165825000Y-82436000I0J50000D01*
G01*
X165825000Y-80836000D01*
G75*
G02*
X165875000Y-80786000I50000J0D01*
G01*
X166425000Y-80786000D01*
G75*
G02*
X166475000Y-80836000I0J-50000D01*
G01*
X166475000Y-82436000D01*
G75*
G02*
X166425000Y-82486000I-50000J0D01*
G01*
G37*
G36*
G01*
X165625000Y-82486000D02*
X165075000Y-82486000D01*
G75*
G02*
X165025000Y-82436000I0J50000D01*
G01*
X165025000Y-80836000D01*
G75*
G02*
X165075000Y-80786000I50000J0D01*
G01*
X165625000Y-80786000D01*
G75*
G02*
X165675000Y-80836000I0J-50000D01*
G01*
X165675000Y-82436000D01*
G75*
G02*
X165625000Y-82486000I-50000J0D01*
G01*
G37*
G36*
G01*
X164825000Y-82486000D02*
X164275000Y-82486000D01*
G75*
G02*
X164225000Y-82436000I0J50000D01*
G01*
X164225000Y-80836000D01*
G75*
G02*
X164275000Y-80786000I50000J0D01*
G01*
X164825000Y-80786000D01*
G75*
G02*
X164875000Y-80836000I0J-50000D01*
G01*
X164875000Y-82436000D01*
G75*
G02*
X164825000Y-82486000I-50000J0D01*
G01*
G37*
G36*
G01*
X164025000Y-82486000D02*
X163475000Y-82486000D01*
G75*
G02*
X163425000Y-82436000I0J50000D01*
G01*
X163425000Y-80836000D01*
G75*
G02*
X163475000Y-80786000I50000J0D01*
G01*
X164025000Y-80786000D01*
G75*
G02*
X164075000Y-80836000I0J-50000D01*
G01*
X164075000Y-82436000D01*
G75*
G02*
X164025000Y-82486000I-50000J0D01*
G01*
G37*
G36*
G01*
X161600000Y-88479168D02*
X161600000Y-87520832D01*
G75*
G02*
X161870832Y-87250000I270832J0D01*
G01*
X162629168Y-87250000D01*
G75*
G02*
X162900000Y-87520832I0J-270832D01*
G01*
X162900000Y-88479168D01*
G75*
G02*
X162629168Y-88750000I-270832J0D01*
G01*
X161870832Y-88750000D01*
G75*
G02*
X161600000Y-88479168I0J270832D01*
G01*
G37*
G36*
G01*
X159600000Y-88479168D02*
X159600000Y-87520832D01*
G75*
G02*
X159870832Y-87250000I270832J0D01*
G01*
X160629168Y-87250000D01*
G75*
G02*
X160900000Y-87520832I0J-270832D01*
G01*
X160900000Y-88479168D01*
G75*
G02*
X160629168Y-88750000I-270832J0D01*
G01*
X159870832Y-88750000D01*
G75*
G02*
X159600000Y-88479168I0J270832D01*
G01*
G37*
G36*
G01*
X160850000Y-89771738D02*
X160850000Y-90728262D01*
G75*
G02*
X160578262Y-91000000I-271738J0D01*
G01*
X159871738Y-91000000D01*
G75*
G02*
X159600000Y-90728262I0J271738D01*
G01*
X159600000Y-89771738D01*
G75*
G02*
X159871738Y-89500000I271738J0D01*
G01*
X160578262Y-89500000D01*
G75*
G02*
X160850000Y-89771738I0J-271738D01*
G01*
G37*
G36*
G01*
X162900000Y-89771738D02*
X162900000Y-90728262D01*
G75*
G02*
X162628262Y-91000000I-271738J0D01*
G01*
X161921738Y-91000000D01*
G75*
G02*
X161650000Y-90728262I0J271738D01*
G01*
X161650000Y-89771738D01*
G75*
G02*
X161921738Y-89500000I271738J0D01*
G01*
X162628262Y-89500000D01*
G75*
G02*
X162900000Y-89771738I0J-271738D01*
G01*
G37*
D11*
X176540000Y-79080000D03*
X174000000Y-79080000D03*
X176540000Y-76540000D03*
X174000000Y-76540000D03*
X176540000Y-74000000D03*
G36*
G01*
X173100000Y-74850000D02*
X173100000Y-73150000D01*
G75*
G02*
X173150000Y-73100000I50000J0D01*
G01*
X174850000Y-73100000D01*
G75*
G02*
X174900000Y-73150000I0J-50000D01*
G01*
X174900000Y-74850000D01*
G75*
G02*
X174850000Y-74900000I-50000J0D01*
G01*
X173150000Y-74900000D01*
G75*
G02*
X173100000Y-74850000I0J50000D01*
G01*
G37*
G36*
G01*
X157729168Y-82400000D02*
X156770832Y-82400000D01*
G75*
G02*
X156500000Y-82129168I0J270832D01*
G01*
X156500000Y-81370832D01*
G75*
G02*
X156770832Y-81100000I270832J0D01*
G01*
X157729168Y-81100000D01*
G75*
G02*
X158000000Y-81370832I0J-270832D01*
G01*
X158000000Y-82129168D01*
G75*
G02*
X157729168Y-82400000I-270832J0D01*
G01*
G37*
G36*
G01*
X157729168Y-84400000D02*
X156770832Y-84400000D01*
G75*
G02*
X156500000Y-84129168I0J270832D01*
G01*
X156500000Y-83370832D01*
G75*
G02*
X156770832Y-83100000I270832J0D01*
G01*
X157729168Y-83100000D01*
G75*
G02*
X158000000Y-83370832I0J-270832D01*
G01*
X158000000Y-84129168D01*
G75*
G02*
X157729168Y-84400000I-270832J0D01*
G01*
G37*
G36*
G01*
X159729168Y-82400000D02*
X158770832Y-82400000D01*
G75*
G02*
X158500000Y-82129168I0J270832D01*
G01*
X158500000Y-81370832D01*
G75*
G02*
X158770832Y-81100000I270832J0D01*
G01*
X159729168Y-81100000D01*
G75*
G02*
X160000000Y-81370832I0J-270832D01*
G01*
X160000000Y-82129168D01*
G75*
G02*
X159729168Y-82400000I-270832J0D01*
G01*
G37*
G36*
G01*
X159729168Y-84400000D02*
X158770832Y-84400000D01*
G75*
G02*
X158500000Y-84129168I0J270832D01*
G01*
X158500000Y-83370832D01*
G75*
G02*
X158770832Y-83100000I270832J0D01*
G01*
X159729168Y-83100000D01*
G75*
G02*
X160000000Y-83370832I0J-270832D01*
G01*
X160000000Y-84129168D01*
G75*
G02*
X159729168Y-84400000I-270832J0D01*
G01*
G37*
G36*
G01*
X154850000Y-92400000D02*
X154850000Y-93600000D01*
G75*
G02*
X154800000Y-93650000I-50000J0D01*
G01*
X153900000Y-93650000D01*
G75*
G02*
X153850000Y-93600000I0J50000D01*
G01*
X153850000Y-92400000D01*
G75*
G02*
X153900000Y-92350000I50000J0D01*
G01*
X154800000Y-92350000D01*
G75*
G02*
X154850000Y-92400000I0J-50000D01*
G01*
G37*
G36*
G01*
X158150000Y-92400000D02*
X158150000Y-93600000D01*
G75*
G02*
X158100000Y-93650000I-50000J0D01*
G01*
X157200000Y-93650000D01*
G75*
G02*
X157150000Y-93600000I0J50000D01*
G01*
X157150000Y-92400000D01*
G75*
G02*
X157200000Y-92350000I50000J0D01*
G01*
X158100000Y-92350000D01*
G75*
G02*
X158150000Y-92400000I0J-50000D01*
G01*
G37*
G36*
G01*
X145100000Y-75165625D02*
X145100000Y-76334375D01*
G75*
G02*
X144834375Y-76600000I-265625J0D01*
G01*
X141765625Y-76600000D01*
G75*
G02*
X141500000Y-76334375I0J265625D01*
G01*
X141500000Y-75165625D01*
G75*
G02*
X141765625Y-74900000I265625J0D01*
G01*
X144834375Y-74900000D01*
G75*
G02*
X145100000Y-75165625I0J-265625D01*
G01*
G37*
G36*
G01*
X150500000Y-75165625D02*
X150500000Y-76334375D01*
G75*
G02*
X150234375Y-76600000I-265625J0D01*
G01*
X147165625Y-76600000D01*
G75*
G02*
X146900000Y-76334375I0J265625D01*
G01*
X146900000Y-75165625D01*
G75*
G02*
X147165625Y-74900000I265625J0D01*
G01*
X150234375Y-74900000D01*
G75*
G02*
X150500000Y-75165625I0J-265625D01*
G01*
G37*
G36*
G01*
X145100000Y-82665625D02*
X145100000Y-83834375D01*
G75*
G02*
X144834375Y-84100000I-265625J0D01*
G01*
X141765625Y-84100000D01*
G75*
G02*
X141500000Y-83834375I0J265625D01*
G01*
X141500000Y-82665625D01*
G75*
G02*
X141765625Y-82400000I265625J0D01*
G01*
X144834375Y-82400000D01*
G75*
G02*
X145100000Y-82665625I0J-265625D01*
G01*
G37*
G36*
G01*
X150500000Y-82665625D02*
X150500000Y-83834375D01*
G75*
G02*
X150234375Y-84100000I-265625J0D01*
G01*
X147165625Y-84100000D01*
G75*
G02*
X146900000Y-83834375I0J265625D01*
G01*
X146900000Y-82665625D01*
G75*
G02*
X147165625Y-82400000I265625J0D01*
G01*
X150234375Y-82400000D01*
G75*
G02*
X150500000Y-82665625I0J-265625D01*
G01*
G37*
G36*
G01*
X145950000Y-98600000D02*
X145950000Y-96800000D01*
G75*
G02*
X146850000Y-95900000I900000J0D01*
G01*
X148650000Y-95900000D01*
G75*
G02*
X149550000Y-96800000I0J-900000D01*
G01*
X149550000Y-98600000D01*
G75*
G02*
X148650000Y-99500000I-900000J0D01*
G01*
X146850000Y-99500000D01*
G75*
G02*
X145950000Y-98600000I0J900000D01*
G01*
G37*
G36*
G01*
X143200000Y-94025000D02*
X143200000Y-91975000D01*
G75*
G02*
X143975000Y-91200000I775000J0D01*
G01*
X145525000Y-91200000D01*
G75*
G02*
X146300000Y-91975000I0J-775000D01*
G01*
X146300000Y-94025000D01*
G75*
G02*
X145525000Y-94800000I-775000J0D01*
G01*
X143975000Y-94800000D01*
G75*
G02*
X143200000Y-94025000I0J775000D01*
G01*
G37*
G36*
G01*
X148950000Y-94750000D02*
X148950000Y-91250000D01*
G75*
G02*
X149000000Y-91200000I50000J0D01*
G01*
X152500000Y-91200000D01*
G75*
G02*
X152550000Y-91250000I0J-50000D01*
G01*
X152550000Y-94750000D01*
G75*
G02*
X152500000Y-94800000I-50000J0D01*
G01*
X149000000Y-94800000D01*
G75*
G02*
X148950000Y-94750000I0J50000D01*
G01*
G37*
G36*
G01*
X153200000Y-89500000D02*
X153200000Y-87500000D01*
G75*
G02*
X153250000Y-87450000I50000J0D01*
G01*
X154600000Y-87450000D01*
G75*
G02*
X154650000Y-87500000I0J-50000D01*
G01*
X154650000Y-89500000D01*
G75*
G02*
X154600000Y-89550000I-50000J0D01*
G01*
X153250000Y-89550000D01*
G75*
G02*
X153200000Y-89500000I0J50000D01*
G01*
G37*
G36*
G01*
X157350000Y-89500000D02*
X157350000Y-87500000D01*
G75*
G02*
X157400000Y-87450000I50000J0D01*
G01*
X158750000Y-87450000D01*
G75*
G02*
X158800000Y-87500000I0J-50000D01*
G01*
X158800000Y-89500000D01*
G75*
G02*
X158750000Y-89550000I-50000J0D01*
G01*
X157400000Y-89550000D01*
G75*
G02*
X157350000Y-89500000I0J50000D01*
G01*
G37*
D12*
X175000000Y-68500000D03*
X173000000Y-68500000D03*
X171000000Y-68500000D03*
X169000000Y-68500000D03*
X167000000Y-68500000D03*
G36*
G01*
X164350000Y-69154168D02*
X164350000Y-67845832D01*
G75*
G02*
X164620832Y-67575000I270832J0D01*
G01*
X165379168Y-67575000D01*
G75*
G02*
X165650000Y-67845832I0J-270832D01*
G01*
X165650000Y-69154168D01*
G75*
G02*
X165379168Y-69425000I-270832J0D01*
G01*
X164620832Y-69425000D01*
G75*
G02*
X164350000Y-69154168I0J270832D01*
G01*
G37*
D10*
G36*
X173799398Y-93906111D02*
G01*
X173799398Y-93924534D01*
X173799157Y-93929435D01*
X173794347Y-93978266D01*
X173793627Y-93983119D01*
X173784055Y-94031244D01*
X173782863Y-94036005D01*
X173768619Y-94082960D01*
X173766966Y-94087579D01*
X173748189Y-94132912D01*
X173746091Y-94137349D01*
X173722960Y-94180622D01*
X173720438Y-94184829D01*
X173693178Y-94225628D01*
X173690254Y-94229570D01*
X173659126Y-94267499D01*
X173655831Y-94271134D01*
X173621134Y-94305831D01*
X173617499Y-94309126D01*
X173579570Y-94340254D01*
X173575628Y-94343178D01*
X173534829Y-94370438D01*
X173530622Y-94372960D01*
X173487349Y-94396091D01*
X173482912Y-94398189D01*
X173437579Y-94416966D01*
X173432960Y-94418619D01*
X173386005Y-94432863D01*
X173381244Y-94434055D01*
X173333119Y-94443627D01*
X173328266Y-94444347D01*
X173279435Y-94449157D01*
X173274534Y-94449398D01*
X173256111Y-94449398D01*
X173250000Y-94450000D01*
X172750000Y-94450000D01*
X172743889Y-94449398D01*
X172725466Y-94449398D01*
X172720565Y-94449157D01*
X172671734Y-94444347D01*
X172666881Y-94443627D01*
X172618756Y-94434055D01*
X172613995Y-94432863D01*
X172567040Y-94418619D01*
X172562421Y-94416966D01*
X172517088Y-94398189D01*
X172512651Y-94396091D01*
X172469378Y-94372960D01*
X172465171Y-94370438D01*
X172424372Y-94343178D01*
X172420430Y-94340254D01*
X172382501Y-94309126D01*
X172378866Y-94305831D01*
X172344169Y-94271134D01*
X172340874Y-94267499D01*
X172309746Y-94229570D01*
X172306822Y-94225628D01*
X172279562Y-94184829D01*
X172277040Y-94180622D01*
X172253909Y-94137349D01*
X172251811Y-94132912D01*
X172233034Y-94087579D01*
X172231381Y-94082960D01*
X172217137Y-94036005D01*
X172215945Y-94031244D01*
X172206373Y-93983119D01*
X172205653Y-93978266D01*
X172200843Y-93929435D01*
X172200602Y-93924534D01*
X172200602Y-93906111D01*
X172200000Y-93900000D01*
X172200000Y-93400000D01*
X172200961Y-93390245D01*
X172203806Y-93380866D01*
X172208427Y-93372221D01*
X172214645Y-93364645D01*
X172222221Y-93358427D01*
X172230866Y-93353806D01*
X172240245Y-93350961D01*
X172250000Y-93350000D01*
X173750000Y-93350000D01*
X173759755Y-93350961D01*
X173769134Y-93353806D01*
X173777779Y-93358427D01*
X173785355Y-93364645D01*
X173791573Y-93372221D01*
X173796194Y-93380866D01*
X173799039Y-93390245D01*
X173800000Y-93400000D01*
X173800000Y-93900000D01*
X173799398Y-93906111D01*
G37*
G36*
X173799039Y-93109755D02*
G01*
X173796194Y-93119134D01*
X173791573Y-93127779D01*
X173785355Y-93135355D01*
X173777779Y-93141573D01*
X173769134Y-93146194D01*
X173759755Y-93149039D01*
X173750000Y-93150000D01*
X172250000Y-93150000D01*
X172240245Y-93149039D01*
X172230866Y-93146194D01*
X172222221Y-93141573D01*
X172214645Y-93135355D01*
X172208427Y-93127779D01*
X172203806Y-93119134D01*
X172200961Y-93109755D01*
X172200000Y-93100000D01*
X172200000Y-92600000D01*
X172200602Y-92593889D01*
X172200602Y-92575466D01*
X172200843Y-92570565D01*
X172205653Y-92521734D01*
X172206373Y-92516881D01*
X172215945Y-92468756D01*
X172217137Y-92463995D01*
X172231381Y-92417040D01*
X172233034Y-92412421D01*
X172251811Y-92367088D01*
X172253909Y-92362651D01*
X172277040Y-92319378D01*
X172279562Y-92315171D01*
X172306822Y-92274372D01*
X172309746Y-92270430D01*
X172340874Y-92232501D01*
X172344169Y-92228866D01*
X172378866Y-92194169D01*
X172382501Y-92190874D01*
X172420430Y-92159746D01*
X172424372Y-92156822D01*
X172465171Y-92129562D01*
X172469378Y-92127040D01*
X172512651Y-92103909D01*
X172517088Y-92101811D01*
X172562421Y-92083034D01*
X172567040Y-92081381D01*
X172613995Y-92067137D01*
X172618756Y-92065945D01*
X172666881Y-92056373D01*
X172671734Y-92055653D01*
X172720565Y-92050843D01*
X172725466Y-92050602D01*
X172743889Y-92050602D01*
X172750000Y-92050000D01*
X173250000Y-92050000D01*
X173256111Y-92050602D01*
X173274534Y-92050602D01*
X173279435Y-92050843D01*
X173328266Y-92055653D01*
X173333119Y-92056373D01*
X173381244Y-92065945D01*
X173386005Y-92067137D01*
X173432960Y-92081381D01*
X173437579Y-92083034D01*
X173482912Y-92101811D01*
X173487349Y-92103909D01*
X173530622Y-92127040D01*
X173534829Y-92129562D01*
X173575628Y-92156822D01*
X173579570Y-92159746D01*
X173617499Y-92190874D01*
X173621134Y-92194169D01*
X173655831Y-92228866D01*
X173659126Y-92232501D01*
X173690254Y-92270430D01*
X173693178Y-92274372D01*
X173720438Y-92315171D01*
X173722960Y-92319378D01*
X173746091Y-92362651D01*
X173748189Y-92367088D01*
X173766966Y-92412421D01*
X173768619Y-92417040D01*
X173782863Y-92463995D01*
X173784055Y-92468756D01*
X173793627Y-92516881D01*
X173794347Y-92521734D01*
X173799157Y-92570565D01*
X173799398Y-92575466D01*
X173799398Y-92593889D01*
X173800000Y-92600000D01*
X173800000Y-93100000D01*
X173799039Y-93109755D01*
G37*
G36*
G01*
X165550000Y-97500000D02*
X165550000Y-99500000D01*
G75*
G02*
X165500000Y-99550000I-50000J0D01*
G01*
X164150000Y-99550000D01*
G75*
G02*
X164100000Y-99500000I0J50000D01*
G01*
X164100000Y-97500000D01*
G75*
G02*
X164150000Y-97450000I50000J0D01*
G01*
X165500000Y-97450000D01*
G75*
G02*
X165550000Y-97500000I0J-50000D01*
G01*
G37*
G36*
G01*
X161400000Y-97500000D02*
X161400000Y-99500000D01*
G75*
G02*
X161350000Y-99550000I-50000J0D01*
G01*
X160000000Y-99550000D01*
G75*
G02*
X159950000Y-99500000I0J50000D01*
G01*
X159950000Y-97500000D01*
G75*
G02*
X160000000Y-97450000I50000J0D01*
G01*
X161350000Y-97450000D01*
G75*
G02*
X161400000Y-97500000I0J-50000D01*
G01*
G37*
G36*
G01*
X157100000Y-99500000D02*
X157100000Y-97500000D01*
G75*
G02*
X157150000Y-97450000I50000J0D01*
G01*
X158500000Y-97450000D01*
G75*
G02*
X158550000Y-97500000I0J-50000D01*
G01*
X158550000Y-99500000D01*
G75*
G02*
X158500000Y-99550000I-50000J0D01*
G01*
X157150000Y-99550000D01*
G75*
G02*
X157100000Y-99500000I0J50000D01*
G01*
G37*
G36*
G01*
X152950000Y-99500000D02*
X152950000Y-97500000D01*
G75*
G02*
X153000000Y-97450000I50000J0D01*
G01*
X154350000Y-97450000D01*
G75*
G02*
X154400000Y-97500000I0J-50000D01*
G01*
X154400000Y-99500000D01*
G75*
G02*
X154350000Y-99550000I-50000J0D01*
G01*
X153000000Y-99550000D01*
G75*
G02*
X152950000Y-99500000I0J50000D01*
G01*
G37*
D11*
X176250000Y-97950000D03*
X176250000Y-95410000D03*
X176250000Y-92870000D03*
X176250000Y-90330000D03*
X176250000Y-87790000D03*
G36*
G01*
X175350000Y-86100000D02*
X175350000Y-84400000D01*
G75*
G02*
X175400000Y-84350000I50000J0D01*
G01*
X177100000Y-84350000D01*
G75*
G02*
X177150000Y-84400000I0J-50000D01*
G01*
X177150000Y-86100000D01*
G75*
G02*
X177100000Y-86150000I-50000J0D01*
G01*
X175400000Y-86150000D01*
G75*
G02*
X175350000Y-86100000I0J50000D01*
G01*
G37*
G36*
G01*
X169763000Y-87374400D02*
X169763000Y-84974400D01*
G75*
G02*
X169813000Y-84924400I50000J0D01*
G01*
X173313000Y-84924400D01*
G75*
G02*
X173363000Y-84974400I0J-50000D01*
G01*
X173363000Y-87374400D01*
G75*
G02*
X173313000Y-87424400I-50000J0D01*
G01*
X169813000Y-87424400D01*
G75*
G02*
X169763000Y-87374400I0J50000D01*
G01*
G37*
G36*
G01*
X164563000Y-87374400D02*
X164563000Y-84974400D01*
G75*
G02*
X164613000Y-84924400I50000J0D01*
G01*
X168113000Y-84924400D01*
G75*
G02*
X168163000Y-84974400I0J-50000D01*
G01*
X168163000Y-87374400D01*
G75*
G02*
X168113000Y-87424400I-50000J0D01*
G01*
X164613000Y-87424400D01*
G75*
G02*
X164563000Y-87374400I0J50000D01*
G01*
G37*
G36*
G01*
X159253724Y-68600000D02*
X158246276Y-68600000D01*
G75*
G02*
X157975000Y-68328724I0J271276D01*
G01*
X157975000Y-67596276D01*
G75*
G02*
X158246276Y-67325000I271276J0D01*
G01*
X159253724Y-67325000D01*
G75*
G02*
X159525000Y-67596276I0J-271276D01*
G01*
X159525000Y-68328724D01*
G75*
G02*
X159253724Y-68600000I-271276J0D01*
G01*
G37*
G36*
G01*
X159253724Y-70675000D02*
X158246276Y-70675000D01*
G75*
G02*
X157975000Y-70403724I0J271276D01*
G01*
X157975000Y-69671276D01*
G75*
G02*
X158246276Y-69400000I271276J0D01*
G01*
X159253724Y-69400000D01*
G75*
G02*
X159525000Y-69671276I0J-271276D01*
G01*
X159525000Y-70403724D01*
G75*
G02*
X159253724Y-70675000I-271276J0D01*
G01*
G37*
G36*
G01*
X172496276Y-97400000D02*
X173503724Y-97400000D01*
G75*
G02*
X173775000Y-97671276I0J-271276D01*
G01*
X173775000Y-98403724D01*
G75*
G02*
X173503724Y-98675000I-271276J0D01*
G01*
X172496276Y-98675000D01*
G75*
G02*
X172225000Y-98403724I0J271276D01*
G01*
X172225000Y-97671276D01*
G75*
G02*
X172496276Y-97400000I271276J0D01*
G01*
G37*
G36*
G01*
X172496276Y-95325000D02*
X173503724Y-95325000D01*
G75*
G02*
X173775000Y-95596276I0J-271276D01*
G01*
X173775000Y-96328724D01*
G75*
G02*
X173503724Y-96600000I-271276J0D01*
G01*
X172496276Y-96600000D01*
G75*
G02*
X172225000Y-96328724I0J271276D01*
G01*
X172225000Y-95596276D01*
G75*
G02*
X172496276Y-95325000I271276J0D01*
G01*
G37*
G36*
G01*
X157478000Y-72200000D02*
X157678000Y-72200000D01*
G75*
G02*
X157778000Y-72300000I0J-100000D01*
G01*
X157778000Y-73225000D01*
G75*
G02*
X157678000Y-73325000I-100000J0D01*
G01*
X157478000Y-73325000D01*
G75*
G02*
X157378000Y-73225000I0J100000D01*
G01*
X157378000Y-72300000D01*
G75*
G02*
X157478000Y-72200000I100000J0D01*
G01*
G37*
G36*
G01*
X156828000Y-72200000D02*
X157028000Y-72200000D01*
G75*
G02*
X157128000Y-72300000I0J-100000D01*
G01*
X157128000Y-73225000D01*
G75*
G02*
X157028000Y-73325000I-100000J0D01*
G01*
X156828000Y-73325000D01*
G75*
G02*
X156728000Y-73225000I0J100000D01*
G01*
X156728000Y-72300000D01*
G75*
G02*
X156828000Y-72200000I100000J0D01*
G01*
G37*
G36*
G01*
X156178000Y-72200000D02*
X156378000Y-72200000D01*
G75*
G02*
X156478000Y-72300000I0J-100000D01*
G01*
X156478000Y-73225000D01*
G75*
G02*
X156378000Y-73325000I-100000J0D01*
G01*
X156178000Y-73325000D01*
G75*
G02*
X156078000Y-73225000I0J100000D01*
G01*
X156078000Y-72300000D01*
G75*
G02*
X156178000Y-72200000I100000J0D01*
G01*
G37*
G36*
G01*
X155528000Y-72200000D02*
X155728000Y-72200000D01*
G75*
G02*
X155828000Y-72300000I0J-100000D01*
G01*
X155828000Y-73225000D01*
G75*
G02*
X155728000Y-73325000I-100000J0D01*
G01*
X155528000Y-73325000D01*
G75*
G02*
X155428000Y-73225000I0J100000D01*
G01*
X155428000Y-72300000D01*
G75*
G02*
X155528000Y-72200000I100000J0D01*
G01*
G37*
G36*
G01*
X154878000Y-72200000D02*
X155078000Y-72200000D01*
G75*
G02*
X155178000Y-72300000I0J-100000D01*
G01*
X155178000Y-73225000D01*
G75*
G02*
X155078000Y-73325000I-100000J0D01*
G01*
X154878000Y-73325000D01*
G75*
G02*
X154778000Y-73225000I0J100000D01*
G01*
X154778000Y-72300000D01*
G75*
G02*
X154878000Y-72200000I100000J0D01*
G01*
G37*
G36*
G01*
X154228000Y-72200000D02*
X154428000Y-72200000D01*
G75*
G02*
X154528000Y-72300000I0J-100000D01*
G01*
X154528000Y-73225000D01*
G75*
G02*
X154428000Y-73325000I-100000J0D01*
G01*
X154228000Y-73325000D01*
G75*
G02*
X154128000Y-73225000I0J100000D01*
G01*
X154128000Y-72300000D01*
G75*
G02*
X154228000Y-72200000I100000J0D01*
G01*
G37*
G36*
G01*
X153578000Y-72200000D02*
X153778000Y-72200000D01*
G75*
G02*
X153878000Y-72300000I0J-100000D01*
G01*
X153878000Y-73225000D01*
G75*
G02*
X153778000Y-73325000I-100000J0D01*
G01*
X153578000Y-73325000D01*
G75*
G02*
X153478000Y-73225000I0J100000D01*
G01*
X153478000Y-72300000D01*
G75*
G02*
X153578000Y-72200000I100000J0D01*
G01*
G37*
G36*
G01*
X152328000Y-73450000D02*
X153253000Y-73450000D01*
G75*
G02*
X153353000Y-73550000I0J-100000D01*
G01*
X153353000Y-73750000D01*
G75*
G02*
X153253000Y-73850000I-100000J0D01*
G01*
X152328000Y-73850000D01*
G75*
G02*
X152228000Y-73750000I0J100000D01*
G01*
X152228000Y-73550000D01*
G75*
G02*
X152328000Y-73450000I100000J0D01*
G01*
G37*
G36*
G01*
X152328000Y-74100000D02*
X153253000Y-74100000D01*
G75*
G02*
X153353000Y-74200000I0J-100000D01*
G01*
X153353000Y-74400000D01*
G75*
G02*
X153253000Y-74500000I-100000J0D01*
G01*
X152328000Y-74500000D01*
G75*
G02*
X152228000Y-74400000I0J100000D01*
G01*
X152228000Y-74200000D01*
G75*
G02*
X152328000Y-74100000I100000J0D01*
G01*
G37*
G36*
G01*
X152328000Y-74750000D02*
X153253000Y-74750000D01*
G75*
G02*
X153353000Y-74850000I0J-100000D01*
G01*
X153353000Y-75050000D01*
G75*
G02*
X153253000Y-75150000I-100000J0D01*
G01*
X152328000Y-75150000D01*
G75*
G02*
X152228000Y-75050000I0J100000D01*
G01*
X152228000Y-74850000D01*
G75*
G02*
X152328000Y-74750000I100000J0D01*
G01*
G37*
G36*
G01*
X152328000Y-75400000D02*
X153253000Y-75400000D01*
G75*
G02*
X153353000Y-75500000I0J-100000D01*
G01*
X153353000Y-75700000D01*
G75*
G02*
X153253000Y-75800000I-100000J0D01*
G01*
X152328000Y-75800000D01*
G75*
G02*
X152228000Y-75700000I0J100000D01*
G01*
X152228000Y-75500000D01*
G75*
G02*
X152328000Y-75400000I100000J0D01*
G01*
G37*
G36*
G01*
X152328000Y-76050000D02*
X153253000Y-76050000D01*
G75*
G02*
X153353000Y-76150000I0J-100000D01*
G01*
X153353000Y-76350000D01*
G75*
G02*
X153253000Y-76450000I-100000J0D01*
G01*
X152328000Y-76450000D01*
G75*
G02*
X152228000Y-76350000I0J100000D01*
G01*
X152228000Y-76150000D01*
G75*
G02*
X152328000Y-76050000I100000J0D01*
G01*
G37*
G36*
G01*
X152328000Y-76700000D02*
X153253000Y-76700000D01*
G75*
G02*
X153353000Y-76800000I0J-100000D01*
G01*
X153353000Y-77000000D01*
G75*
G02*
X153253000Y-77100000I-100000J0D01*
G01*
X152328000Y-77100000D01*
G75*
G02*
X152228000Y-77000000I0J100000D01*
G01*
X152228000Y-76800000D01*
G75*
G02*
X152328000Y-76700000I100000J0D01*
G01*
G37*
G36*
G01*
X152328000Y-77350000D02*
X153253000Y-77350000D01*
G75*
G02*
X153353000Y-77450000I0J-100000D01*
G01*
X153353000Y-77650000D01*
G75*
G02*
X153253000Y-77750000I-100000J0D01*
G01*
X152328000Y-77750000D01*
G75*
G02*
X152228000Y-77650000I0J100000D01*
G01*
X152228000Y-77450000D01*
G75*
G02*
X152328000Y-77350000I100000J0D01*
G01*
G37*
G36*
G01*
X153578000Y-77875000D02*
X153778000Y-77875000D01*
G75*
G02*
X153878000Y-77975000I0J-100000D01*
G01*
X153878000Y-78900000D01*
G75*
G02*
X153778000Y-79000000I-100000J0D01*
G01*
X153578000Y-79000000D01*
G75*
G02*
X153478000Y-78900000I0J100000D01*
G01*
X153478000Y-77975000D01*
G75*
G02*
X153578000Y-77875000I100000J0D01*
G01*
G37*
G36*
G01*
X154228000Y-77875000D02*
X154428000Y-77875000D01*
G75*
G02*
X154528000Y-77975000I0J-100000D01*
G01*
X154528000Y-78900000D01*
G75*
G02*
X154428000Y-79000000I-100000J0D01*
G01*
X154228000Y-79000000D01*
G75*
G02*
X154128000Y-78900000I0J100000D01*
G01*
X154128000Y-77975000D01*
G75*
G02*
X154228000Y-77875000I100000J0D01*
G01*
G37*
G36*
G01*
X154878000Y-77875000D02*
X155078000Y-77875000D01*
G75*
G02*
X155178000Y-77975000I0J-100000D01*
G01*
X155178000Y-78900000D01*
G75*
G02*
X155078000Y-79000000I-100000J0D01*
G01*
X154878000Y-79000000D01*
G75*
G02*
X154778000Y-78900000I0J100000D01*
G01*
X154778000Y-77975000D01*
G75*
G02*
X154878000Y-77875000I100000J0D01*
G01*
G37*
G36*
G01*
X155528000Y-77875000D02*
X155728000Y-77875000D01*
G75*
G02*
X155828000Y-77975000I0J-100000D01*
G01*
X155828000Y-78900000D01*
G75*
G02*
X155728000Y-79000000I-100000J0D01*
G01*
X155528000Y-79000000D01*
G75*
G02*
X155428000Y-78900000I0J100000D01*
G01*
X155428000Y-77975000D01*
G75*
G02*
X155528000Y-77875000I100000J0D01*
G01*
G37*
G36*
G01*
X156178000Y-77875000D02*
X156378000Y-77875000D01*
G75*
G02*
X156478000Y-77975000I0J-100000D01*
G01*
X156478000Y-78900000D01*
G75*
G02*
X156378000Y-79000000I-100000J0D01*
G01*
X156178000Y-79000000D01*
G75*
G02*
X156078000Y-78900000I0J100000D01*
G01*
X156078000Y-77975000D01*
G75*
G02*
X156178000Y-77875000I100000J0D01*
G01*
G37*
G36*
G01*
X156828000Y-77875000D02*
X157028000Y-77875000D01*
G75*
G02*
X157128000Y-77975000I0J-100000D01*
G01*
X157128000Y-78900000D01*
G75*
G02*
X157028000Y-79000000I-100000J0D01*
G01*
X156828000Y-79000000D01*
G75*
G02*
X156728000Y-78900000I0J100000D01*
G01*
X156728000Y-77975000D01*
G75*
G02*
X156828000Y-77875000I100000J0D01*
G01*
G37*
G36*
G01*
X157478000Y-77875000D02*
X157678000Y-77875000D01*
G75*
G02*
X157778000Y-77975000I0J-100000D01*
G01*
X157778000Y-78900000D01*
G75*
G02*
X157678000Y-79000000I-100000J0D01*
G01*
X157478000Y-79000000D01*
G75*
G02*
X157378000Y-78900000I0J100000D01*
G01*
X157378000Y-77975000D01*
G75*
G02*
X157478000Y-77875000I100000J0D01*
G01*
G37*
G36*
G01*
X158003000Y-77350000D02*
X158928000Y-77350000D01*
G75*
G02*
X159028000Y-77450000I0J-100000D01*
G01*
X159028000Y-77650000D01*
G75*
G02*
X158928000Y-77750000I-100000J0D01*
G01*
X158003000Y-77750000D01*
G75*
G02*
X157903000Y-77650000I0J100000D01*
G01*
X157903000Y-77450000D01*
G75*
G02*
X158003000Y-77350000I100000J0D01*
G01*
G37*
G36*
G01*
X158003000Y-76700000D02*
X158928000Y-76700000D01*
G75*
G02*
X159028000Y-76800000I0J-100000D01*
G01*
X159028000Y-77000000D01*
G75*
G02*
X158928000Y-77100000I-100000J0D01*
G01*
X158003000Y-77100000D01*
G75*
G02*
X157903000Y-77000000I0J100000D01*
G01*
X157903000Y-76800000D01*
G75*
G02*
X158003000Y-76700000I100000J0D01*
G01*
G37*
G36*
G01*
X158003000Y-76050000D02*
X158928000Y-76050000D01*
G75*
G02*
X159028000Y-76150000I0J-100000D01*
G01*
X159028000Y-76350000D01*
G75*
G02*
X158928000Y-76450000I-100000J0D01*
G01*
X158003000Y-76450000D01*
G75*
G02*
X157903000Y-76350000I0J100000D01*
G01*
X157903000Y-76150000D01*
G75*
G02*
X158003000Y-76050000I100000J0D01*
G01*
G37*
G36*
G01*
X158003000Y-75400000D02*
X158928000Y-75400000D01*
G75*
G02*
X159028000Y-75500000I0J-100000D01*
G01*
X159028000Y-75700000D01*
G75*
G02*
X158928000Y-75800000I-100000J0D01*
G01*
X158003000Y-75800000D01*
G75*
G02*
X157903000Y-75700000I0J100000D01*
G01*
X157903000Y-75500000D01*
G75*
G02*
X158003000Y-75400000I100000J0D01*
G01*
G37*
G36*
G01*
X158003000Y-74750000D02*
X158928000Y-74750000D01*
G75*
G02*
X159028000Y-74850000I0J-100000D01*
G01*
X159028000Y-75050000D01*
G75*
G02*
X158928000Y-75150000I-100000J0D01*
G01*
X158003000Y-75150000D01*
G75*
G02*
X157903000Y-75050000I0J100000D01*
G01*
X157903000Y-74850000D01*
G75*
G02*
X158003000Y-74750000I100000J0D01*
G01*
G37*
G36*
G01*
X158003000Y-74100000D02*
X158928000Y-74100000D01*
G75*
G02*
X159028000Y-74200000I0J-100000D01*
G01*
X159028000Y-74400000D01*
G75*
G02*
X158928000Y-74500000I-100000J0D01*
G01*
X158003000Y-74500000D01*
G75*
G02*
X157903000Y-74400000I0J100000D01*
G01*
X157903000Y-74200000D01*
G75*
G02*
X158003000Y-74100000I100000J0D01*
G01*
G37*
G36*
G01*
X158003000Y-73450000D02*
X158928000Y-73450000D01*
G75*
G02*
X159028000Y-73550000I0J-100000D01*
G01*
X159028000Y-73750000D01*
G75*
G02*
X158928000Y-73850000I-100000J0D01*
G01*
X158003000Y-73850000D01*
G75*
G02*
X157903000Y-73750000I0J100000D01*
G01*
X157903000Y-73550000D01*
G75*
G02*
X158003000Y-73450000I100000J0D01*
G01*
G37*
G36*
G01*
X153503000Y-73425000D02*
X157753000Y-73425000D01*
G75*
G02*
X157803000Y-73475000I0J-50000D01*
G01*
X157803000Y-77725000D01*
G75*
G02*
X157753000Y-77775000I-50000J0D01*
G01*
X153503000Y-77775000D01*
G75*
G02*
X153453000Y-77725000I0J50000D01*
G01*
X153453000Y-73475000D01*
G75*
G02*
X153503000Y-73425000I50000J0D01*
G01*
G37*
G36*
G01*
X154770832Y-83100000D02*
X155729168Y-83100000D01*
G75*
G02*
X156000000Y-83370832I0J-270832D01*
G01*
X156000000Y-84129168D01*
G75*
G02*
X155729168Y-84400000I-270832J0D01*
G01*
X154770832Y-84400000D01*
G75*
G02*
X154500000Y-84129168I0J270832D01*
G01*
X154500000Y-83370832D01*
G75*
G02*
X154770832Y-83100000I270832J0D01*
G01*
G37*
G36*
G01*
X154770832Y-81100000D02*
X155729168Y-81100000D01*
G75*
G02*
X156000000Y-81370832I0J-270832D01*
G01*
X156000000Y-82129168D01*
G75*
G02*
X155729168Y-82400000I-270832J0D01*
G01*
X154770832Y-82400000D01*
G75*
G02*
X154500000Y-82129168I0J270832D01*
G01*
X154500000Y-81370832D01*
G75*
G02*
X154770832Y-81100000I270832J0D01*
G01*
G37*
X143170000Y-68250000D03*
X145710000Y-68250000D03*
G36*
G01*
X147400000Y-67350000D02*
X149100000Y-67350000D01*
G75*
G02*
X149150000Y-67400000I0J-50000D01*
G01*
X149150000Y-69100000D01*
G75*
G02*
X149100000Y-69150000I-50000J0D01*
G01*
X147400000Y-69150000D01*
G75*
G02*
X147350000Y-69100000I0J50000D01*
G01*
X147350000Y-67400000D01*
G75*
G02*
X147400000Y-67350000I50000J0D01*
G01*
G37*
G36*
G01*
X160496276Y-69400000D02*
X161503724Y-69400000D01*
G75*
G02*
X161775000Y-69671276I0J-271276D01*
G01*
X161775000Y-70403724D01*
G75*
G02*
X161503724Y-70675000I-271276J0D01*
G01*
X160496276Y-70675000D01*
G75*
G02*
X160225000Y-70403724I0J271276D01*
G01*
X160225000Y-69671276D01*
G75*
G02*
X160496276Y-69400000I271276J0D01*
G01*
G37*
G36*
G01*
X160496276Y-67325000D02*
X161503724Y-67325000D01*
G75*
G02*
X161775000Y-67596276I0J-271276D01*
G01*
X161775000Y-68328724D01*
G75*
G02*
X161503724Y-68600000I-271276J0D01*
G01*
X160496276Y-68600000D01*
G75*
G02*
X160225000Y-68328724I0J271276D01*
G01*
X160225000Y-67596276D01*
G75*
G02*
X160496276Y-67325000I271276J0D01*
G01*
G37*
G36*
G01*
X171100000Y-89746276D02*
X171100000Y-90753724D01*
G75*
G02*
X170828724Y-91025000I-271276J0D01*
G01*
X170096276Y-91025000D01*
G75*
G02*
X169825000Y-90753724I0J271276D01*
G01*
X169825000Y-89746276D01*
G75*
G02*
X170096276Y-89475000I271276J0D01*
G01*
X170828724Y-89475000D01*
G75*
G02*
X171100000Y-89746276I0J-271276D01*
G01*
G37*
G36*
G01*
X173175000Y-89746276D02*
X173175000Y-90753724D01*
G75*
G02*
X172903724Y-91025000I-271276J0D01*
G01*
X172171276Y-91025000D01*
G75*
G02*
X171900000Y-90753724I0J271276D01*
G01*
X171900000Y-89746276D01*
G75*
G02*
X172171276Y-89475000I271276J0D01*
G01*
X172903724Y-89475000D01*
G75*
G02*
X173175000Y-89746276I0J-271276D01*
G01*
G37*
G36*
G01*
X166650000Y-90742124D02*
X166650000Y-89734676D01*
G75*
G02*
X166921276Y-89463400I271276J0D01*
G01*
X167653724Y-89463400D01*
G75*
G02*
X167925000Y-89734676I0J-271276D01*
G01*
X167925000Y-90742124D01*
G75*
G02*
X167653724Y-91013400I-271276J0D01*
G01*
X166921276Y-91013400D01*
G75*
G02*
X166650000Y-90742124I0J271276D01*
G01*
G37*
G36*
G01*
X164575000Y-90742124D02*
X164575000Y-89734676D01*
G75*
G02*
X164846276Y-89463400I271276J0D01*
G01*
X165578724Y-89463400D01*
G75*
G02*
X165850000Y-89734676I0J-271276D01*
G01*
X165850000Y-90742124D01*
G75*
G02*
X165578724Y-91013400I-271276J0D01*
G01*
X164846276Y-91013400D01*
G75*
G02*
X164575000Y-90742124I0J271276D01*
G01*
G37*
G36*
G01*
X153753724Y-84425000D02*
X152746276Y-84425000D01*
G75*
G02*
X152475000Y-84153724I0J271276D01*
G01*
X152475000Y-83421276D01*
G75*
G02*
X152746276Y-83150000I271276J0D01*
G01*
X153753724Y-83150000D01*
G75*
G02*
X154025000Y-83421276I0J-271276D01*
G01*
X154025000Y-84153724D01*
G75*
G02*
X153753724Y-84425000I-271276J0D01*
G01*
G37*
G36*
G01*
X153753724Y-82350000D02*
X152746276Y-82350000D01*
G75*
G02*
X152475000Y-82078724I0J271276D01*
G01*
X152475000Y-81346276D01*
G75*
G02*
X152746276Y-81075000I271276J0D01*
G01*
X153753724Y-81075000D01*
G75*
G02*
X154025000Y-81346276I0J-271276D01*
G01*
X154025000Y-82078724D01*
G75*
G02*
X153753724Y-82350000I-271276J0D01*
G01*
G37*
D10*
G36*
X145951990Y-98599804D02*
G01*
X145969263Y-98775186D01*
X146020365Y-98943646D01*
X146103348Y-99098897D01*
X146215025Y-99234975D01*
X146351103Y-99346652D01*
X146506354Y-99429635D01*
X146674814Y-99480737D01*
X146850196Y-99498010D01*
X146851822Y-99499175D01*
X146851626Y-99501165D01*
X146850000Y-99502000D01*
X146804908Y-99502000D01*
X146804712Y-99501990D01*
X146634073Y-99485183D01*
X146633688Y-99485107D01*
X146474325Y-99436766D01*
X146473963Y-99436616D01*
X146327091Y-99358110D01*
X146326765Y-99357892D01*
X146198032Y-99252245D01*
X146197755Y-99251968D01*
X146092108Y-99123235D01*
X146091890Y-99122909D01*
X146013384Y-98976037D01*
X146013234Y-98975675D01*
X145964893Y-98816312D01*
X145964817Y-98815927D01*
X145948010Y-98645288D01*
X145948000Y-98645092D01*
X145948000Y-98600000D01*
X145949000Y-98598268D01*
X145951000Y-98598268D01*
X145951990Y-98599804D01*
G37*
G36*
X149551165Y-98598374D02*
G01*
X149552000Y-98600000D01*
X149552000Y-98645092D01*
X149551990Y-98645288D01*
X149535183Y-98815927D01*
X149535107Y-98816312D01*
X149486766Y-98975675D01*
X149486616Y-98976037D01*
X149408110Y-99122909D01*
X149407892Y-99123235D01*
X149302245Y-99251968D01*
X149301968Y-99252245D01*
X149173235Y-99357892D01*
X149172909Y-99358110D01*
X149026037Y-99436616D01*
X149025675Y-99436766D01*
X148866312Y-99485107D01*
X148865927Y-99485183D01*
X148695288Y-99501990D01*
X148695092Y-99502000D01*
X148650000Y-99502000D01*
X148648268Y-99501000D01*
X148648268Y-99499000D01*
X148649804Y-99498010D01*
X148825186Y-99480737D01*
X148993646Y-99429635D01*
X149148897Y-99346652D01*
X149284975Y-99234975D01*
X149396652Y-99098897D01*
X149479635Y-98943646D01*
X149530737Y-98775186D01*
X149548010Y-98599804D01*
X149549175Y-98598178D01*
X149551165Y-98598374D01*
G37*
G36*
X146851732Y-95899000D02*
G01*
X146851732Y-95901000D01*
X146850196Y-95901990D01*
X146674814Y-95919263D01*
X146506354Y-95970365D01*
X146351103Y-96053348D01*
X146215025Y-96165025D01*
X146103348Y-96301103D01*
X146020365Y-96456354D01*
X145969263Y-96624814D01*
X145951990Y-96800196D01*
X145950825Y-96801822D01*
X145948835Y-96801626D01*
X145948000Y-96800000D01*
X145948000Y-96754908D01*
X145948010Y-96754712D01*
X145964817Y-96584073D01*
X145964893Y-96583688D01*
X146013234Y-96424325D01*
X146013384Y-96423963D01*
X146091890Y-96277091D01*
X146092108Y-96276765D01*
X146197755Y-96148032D01*
X146198032Y-96147755D01*
X146326765Y-96042108D01*
X146327091Y-96041890D01*
X146473963Y-95963384D01*
X146474325Y-95963234D01*
X146633688Y-95914893D01*
X146634073Y-95914817D01*
X146804712Y-95898010D01*
X146804908Y-95898000D01*
X146850000Y-95898000D01*
X146851732Y-95899000D01*
G37*
G36*
X148695288Y-95898010D02*
G01*
X148865927Y-95914817D01*
X148866312Y-95914893D01*
X149025675Y-95963234D01*
X149026037Y-95963384D01*
X149172909Y-96041890D01*
X149173235Y-96042108D01*
X149301968Y-96147755D01*
X149302245Y-96148032D01*
X149407892Y-96276765D01*
X149408110Y-96277091D01*
X149486616Y-96423963D01*
X149486766Y-96424325D01*
X149535107Y-96583688D01*
X149535183Y-96584073D01*
X149551990Y-96754712D01*
X149552000Y-96754908D01*
X149552000Y-96800000D01*
X149551000Y-96801732D01*
X149549000Y-96801732D01*
X149548010Y-96800196D01*
X149530737Y-96624814D01*
X149479635Y-96456354D01*
X149396652Y-96301103D01*
X149284975Y-96165025D01*
X149148897Y-96053348D01*
X148993646Y-95970365D01*
X148825186Y-95919263D01*
X148649804Y-95901990D01*
X148648178Y-95900825D01*
X148648374Y-95898835D01*
X148650000Y-95898000D01*
X148695092Y-95898000D01*
X148695288Y-95898010D01*
G37*
G36*
X146301165Y-94023374D02*
G01*
X146302000Y-94025000D01*
X146302000Y-94070092D01*
X146301990Y-94070288D01*
X146287585Y-94216540D01*
X146287509Y-94216925D01*
X146246280Y-94352842D01*
X146246130Y-94353204D01*
X146179179Y-94478461D01*
X146178961Y-94478787D01*
X146088856Y-94588579D01*
X146088579Y-94588856D01*
X145978787Y-94678961D01*
X145978461Y-94679179D01*
X145853204Y-94746130D01*
X145852842Y-94746280D01*
X145716925Y-94787509D01*
X145716540Y-94787585D01*
X145570288Y-94801990D01*
X145570092Y-94802000D01*
X145525000Y-94802000D01*
X145523268Y-94801000D01*
X145523268Y-94799000D01*
X145524804Y-94798010D01*
X145675800Y-94783139D01*
X145820811Y-94739150D01*
X145954451Y-94667718D01*
X146071587Y-94571587D01*
X146167718Y-94454451D01*
X146239150Y-94320811D01*
X146283139Y-94175800D01*
X146298010Y-94024804D01*
X146299175Y-94023178D01*
X146301165Y-94023374D01*
G37*
G36*
X143201990Y-94024804D02*
G01*
X143216861Y-94175800D01*
X143260850Y-94320811D01*
X143332282Y-94454451D01*
X143428413Y-94571587D01*
X143545549Y-94667718D01*
X143679189Y-94739150D01*
X143824200Y-94783139D01*
X143975196Y-94798010D01*
X143976822Y-94799175D01*
X143976626Y-94801165D01*
X143975000Y-94802000D01*
X143929908Y-94802000D01*
X143929712Y-94801990D01*
X143783460Y-94787585D01*
X143783075Y-94787509D01*
X143647158Y-94746280D01*
X143646796Y-94746130D01*
X143521539Y-94679179D01*
X143521213Y-94678961D01*
X143411421Y-94588856D01*
X143411144Y-94588579D01*
X143321039Y-94478787D01*
X143320821Y-94478461D01*
X143253870Y-94353204D01*
X143253720Y-94352842D01*
X143212491Y-94216925D01*
X143212415Y-94216540D01*
X143198010Y-94070288D01*
X143198000Y-94070092D01*
X143198000Y-94025000D01*
X143199000Y-94023268D01*
X143201000Y-94023268D01*
X143201990Y-94024804D01*
G37*
G36*
X143976732Y-91199000D02*
G01*
X143976732Y-91201000D01*
X143975196Y-91201990D01*
X143824200Y-91216861D01*
X143679189Y-91260850D01*
X143545549Y-91332282D01*
X143428413Y-91428413D01*
X143332282Y-91545549D01*
X143260850Y-91679189D01*
X143216861Y-91824200D01*
X143201990Y-91975196D01*
X143200825Y-91976822D01*
X143198835Y-91976626D01*
X143198000Y-91975000D01*
X143198000Y-91929908D01*
X143198010Y-91929712D01*
X143212415Y-91783460D01*
X143212491Y-91783075D01*
X143253720Y-91647158D01*
X143253870Y-91646796D01*
X143320821Y-91521539D01*
X143321039Y-91521213D01*
X143411144Y-91411421D01*
X143411421Y-91411144D01*
X143521213Y-91321039D01*
X143521539Y-91320821D01*
X143646796Y-91253870D01*
X143647158Y-91253720D01*
X143783075Y-91212491D01*
X143783460Y-91212415D01*
X143929712Y-91198010D01*
X143929908Y-91198000D01*
X143975000Y-91198000D01*
X143976732Y-91199000D01*
G37*
G36*
X145570288Y-91198010D02*
G01*
X145716540Y-91212415D01*
X145716925Y-91212491D01*
X145852842Y-91253720D01*
X145853204Y-91253870D01*
X145978461Y-91320821D01*
X145978787Y-91321039D01*
X146088579Y-91411144D01*
X146088856Y-91411421D01*
X146178961Y-91521213D01*
X146179179Y-91521539D01*
X146246130Y-91646796D01*
X146246280Y-91647158D01*
X146287509Y-91783075D01*
X146287585Y-91783460D01*
X146301990Y-91929712D01*
X146302000Y-91929908D01*
X146302000Y-91975000D01*
X146301000Y-91976732D01*
X146299000Y-91976732D01*
X146298010Y-91975196D01*
X146283139Y-91824200D01*
X146239150Y-91679189D01*
X146167718Y-91545549D01*
X146071587Y-91428413D01*
X145954451Y-91332282D01*
X145820811Y-91260850D01*
X145675800Y-91216861D01*
X145524804Y-91201990D01*
X145523178Y-91200825D01*
X145523374Y-91198835D01*
X145525000Y-91198000D01*
X145570092Y-91198000D01*
X145570288Y-91198010D01*
G37*
G36*
X164226732Y-80785000D02*
G01*
X164227000Y-80786000D01*
X164227000Y-82486000D01*
X164226000Y-82487732D01*
X164225000Y-82488000D01*
X164075000Y-82488000D01*
X164073268Y-82487000D01*
X164073000Y-82486000D01*
X164073000Y-80786000D01*
X164074000Y-80784268D01*
X164075000Y-80784000D01*
X164225000Y-80784000D01*
X164226732Y-80785000D01*
G37*
G36*
X169026732Y-80785000D02*
G01*
X169027000Y-80786000D01*
X169027000Y-82486000D01*
X169026000Y-82487732D01*
X169025000Y-82488000D01*
X168875000Y-82488000D01*
X168873268Y-82487000D01*
X168873000Y-82486000D01*
X168873000Y-80786000D01*
X168874000Y-80784268D01*
X168875000Y-80784000D01*
X169025000Y-80784000D01*
X169026732Y-80785000D01*
G37*
G36*
X168226732Y-80785000D02*
G01*
X168227000Y-80786000D01*
X168227000Y-82486000D01*
X168226000Y-82487732D01*
X168225000Y-82488000D01*
X168075000Y-82488000D01*
X168073268Y-82487000D01*
X168073000Y-82486000D01*
X168073000Y-80786000D01*
X168074000Y-80784268D01*
X168075000Y-80784000D01*
X168225000Y-80784000D01*
X168226732Y-80785000D01*
G37*
G36*
X167426732Y-80785000D02*
G01*
X167427000Y-80786000D01*
X167427000Y-82486000D01*
X167426000Y-82487732D01*
X167425000Y-82488000D01*
X167275000Y-82488000D01*
X167273268Y-82487000D01*
X167273000Y-82486000D01*
X167273000Y-80786000D01*
X167274000Y-80784268D01*
X167275000Y-80784000D01*
X167425000Y-80784000D01*
X167426732Y-80785000D01*
G37*
G36*
X166626732Y-80785000D02*
G01*
X166627000Y-80786000D01*
X166627000Y-82486000D01*
X166626000Y-82487732D01*
X166625000Y-82488000D01*
X166475000Y-82488000D01*
X166473268Y-82487000D01*
X166473000Y-82486000D01*
X166473000Y-80786000D01*
X166474000Y-80784268D01*
X166475000Y-80784000D01*
X166625000Y-80784000D01*
X166626732Y-80785000D01*
G37*
G36*
X165026732Y-80785000D02*
G01*
X165027000Y-80786000D01*
X165027000Y-82486000D01*
X165026000Y-82487732D01*
X165025000Y-82488000D01*
X164875000Y-82488000D01*
X164873268Y-82487000D01*
X164873000Y-82486000D01*
X164873000Y-80786000D01*
X164874000Y-80784268D01*
X164875000Y-80784000D01*
X165025000Y-80784000D01*
X165026732Y-80785000D01*
G37*
G36*
X165826732Y-80785000D02*
G01*
X165827000Y-80786000D01*
X165827000Y-82486000D01*
X165826000Y-82487732D01*
X165825000Y-82488000D01*
X165675000Y-82488000D01*
X165673268Y-82487000D01*
X165673000Y-82486000D01*
X165673000Y-80786000D01*
X165674000Y-80784268D01*
X165675000Y-80784000D01*
X165825000Y-80784000D01*
X165826732Y-80785000D01*
G37*
G36*
X163151732Y-79710000D02*
G01*
X163152000Y-79711000D01*
X163152000Y-79861000D01*
X163151000Y-79862732D01*
X163150000Y-79863000D01*
X161450000Y-79863000D01*
X161448268Y-79862000D01*
X161448000Y-79861000D01*
X161448000Y-79711000D01*
X161449000Y-79709268D01*
X161450000Y-79709000D01*
X163150000Y-79709000D01*
X163151732Y-79710000D01*
G37*
G36*
X171651732Y-79710000D02*
G01*
X171652000Y-79711000D01*
X171652000Y-79861000D01*
X171651000Y-79862732D01*
X171650000Y-79863000D01*
X169950000Y-79863000D01*
X169948268Y-79862000D01*
X169948000Y-79861000D01*
X169948000Y-79711000D01*
X169949000Y-79709268D01*
X169950000Y-79709000D01*
X171650000Y-79709000D01*
X171651732Y-79710000D01*
G37*
G36*
X163151732Y-78910000D02*
G01*
X163152000Y-78911000D01*
X163152000Y-79061000D01*
X163151000Y-79062732D01*
X163150000Y-79063000D01*
X161450000Y-79063000D01*
X161448268Y-79062000D01*
X161448000Y-79061000D01*
X161448000Y-78911000D01*
X161449000Y-78909268D01*
X161450000Y-78909000D01*
X163150000Y-78909000D01*
X163151732Y-78910000D01*
G37*
G36*
X171651732Y-78910000D02*
G01*
X171652000Y-78911000D01*
X171652000Y-79061000D01*
X171651000Y-79062732D01*
X171650000Y-79063000D01*
X169950000Y-79063000D01*
X169948268Y-79062000D01*
X169948000Y-79061000D01*
X169948000Y-78911000D01*
X169949000Y-78909268D01*
X169950000Y-78909000D01*
X171650000Y-78909000D01*
X171651732Y-78910000D01*
G37*
G36*
X171651732Y-78110000D02*
G01*
X171652000Y-78111000D01*
X171652000Y-78261000D01*
X171651000Y-78262732D01*
X171650000Y-78263000D01*
X169950000Y-78263000D01*
X169948268Y-78262000D01*
X169948000Y-78261000D01*
X169948000Y-78111000D01*
X169949000Y-78109268D01*
X169950000Y-78109000D01*
X171650000Y-78109000D01*
X171651732Y-78110000D01*
G37*
G36*
X163151732Y-78110000D02*
G01*
X163152000Y-78111000D01*
X163152000Y-78261000D01*
X163151000Y-78262732D01*
X163150000Y-78263000D01*
X161450000Y-78263000D01*
X161448268Y-78262000D01*
X161448000Y-78261000D01*
X161448000Y-78111000D01*
X161449000Y-78109268D01*
X161450000Y-78109000D01*
X163150000Y-78109000D01*
X163151732Y-78110000D01*
G37*
G36*
X154620558Y-77774000D02*
G01*
X154620558Y-77776000D01*
X154619022Y-77776990D01*
X154599712Y-77778891D01*
X154581327Y-77784469D01*
X154564386Y-77793524D01*
X154549537Y-77805710D01*
X154537351Y-77820559D01*
X154528296Y-77837500D01*
X154522718Y-77855885D01*
X154520836Y-77874999D01*
X154522723Y-77894163D01*
X154525060Y-77903489D01*
X154528478Y-77914758D01*
X154528554Y-77915143D01*
X154529990Y-77929721D01*
X154530000Y-77929917D01*
X154530000Y-77975000D01*
X154529000Y-77976732D01*
X154527000Y-77976732D01*
X154526010Y-77975196D01*
X154524109Y-77955886D01*
X154518531Y-77937501D01*
X154509476Y-77920559D01*
X154497290Y-77905710D01*
X154482441Y-77893524D01*
X154465499Y-77884469D01*
X154447114Y-77878891D01*
X154427906Y-77877000D01*
X154228094Y-77877000D01*
X154208886Y-77878891D01*
X154190501Y-77884469D01*
X154173559Y-77893524D01*
X154158710Y-77905710D01*
X154146524Y-77920559D01*
X154137469Y-77937501D01*
X154131891Y-77955886D01*
X154129990Y-77975196D01*
X154128825Y-77976822D01*
X154126835Y-77976626D01*
X154126000Y-77975000D01*
X154126000Y-77929917D01*
X154126010Y-77929721D01*
X154127446Y-77915143D01*
X154127522Y-77914758D01*
X154130924Y-77903542D01*
X154134691Y-77884602D01*
X154134692Y-77865397D01*
X154130943Y-77846554D01*
X154123593Y-77828808D01*
X154112921Y-77812835D01*
X154099339Y-77799253D01*
X154083367Y-77788581D01*
X154065621Y-77781230D01*
X154046731Y-77777473D01*
X154037076Y-77776998D01*
X154035395Y-77775914D01*
X154035493Y-77773916D01*
X154037174Y-77773000D01*
X154618826Y-77773000D01*
X154620558Y-77774000D01*
G37*
G36*
X156570558Y-77774000D02*
G01*
X156570558Y-77776000D01*
X156569022Y-77776990D01*
X156549712Y-77778891D01*
X156531327Y-77784469D01*
X156514386Y-77793524D01*
X156499537Y-77805710D01*
X156487351Y-77820559D01*
X156478296Y-77837500D01*
X156472718Y-77855885D01*
X156470836Y-77874999D01*
X156472723Y-77894163D01*
X156475060Y-77903489D01*
X156478478Y-77914758D01*
X156478554Y-77915143D01*
X156479990Y-77929721D01*
X156480000Y-77929917D01*
X156480000Y-77975000D01*
X156479000Y-77976732D01*
X156477000Y-77976732D01*
X156476010Y-77975196D01*
X156474109Y-77955886D01*
X156468531Y-77937501D01*
X156459476Y-77920559D01*
X156447290Y-77905710D01*
X156432441Y-77893524D01*
X156415499Y-77884469D01*
X156397114Y-77878891D01*
X156377906Y-77877000D01*
X156178094Y-77877000D01*
X156158886Y-77878891D01*
X156140501Y-77884469D01*
X156123559Y-77893524D01*
X156108710Y-77905710D01*
X156096524Y-77920559D01*
X156087469Y-77937501D01*
X156081891Y-77955886D01*
X156079990Y-77975196D01*
X156078825Y-77976822D01*
X156076835Y-77976626D01*
X156076000Y-77975000D01*
X156076000Y-77929917D01*
X156076010Y-77929721D01*
X156077446Y-77915143D01*
X156077522Y-77914758D01*
X156080924Y-77903542D01*
X156084691Y-77884602D01*
X156084692Y-77865397D01*
X156080943Y-77846554D01*
X156073593Y-77828808D01*
X156062921Y-77812835D01*
X156049339Y-77799253D01*
X156033367Y-77788581D01*
X156015621Y-77781230D01*
X155996731Y-77777473D01*
X155987076Y-77776998D01*
X155985395Y-77775914D01*
X155985493Y-77773916D01*
X155987174Y-77773000D01*
X156568826Y-77773000D01*
X156570558Y-77774000D01*
G37*
G36*
X157804990Y-77258978D02*
G01*
X157806891Y-77278288D01*
X157812469Y-77296673D01*
X157821524Y-77313614D01*
X157833710Y-77328463D01*
X157848559Y-77340649D01*
X157865500Y-77349704D01*
X157883885Y-77355282D01*
X157902999Y-77357164D01*
X157922163Y-77355277D01*
X157931489Y-77352940D01*
X157942758Y-77349522D01*
X157943143Y-77349446D01*
X157957721Y-77348010D01*
X157957917Y-77348000D01*
X158003000Y-77348000D01*
X158004732Y-77349000D01*
X158004732Y-77351000D01*
X158003196Y-77351990D01*
X157983886Y-77353891D01*
X157965501Y-77359469D01*
X157948559Y-77368524D01*
X157933710Y-77380710D01*
X157921524Y-77395559D01*
X157912469Y-77412501D01*
X157906891Y-77430886D01*
X157905000Y-77450094D01*
X157905000Y-77649906D01*
X157906891Y-77669114D01*
X157912469Y-77687499D01*
X157921524Y-77704441D01*
X157933710Y-77719290D01*
X157948559Y-77731476D01*
X157965501Y-77740531D01*
X157983886Y-77746109D01*
X158003196Y-77748010D01*
X158004822Y-77749175D01*
X158004626Y-77751165D01*
X158003000Y-77752000D01*
X157957917Y-77752000D01*
X157957721Y-77751990D01*
X157943143Y-77750554D01*
X157942758Y-77750478D01*
X157931543Y-77747076D01*
X157912602Y-77743309D01*
X157893397Y-77743308D01*
X157874554Y-77747057D01*
X157856808Y-77754407D01*
X157840835Y-77765079D01*
X157827253Y-77778661D01*
X157819231Y-77790667D01*
X157818511Y-77791320D01*
X157814386Y-77793525D01*
X157799537Y-77805710D01*
X157787351Y-77820559D01*
X157778296Y-77837500D01*
X157772718Y-77855885D01*
X157770836Y-77874999D01*
X157772723Y-77894163D01*
X157775060Y-77903489D01*
X157778478Y-77914758D01*
X157778554Y-77915143D01*
X157779990Y-77929721D01*
X157780000Y-77929917D01*
X157780000Y-77975000D01*
X157779000Y-77976732D01*
X157777000Y-77976732D01*
X157776010Y-77975196D01*
X157774109Y-77955886D01*
X157768531Y-77937501D01*
X157759476Y-77920559D01*
X157747290Y-77905710D01*
X157732441Y-77893524D01*
X157715499Y-77884469D01*
X157697114Y-77878891D01*
X157677906Y-77877000D01*
X157478094Y-77877000D01*
X157458886Y-77878891D01*
X157440501Y-77884469D01*
X157423559Y-77893524D01*
X157408710Y-77905710D01*
X157396524Y-77920559D01*
X157387469Y-77937501D01*
X157381891Y-77955886D01*
X157379990Y-77975196D01*
X157378825Y-77976822D01*
X157376835Y-77976626D01*
X157376000Y-77975000D01*
X157376000Y-77929917D01*
X157376010Y-77929721D01*
X157377446Y-77915143D01*
X157377522Y-77914758D01*
X157380924Y-77903542D01*
X157384691Y-77884602D01*
X157384692Y-77865397D01*
X157380943Y-77846554D01*
X157373593Y-77828808D01*
X157362921Y-77812835D01*
X157349339Y-77799253D01*
X157333367Y-77788581D01*
X157315621Y-77781230D01*
X157296731Y-77777473D01*
X157287076Y-77776998D01*
X157285395Y-77775914D01*
X157285493Y-77773916D01*
X157287174Y-77773000D01*
X157801000Y-77773000D01*
X157801000Y-77259174D01*
X157802000Y-77257442D01*
X157804000Y-77257442D01*
X157804990Y-77258978D01*
G37*
G36*
X155920558Y-77774000D02*
G01*
X155920558Y-77776000D01*
X155919022Y-77776990D01*
X155899712Y-77778891D01*
X155881327Y-77784469D01*
X155864386Y-77793524D01*
X155849537Y-77805710D01*
X155837351Y-77820559D01*
X155828296Y-77837500D01*
X155822718Y-77855885D01*
X155820836Y-77874999D01*
X155822723Y-77894163D01*
X155825060Y-77903489D01*
X155828478Y-77914758D01*
X155828554Y-77915143D01*
X155829990Y-77929721D01*
X155830000Y-77929917D01*
X155830000Y-77975000D01*
X155829000Y-77976732D01*
X155827000Y-77976732D01*
X155826010Y-77975196D01*
X155824109Y-77955886D01*
X155818531Y-77937501D01*
X155809476Y-77920559D01*
X155797290Y-77905710D01*
X155782441Y-77893524D01*
X155765499Y-77884469D01*
X155747114Y-77878891D01*
X155727906Y-77877000D01*
X155528094Y-77877000D01*
X155508886Y-77878891D01*
X155490501Y-77884469D01*
X155473559Y-77893524D01*
X155458710Y-77905710D01*
X155446524Y-77920559D01*
X155437469Y-77937501D01*
X155431891Y-77955886D01*
X155429990Y-77975196D01*
X155428825Y-77976822D01*
X155426835Y-77976626D01*
X155426000Y-77975000D01*
X155426000Y-77929917D01*
X155426010Y-77929721D01*
X155427446Y-77915143D01*
X155427522Y-77914758D01*
X155430924Y-77903542D01*
X155434691Y-77884602D01*
X155434692Y-77865397D01*
X155430943Y-77846554D01*
X155423593Y-77828808D01*
X155412921Y-77812835D01*
X155399339Y-77799253D01*
X155383367Y-77788581D01*
X155365621Y-77781230D01*
X155346731Y-77777473D01*
X155337076Y-77776998D01*
X155335395Y-77775914D01*
X155335493Y-77773916D01*
X155337174Y-77773000D01*
X155918826Y-77773000D01*
X155920558Y-77774000D01*
G37*
G36*
X153454084Y-77257493D02*
G01*
X153455000Y-77259174D01*
X153455000Y-77773000D01*
X153968826Y-77773000D01*
X153970558Y-77774000D01*
X153970558Y-77776000D01*
X153969022Y-77776990D01*
X153949712Y-77778891D01*
X153931327Y-77784469D01*
X153914386Y-77793524D01*
X153899537Y-77805710D01*
X153887351Y-77820559D01*
X153878296Y-77837500D01*
X153872718Y-77855885D01*
X153870836Y-77874999D01*
X153872723Y-77894163D01*
X153875060Y-77903489D01*
X153878478Y-77914758D01*
X153878554Y-77915143D01*
X153879990Y-77929721D01*
X153880000Y-77929917D01*
X153880000Y-77975000D01*
X153879000Y-77976732D01*
X153877000Y-77976732D01*
X153876010Y-77975196D01*
X153874109Y-77955886D01*
X153868531Y-77937501D01*
X153859476Y-77920559D01*
X153847290Y-77905710D01*
X153832441Y-77893524D01*
X153815499Y-77884469D01*
X153797114Y-77878891D01*
X153777906Y-77877000D01*
X153578094Y-77877000D01*
X153558886Y-77878891D01*
X153540501Y-77884469D01*
X153523559Y-77893524D01*
X153508710Y-77905710D01*
X153496524Y-77920559D01*
X153487469Y-77937501D01*
X153481891Y-77955886D01*
X153479990Y-77975196D01*
X153478825Y-77976822D01*
X153476835Y-77976626D01*
X153476000Y-77975000D01*
X153476000Y-77929917D01*
X153476010Y-77929721D01*
X153477446Y-77915143D01*
X153477522Y-77914758D01*
X153480924Y-77903542D01*
X153484691Y-77884602D01*
X153484692Y-77865397D01*
X153480943Y-77846554D01*
X153473593Y-77828808D01*
X153462921Y-77812835D01*
X153449339Y-77799253D01*
X153437333Y-77791231D01*
X153436680Y-77790511D01*
X153434475Y-77786386D01*
X153422290Y-77771537D01*
X153407441Y-77759351D01*
X153390500Y-77750296D01*
X153372115Y-77744718D01*
X153353001Y-77742836D01*
X153333837Y-77744723D01*
X153324511Y-77747060D01*
X153313242Y-77750478D01*
X153312857Y-77750554D01*
X153298279Y-77751990D01*
X153298083Y-77752000D01*
X153253000Y-77752000D01*
X153251268Y-77751000D01*
X153251268Y-77749000D01*
X153252804Y-77748010D01*
X153272114Y-77746109D01*
X153290499Y-77740531D01*
X153307441Y-77731476D01*
X153322290Y-77719290D01*
X153334476Y-77704441D01*
X153343531Y-77687499D01*
X153349109Y-77669114D01*
X153351000Y-77649906D01*
X153351000Y-77450094D01*
X153349109Y-77430886D01*
X153343531Y-77412501D01*
X153334476Y-77395559D01*
X153322290Y-77380710D01*
X153307441Y-77368524D01*
X153290499Y-77359469D01*
X153272114Y-77353891D01*
X153252804Y-77351990D01*
X153251178Y-77350825D01*
X153251374Y-77348835D01*
X153253000Y-77348000D01*
X153298083Y-77348000D01*
X153298279Y-77348010D01*
X153312857Y-77349446D01*
X153313242Y-77349522D01*
X153324457Y-77352924D01*
X153343398Y-77356691D01*
X153362603Y-77356692D01*
X153381446Y-77352943D01*
X153399192Y-77345593D01*
X153415165Y-77334921D01*
X153428747Y-77321339D01*
X153439419Y-77305367D01*
X153446770Y-77287621D01*
X153450527Y-77268731D01*
X153451002Y-77259076D01*
X153452086Y-77257395D01*
X153454084Y-77257493D01*
G37*
G36*
X157220558Y-77774000D02*
G01*
X157220558Y-77776000D01*
X157219022Y-77776990D01*
X157199712Y-77778891D01*
X157181327Y-77784469D01*
X157164386Y-77793524D01*
X157149537Y-77805710D01*
X157137351Y-77820559D01*
X157128296Y-77837500D01*
X157122718Y-77855885D01*
X157120836Y-77874999D01*
X157122723Y-77894163D01*
X157125060Y-77903489D01*
X157128478Y-77914758D01*
X157128554Y-77915143D01*
X157129990Y-77929721D01*
X157130000Y-77929917D01*
X157130000Y-77975000D01*
X157129000Y-77976732D01*
X157127000Y-77976732D01*
X157126010Y-77975196D01*
X157124109Y-77955886D01*
X157118531Y-77937501D01*
X157109476Y-77920559D01*
X157097290Y-77905710D01*
X157082441Y-77893524D01*
X157065499Y-77884469D01*
X157047114Y-77878891D01*
X157027906Y-77877000D01*
X156828094Y-77877000D01*
X156808886Y-77878891D01*
X156790501Y-77884469D01*
X156773559Y-77893524D01*
X156758710Y-77905710D01*
X156746524Y-77920559D01*
X156737469Y-77937501D01*
X156731891Y-77955886D01*
X156729990Y-77975196D01*
X156728825Y-77976822D01*
X156726835Y-77976626D01*
X156726000Y-77975000D01*
X156726000Y-77929917D01*
X156726010Y-77929721D01*
X156727446Y-77915143D01*
X156727522Y-77914758D01*
X156730924Y-77903542D01*
X156734691Y-77884602D01*
X156734692Y-77865397D01*
X156730943Y-77846554D01*
X156723593Y-77828808D01*
X156712921Y-77812835D01*
X156699339Y-77799253D01*
X156683367Y-77788581D01*
X156665621Y-77781230D01*
X156646731Y-77777473D01*
X156637076Y-77776998D01*
X156635395Y-77775914D01*
X156635493Y-77773916D01*
X156637174Y-77773000D01*
X157218826Y-77773000D01*
X157220558Y-77774000D01*
G37*
G36*
X155270558Y-77774000D02*
G01*
X155270558Y-77776000D01*
X155269022Y-77776990D01*
X155249712Y-77778891D01*
X155231327Y-77784469D01*
X155214386Y-77793524D01*
X155199537Y-77805710D01*
X155187351Y-77820559D01*
X155178296Y-77837500D01*
X155172718Y-77855885D01*
X155170836Y-77874999D01*
X155172723Y-77894163D01*
X155175060Y-77903489D01*
X155178478Y-77914758D01*
X155178554Y-77915143D01*
X155179990Y-77929721D01*
X155180000Y-77929917D01*
X155180000Y-77975000D01*
X155179000Y-77976732D01*
X155177000Y-77976732D01*
X155176010Y-77975196D01*
X155174109Y-77955886D01*
X155168531Y-77937501D01*
X155159476Y-77920559D01*
X155147290Y-77905710D01*
X155132441Y-77893524D01*
X155115499Y-77884469D01*
X155097114Y-77878891D01*
X155077906Y-77877000D01*
X154878094Y-77877000D01*
X154858886Y-77878891D01*
X154840501Y-77884469D01*
X154823559Y-77893524D01*
X154808710Y-77905710D01*
X154796524Y-77920559D01*
X154787469Y-77937501D01*
X154781891Y-77955886D01*
X154779990Y-77975196D01*
X154778825Y-77976822D01*
X154776835Y-77976626D01*
X154776000Y-77975000D01*
X154776000Y-77929917D01*
X154776010Y-77929721D01*
X154777446Y-77915143D01*
X154777522Y-77914758D01*
X154780924Y-77903542D01*
X154784691Y-77884602D01*
X154784692Y-77865397D01*
X154780943Y-77846554D01*
X154773593Y-77828808D01*
X154762921Y-77812835D01*
X154749339Y-77799253D01*
X154733367Y-77788581D01*
X154715621Y-77781230D01*
X154696731Y-77777473D01*
X154687076Y-77776998D01*
X154685395Y-77775914D01*
X154685493Y-77773916D01*
X154687174Y-77773000D01*
X155268826Y-77773000D01*
X155270558Y-77774000D01*
G37*
G36*
X171651732Y-77310000D02*
G01*
X171652000Y-77311000D01*
X171652000Y-77461000D01*
X171651000Y-77462732D01*
X171650000Y-77463000D01*
X169950000Y-77463000D01*
X169948268Y-77462000D01*
X169948000Y-77461000D01*
X169948000Y-77311000D01*
X169949000Y-77309268D01*
X169950000Y-77309000D01*
X171650000Y-77309000D01*
X171651732Y-77310000D01*
G37*
G36*
X163151732Y-77310000D02*
G01*
X163152000Y-77311000D01*
X163152000Y-77461000D01*
X163151000Y-77462732D01*
X163150000Y-77463000D01*
X161450000Y-77463000D01*
X161448268Y-77462000D01*
X161448000Y-77461000D01*
X161448000Y-77311000D01*
X161449000Y-77309268D01*
X161450000Y-77309000D01*
X163150000Y-77309000D01*
X163151732Y-77310000D01*
G37*
G36*
X157804990Y-76608978D02*
G01*
X157806891Y-76628288D01*
X157812469Y-76646673D01*
X157821524Y-76663614D01*
X157833710Y-76678463D01*
X157848559Y-76690649D01*
X157865500Y-76699704D01*
X157883885Y-76705282D01*
X157902999Y-76707164D01*
X157922163Y-76705277D01*
X157931489Y-76702940D01*
X157942758Y-76699522D01*
X157943143Y-76699446D01*
X157957721Y-76698010D01*
X157957917Y-76698000D01*
X158003000Y-76698000D01*
X158004732Y-76699000D01*
X158004732Y-76701000D01*
X158003196Y-76701990D01*
X157983886Y-76703891D01*
X157965501Y-76709469D01*
X157948559Y-76718524D01*
X157933710Y-76730710D01*
X157921524Y-76745559D01*
X157912469Y-76762501D01*
X157906891Y-76780886D01*
X157905000Y-76800094D01*
X157905000Y-76999906D01*
X157906891Y-77019114D01*
X157912469Y-77037499D01*
X157921524Y-77054441D01*
X157933710Y-77069290D01*
X157948559Y-77081476D01*
X157965501Y-77090531D01*
X157983886Y-77096109D01*
X158003196Y-77098010D01*
X158004822Y-77099175D01*
X158004626Y-77101165D01*
X158003000Y-77102000D01*
X157957917Y-77102000D01*
X157957721Y-77101990D01*
X157943143Y-77100554D01*
X157942758Y-77100478D01*
X157931543Y-77097076D01*
X157912602Y-77093309D01*
X157893397Y-77093308D01*
X157874554Y-77097057D01*
X157856808Y-77104407D01*
X157840835Y-77115079D01*
X157827253Y-77128661D01*
X157816581Y-77144633D01*
X157809230Y-77162379D01*
X157805473Y-77181269D01*
X157804998Y-77190924D01*
X157803914Y-77192605D01*
X157801916Y-77192507D01*
X157801000Y-77190826D01*
X157801000Y-76609174D01*
X157802000Y-76607442D01*
X157804000Y-76607442D01*
X157804990Y-76608978D01*
G37*
G36*
X153454084Y-76607493D02*
G01*
X153455000Y-76609174D01*
X153455000Y-77190826D01*
X153454000Y-77192558D01*
X153452000Y-77192558D01*
X153451010Y-77191022D01*
X153449109Y-77171712D01*
X153443531Y-77153327D01*
X153434476Y-77136386D01*
X153422290Y-77121537D01*
X153407441Y-77109351D01*
X153390500Y-77100296D01*
X153372115Y-77094718D01*
X153353001Y-77092836D01*
X153333837Y-77094723D01*
X153324511Y-77097060D01*
X153313242Y-77100478D01*
X153312857Y-77100554D01*
X153298279Y-77101990D01*
X153298083Y-77102000D01*
X153253000Y-77102000D01*
X153251268Y-77101000D01*
X153251268Y-77099000D01*
X153252804Y-77098010D01*
X153272114Y-77096109D01*
X153290499Y-77090531D01*
X153307441Y-77081476D01*
X153322290Y-77069290D01*
X153334476Y-77054441D01*
X153343531Y-77037499D01*
X153349109Y-77019114D01*
X153351000Y-76999906D01*
X153351000Y-76800094D01*
X153349109Y-76780886D01*
X153343531Y-76762501D01*
X153334476Y-76745559D01*
X153322290Y-76730710D01*
X153307441Y-76718524D01*
X153290499Y-76709469D01*
X153272114Y-76703891D01*
X153252804Y-76701990D01*
X153251178Y-76700825D01*
X153251374Y-76698835D01*
X153253000Y-76698000D01*
X153298083Y-76698000D01*
X153298279Y-76698010D01*
X153312857Y-76699446D01*
X153313242Y-76699522D01*
X153324457Y-76702924D01*
X153343398Y-76706691D01*
X153362603Y-76706692D01*
X153381446Y-76702943D01*
X153399192Y-76695593D01*
X153415165Y-76684921D01*
X153428747Y-76671339D01*
X153439419Y-76655367D01*
X153446770Y-76637621D01*
X153450527Y-76618731D01*
X153451002Y-76609076D01*
X153452086Y-76607395D01*
X153454084Y-76607493D01*
G37*
G36*
X163151732Y-76510000D02*
G01*
X163152000Y-76511000D01*
X163152000Y-76661000D01*
X163151000Y-76662732D01*
X163150000Y-76663000D01*
X161450000Y-76663000D01*
X161448268Y-76662000D01*
X161448000Y-76661000D01*
X161448000Y-76511000D01*
X161449000Y-76509268D01*
X161450000Y-76509000D01*
X163150000Y-76509000D01*
X163151732Y-76510000D01*
G37*
G36*
X171651732Y-76510000D02*
G01*
X171652000Y-76511000D01*
X171652000Y-76661000D01*
X171651000Y-76662732D01*
X171650000Y-76663000D01*
X169950000Y-76663000D01*
X169948268Y-76662000D01*
X169948000Y-76661000D01*
X169948000Y-76511000D01*
X169949000Y-76509268D01*
X169950000Y-76509000D01*
X171650000Y-76509000D01*
X171651732Y-76510000D01*
G37*
G36*
X157804990Y-75958978D02*
G01*
X157806891Y-75978288D01*
X157812469Y-75996673D01*
X157821524Y-76013614D01*
X157833710Y-76028463D01*
X157848559Y-76040649D01*
X157865500Y-76049704D01*
X157883885Y-76055282D01*
X157902999Y-76057164D01*
X157922163Y-76055277D01*
X157931489Y-76052940D01*
X157942758Y-76049522D01*
X157943143Y-76049446D01*
X157957721Y-76048010D01*
X157957917Y-76048000D01*
X158003000Y-76048000D01*
X158004732Y-76049000D01*
X158004732Y-76051000D01*
X158003196Y-76051990D01*
X157983886Y-76053891D01*
X157965501Y-76059469D01*
X157948559Y-76068524D01*
X157933710Y-76080710D01*
X157921524Y-76095559D01*
X157912469Y-76112501D01*
X157906891Y-76130886D01*
X157905000Y-76150094D01*
X157905000Y-76349906D01*
X157906891Y-76369114D01*
X157912469Y-76387499D01*
X157921524Y-76404441D01*
X157933710Y-76419290D01*
X157948559Y-76431476D01*
X157965501Y-76440531D01*
X157983886Y-76446109D01*
X158003196Y-76448010D01*
X158004822Y-76449175D01*
X158004626Y-76451165D01*
X158003000Y-76452000D01*
X157957917Y-76452000D01*
X157957721Y-76451990D01*
X157943143Y-76450554D01*
X157942758Y-76450478D01*
X157931543Y-76447076D01*
X157912602Y-76443309D01*
X157893397Y-76443308D01*
X157874554Y-76447057D01*
X157856808Y-76454407D01*
X157840835Y-76465079D01*
X157827253Y-76478661D01*
X157816581Y-76494633D01*
X157809230Y-76512379D01*
X157805473Y-76531269D01*
X157804998Y-76540924D01*
X157803914Y-76542605D01*
X157801916Y-76542507D01*
X157801000Y-76540826D01*
X157801000Y-75959174D01*
X157802000Y-75957442D01*
X157804000Y-75957442D01*
X157804990Y-75958978D01*
G37*
G36*
X153454084Y-75957493D02*
G01*
X153455000Y-75959174D01*
X153455000Y-76540826D01*
X153454000Y-76542558D01*
X153452000Y-76542558D01*
X153451010Y-76541022D01*
X153449109Y-76521712D01*
X153443531Y-76503327D01*
X153434476Y-76486386D01*
X153422290Y-76471537D01*
X153407441Y-76459351D01*
X153390500Y-76450296D01*
X153372115Y-76444718D01*
X153353001Y-76442836D01*
X153333837Y-76444723D01*
X153324511Y-76447060D01*
X153313242Y-76450478D01*
X153312857Y-76450554D01*
X153298279Y-76451990D01*
X153298083Y-76452000D01*
X153253000Y-76452000D01*
X153251268Y-76451000D01*
X153251268Y-76449000D01*
X153252804Y-76448010D01*
X153272114Y-76446109D01*
X153290499Y-76440531D01*
X153307441Y-76431476D01*
X153322290Y-76419290D01*
X153334476Y-76404441D01*
X153343531Y-76387499D01*
X153349109Y-76369114D01*
X153351000Y-76349906D01*
X153351000Y-76150094D01*
X153349109Y-76130886D01*
X153343531Y-76112501D01*
X153334476Y-76095559D01*
X153322290Y-76080710D01*
X153307441Y-76068524D01*
X153290499Y-76059469D01*
X153272114Y-76053891D01*
X153252804Y-76051990D01*
X153251178Y-76050825D01*
X153251374Y-76048835D01*
X153253000Y-76048000D01*
X153298083Y-76048000D01*
X153298279Y-76048010D01*
X153312857Y-76049446D01*
X153313242Y-76049522D01*
X153324457Y-76052924D01*
X153343398Y-76056691D01*
X153362603Y-76056692D01*
X153381446Y-76052943D01*
X153399192Y-76045593D01*
X153415165Y-76034921D01*
X153428747Y-76021339D01*
X153439419Y-76005367D01*
X153446770Y-75987621D01*
X153450527Y-75968731D01*
X153451002Y-75959076D01*
X153452086Y-75957395D01*
X153454084Y-75957493D01*
G37*
G36*
X157804990Y-75308978D02*
G01*
X157806891Y-75328288D01*
X157812469Y-75346673D01*
X157821524Y-75363614D01*
X157833710Y-75378463D01*
X157848559Y-75390649D01*
X157865500Y-75399704D01*
X157883885Y-75405282D01*
X157902999Y-75407164D01*
X157922163Y-75405277D01*
X157931489Y-75402940D01*
X157942758Y-75399522D01*
X157943143Y-75399446D01*
X157957721Y-75398010D01*
X157957917Y-75398000D01*
X158003000Y-75398000D01*
X158004732Y-75399000D01*
X158004732Y-75401000D01*
X158003196Y-75401990D01*
X157983886Y-75403891D01*
X157965501Y-75409469D01*
X157948559Y-75418524D01*
X157933710Y-75430710D01*
X157921524Y-75445559D01*
X157912469Y-75462501D01*
X157906891Y-75480886D01*
X157905000Y-75500094D01*
X157905000Y-75699906D01*
X157906891Y-75719114D01*
X157912469Y-75737499D01*
X157921524Y-75754441D01*
X157933710Y-75769290D01*
X157948559Y-75781476D01*
X157965501Y-75790531D01*
X157983886Y-75796109D01*
X158003196Y-75798010D01*
X158004822Y-75799175D01*
X158004626Y-75801165D01*
X158003000Y-75802000D01*
X157957917Y-75802000D01*
X157957721Y-75801990D01*
X157943143Y-75800554D01*
X157942758Y-75800478D01*
X157931543Y-75797076D01*
X157912602Y-75793309D01*
X157893397Y-75793308D01*
X157874554Y-75797057D01*
X157856808Y-75804407D01*
X157840835Y-75815079D01*
X157827253Y-75828661D01*
X157816581Y-75844633D01*
X157809230Y-75862379D01*
X157805473Y-75881269D01*
X157804998Y-75890924D01*
X157803914Y-75892605D01*
X157801916Y-75892507D01*
X157801000Y-75890826D01*
X157801000Y-75309174D01*
X157802000Y-75307442D01*
X157804000Y-75307442D01*
X157804990Y-75308978D01*
G37*
G36*
X153454084Y-75307493D02*
G01*
X153455000Y-75309174D01*
X153455000Y-75890826D01*
X153454000Y-75892558D01*
X153452000Y-75892558D01*
X153451010Y-75891022D01*
X153449109Y-75871712D01*
X153443531Y-75853327D01*
X153434476Y-75836386D01*
X153422290Y-75821537D01*
X153407441Y-75809351D01*
X153390500Y-75800296D01*
X153372115Y-75794718D01*
X153353001Y-75792836D01*
X153333837Y-75794723D01*
X153324511Y-75797060D01*
X153313242Y-75800478D01*
X153312857Y-75800554D01*
X153298279Y-75801990D01*
X153298083Y-75802000D01*
X153253000Y-75802000D01*
X153251268Y-75801000D01*
X153251268Y-75799000D01*
X153252804Y-75798010D01*
X153272114Y-75796109D01*
X153290499Y-75790531D01*
X153307441Y-75781476D01*
X153322290Y-75769290D01*
X153334476Y-75754441D01*
X153343531Y-75737499D01*
X153349109Y-75719114D01*
X153351000Y-75699906D01*
X153351000Y-75500094D01*
X153349109Y-75480886D01*
X153343531Y-75462501D01*
X153334476Y-75445559D01*
X153322290Y-75430710D01*
X153307441Y-75418524D01*
X153290499Y-75409469D01*
X153272114Y-75403891D01*
X153252804Y-75401990D01*
X153251178Y-75400825D01*
X153251374Y-75398835D01*
X153253000Y-75398000D01*
X153298083Y-75398000D01*
X153298279Y-75398010D01*
X153312857Y-75399446D01*
X153313242Y-75399522D01*
X153324457Y-75402924D01*
X153343398Y-75406691D01*
X153362603Y-75406692D01*
X153381446Y-75402943D01*
X153399192Y-75395593D01*
X153415165Y-75384921D01*
X153428747Y-75371339D01*
X153439419Y-75355367D01*
X153446770Y-75337621D01*
X153450527Y-75318731D01*
X153451002Y-75309076D01*
X153452086Y-75307395D01*
X153454084Y-75307493D01*
G37*
G36*
X163151732Y-75710000D02*
G01*
X163152000Y-75711000D01*
X163152000Y-75861000D01*
X163151000Y-75862732D01*
X163150000Y-75863000D01*
X161450000Y-75863000D01*
X161448268Y-75862000D01*
X161448000Y-75861000D01*
X161448000Y-75711000D01*
X161449000Y-75709268D01*
X161450000Y-75709000D01*
X163150000Y-75709000D01*
X163151732Y-75710000D01*
G37*
G36*
X171651732Y-75710000D02*
G01*
X171652000Y-75711000D01*
X171652000Y-75861000D01*
X171651000Y-75862732D01*
X171650000Y-75863000D01*
X169950000Y-75863000D01*
X169948268Y-75862000D01*
X169948000Y-75861000D01*
X169948000Y-75711000D01*
X169949000Y-75709268D01*
X169950000Y-75709000D01*
X171650000Y-75709000D01*
X171651732Y-75710000D01*
G37*
G36*
X157804990Y-74658978D02*
G01*
X157806891Y-74678288D01*
X157812469Y-74696673D01*
X157821524Y-74713614D01*
X157833710Y-74728463D01*
X157848559Y-74740649D01*
X157865500Y-74749704D01*
X157883885Y-74755282D01*
X157902999Y-74757164D01*
X157922163Y-74755277D01*
X157931489Y-74752940D01*
X157942758Y-74749522D01*
X157943143Y-74749446D01*
X157957721Y-74748010D01*
X157957917Y-74748000D01*
X158003000Y-74748000D01*
X158004732Y-74749000D01*
X158004732Y-74751000D01*
X158003196Y-74751990D01*
X157983886Y-74753891D01*
X157965501Y-74759469D01*
X157948559Y-74768524D01*
X157933710Y-74780710D01*
X157921524Y-74795559D01*
X157912469Y-74812501D01*
X157906891Y-74830886D01*
X157905000Y-74850094D01*
X157905000Y-75049906D01*
X157906891Y-75069114D01*
X157912469Y-75087499D01*
X157921524Y-75104441D01*
X157933710Y-75119290D01*
X157948559Y-75131476D01*
X157965501Y-75140531D01*
X157983886Y-75146109D01*
X158003196Y-75148010D01*
X158004822Y-75149175D01*
X158004626Y-75151165D01*
X158003000Y-75152000D01*
X157957917Y-75152000D01*
X157957721Y-75151990D01*
X157943143Y-75150554D01*
X157942758Y-75150478D01*
X157931543Y-75147076D01*
X157912602Y-75143309D01*
X157893397Y-75143308D01*
X157874554Y-75147057D01*
X157856808Y-75154407D01*
X157840835Y-75165079D01*
X157827253Y-75178661D01*
X157816581Y-75194633D01*
X157809230Y-75212379D01*
X157805473Y-75231269D01*
X157804998Y-75240924D01*
X157803914Y-75242605D01*
X157801916Y-75242507D01*
X157801000Y-75240826D01*
X157801000Y-74659174D01*
X157802000Y-74657442D01*
X157804000Y-74657442D01*
X157804990Y-74658978D01*
G37*
G36*
X153454084Y-74657493D02*
G01*
X153455000Y-74659174D01*
X153455000Y-75240826D01*
X153454000Y-75242558D01*
X153452000Y-75242558D01*
X153451010Y-75241022D01*
X153449109Y-75221712D01*
X153443531Y-75203327D01*
X153434476Y-75186386D01*
X153422290Y-75171537D01*
X153407441Y-75159351D01*
X153390500Y-75150296D01*
X153372115Y-75144718D01*
X153353001Y-75142836D01*
X153333837Y-75144723D01*
X153324511Y-75147060D01*
X153313242Y-75150478D01*
X153312857Y-75150554D01*
X153298279Y-75151990D01*
X153298083Y-75152000D01*
X153253000Y-75152000D01*
X153251268Y-75151000D01*
X153251268Y-75149000D01*
X153252804Y-75148010D01*
X153272114Y-75146109D01*
X153290499Y-75140531D01*
X153307441Y-75131476D01*
X153322290Y-75119290D01*
X153334476Y-75104441D01*
X153343531Y-75087499D01*
X153349109Y-75069114D01*
X153351000Y-75049906D01*
X153351000Y-74850094D01*
X153349109Y-74830886D01*
X153343531Y-74812501D01*
X153334476Y-74795559D01*
X153322290Y-74780710D01*
X153307441Y-74768524D01*
X153290499Y-74759469D01*
X153272114Y-74753891D01*
X153252804Y-74751990D01*
X153251178Y-74750825D01*
X153251374Y-74748835D01*
X153253000Y-74748000D01*
X153298083Y-74748000D01*
X153298279Y-74748010D01*
X153312857Y-74749446D01*
X153313242Y-74749522D01*
X153324457Y-74752924D01*
X153343398Y-74756691D01*
X153362603Y-74756692D01*
X153381446Y-74752943D01*
X153399192Y-74745593D01*
X153415165Y-74734921D01*
X153428747Y-74721339D01*
X153439419Y-74705367D01*
X153446770Y-74687621D01*
X153450527Y-74668731D01*
X153451002Y-74659076D01*
X153452086Y-74657395D01*
X153454084Y-74657493D01*
G37*
G36*
X171651732Y-74910000D02*
G01*
X171652000Y-74911000D01*
X171652000Y-75061000D01*
X171651000Y-75062732D01*
X171650000Y-75063000D01*
X169950000Y-75063000D01*
X169948268Y-75062000D01*
X169948000Y-75061000D01*
X169948000Y-74911000D01*
X169949000Y-74909268D01*
X169950000Y-74909000D01*
X171650000Y-74909000D01*
X171651732Y-74910000D01*
G37*
G36*
X163151732Y-74910000D02*
G01*
X163152000Y-74911000D01*
X163152000Y-75061000D01*
X163151000Y-75062732D01*
X163150000Y-75063000D01*
X161450000Y-75063000D01*
X161448268Y-75062000D01*
X161448000Y-75061000D01*
X161448000Y-74911000D01*
X161449000Y-74909268D01*
X161450000Y-74909000D01*
X163150000Y-74909000D01*
X163151732Y-74910000D01*
G37*
G36*
X157804990Y-74008978D02*
G01*
X157806891Y-74028288D01*
X157812469Y-74046673D01*
X157821524Y-74063614D01*
X157833710Y-74078463D01*
X157848559Y-74090649D01*
X157865500Y-74099704D01*
X157883885Y-74105282D01*
X157902999Y-74107164D01*
X157922163Y-74105277D01*
X157931489Y-74102940D01*
X157942758Y-74099522D01*
X157943143Y-74099446D01*
X157957721Y-74098010D01*
X157957917Y-74098000D01*
X158003000Y-74098000D01*
X158004732Y-74099000D01*
X158004732Y-74101000D01*
X158003196Y-74101990D01*
X157983886Y-74103891D01*
X157965501Y-74109469D01*
X157948559Y-74118524D01*
X157933710Y-74130710D01*
X157921524Y-74145559D01*
X157912469Y-74162501D01*
X157906891Y-74180886D01*
X157905000Y-74200094D01*
X157905000Y-74399906D01*
X157906891Y-74419114D01*
X157912469Y-74437499D01*
X157921524Y-74454441D01*
X157933710Y-74469290D01*
X157948559Y-74481476D01*
X157965501Y-74490531D01*
X157983886Y-74496109D01*
X158003196Y-74498010D01*
X158004822Y-74499175D01*
X158004626Y-74501165D01*
X158003000Y-74502000D01*
X157957917Y-74502000D01*
X157957721Y-74501990D01*
X157943143Y-74500554D01*
X157942758Y-74500478D01*
X157931543Y-74497076D01*
X157912602Y-74493309D01*
X157893397Y-74493308D01*
X157874554Y-74497057D01*
X157856808Y-74504407D01*
X157840835Y-74515079D01*
X157827253Y-74528661D01*
X157816581Y-74544633D01*
X157809230Y-74562379D01*
X157805473Y-74581269D01*
X157804998Y-74590924D01*
X157803914Y-74592605D01*
X157801916Y-74592507D01*
X157801000Y-74590826D01*
X157801000Y-74009174D01*
X157802000Y-74007442D01*
X157804000Y-74007442D01*
X157804990Y-74008978D01*
G37*
G36*
X153454084Y-74007493D02*
G01*
X153455000Y-74009174D01*
X153455000Y-74590826D01*
X153454000Y-74592558D01*
X153452000Y-74592558D01*
X153451010Y-74591022D01*
X153449109Y-74571712D01*
X153443531Y-74553327D01*
X153434476Y-74536386D01*
X153422290Y-74521537D01*
X153407441Y-74509351D01*
X153390500Y-74500296D01*
X153372115Y-74494718D01*
X153353001Y-74492836D01*
X153333837Y-74494723D01*
X153324511Y-74497060D01*
X153313242Y-74500478D01*
X153312857Y-74500554D01*
X153298279Y-74501990D01*
X153298083Y-74502000D01*
X153253000Y-74502000D01*
X153251268Y-74501000D01*
X153251268Y-74499000D01*
X153252804Y-74498010D01*
X153272114Y-74496109D01*
X153290499Y-74490531D01*
X153307441Y-74481476D01*
X153322290Y-74469290D01*
X153334476Y-74454441D01*
X153343531Y-74437499D01*
X153349109Y-74419114D01*
X153351000Y-74399906D01*
X153351000Y-74200094D01*
X153349109Y-74180886D01*
X153343531Y-74162501D01*
X153334476Y-74145559D01*
X153322290Y-74130710D01*
X153307441Y-74118524D01*
X153290499Y-74109469D01*
X153272114Y-74103891D01*
X153252804Y-74101990D01*
X153251178Y-74100825D01*
X153251374Y-74098835D01*
X153253000Y-74098000D01*
X153298083Y-74098000D01*
X153298279Y-74098010D01*
X153312857Y-74099446D01*
X153313242Y-74099522D01*
X153324457Y-74102924D01*
X153343398Y-74106691D01*
X153362603Y-74106692D01*
X153381446Y-74102943D01*
X153399192Y-74095593D01*
X153415165Y-74084921D01*
X153428747Y-74071339D01*
X153439419Y-74055367D01*
X153446770Y-74037621D01*
X153450527Y-74018731D01*
X153451002Y-74009076D01*
X153452086Y-74007395D01*
X153454084Y-74007493D01*
G37*
G36*
X164226732Y-72285000D02*
G01*
X164227000Y-72286000D01*
X164227000Y-73986000D01*
X164226000Y-73987732D01*
X164225000Y-73988000D01*
X164075000Y-73988000D01*
X164073268Y-73987000D01*
X164073000Y-73986000D01*
X164073000Y-72286000D01*
X164074000Y-72284268D01*
X164075000Y-72284000D01*
X164225000Y-72284000D01*
X164226732Y-72285000D01*
G37*
G36*
X169026732Y-72285000D02*
G01*
X169027000Y-72286000D01*
X169027000Y-73986000D01*
X169026000Y-73987732D01*
X169025000Y-73988000D01*
X168875000Y-73988000D01*
X168873268Y-73987000D01*
X168873000Y-73986000D01*
X168873000Y-72286000D01*
X168874000Y-72284268D01*
X168875000Y-72284000D01*
X169025000Y-72284000D01*
X169026732Y-72285000D01*
G37*
G36*
X167426732Y-72285000D02*
G01*
X167427000Y-72286000D01*
X167427000Y-73986000D01*
X167426000Y-73987732D01*
X167425000Y-73988000D01*
X167275000Y-73988000D01*
X167273268Y-73987000D01*
X167273000Y-73986000D01*
X167273000Y-72286000D01*
X167274000Y-72284268D01*
X167275000Y-72284000D01*
X167425000Y-72284000D01*
X167426732Y-72285000D01*
G37*
G36*
X165826732Y-72285000D02*
G01*
X165827000Y-72286000D01*
X165827000Y-73986000D01*
X165826000Y-73987732D01*
X165825000Y-73988000D01*
X165675000Y-73988000D01*
X165673268Y-73987000D01*
X165673000Y-73986000D01*
X165673000Y-72286000D01*
X165674000Y-72284268D01*
X165675000Y-72284000D01*
X165825000Y-72284000D01*
X165826732Y-72285000D01*
G37*
G36*
X165026732Y-72285000D02*
G01*
X165027000Y-72286000D01*
X165027000Y-73986000D01*
X165026000Y-73987732D01*
X165025000Y-73988000D01*
X164875000Y-73988000D01*
X164873268Y-73987000D01*
X164873000Y-73986000D01*
X164873000Y-72286000D01*
X164874000Y-72284268D01*
X164875000Y-72284000D01*
X165025000Y-72284000D01*
X165026732Y-72285000D01*
G37*
G36*
X168226732Y-72285000D02*
G01*
X168227000Y-72286000D01*
X168227000Y-73986000D01*
X168226000Y-73987732D01*
X168225000Y-73988000D01*
X168075000Y-73988000D01*
X168073268Y-73987000D01*
X168073000Y-73986000D01*
X168073000Y-72286000D01*
X168074000Y-72284268D01*
X168075000Y-72284000D01*
X168225000Y-72284000D01*
X168226732Y-72285000D01*
G37*
G36*
X166626732Y-72285000D02*
G01*
X166627000Y-72286000D01*
X166627000Y-73986000D01*
X166626000Y-73987732D01*
X166625000Y-73988000D01*
X166475000Y-73988000D01*
X166473268Y-73987000D01*
X166473000Y-73986000D01*
X166473000Y-72286000D01*
X166474000Y-72284268D01*
X166475000Y-72284000D01*
X166625000Y-72284000D01*
X166626732Y-72285000D01*
G37*
G36*
X157779165Y-73223374D02*
G01*
X157780000Y-73225000D01*
X157780000Y-73270083D01*
X157779990Y-73270279D01*
X157778554Y-73284857D01*
X157778478Y-73285242D01*
X157775076Y-73296457D01*
X157771309Y-73315398D01*
X157771308Y-73334603D01*
X157775057Y-73353446D01*
X157782407Y-73371192D01*
X157793079Y-73387165D01*
X157806661Y-73400747D01*
X157818667Y-73408769D01*
X157819320Y-73409489D01*
X157821525Y-73413614D01*
X157833710Y-73428463D01*
X157848559Y-73440649D01*
X157865500Y-73449704D01*
X157883885Y-73455282D01*
X157902999Y-73457164D01*
X157922163Y-73455277D01*
X157931489Y-73452940D01*
X157942758Y-73449522D01*
X157943143Y-73449446D01*
X157957721Y-73448010D01*
X157957917Y-73448000D01*
X158003000Y-73448000D01*
X158004732Y-73449000D01*
X158004732Y-73451000D01*
X158003196Y-73451990D01*
X157983886Y-73453891D01*
X157965501Y-73459469D01*
X157948559Y-73468524D01*
X157933710Y-73480710D01*
X157921524Y-73495559D01*
X157912469Y-73512501D01*
X157906891Y-73530886D01*
X157905000Y-73550094D01*
X157905000Y-73749906D01*
X157906891Y-73769114D01*
X157912469Y-73787499D01*
X157921524Y-73804441D01*
X157933710Y-73819290D01*
X157948559Y-73831476D01*
X157965501Y-73840531D01*
X157983886Y-73846109D01*
X158003196Y-73848010D01*
X158004822Y-73849175D01*
X158004626Y-73851165D01*
X158003000Y-73852000D01*
X157957917Y-73852000D01*
X157957721Y-73851990D01*
X157943143Y-73850554D01*
X157942758Y-73850478D01*
X157931543Y-73847076D01*
X157912602Y-73843309D01*
X157893397Y-73843308D01*
X157874554Y-73847057D01*
X157856808Y-73854407D01*
X157840835Y-73865079D01*
X157827253Y-73878661D01*
X157816581Y-73894633D01*
X157809230Y-73912379D01*
X157805473Y-73931269D01*
X157804998Y-73940924D01*
X157803914Y-73942605D01*
X157801916Y-73942507D01*
X157801000Y-73940826D01*
X157801000Y-73427000D01*
X157287174Y-73427000D01*
X157285442Y-73426000D01*
X157285442Y-73424000D01*
X157286978Y-73423010D01*
X157306288Y-73421109D01*
X157324673Y-73415531D01*
X157341614Y-73406476D01*
X157356463Y-73394290D01*
X157368649Y-73379441D01*
X157377704Y-73362500D01*
X157383282Y-73344115D01*
X157385164Y-73325000D01*
X157383277Y-73305837D01*
X157380940Y-73296511D01*
X157377522Y-73285242D01*
X157377446Y-73284857D01*
X157376010Y-73270279D01*
X157376000Y-73270083D01*
X157376000Y-73225000D01*
X157377000Y-73223268D01*
X157379000Y-73223268D01*
X157379990Y-73224804D01*
X157381891Y-73244114D01*
X157387469Y-73262499D01*
X157396524Y-73279441D01*
X157408710Y-73294290D01*
X157423559Y-73306476D01*
X157440501Y-73315531D01*
X157458886Y-73321109D01*
X157478094Y-73323000D01*
X157677906Y-73323000D01*
X157697114Y-73321109D01*
X157715499Y-73315531D01*
X157732441Y-73306476D01*
X157747290Y-73294290D01*
X157759476Y-73279441D01*
X157768531Y-73262499D01*
X157774109Y-73244114D01*
X157776010Y-73224804D01*
X157777175Y-73223178D01*
X157779165Y-73223374D01*
G37*
G36*
X153879165Y-73223374D02*
G01*
X153880000Y-73225000D01*
X153880000Y-73270083D01*
X153879990Y-73270279D01*
X153878554Y-73284857D01*
X153878478Y-73285242D01*
X153875076Y-73296457D01*
X153871309Y-73315398D01*
X153871308Y-73334603D01*
X153875057Y-73353446D01*
X153882407Y-73371192D01*
X153893079Y-73387165D01*
X153906661Y-73400747D01*
X153922633Y-73411419D01*
X153940379Y-73418770D01*
X153959269Y-73422527D01*
X153968924Y-73423002D01*
X153970605Y-73424086D01*
X153970507Y-73426084D01*
X153968826Y-73427000D01*
X153455000Y-73427000D01*
X153455000Y-73940826D01*
X153454000Y-73942558D01*
X153452000Y-73942558D01*
X153451010Y-73941022D01*
X153449109Y-73921712D01*
X153443531Y-73903327D01*
X153434476Y-73886386D01*
X153422290Y-73871537D01*
X153407441Y-73859351D01*
X153390500Y-73850296D01*
X153372115Y-73844718D01*
X153353001Y-73842836D01*
X153333837Y-73844723D01*
X153324511Y-73847060D01*
X153313242Y-73850478D01*
X153312857Y-73850554D01*
X153298279Y-73851990D01*
X153298083Y-73852000D01*
X153253000Y-73852000D01*
X153251268Y-73851000D01*
X153251268Y-73849000D01*
X153252804Y-73848010D01*
X153272114Y-73846109D01*
X153290499Y-73840531D01*
X153307441Y-73831476D01*
X153322290Y-73819290D01*
X153334476Y-73804441D01*
X153343531Y-73787499D01*
X153349109Y-73769114D01*
X153351000Y-73749906D01*
X153351000Y-73550094D01*
X153349109Y-73530886D01*
X153343531Y-73512501D01*
X153334476Y-73495559D01*
X153322290Y-73480710D01*
X153307441Y-73468524D01*
X153290499Y-73459469D01*
X153272114Y-73453891D01*
X153252804Y-73451990D01*
X153251178Y-73450825D01*
X153251374Y-73448835D01*
X153253000Y-73448000D01*
X153298083Y-73448000D01*
X153298279Y-73448010D01*
X153312857Y-73449446D01*
X153313242Y-73449522D01*
X153324457Y-73452924D01*
X153343398Y-73456691D01*
X153362603Y-73456692D01*
X153381446Y-73452943D01*
X153399192Y-73445593D01*
X153415165Y-73434921D01*
X153428747Y-73421339D01*
X153436769Y-73409333D01*
X153437489Y-73408680D01*
X153441614Y-73406475D01*
X153456463Y-73394290D01*
X153468649Y-73379441D01*
X153477704Y-73362500D01*
X153483282Y-73344115D01*
X153485164Y-73325000D01*
X153483277Y-73305837D01*
X153480940Y-73296511D01*
X153477522Y-73285242D01*
X153477446Y-73284857D01*
X153476010Y-73270279D01*
X153476000Y-73270083D01*
X153476000Y-73225000D01*
X153477000Y-73223268D01*
X153479000Y-73223268D01*
X153479990Y-73224804D01*
X153481891Y-73244114D01*
X153487469Y-73262499D01*
X153496524Y-73279441D01*
X153508710Y-73294290D01*
X153523559Y-73306476D01*
X153540501Y-73315531D01*
X153558886Y-73321109D01*
X153578094Y-73323000D01*
X153777906Y-73323000D01*
X153797114Y-73321109D01*
X153815499Y-73315531D01*
X153832441Y-73306476D01*
X153847290Y-73294290D01*
X153859476Y-73279441D01*
X153868531Y-73262499D01*
X153874109Y-73244114D01*
X153876010Y-73224804D01*
X153877175Y-73223178D01*
X153879165Y-73223374D01*
G37*
G36*
X155829165Y-73223374D02*
G01*
X155830000Y-73225000D01*
X155830000Y-73270083D01*
X155829990Y-73270279D01*
X155828554Y-73284857D01*
X155828478Y-73285242D01*
X155825076Y-73296457D01*
X155821309Y-73315398D01*
X155821308Y-73334603D01*
X155825057Y-73353446D01*
X155832407Y-73371192D01*
X155843079Y-73387165D01*
X155856661Y-73400747D01*
X155872633Y-73411419D01*
X155890379Y-73418770D01*
X155909269Y-73422527D01*
X155918924Y-73423002D01*
X155920605Y-73424086D01*
X155920507Y-73426084D01*
X155918826Y-73427000D01*
X154037174Y-73427000D01*
X154035442Y-73426000D01*
X154035442Y-73424000D01*
X154036978Y-73423010D01*
X154056288Y-73421109D01*
X154074673Y-73415531D01*
X154091614Y-73406476D01*
X154106463Y-73394290D01*
X154118649Y-73379441D01*
X154127704Y-73362500D01*
X154133282Y-73344115D01*
X154135164Y-73325000D01*
X154133277Y-73305837D01*
X154130940Y-73296511D01*
X154127522Y-73285242D01*
X154127446Y-73284857D01*
X154126010Y-73270279D01*
X154126000Y-73270083D01*
X154126000Y-73225000D01*
X154127000Y-73223268D01*
X154129000Y-73223268D01*
X154129990Y-73224804D01*
X154131891Y-73244114D01*
X154137469Y-73262499D01*
X154146524Y-73279441D01*
X154158710Y-73294290D01*
X154173559Y-73306476D01*
X154190501Y-73315531D01*
X154208886Y-73321109D01*
X154228094Y-73323000D01*
X154427906Y-73323000D01*
X154447114Y-73321109D01*
X154465499Y-73315531D01*
X154482441Y-73306476D01*
X154497290Y-73294290D01*
X154509476Y-73279441D01*
X154518531Y-73262499D01*
X154524109Y-73244114D01*
X154526010Y-73224804D01*
X154527175Y-73223178D01*
X154529165Y-73223374D01*
X154530000Y-73225000D01*
X154530000Y-73270083D01*
X154529990Y-73270279D01*
X154528554Y-73284857D01*
X154528478Y-73285242D01*
X154525076Y-73296457D01*
X154521309Y-73315398D01*
X154521308Y-73334603D01*
X154525057Y-73353446D01*
X154532407Y-73371192D01*
X154543079Y-73387165D01*
X154556661Y-73400747D01*
X154572633Y-73411419D01*
X154590379Y-73418770D01*
X154609269Y-73422527D01*
X154618883Y-73423000D01*
X154687080Y-73423000D01*
X154706288Y-73421109D01*
X154724673Y-73415531D01*
X154741614Y-73406476D01*
X154756463Y-73394290D01*
X154768649Y-73379441D01*
X154777704Y-73362500D01*
X154783282Y-73344115D01*
X154785164Y-73325000D01*
X154783277Y-73305837D01*
X154780940Y-73296511D01*
X154777522Y-73285242D01*
X154777446Y-73284857D01*
X154776010Y-73270279D01*
X154776000Y-73270083D01*
X154776000Y-73225000D01*
X154777000Y-73223268D01*
X154779000Y-73223268D01*
X154779990Y-73224804D01*
X154781891Y-73244114D01*
X154787469Y-73262499D01*
X154796524Y-73279441D01*
X154808710Y-73294290D01*
X154823559Y-73306476D01*
X154840501Y-73315531D01*
X154858886Y-73321109D01*
X154878094Y-73323000D01*
X155077906Y-73323000D01*
X155097114Y-73321109D01*
X155115499Y-73315531D01*
X155132441Y-73306476D01*
X155147290Y-73294290D01*
X155159476Y-73279441D01*
X155168531Y-73262499D01*
X155174109Y-73244114D01*
X155176010Y-73224804D01*
X155177175Y-73223178D01*
X155179165Y-73223374D01*
X155180000Y-73225000D01*
X155180000Y-73270083D01*
X155179990Y-73270279D01*
X155178554Y-73284857D01*
X155178478Y-73285242D01*
X155175076Y-73296457D01*
X155171309Y-73315398D01*
X155171308Y-73334603D01*
X155175057Y-73353446D01*
X155182407Y-73371192D01*
X155193079Y-73387165D01*
X155206661Y-73400747D01*
X155222633Y-73411419D01*
X155240379Y-73418770D01*
X155259269Y-73422527D01*
X155268883Y-73423000D01*
X155337080Y-73423000D01*
X155356288Y-73421109D01*
X155374673Y-73415531D01*
X155391614Y-73406476D01*
X155406463Y-73394290D01*
X155418649Y-73379441D01*
X155427704Y-73362500D01*
X155433282Y-73344115D01*
X155435164Y-73325000D01*
X155433277Y-73305837D01*
X155430940Y-73296511D01*
X155427522Y-73285242D01*
X155427446Y-73284857D01*
X155426010Y-73270279D01*
X155426000Y-73270083D01*
X155426000Y-73225000D01*
X155427000Y-73223268D01*
X155429000Y-73223268D01*
X155429990Y-73224804D01*
X155431891Y-73244114D01*
X155437469Y-73262499D01*
X155446524Y-73279441D01*
X155458710Y-73294290D01*
X155473559Y-73306476D01*
X155490501Y-73315531D01*
X155508886Y-73321109D01*
X155528094Y-73323000D01*
X155727906Y-73323000D01*
X155747114Y-73321109D01*
X155765499Y-73315531D01*
X155782441Y-73306476D01*
X155797290Y-73294290D01*
X155809476Y-73279441D01*
X155818531Y-73262499D01*
X155824109Y-73244114D01*
X155826010Y-73224804D01*
X155827175Y-73223178D01*
X155829165Y-73223374D01*
G37*
G36*
X156479165Y-73223374D02*
G01*
X156480000Y-73225000D01*
X156480000Y-73270083D01*
X156479990Y-73270279D01*
X156478554Y-73284857D01*
X156478478Y-73285242D01*
X156475076Y-73296457D01*
X156471309Y-73315398D01*
X156471308Y-73334603D01*
X156475057Y-73353446D01*
X156482407Y-73371192D01*
X156493079Y-73387165D01*
X156506661Y-73400747D01*
X156522633Y-73411419D01*
X156540379Y-73418770D01*
X156559269Y-73422527D01*
X156568924Y-73423002D01*
X156570605Y-73424086D01*
X156570507Y-73426084D01*
X156568826Y-73427000D01*
X155987174Y-73427000D01*
X155985442Y-73426000D01*
X155985442Y-73424000D01*
X155986978Y-73423010D01*
X156006288Y-73421109D01*
X156024673Y-73415531D01*
X156041614Y-73406476D01*
X156056463Y-73394290D01*
X156068649Y-73379441D01*
X156077704Y-73362500D01*
X156083282Y-73344115D01*
X156085164Y-73325000D01*
X156083277Y-73305837D01*
X156080940Y-73296511D01*
X156077522Y-73285242D01*
X156077446Y-73284857D01*
X156076010Y-73270279D01*
X156076000Y-73270083D01*
X156076000Y-73225000D01*
X156077000Y-73223268D01*
X156079000Y-73223268D01*
X156079990Y-73224804D01*
X156081891Y-73244114D01*
X156087469Y-73262499D01*
X156096524Y-73279441D01*
X156108710Y-73294290D01*
X156123559Y-73306476D01*
X156140501Y-73315531D01*
X156158886Y-73321109D01*
X156178094Y-73323000D01*
X156377906Y-73323000D01*
X156397114Y-73321109D01*
X156415499Y-73315531D01*
X156432441Y-73306476D01*
X156447290Y-73294290D01*
X156459476Y-73279441D01*
X156468531Y-73262499D01*
X156474109Y-73244114D01*
X156476010Y-73224804D01*
X156477175Y-73223178D01*
X156479165Y-73223374D01*
G37*
G36*
X157129165Y-73223374D02*
G01*
X157130000Y-73225000D01*
X157130000Y-73270083D01*
X157129990Y-73270279D01*
X157128554Y-73284857D01*
X157128478Y-73285242D01*
X157125076Y-73296457D01*
X157121309Y-73315398D01*
X157121308Y-73334603D01*
X157125057Y-73353446D01*
X157132407Y-73371192D01*
X157143079Y-73387165D01*
X157156661Y-73400747D01*
X157172633Y-73411419D01*
X157190379Y-73418770D01*
X157209269Y-73422527D01*
X157218924Y-73423002D01*
X157220605Y-73424086D01*
X157220507Y-73426084D01*
X157218826Y-73427000D01*
X156637174Y-73427000D01*
X156635442Y-73426000D01*
X156635442Y-73424000D01*
X156636978Y-73423010D01*
X156656288Y-73421109D01*
X156674673Y-73415531D01*
X156691614Y-73406476D01*
X156706463Y-73394290D01*
X156718649Y-73379441D01*
X156727704Y-73362500D01*
X156733282Y-73344115D01*
X156735164Y-73325000D01*
X156733277Y-73305837D01*
X156730940Y-73296511D01*
X156727522Y-73285242D01*
X156727446Y-73284857D01*
X156726010Y-73270279D01*
X156726000Y-73270083D01*
X156726000Y-73225000D01*
X156727000Y-73223268D01*
X156729000Y-73223268D01*
X156729990Y-73224804D01*
X156731891Y-73244114D01*
X156737469Y-73262499D01*
X156746524Y-73279441D01*
X156758710Y-73294290D01*
X156773559Y-73306476D01*
X156790501Y-73315531D01*
X156808886Y-73321109D01*
X156828094Y-73323000D01*
X157027906Y-73323000D01*
X157047114Y-73321109D01*
X157065499Y-73315531D01*
X157082441Y-73306476D01*
X157097290Y-73294290D01*
X157109476Y-73279441D01*
X157118531Y-73262499D01*
X157124109Y-73244114D01*
X157126010Y-73224804D01*
X157127175Y-73223178D01*
X157129165Y-73223374D01*
G37*
M02*
