M48
; DRILL file {KiCad (5.1.12)-1} date 01/11/22 22:34:20
; FORMAT={-:-/ absolute / metric / decimal}
; #@! TF.CreationDate,2022-01-11T22:34:20-08:00
; #@! TF.GenerationSoftware,Kicad,Pcbnew,(5.1.12)-1
; #@! TF.FileFunction,Plated,1,2,PTH
FMAT,2
METRIC
T1C0.350
T2C0.400
T3C0.750
T4C1.000
%
G90
G05
T1
X150.0Y-78.6
X150.0Y-86.25
X152.6Y-71.8
X152.8Y-80.0
X153.0Y-86.6
X156.3Y-71.45
X157.578Y-79.622
X159.351Y-84.81
X159.6Y-75.625
X159.7Y-77.7
X159.713Y-78.713
X160.5Y-75.5
X160.6Y-72.8
X161.4Y-85.6
X162.2Y-68.2
X162.2Y-81.2
X162.376Y-83.376
X162.8Y-81.8
X163.8Y-84.2
X164.4Y-75.2
X166.4Y-84.0
X167.6Y-84.0
X167.75Y-80.2
X168.2Y-79.4
X168.5Y-92.25
X168.6Y-78.6
X169.2Y-76.6
X169.2Y-77.8
X170.25Y-92.25
T2
X142.0Y-70.5
X150.25Y-73.25
X165.25Y-83.75
T3
X165.0Y-68.5
X167.0Y-68.5
X169.0Y-68.5
X171.0Y-68.5
X173.0Y-68.5
X175.0Y-68.5
T4
X143.17Y-68.25
X145.71Y-68.25
X148.25Y-68.25
X174.0Y-74.0
X174.0Y-76.54
X174.0Y-79.08
X176.25Y-85.25
X176.25Y-87.79
X176.25Y-90.33
X176.25Y-92.87
X176.25Y-95.41
X176.25Y-97.95
X176.54Y-74.0
X176.54Y-76.54
X176.54Y-79.08
T4
X144.75Y-92.0G85X144.75Y-94.0
G05
X146.75Y-97.7G85X148.75Y-97.7
G05
X150.75Y-92.0G85X150.75Y-94.0
G05
T0
M30
